<?xml version="1.0" encoding="utf-8"?>
<!-- Generator: Adobe Illustrator 16.1.0, SVG Export Plug-In . SVG Version: 6.00 Build 0)  -->
<!DOCTYPE svg PUBLIC "-//W3C//DTD SVG 1.1//EN" "http://www.w3.org/Graphics/SVG/1.1/DTD/svg11.dtd">
<svg version="1.1" xmlns="http://www.w3.org/2000/svg" xmlns:xlink="http://www.w3.org/1999/xlink" x="0px" y="0px" width="198px"
	 height="270px" viewBox="0 0 198 270" enable-background="new 0 0 198 270" xml:space="preserve">
<g id="TGC_x5F_Poker_x5F_Template" display="none">
	<g display="inline">
		<rect y="0.188" fill="#919396" width="198" height="270"/>
		<g>
			<defs>
				<rect id="SVGID_25_" y="0.188" width="198" height="270"/>
			</defs>
			<clipPath id="SVGID_2_">
				<use xlink:href="#SVGID_25_"  overflow="visible"/>
			</clipPath>
			<path clip-path="url(#SVGID_2_)" fill="#FFFFFF" d="M189.041,257.269c0,2.211-1.791,4-4,4H13.04c-2.21,0-4-1.789-4-4v-244
				c0-2.209,1.79-4,4-4h172.001c2.209,0,4,1.791,4,4V257.269z"/>
			<path clip-path="url(#SVGID_2_)" fill="none" stroke="#EA222A" d="M189.041,257.269c0,2.211-1.791,4-4,4H13.04
				c-2.21,0-4-1.789-4-4v-244c0-2.209,1.79-4,4-4h172.001c2.209,0,4,1.791,4,4V257.269z"/>
			<path clip-path="url(#SVGID_2_)" fill="none" stroke="#2BA4DD" stroke-dasharray="1.44,1.44" d="M179.534,248.362
				c0,2.155-1.714,3.899-3.828,3.899H21.622c-2.114,0-3.828-1.744-3.828-3.899V22.174c0-2.153,1.714-3.899,3.828-3.899h154.084
				c2.114,0,3.828,1.746,3.828,3.899V248.362z"/>
			<rect x="20.001" y="20.114" clip-path="url(#SVGID_2_)" fill="#E7E6E6" width="157" height="54.333"/>
			<rect x="20.002" y="233.277" clip-path="url(#SVGID_2_)" fill="#E7E6E6" width="157" height="16.244"/>
		</g>
		<text transform="matrix(-1 0 0 -1 63.9414 223.1768)"><tspan x="0" y="0" fill="#231F20" font-family="'Arial-Black'" font-size="6">Sa</tspan><tspan x="8.335" y="0" fill="#231F20" font-family="'Arial-Black'" font-size="6">f</tspan><tspan x="10.568" y="0" fill="#231F20" font-family="'Arial-Black'" font-size="6">e Zone</tspan></text>
		<text transform="matrix(-1 0 0 -1 172.3916 216.5762)"><tspan x="0" y="0" fill="#2BA4DD" font-family="'Arial-BoldMT'" font-size="6">DO NOT place</tspan><tspan x="40.342" y="0" fill="#2BA4DD" font-family="'Arial-BoldMT'" font-size="6"> </tspan><tspan x="41.793" y="0" fill="#2BA4DD" font-family="'Arial-BoldMT'" font-size="6">AN</tspan><tspan x="50.459" y="0" fill="#2BA4DD" font-family="'Arial-BoldMT'" font-size="6">Y</tspan><tspan x="54.359" y="0" fill="#2BA4DD" font-family="'Arial-BoldMT'" font-size="6"> important text/images beyond</tspan></text>
		<text transform="matrix(-1 0 0 -1 159.4736 209.9766)"><tspan x="0" y="0" fill="#2BA4DD" font-family="'Arial-BoldMT'" font-size="6">this dotted line.</tspan><tspan x="44.332" y="0" fill="#2BA4DD" font-family="'Arial-BoldMT'" font-size="6"> </tspan><tspan x="45.783" y="0" fill="#2BA4DD" font-family="'Arial-BoldMT'" font-size="6">Anything past the dotted line</tspan></text>
		<text transform="matrix(-1 0 0 -1 165.7197 203.377)" fill="#2BA4DD" font-family="'Arial-BoldMT'" font-size="6">has the potential for being trimmed. This line is</text>
		<text transform="matrix(-1 0 0 -1 172.7217 196.7773)" fill="#2BA4DD" font-family="'Arial-BoldMT'" font-size="6">provided to prevent trimming of your text/images.</text>
		<text transform="matrix(-1 0 0 -1 61.7754 183.5762)"><tspan x="0" y="0" fill="#231F20" font-family="'Arial-Black'" font-size="6">T</tspan><tspan x="4.075" y="0" fill="#231F20" font-family="'Arial-Black'" font-size="6">rim Line</tspan></text>
		<text transform="matrix(-1 0 0 -1 159.3896 176.9766)" fill="#EA222A" font-family="'Arial-BoldMT'" font-size="6">This is the actual cutline of your final design.</text>
		<text transform="matrix(-1 0 0 -1 68.0449 163.7773)" fill="#231F20" font-family="'Arial-Black'" font-size="6">Bleed Zone</text>
		<text transform="matrix(-1 0 0 -1 152.3994 157.1768)" fill="#919396" font-family="'Arial-BoldMT'" font-size="6">Extend any card artwork/color to the edge </text>
		<text transform="matrix(-1 0 0 -1 162.7197 150.5762)" fill="#919396" font-family="'Arial-BoldMT'" font-size="6">(covering the gray) if you want your design to </text>
		<text transform="matrix(-1 0 0 -1 173.6094 143.9766)"><tspan x="0" y="0" fill="#919396" font-family="'Arial-BoldMT'" font-size="6">extend to the edge on the final print. </tspan><tspan x="105.003" y="0" fill="#919396" font-family="'Arial-BoldMT'" font-size="6">W</tspan><tspan x="110.564" y="0" fill="#919396" font-family="'Arial-BoldMT'" font-size="6">e require a </tspan></text>
		<text transform="matrix(-1 0 0 -1 172.0791 137.377)" fill="#919396" font-family="'Arial-BoldMT'" font-size="6">bleed of 1/8”. Please use the Safe Zone guideline </text>
		<text transform="matrix(-1 0 0 -1 161.7354 130.7764)" fill="#919396" font-family="'Arial-BoldMT'" font-size="6">  to prevent trimming of essential text/images.</text>
		<text transform="matrix(-1 0 0 -1 158.0693 124.1768)" fill="#919396" font-family="'Arial-BoldMT'" font-size="6">The bleed is to make sure your design/color </text>
		<text transform="matrix(-1 0 0 -1 121.3853 117.5771)" fill="#919396" font-family="'Arial-BoldMT'" font-size="6">extends to the edge of the card.</text>
		<text transform="matrix(-1 0 0 -1 70.6191 104.377)"><tspan x="0" y="0" fill="#231F20" font-family="'Arial-Black'" font-size="6">Bo</tspan><tspan x="8.669" y="0" fill="#231F20" font-family="'Arial-Black'" font-size="6">r</tspan><tspan x="11.482" y="0" fill="#231F20" font-family="'Arial-Black'" font-size="6">der A</tspan><tspan x="28.817" y="0" fill="#231F20" font-family="'Arial-Black'" font-size="6">r</tspan><tspan x="31.576" y="0" fill="#231F20" font-family="'Arial-Black'" font-size="6">ea</tspan></text>
		<text transform="matrix(-1 0 0 -1 152.3936 97.7764)" fill="#F9A51B" font-family="'Arial-BoldMT'" font-size="6">This is the minimum recommended border</text>
		<text transform="matrix(-1 0 0 -1 153.7256 91.1768)" fill="#F9A51B" font-family="'Arial-BoldMT'" font-size="6">area. If you want a border around the edge </text>
		<text transform="matrix(-1 0 0 -1 141.7139 84.5771)" fill="#F9A51B" font-family="'Arial-BoldMT'" font-size="6">of your card, you will want it to extend </text>
		<text transform="matrix(-1 0 0 -1 166.7158 77.9766)" fill="#F9A51B" font-family="'Arial-BoldMT'" font-size="6">the width of this guide on each side of the card.</text>
		<text transform="matrix(-1 0 0 -1 174.8271 243.4189)"><tspan x="0" y="0" fill="#231F20" font-family="'Arial-BoldMT'" font-size="7">2.5” x 3.5” POKER CARD TEMPL</tspan><tspan x="108.913" y="0" fill="#231F20" font-family="'Arial-BoldMT'" font-size="7">A</tspan><tspan x="113.451" y="0" fill="#231F20" font-family="'Arial-BoldMT'" font-size="7">TES</tspan></text>
		<text transform="matrix(-1 0 0 -1 174.8271 235.418)"><tspan x="0" y="0" fill="#231F20" font-family="'Arial-BoldMT'" font-size="7">ww</tspan><tspan x="11.59" y="0" fill="#231F20" font-family="'Arial-BoldMT'" font-size="7">w</tspan><tspan x="17.125" y="0" fill="#231F20" font-family="'Arial-BoldMT'" font-size="7">.</tspan><tspan x="19.42" y="0" fill="#231F20" font-family="'Arial-BoldMT'" font-size="7">t</tspan><tspan x="22.094" y="0" fill="#231F20" font-family="'Arial-BoldMT'" font-size="7">h</tspan><tspan x="26.721" y="0" fill="#231F20" font-family="'Arial-BoldMT'" font-size="7">e</tspan><tspan x="30.956" y="0" fill="#231F20" font-family="'Arial-BoldMT'" font-size="7">g</tspan><tspan x="35.582" y="0" fill="#231F20" font-family="'Arial-BoldMT'" font-size="7">amecrafte</tspan><tspan x="71.745" y="0" fill="#231F20" font-family="'Arial-BoldMT'" font-size="7">r</tspan><tspan x="74.434" y="0" fill="#231F20" font-family="'Arial-BoldMT'" font-size="7">.</tspan><tspan x="76.729" y="0" fill="#231F20" font-family="'Arial-BoldMT'" font-size="7">c</tspan><tspan x="80.965" y="0" fill="#231F20" font-family="'Arial-BoldMT'" font-size="7">o</tspan><tspan x="85.591" y="0" fill="#231F20" font-family="'Arial-BoldMT'" font-size="7">m</tspan></text>
		<g>
			<defs>
				<rect id="SVGID_27_" y="0.188" width="198" height="270"/>
			</defs>
			<clipPath id="SVGID_4_">
				<use xlink:href="#SVGID_27_"  overflow="visible"/>
			</clipPath>
			<rect y="77.416" clip-path="url(#SVGID_4_)" fill="#F9A51B" width="27.001" height="26.085"/>
			<line clip-path="url(#SVGID_4_)" fill="none" stroke="#F9A51B" x1="70.286" y1="103.002" x2="6.007" y2="103.002"/>
			<line clip-path="url(#SVGID_4_)" fill="none" stroke="#EA222A" x1="61.251" y1="182.427" x2="8.78" y2="182.427"/>
			<line clip-path="url(#SVGID_4_)" fill="none" stroke="#919396" x1="67.751" y1="162.509" x2="5.251" y2="162.509"/>
			
				<line clip-path="url(#SVGID_4_)" fill="none" stroke="#2BA4DD" stroke-dasharray="1.44,1.44" x1="63.53" y1="222.177" x2="18" y2="222.177"/>
			<path clip-path="url(#SVGID_4_)" fill="#EA222A" d="M63.519,229.111c0-0.411,0.188-0.812,0.559-1.202l0.059-0.06l3.259-3.432
				c0.692-0.729,1.282-1.289,1.77-1.688c0.486-0.398,0.83-0.598,1.03-0.598c0.211,0,0.473,0.101,0.786,0.299
				c0.312,0.199,0.516,0.404,0.606,0.615c0.078,0.176,0.15,0.547,0.219,1.117c0.068,0.569,0.103,1.188,0.103,1.852
				c0,0.363-0.151,0.697-0.452,1.005c-0.304,0.308-0.638,0.461-1.003,0.461c-0.349,0-0.556-0.318-0.621-0.954
				c-0.009-0.074-0.014-0.129-0.018-0.164c-0.056-0.488-0.121-0.829-0.193-1.023c-0.075-0.192-0.176-0.289-0.302-0.289
				c-0.053,0-0.151,0.057-0.296,0.17c-0.144,0.115-0.316,0.271-0.517,0.468l-3.349,3.317c-0.281,0.28-0.532,0.494-0.754,0.637
				c-0.222,0.146-0.408,0.217-0.564,0.217c-0.116,0-0.198-0.044-0.248-0.131c-0.049-0.088-0.073-0.236-0.073-0.443V229.111z"/>
			<path clip-path="url(#SVGID_4_)" fill="#EA222A" d="M62.304,190.136c0-0.411,0.187-0.813,0.559-1.202l0.059-0.059l3.259-3.432
				c0.692-0.729,1.282-1.291,1.769-1.688c0.487-0.397,0.831-0.597,1.031-0.597c0.211,0,0.473,0.1,0.786,0.299
				c0.312,0.199,0.515,0.404,0.606,0.615c0.077,0.174,0.15,0.547,0.219,1.117c0.068,0.569,0.103,1.186,0.103,1.85
				c0,0.363-0.151,0.699-0.453,1.006c-0.303,0.308-0.637,0.461-1.002,0.461c-0.349,0-0.556-0.317-0.621-0.954
				c-0.009-0.074-0.014-0.128-0.018-0.164c-0.056-0.487-0.121-0.829-0.194-1.022c-0.074-0.193-0.175-0.291-0.301-0.291
				c-0.053,0-0.151,0.058-0.296,0.172c-0.144,0.115-0.316,0.27-0.517,0.468l-3.349,3.317c-0.281,0.28-0.532,0.492-0.754,0.637
				s-0.409,0.217-0.564,0.217c-0.116,0-0.198-0.045-0.248-0.132c-0.049-0.089-0.073-0.236-0.073-0.443V190.136z"/>
			<path clip-path="url(#SVGID_4_)" fill="#EA222A" d="M67.804,170.735c0-0.411,0.187-0.813,0.559-1.202l0.059-0.059l3.259-3.432
				c0.692-0.729,1.282-1.291,1.769-1.688c0.487-0.397,0.831-0.597,1.031-0.597c0.211,0,0.473,0.1,0.786,0.299
				c0.312,0.199,0.515,0.404,0.606,0.615c0.077,0.174,0.15,0.547,0.219,1.117c0.068,0.569,0.103,1.187,0.103,1.85
				c0,0.363-0.151,0.699-0.453,1.006c-0.303,0.308-0.637,0.461-1.002,0.461c-0.349,0-0.556-0.318-0.621-0.954
				c-0.009-0.074-0.014-0.128-0.018-0.164c-0.056-0.487-0.121-0.829-0.194-1.022c-0.074-0.193-0.175-0.291-0.301-0.291
				c-0.053,0-0.151,0.058-0.296,0.172c-0.144,0.115-0.316,0.27-0.517,0.468l-3.349,3.317c-0.281,0.281-0.532,0.492-0.754,0.638
				c-0.222,0.144-0.409,0.216-0.564,0.216c-0.116,0-0.198-0.045-0.248-0.132c-0.049-0.089-0.073-0.236-0.073-0.443V170.735z"/>
			<path clip-path="url(#SVGID_4_)" fill="#EA222A" d="M70.519,110.136c0-0.412,0.188-0.813,0.559-1.203l0.059-0.06l3.259-3.432
				c0.692-0.728,1.282-1.29,1.77-1.688c0.486-0.398,0.83-0.596,1.03-0.596c0.211,0,0.473,0.101,0.786,0.298
				c0.312,0.199,0.516,0.403,0.606,0.614c0.078,0.176,0.15,0.549,0.219,1.117c0.068,0.57,0.103,1.188,0.103,1.853
				c0,0.361-0.151,0.697-0.452,1.003c-0.304,0.31-0.638,0.462-1.003,0.462c-0.349,0-0.556-0.317-0.621-0.954
				c-0.009-0.074-0.014-0.128-0.018-0.164c-0.056-0.487-0.121-0.829-0.193-1.023c-0.075-0.192-0.176-0.289-0.302-0.289
				c-0.053,0-0.151,0.057-0.296,0.173c-0.144,0.112-0.316,0.27-0.517,0.465l-3.349,3.318c-0.281,0.281-0.532,0.494-0.754,0.637
				c-0.222,0.145-0.408,0.216-0.564,0.216c-0.116,0-0.198-0.042-0.248-0.13c-0.049-0.088-0.073-0.236-0.073-0.443V110.136z"/>
		</g>
		<text transform="matrix(-1 0 0 -1 80.4199 63.1895)"><tspan x="0" y="0" fill="#231F20" font-family="'Arial-Black'" font-size="6">PLEASE N</tspan><tspan x="33" y="0" fill="#231F20" font-family="'Arial-Black'" font-size="6">O</tspan><tspan x="37.842" y="0" fill="#231F20" font-family="'Arial-Black'" font-size="6">TE:</tspan></text>
		<text transform="matrix(-1 0 0 -1 115.3037 55.9893)"><tspan x="0" y="0" fill="#231F20" font-family="'Arial-Black'" font-size="6">R</tspan><tspan x="4.523" y="0" fill="#231F20" font-family="'Arial-Black'" font-size="6">em</tspan><tspan x="14.525" y="0" fill="#231F20" font-family="'Arial-Black'" font-size="6">o</tspan><tspan x="18.329" y="0" fill="#231F20" font-family="'Arial-Black'" font-size="6">v</tspan><tspan x="21.844" y="0" fill="#231F20" font-family="'Arial-Black'" font-size="6">e this la</tspan><tspan x="48.176" y="0" fill="#231F20" font-family="'Arial-Black'" font-size="6">y</tspan><tspan x="51.745" y="0" fill="#231F20" font-family="'Arial-Black'" font-size="6">er be</tspan><tspan x="68.415" y="0" fill="#231F20" font-family="'Arial-Black'" font-size="6">f</tspan><tspan x="70.647" y="0" fill="#231F20" font-family="'Arial-Black'" font-size="6">o</tspan><tspan x="74.649" y="0" fill="#231F20" font-family="'Arial-Black'" font-size="6">r</tspan><tspan x="77.409" y="0" fill="#231F20" font-family="'Arial-Black'" font-size="6">e </tspan></text>
		<text transform="matrix(-1 0 0 -1 112.5859 48.7891)" fill="#231F20" font-family="'Arial-Black'" font-size="6">sending the file to print. </text>
		<text transform="matrix(-1 0 0 -1 119.8701 41.5898)"><tspan x="0" y="0" fill="#231F20" font-family="'Arial-Black'" font-size="6">T</tspan><tspan x="4.489" y="0" fill="#231F20" font-family="'Arial-Black'" font-size="6">his la</tspan><tspan x="22.155" y="0" fill="#231F20" font-family="'Arial-Black'" font-size="6">y</tspan><tspan x="25.724" y="0" fill="#231F20" font-family="'Arial-Black'" font-size="6">er is p</tspan><tspan x="46.056" y="0" fill="#231F20" font-family="'Arial-Black'" font-size="6">r</tspan><tspan x="48.815" y="0" fill="#231F20" font-family="'Arial-Black'" font-size="6">o</tspan><tspan x="52.619" y="0" fill="#231F20" font-family="'Arial-Black'" font-size="6">vided as a </tspan></text>
		<text transform="matrix(-1 0 0 -1 87.0557 34.3896)"><tspan x="0" y="0" fill="#231F20" font-family="'Arial-Black'" font-size="6">guide </tspan><tspan x="20.007" y="0" fill="#231F20" font-family="'Arial-Black'" font-size="6">f</tspan><tspan x="22.24" y="0" fill="#231F20" font-family="'Arial-Black'" font-size="6">or set u</tspan><tspan x="47.239" y="0" fill="#231F20" font-family="'Arial-Black'" font-size="6">p</tspan><tspan x="51.145" y="0" fill="#231F20" font-family="'Arial-Black'" font-size="6">. </tspan></text>
		<text transform="matrix(-1 0 0 -1 123.416 27.1895)"><tspan x="0" y="0" fill="#231F20" font-family="'Arial-Black'" font-size="6">DELETE L</tspan><tspan x="32.004" y="0" fill="#231F20" font-family="'Arial-Black'" font-size="6">A</tspan><tspan x="36.167" y="0" fill="#231F20" font-family="'Arial-Black'" font-size="6">YER AFTER USE.</tspan></text>
		<g>
			<defs>
				<rect id="SVGID_29_" y="0.188" width="198" height="270"/>
			</defs>
			<clipPath id="SVGID_6_">
				<use xlink:href="#SVGID_29_"  overflow="visible"/>
			</clipPath>
			<path clip-path="url(#SVGID_6_)" fill="#EA222A" d="M80.611,68.881c0-0.41,0.187-0.812,0.559-1.201l0.059-0.059l3.259-3.434
				c0.692-0.727,1.282-1.289,1.769-1.688c0.487-0.396,0.831-0.595,1.031-0.595c0.211,0,0.473,0.099,0.786,0.298
				c0.312,0.198,0.515,0.403,0.606,0.613c0.077,0.177,0.15,0.55,0.219,1.12c0.067,0.567,0.103,1.185,0.103,1.849
				c0,0.364-0.151,0.697-0.453,1.006c-0.303,0.307-0.637,0.461-1.002,0.461c-0.349,0-0.556-0.317-0.622-0.955
				c-0.008-0.072-0.013-0.128-0.017-0.163c-0.056-0.489-0.121-0.829-0.194-1.021c-0.074-0.194-0.175-0.291-0.301-0.291
				c-0.053,0-0.151,0.058-0.296,0.171c-0.144,0.115-0.317,0.27-0.517,0.467l-3.349,3.318c-0.281,0.279-0.532,0.493-0.754,0.637
				c-0.222,0.145-0.409,0.218-0.564,0.218c-0.116,0-0.198-0.046-0.248-0.133c-0.049-0.089-0.073-0.236-0.073-0.444V68.881z"/>
			<path clip-path="url(#SVGID_6_)" fill-rule="evenodd" clip-rule="evenodd" d="M126.42,47.806
				c0-13.244,10.736-23.979,23.979-23.979c13.244,0,23.981,10.734,23.981,23.979c0,13.245-10.737,23.981-23.981,23.981
				C137.156,71.787,126.42,61.051,126.42,47.806"/>
			<path clip-path="url(#SVGID_6_)" fill-rule="evenodd" clip-rule="evenodd" fill="#B7D333" d="M128.583,47.674
				c0-12.04,9.76-21.801,21.8-21.801s21.801,9.761,21.801,21.801c0,12.041-9.761,21.801-21.801,21.801
				S128.583,59.715,128.583,47.674"/>
			<path clip-path="url(#SVGID_6_)" d="M155.051,52.427c0.303-2.671,0.527-4.818,0.678-6.438l0.993-0.044
				c-0.015,0.054-0.022,0.115-0.024,0.183c0,0.121,0.043,0.281,0.135,0.479c0.092,0.197,0.144,0.323,0.156,0.377
				c0.256-0.036,0.504-0.216,0.738-0.533c0.236-0.321,0.449-0.481,0.637-0.479c0.108,0.005,0.23,0.033,0.365,0.088
				c0.176-0.118,0.407-0.169,0.691-0.151c0.256,0.046,0.506,0.083,0.748,0.114c0.009,0.341,0.341,0.635,0.999,0.89
				c-0.003,0.136,0.065,0.336,0.202,0.603c0.139,0.266,0.205,0.452,0.203,0.561c0,0.122-0.049,0.222-0.146,0.302
				c0.014,0.04,0.125,0.293,0.332,0.757c0.143,0.341,0.212,0.632,0.209,0.874c-0.004,0.189-0.047,0.364-0.132,0.525
				c0.116,1.151,0.167,2.14,0.153,2.963c-0.021,1.271-0.203,2.438-0.547,3.501c0.024,0.163,0.035,0.325,0.033,0.486
				c-0.016,0.852-0.31,1.441-0.882,1.771l-0.005,0.263c-0.566,0.723-1.311,1.242-2.236,1.564c-0.554-0.132-1.105-0.255-1.656-0.374
				c-0.619-0.212-1.045-0.578-1.279-1.095c-0.188-0.113-0.279-0.338-0.273-0.674c0.006-0.38-0.037-0.624-0.129-0.733l0.104-0.119
				c-0.108-0.8-0.162-1.287-0.158-1.463c0.009-0.515,0.145-0.877,0.404-1.089c0.094,0.001,0.342,0.086,0.746,0.256
				c0.096-0.093,0.198-0.139,0.306-0.136c0.055,0.001,0.153,0.03,0.293,0.086c0.141,0.057,0.26,0.084,0.354,0.086
				c0.066,0.001,0.135-0.011,0.202-0.036c0.009,1.067-0.024,1.865-0.101,2.392c0.107,0.068,0.215,0.229,0.324,0.471
				c0.113,0.246,0.256,0.384,0.43,0.414c0.111-0.135,0.16-0.222,0.148-0.263l0.362,0.128c0.33-0.359,0.55-0.984,0.659-1.874
				c0.111-1.026,0.252-1.705,0.42-2.041c-0.145-0.151-0.217-0.361-0.211-0.632c0.001-0.095,0.018-0.251,0.048-0.465
				c0.032-0.217,0.047-0.379,0.048-0.487c0.004-0.122-0.008-0.23-0.033-0.325l0.246-0.239c-0.1-0.461-0.158-1.044-0.173-1.748
				c0.011-0.594,0.015-1.188,0.011-1.783c0.012,0,0.129-0.004,0.344-0.015c0.135,0.003,0.232-0.042,0.285-0.137
				c-0.08,0.012-0.154,0.019-0.222,0.016c-0.297-0.004-0.53-0.214-0.698-0.629c-0.17-0.416-0.314-0.625-0.437-0.628
				c-0.136-0.001-0.319,0.124-0.554,0.379c-0.398,0.425-0.605,1.01-0.618,1.752c-0.007,0.365,0.034,0.758,0.122,1.178
				c0.096-0.051,0.146-0.187,0.148-0.402c0.217,0.003,0.354-0.042,0.409-0.134c0.093,0.028,0.134,0.104,0.117,0.223
				c-0.017,0.176-0.024,0.271-0.024,0.285c-0.164,0.05-0.244,0.124-0.248,0.219c0,0.04,0.028,0.116,0.088,0.225
				c0.059,0.108,0.086,0.196,0.086,0.266c0,0.055-0.016,0.106-0.043,0.161l-0.094,0.79c-0.297-0.088-0.938-0.125-1.926-0.116
				c0.029-0.065-0.011-0.154-0.117-0.264c-0.096,0.093-0.197,0.14-0.306,0.136c-0.081-0.002-0.202-0.037-0.362-0.107
				C155.232,52.464,155.119,52.429,155.051,52.427"/>
			<path clip-path="url(#SVGID_6_)" d="M147.482,45.444c0.188,0.084,0.391,0.127,0.605,0.132c0.19,0.003,0.449-0.033,0.774-0.11
				c0.366-0.073,0.617-0.115,0.752-0.128c0.144,0.286,0.245,0.68,0.304,1.182c0.109,0.731,0.178,1.145,0.203,1.241
				c-0.043,0.079-0.064,0.147-0.064,0.2c-0.004,0.149,0.113,0.283,0.348,0.403c0.234,0.117,0.352,0.212,0.35,0.279
				c0,0.08-0.138,0.199-0.41,0.357c0.065,0.081,0.115,0.249,0.144,0.498c0.028,0.251,0.091,0.418,0.183,0.501
				c0.166-0.146,0.435-0.24,0.807-0.28c0.373-0.042,0.619-0.102,0.742-0.18c-0.008-1.055,0.166-1.763,0.523-2.12
				c0.188,0.043,0.333-0.029,0.43-0.217c0.14-0.228,0.256-0.36,0.352-0.399l-0.118-0.144c0.108-0.093,0.286-0.131,0.528-0.113
				c0.379,0.021,0.58,0.03,0.609,0.03l0.113,0.368l-1.32,10.947c-0.013,0.689-0.047,1.158-0.104,1.399
				c0.017,0.609-0.126,0.984-0.425,1.128c-0.188-0.124-0.424-0.189-0.707-0.194c-0.23-0.005-0.59,0.043-1.076,0.145
				c-0.49,0.099-0.828,0.148-1.018,0.146c-0.662-0.013-0.951-0.489-0.869-1.436c0.068-0.756-0.051-1.752-0.354-2.987
				c-0.316-1.331-0.468-2.327-0.457-2.99c0.004-0.2-0.062-0.622-0.046-0.824c0.287-0.156,0.652-0.253,1.099-0.285
				c0.394-0.021,0.793-0.042,1.199-0.06c0.104,1.028,0.285,2.269,0.389,3.284c0.129,1.219,0.287,2.221,0.478,3.01l0.626-5.79
				c0.048-0.5-0.178-0.754-0.678-0.764c-0.162-0.001-0.317,0.036-0.469,0.115c-0.123,0.038-0.291-0.052-0.502-0.272
				c0.008-0.419-0.076-0.67-0.252-0.754c-0.217,0.145-0.504,0.281-0.857,0.411c-0.312,0.116-0.62,0.226-0.919,0.329
				c-0.17-0.233-0.28-0.58-0.327-1.04c-0.057-0.65-0.098-1.029-0.122-1.138c-0.022-0.258-0.128-0.813-0.315-1.669
				c-0.138-0.677-0.203-1.226-0.196-1.646C147.437,45.808,147.455,45.619,147.482,45.444"/>
			<path clip-path="url(#SVGID_6_)" d="M138.146,55.102c0.015-0.041,0.019-0.277,0.013-0.71c0.006-0.351,0.051-0.614,0.133-0.788
				c0.102-0.27,0.154-0.655,0.164-1.153c0.002-0.109-0.002-0.278-0.013-0.508c0.005-0.23,0.007-0.399,0.009-0.507
				c0.014-0.851,0.16-1.47,0.438-1.857c-0.024-0.219-0.034-0.435-0.032-0.65c0.012-0.676,0.244-1.585,0.696-2.727
				c0.122-0.039,0.225-0.057,0.307-0.056c0.162,0.004,0.277,0.098,0.349,0.281c0.072,0.183,0.14,0.356,0.205,0.52
				c-0.045,1.039-0.023,2.555,0.064,4.544l-0.123,0.12c0.089,0.352,0.128,0.744,0.121,1.177c-0.005,0.312-0.045,0.764-0.114,1.357
				c-0.071,0.595-0.108,1.04-0.112,1.337c-0.006,0.189,0,0.371,0.008,0.547c0.467-1.114,0.796-3,0.99-5.66l0.168-0.402
				c0.058-0.135,0.174-0.208,0.349-0.218c0.053,0.094,0.106,0.143,0.159,0.144c0.041,0.003,0.113-0.047,0.216-0.148
				c0.104-0.098,0.19-0.142,0.256-0.127l0.269-0.237c-0.119-0.152-0.375-0.17-0.771-0.057c-0.312,0.092-0.472-0.027-0.479-0.352
				c-0.01-0.271,0.064-0.634,0.221-1.091s0.236-0.8,0.24-1.03c0.002-0.163-0.015-0.325-0.051-0.486l1.401-0.221
				c0.131,0.272,0.228,0.73,0.292,1.374c0.062,0.642,0.158,1.101,0.29,1.373c-0.082,0.093-0.124,0.192-0.126,0.303
				c-0.002,0.094,0.035,0.237,0.113,0.427c0.078,0.191,0.123,0.334,0.136,0.43c0.011,0.147,0.058,0.508,0.144,1.076
				c0.059,0.46,0.088,0.821,0.084,1.075c-0.003,0.137-0.013,0.258-0.027,0.366c-0.002,0.095,0.052,0.233,0.156,0.419
				c0.104,0.184,0.155,0.316,0.153,0.397c-0.001,0.067-0.028,0.127-0.083,0.181c0.094,0.111,0.13,0.3,0.112,0.569
				c-0.019,0.271,0.02,0.461,0.112,0.569c0.197-0.522,0.304-1.23,0.319-2.121c0.007-1.244,0.019-1.963,0.036-2.15l-0.141-0.125
				l0.145-0.118c-0.1-0.488-0.145-1.111-0.13-1.867c0.036-1.365,0.054-2.001,0.053-1.908c0.191-0.171,0.457-0.255,0.796-0.248
				c0.418,0.006,0.703-0.03,0.853-0.107c0.171,0.3,0.253,0.687,0.243,1.159c-0.006,0.365-0.067,0.81-0.185,1.336
				c0.185,0.342,0.271,0.815,0.261,1.425c-0.002,0.148-0.021,0.431-0.056,0.851c-0.021,0.337-0.024,0.588-0.014,0.749
				c-0.136,0.065-0.205,0.138-0.205,0.22c-0.002,0.054,0.04,0.146,0.127,0.276c0.086,0.128,0.128,0.228,0.127,0.296
				c-0.002,0.082-0.058,0.161-0.166,0.241l0.437,6.558c-0.261,0.171-0.681,0.252-1.263,0.241c-0.634-0.024-1.069,0.01-1.299,0.1
				c-0.042,0.027-0.089,0.039-0.144,0.039c-0.055-0.002-0.117-0.032-0.19-0.095c-0.074-0.062-0.124-0.094-0.149-0.094
				c-0.055,0-0.104,0.04-0.146,0.12l-0.379-0.373c-0.127-0.476-0.247-1.396-0.359-2.763c-0.114-1.178-0.295-2.068-0.543-2.667
				c-0.331,1.197-0.604,2.2-0.821,3.007l-0.44,3.21l-3.144,0.068c-0.011-0.175-0.05-1.115-0.134-1.658
				c-0.071-0.473-0.108-0.859-0.103-1.156c0.005-0.339,0.058-0.642,0.158-0.91c-0.105-0.151-0.157-0.341-0.153-0.569
				C137.977,55.436,138.035,55.249,138.146,55.102"/>
			<path clip-path="url(#SVGID_6_)" d="M131.695,47.994v0.021c0.084-0.174,0.136-0.376,0.152-0.605
				c0.016-0.148,0.02-0.357,0.011-0.628c-0.009-0.311-0.011-0.527-0.011-0.649c0.111,0.002,0.541,0.01,1.298,0.021
				c0.461,0.008,0.872-0.031,1.239-0.121l0.379,0.412c0.111-0.105,0.152-0.192,0.127-0.261c0.066,0.015,0.377,0.02,0.933,0.016
				c0.433,0.007,0.756,0.055,0.97,0.139c0.221-0.228,0.478-0.222,0.771,0.014c0.107,0.081,0.117,0.221,0.033,0.415
				c-0.084,0.195-0.06,0.341,0.074,0.438c-0.021,0.432-0.08,1.101-0.177,2.005c-0.095,0.809-0.146,1.444-0.153,1.903
				c-0.01,0.623,0.033,1.218,0.131,1.787c-0.152,0.146-0.32,0.218-0.51,0.214c-0.218-0.002-0.472-0.109-0.766-0.317
				c-0.413-0.288-0.629-0.437-0.643-0.437l-0.117-0.143c-0.016,0.04-0.086,0.255-0.215,0.645c-0.071,0.256-0.176,0.422-0.312,0.503
				l-0.119-0.125c-0.056,0.025-0.232,0.151-0.535,0.376c-0.23,0.159-0.42,0.534-0.555,0.529c-0.15,0-0.289-0.085-0.422-0.25
				c-0.229-0.123-0.371-0.61-0.441-0.859c-0.07-0.253-0.138-0.5-0.203-0.746c0.61-0.017,1.111,0,1.502,0.047
				c0.097-0.147,0.232-0.169,0.408-0.064c0.172,0.104,0.299,0.089,0.383-0.043c0.006-0.244,0.014-0.685,0.024-1.319
				c0.022-0.565,0.029-1.013,0.021-1.338c-0.004-0.5-0.036-0.96-0.096-1.38c-0.109-0.002-0.621-0.012-1.541-0.027
				C132.7,48.153,132.154,48.098,131.695,47.994 M131.652,57.708c0.122-0.012,0.257-0.016,0.404-0.014
				c0.312,0.006,0.725,0.055,1.236,0.144c0.635,0.091,1.019,0.146,1.153,0.161c0.192-0.28,0.295-0.678,0.306-1.191
				c0.018-1.108,0.018-1.588,0.002-1.439c-0.188-0.11-0.279-0.316-0.273-0.613c0.021-0.405,0.025-0.616,0.011-0.629
				c0.095-0.038,0.146-0.173,0.147-0.402c0.149,0.056,0.303,0.168,0.461,0.333c0.214,0.206,0.326-0.493,0.312-0.319l0.128-0.416
				l0.12,0.123c0.108-0.011,0.294,0.046,0.556,0.173c0.262,0.126,0.444,0.241,0.551,0.354c-0.004,0.216-0.041,0.337-0.107,0.363
				l0.258,0.287l0.125-0.18c0.151,1.409,0.114,4.043-0.072,5.527c-0.513-0.09-1.08-0.147-1.701-0.171
				c-0.42-0.021-1.006-0.031-1.764-0.031c-0.865-0.001-1.488-0.004-1.867-0.01c-0.157-0.151-0.236-0.349-0.231-0.593
				c0.001-0.149,0.043-0.389,0.123-0.718C131.608,58.116,131.649,57.871,131.652,57.708"/>
			<path clip-path="url(#SVGID_6_)" d="M154.441,35.733v0.011c0-0.007,0.034-0.306,0.104-0.895c0.037-0.361,0.123-0.646,0.263-0.854
				l0.088,0.071c0.165-0.344,0.388-0.554,0.671-0.628c0.137-0.143,0.332-0.221,0.587-0.236c0.151-0.01,0.501,0.035,1.05,0.132
				c0.266,0.165,0.41,0.257,0.436,0.274c0.166,0.125,0.246,0.252,0.238,0.382c0.162,0.164,0.387,0.458,0.474,0.825
				c0.104,0.407,0.166,0.429,0.262,0.572c0.153-0.113,0.208,0.126,0.297,0.271l-0.079,0.061c0.049,0.036,0.075,0.077,0.078,0.122
				c0.002,0.032-0.013,0.08-0.04,0.143c-0.03,0.062-0.043,0.109-0.04,0.142c0.004,0.051,0.033,0.095,0.092,0.129
				c-0.062,0.32-0.119,0.8-0.168,1.438c-0.109,0.059-0.16,0.17-0.156,0.338c0.007,0.166-0.016,0.277-0.068,0.331
				c-0.259,0.518-0.678,0.866-1.259,1.048c-0.032-0.004-0.187-0.001-0.468,0.008c-0.191,0.005-0.336-0.012-0.435-0.052
				c-0.173,0.031-0.349-0.013-0.522-0.123c-0.15-0.115-0.301-0.228-0.451-0.342c-0.281-0.305-0.434-0.651-0.456-1.035
				c-0.007-0.127,0.001-0.264,0.024-0.405c0.209,0.006,0.356-0.13,0.444-0.413l0.81-0.076c0.086,0.124,0.138,0.289,0.148,0.494
				c0.005,0.07,0.004,0.174,0,0.308c-0.003,0.137-0.004,0.238,0,0.309c0.014,0.212,0.062,0.379,0.15,0.505l0.242-0.141
				c0.1,0.039,0.149,0.097,0.154,0.174c0.002,0.025-0.002,0.063-0.011,0.111c-0.011,0.05-0.015,0.083-0.013,0.103
				c0.005,0.083,0.08,0.133,0.225,0.152c0.1-0.913,0.129-1.852,0.089-2.812c-0.026-0.032-0.104-0.053-0.231-0.066
				c-0.104-0.012-0.158-0.045-0.161-0.095c-0.001-0.021,0.005-0.046,0.021-0.079l0.079-0.062c-0.044-0.067-0.069-0.164-0.077-0.285
				c-0.002-0.063,0-0.162,0.008-0.295s0.01-0.231,0.006-0.293c-0.012-0.193-0.06-0.339-0.146-0.438
				c0.009-0.141-0.05-0.238-0.172-0.288c-0.078,0.03-0.147,0.046-0.213,0.05c-0.247,0.015-0.419-0.12-0.515-0.403
				c-0.002-0.007,0-0.055,0.002-0.146c-0.002-0.052-0.027-0.084-0.077-0.101c-0.107,0.064-0.16,0.18-0.159,0.347
				c0.002,0.192-0.021,0.316-0.074,0.37c0.014,0.09,0.066,0.219,0.16,0.386c0.094,0.17,0.143,0.301,0.148,0.397
				c0.006,0.103-0.024,0.2-0.09,0.294c0.057,0.018,0.082,0.054,0.078,0.112c-0.003,0.091-0.004,0.139-0.004,0.145
				C155.342,35.833,154.895,35.836,154.441,35.733"/>
			<path clip-path="url(#SVGID_6_)" d="M150.771,34.981h0.01c0.049-0.092,0.062-0.225,0.047-0.397
				c-0.022-0.244-0.035-0.369-0.035-0.375c0.037-0.015,0.086,0.004,0.147,0.053c0.095-0.034,0.142-0.094,0.136-0.177
				c0-0.013-0.006-0.033-0.016-0.062c-0.001-0.035-0.003-0.06-0.004-0.071c-0.003-0.065,0.016-0.114,0.059-0.148
				c0.107,0.061,0.25,0.099,0.424,0.116c0.176,0.016,0.344,0.032,0.5,0.046c0.004,0.813,0.112,1.61,0.328,2.387
				c0-0.007,0.006,0.073,0.014,0.242c0,0.12,0.027,0.204,0.082,0.255l0.074-0.066c0.002,0.012-0.023,0.034-0.074,0.07
				s-0.074,0.072-0.071,0.108c0.001,0.018,0.006,0.035,0.015,0.051l0.081,0.06c0.14-0.045,0.202-0.156,0.192-0.333
				c-0.008-0.12,0.041-0.204,0.141-0.251c-0.037-0.028-0.059-0.064-0.061-0.104c-0.002-0.024,0.001-0.059,0.011-0.101
				c0.009-0.041,0.013-0.074,0.011-0.1c-0.003-0.052-0.031-0.096-0.085-0.128c-0.003-0.036-0.021-0.358-0.057-0.967
				c-0.022-0.388-0.013-0.717,0.03-0.987l-0.006-0.152c0.051,0.002,0.111,0.001,0.176-0.002c0.076-0.004,0.184-0.016,0.324-0.033
				c0.137-0.018,0.242-0.027,0.309-0.031c0.275-0.016,0.467,0.031,0.576,0.138l0.117,3.341c0.054,0.163,0.088,0.393,0.106,0.685
				l0.036,0.645c0.027,0.315,0.068,0.558,0.122,0.728c-0.022,0.116-0.125,0.18-0.302,0.188c-0.111,0.007-0.26-0.008-0.449-0.046
				c-0.086,0.04-0.208,0.066-0.363,0.075c-0.045,0.004-0.113,0.004-0.212,0.004c-0.103,0.006-0.179,0.01-0.222,0.013
				c-0.291,0.016-0.481,0.105-0.576,0.267c-0.135,0.002-0.279-0.041-0.438-0.127c-0.156-0.087-0.295-0.134-0.414-0.138
				c-0.315-0.185-0.485-0.492-0.511-0.922c-0.006-0.096,0.032-0.475,0.112-1.138l0.542-0.469c-0.093-0.17-0.203-0.537-0.332-1.104
				C151.158,35.549,150.994,35.202,150.771,34.981 M151.772,38.782l-0.012-0.008c-0.009-0.041-0.005,0.105,0.015,0.438
				c0.01,0.161,0.068,0.277,0.178,0.35c0.061-0.087-0.01-0.128,0.021-0.329c0.028-0.203,0.147-0.146,0.218-0.233
				c0.186,0,0.227-0.113,0.268,0.064c0.084,0.289,0.155,0.264,0.156,0.269l0.079-0.047c0.028-0.025,0.06-0.054,0.095-0.087
				c0.035-0.032,0.071-0.042,0.109-0.033c-0.002-0.036,0.016-0.092,0.053-0.169c0.036-0.077,0.053-0.129,0.051-0.159
				c-0.002-0.055-0.045-0.094-0.129-0.119c0.015-0.12,0.019-0.246,0.012-0.376c-0.006-0.071-0.021-0.236-0.051-0.491
				c-0.035-0.201-0.047-0.374-0.041-0.518c-0.067-0.002-0.129-0.002-0.189,0.001c-0.262,0.016-0.43,0.118-0.507,0.308
				c-0.026,0.055-0.056,0.256-0.089,0.598C151.979,38.497,151.901,38.68,151.772,38.782"/>
			<path clip-path="url(#SVGID_6_)" d="M146.561,33.684c0.105,0.031,0.219,0.042,0.338,0.035c0.104-0.006,0.243-0.032,0.418-0.077
				c0.2-0.048,0.335-0.077,0.408-0.087c0.09,0.12,0.158,0.29,0.208,0.508c0.087,0.318,0.139,0.498,0.155,0.539
				c-0.021,0.036-0.03,0.067-0.028,0.092c0.004,0.065,0.071,0.119,0.204,0.163c0.134,0.042,0.199,0.08,0.201,0.109
				c0.002,0.036-0.067,0.093-0.213,0.174c0.039,0.033,0.072,0.104,0.097,0.215c0.024,0.108,0.063,0.179,0.118,0.212
				c0.084-0.071,0.229-0.123,0.431-0.156c0.203-0.031,0.336-0.067,0.401-0.108c-0.043-0.463,0-1.278,0.184-1.45
				c0.104,0.012,0.18-0.024,0.227-0.113c0.069-0.104,0.129-0.168,0.18-0.189l-0.07-0.058c0.057-0.047,0.152-0.069,0.285-0.071
				c0.208-0.006,0.318-0.009,0.334-0.01l0.076,0.159l-0.312,5.369c0.016,0.305,0.014,0.511-0.008,0.619
				c0.03,0.268-0.033,0.439-0.193,0.515c-0.107-0.048-0.237-0.066-0.395-0.058c-0.125,0.007-0.32,0.041-0.584,0.105
				c-0.266,0.062-0.447,0.097-0.553,0.104c-0.362,0.021-0.537-0.178-0.524-0.598c0.011-0.335-0.089-0.769-0.299-1.302
				c-0.22-0.572-0.337-1.006-0.354-1.299c-0.004-0.089-0.125-0.278-0.123-0.369c0.153-0.08,0.352-0.136,0.594-0.168
				c0.215-0.025,0.432-0.051,0.654-0.073c0.092,0.448,0.304,0.993,0.396,1.438c0.112,0.531,0.235,0.966,0.364,1.308l0.143-2.576
				c0.01-0.222-0.124-0.324-0.398-0.309c-0.088,0.005-0.172,0.028-0.252,0.068c-0.066,0.021-0.16-0.012-0.285-0.1
				c-0.01-0.186-0.064-0.294-0.163-0.323c-0.115,0.072-0.267,0.145-0.456,0.215c-0.167,0.063-0.331,0.124-0.491,0.181
				c-0.103-0.096-0.173-0.244-0.217-0.444c-0.054-0.285-0.089-0.449-0.104-0.497c-0.022-0.112-0.1-0.354-0.232-0.723
				c-0.1-0.293-0.154-0.531-0.165-0.717C146.549,33.848,146.551,33.764,146.561,33.684"/>
			<path clip-path="url(#SVGID_6_)" d="M143.492,39.777h-0.012c0.09-0.131,0.203-0.155,0.342-0.074
				c0.031,0.006,0.162-0.003,0.4-0.022c0.199-0.012,0.344-0.001,0.437,0.029c0.022-0.003,0.067-0.024,0.13-0.066
				c0.064-0.043,0.109-0.064,0.143-0.066c0.043-0.004,0.067,0.035,0.072,0.112c0.001,0.011,0.004,0.062,0.008,0.152
				c0.004,0.059,0.033,0.1,0.086,0.12l0.139-0.107c0.043-0.032,0.063-0.065,0.061-0.102c-0.001-0.029-0.025-0.071-0.074-0.126
				c-0.047-0.054-0.076-0.093-0.084-0.115c0-0.019-0.018-0.286-0.047-0.806c-0.011-0.33-0.072-0.592-0.181-0.787
				c-0.026,0.03-0.095,0.048-0.202,0.05c-0.107,0.004-0.18,0.028-0.214,0.071c-0.07-0.061-0.187-0.064-0.351-0.011
				c-0.166,0.056-0.285,0.037-0.356-0.056l0.022-0.791c0.066,0.009,0.166,0.043,0.295,0.099c0.039-0.114,0.112-0.188,0.221-0.218
				c0.045-0.016,0.171-0.027,0.378-0.04c-0.006,0.036,0.026,0.073,0.097,0.11c0.201-0.096,0.277-0.324,0.227-0.686
				c-0.006,0.037-0.012-0.026-0.022-0.188c-0.006-0.101,0.017-0.174,0.065-0.219c0.125-0.019,0.285,0.009,0.479,0.084
				c0.192,0.075,0.332,0.111,0.413,0.106c0.036-0.002,0.07-0.007,0.1-0.015l0.209-0.064l0.332,3.614l0.039,0.688
				c-0.275,0.093-0.619,0.152-1.026,0.176c-0.319,0.019-0.736,0.016-1.25-0.008c-0.033,0.067-0.095-0.021-0.169-0.017
				c-0.036,0.002-0.092-0.003-0.168-0.013c-0.074-0.011-0.131-0.015-0.168-0.013c-0.045,0.002-0.084,0.011-0.12,0.025l-0.054,0.057
				c-0.15-0.045-0.229-0.125-0.236-0.236c-0.003-0.049,0.012-0.131,0.043-0.245c0.029-0.116,0.043-0.205,0.04-0.264
				C143.529,39.865,143.518,39.817,143.492,39.777 M144.792,33.746c0.079-0.041,0.201-0.064,0.364-0.075
				c0.215-0.013,0.344-0.023,0.389-0.031c0.023,0.022,0.053,0.004,0.1,0.192c0.03,0.124,0.108,0.183,0.233,0.174
				c0.03-0.001,0.065-0.005,0.11-0.014l0.201-0.013l0.106,1.83c-0.108,0.053-0.245,0.085-0.407,0.095
				c-0.156,0.009-0.295-0.007-0.414-0.046c0.002-0.068-0.093-0.097-0.285-0.083l-0.211,0.013
				C144.852,35.273,144.773,34.346,144.792,33.746"/>
			<path clip-path="url(#SVGID_6_)" d="M139.047,39.62l-0.012-0.008c0.105,0.007,0.441-0.016,0.699-0.049
				c0.221-0.025,0.388-0.029,0.5-0.012c0.107-0.072,0.147-0.17,0.117-0.293l-0.068-0.041c0.057-0.053,0.076-0.091,0.059-0.121
				l-0.059-0.059c0.013-1.061,0.016-1.647,0.009-1.76c-0.017-0.28-0.05-0.526-0.099-0.74c0.045-0.134,0.062-0.287,0.052-0.46
				c-0.007-0.112-0.033-0.291-0.081-0.538c-0.049-0.245-0.111-1.052-0.119-1.178c-0.005-0.094-0.004-0.186,0.007-0.269
				c0.103-0.042,0.212-0.066,0.33-0.074c0.2-0.011,0.415,0.03,0.644,0.125c0.028-0.025,0.06-0.053,0.096-0.082
				c0.035-0.029,0.045-0.062,0.027-0.097c0.073-0.021,0.176,0.008,0.308,0.091c0.069,1.074,0.261,3.26,0.545,5.47
				c0.101-0.091,0.284-0.016,0.478-0.04c0.228-0.024,0.452,0.011,0.539-0.03c0.111,0.119,0.088,0.154,0.098,0.351
				c0.012,0.19,0.074,0.661,0.025,0.857c-0.012,0.043-0.427,0.019-0.671,0.039c-0.333,0.02-0.407-0.061-0.429-0.059
				c-0.027,0.043-0.189,0.021-0.307,0.029c-0.078-0.037-0.162,0.034-0.164-0.021c-0.002-0.035,0-0.261,0.025-0.325
				c0.026-0.065,0.039-0.112,0.037-0.142c-0.005-0.071-0.056,0.033-0.177-0.008c-0.134,0.004-0.271,0.008-0.411,0.016
				c-0.158-0.015-0.338,0.042-0.324-0.091c-0.027,0.037-0.044-0.028-0.269,0.062c-0.167,0.076-0.269,0.271-0.236,0.405
				c0.019,0.073-0.083,0.122-0.021,0.087c-0.08,0.045-0.006,0.015-0.094,0.049c-0.277-0.026-0.431,0.003-0.482,0.005
				c-0.111,0.007-0.389-0.064-0.467-0.024c-0.058-0.104-0.086-0.431-0.09-0.61C139.053,39.791,139.048,39.639,139.047,39.62"/>
			<path clip-path="url(#SVGID_6_)" d="M135.443,35.888l0.002,0.009c0.039-0.079,0.062-0.171,0.062-0.272
				c0.006-0.065-0.001-0.158-0.016-0.278c-0.016-0.136-0.024-0.23-0.028-0.285c0.06-0.003,0.298-0.016,0.713-0.042
				c0.251-0.014,0.476-0.047,0.675-0.102l0.221,0.168c0.056-0.053,0.074-0.093,0.059-0.121c0.037,0.004,0.209-0.006,0.512-0.029
				c0.237-0.015,0.416-0.006,0.539,0.022c0.11-0.107,0.252-0.116,0.42-0.024c0.061,0.031,0.072,0.093,0.033,0.183
				c-0.039,0.089-0.021,0.152,0.057,0.189c0.002,0.19-0.006,0.487-0.027,0.89c-0.023,0.36-0.029,0.643-0.018,0.846
				c0.016,0.273,0.062,0.533,0.133,0.781c-0.076,0.07-0.168,0.107-0.271,0.113c-0.118,0.009-0.262-0.029-0.432-0.107
				c-0.236-0.113-0.356-0.17-0.365-0.17l-0.069-0.057c-0.008,0.017-0.039,0.115-0.095,0.293c-0.03,0.114-0.083,0.192-0.155,0.231
				l-0.068-0.049c-0.029,0.013-0.123,0.075-0.28,0.186c-0.121,0.08-0.205,0.37-0.28,0.374c-0.08,0.006-0.16-0.026-0.238-0.093
				c-0.129-0.047-0.231-0.373-0.278-0.48s-0.093-0.215-0.138-0.319c0.334-0.031,0.609-0.045,0.824-0.039
				c0.047-0.069,0.123-0.084,0.221-0.045c0.099,0.039,0.169,0.027,0.209-0.035c-0.006-0.106-0.016-0.301-0.032-0.58
				c-0.008-0.251-0.019-0.447-0.034-0.59c-0.02-0.221-0.056-0.423-0.104-0.605c-0.059,0.005-0.34,0.021-0.844,0.049
				C136.001,35.918,135.7,35.916,135.443,35.888 M135.79,40.095c0.065-0.008,0.142-0.018,0.224-0.021
				c0.168-0.01,0.394-0.005,0.68,0.015c0.35,0.016,0.562,0.024,0.637,0.026c0.096-0.132,0.109-0.238,0.096-0.465
				c-0.029-0.488-0.045-0.701-0.048-0.634c-0.106-0.042-0.164-0.129-0.171-0.261c-0.004-0.179-0.008-0.27-0.018-0.275
				c0.052-0.021,0.074-0.083,0.068-0.185c0.082,0.02,0.172,0.062,0.264,0.129c0.125,0.082,0.164-0.21,0.16-0.133l0.057-0.183
				l0.07,0.052c0.058-0.01,0.162,0.008,0.309,0.054c0.148,0.045,0.253,0.09,0.314,0.134c0.004,0.095-0.009,0.149-0.045,0.165
				l0.151,0.116l0.062-0.085c0.131,0.615,0.221,1.698,0.17,2.359c-0.283-0.02-0.615,0.028-0.957,0.043
				c-0.229,0.009-0.551,0.025-0.967,0.056c-0.474,0.033-0.813,0.058-1.021,0.069c-0.093-0.062-0.144-0.146-0.148-0.252
				c-0.005-0.066,0.009-0.173,0.041-0.321C135.752,40.35,135.794,40.168,135.79,40.095"/>
			<path clip-path="url(#SVGID_6_)" d="M131.748,36.523l0.011-0.001c0.046-0.093,0.062-0.226,0.044-0.396
				c-0.023-0.245-0.033-0.37-0.033-0.376c0.037-0.015,0.086,0.003,0.148,0.053c0.096-0.034,0.141-0.094,0.135-0.178
				c-0.001-0.012-0.006-0.031-0.015-0.061c-0.002-0.035-0.003-0.06-0.005-0.072c-0.004-0.065,0.017-0.114,0.059-0.148
				c0.108,0.062,0.25,0.1,0.426,0.116c0.174,0.017,0.34,0.033,0.5,0.049c0.002,0.812,0.111,1.607,0.326,2.385
				c0-0.008,0.006,0.074,0.014,0.241c0,0.12,0.027,0.204,0.082,0.255l0.074-0.067c0,0.012-0.023,0.036-0.074,0.071
				c-0.049,0.036-0.074,0.072-0.071,0.108c0.002,0.018,0.006,0.035,0.015,0.054l0.082,0.059c0.139-0.045,0.202-0.155,0.189-0.334
				c-0.006-0.12,0.043-0.205,0.144-0.252c-0.038-0.027-0.06-0.062-0.062-0.104c-0.002-0.024,0.002-0.058,0.012-0.098
				c0.007-0.044,0.012-0.077,0.01-0.102c-0.003-0.053-0.029-0.097-0.085-0.131c-0.002-0.035-0.021-0.356-0.056-0.965
				c-0.023-0.388-0.014-0.718,0.031-0.988l-0.01-0.152c0.051,0.003,0.112,0.003,0.18-0.002c0.074-0.005,0.182-0.015,0.322-0.031
				c0.139-0.018,0.242-0.029,0.31-0.032c0.272-0.016,0.466,0.029,0.575,0.138l0.117,3.34c0.053,0.164,0.09,0.393,0.106,0.685
				l0.038,0.644c0.025,0.316,0.064,0.56,0.119,0.729c-0.022,0.114-0.123,0.178-0.301,0.188c-0.112,0.008-0.26-0.008-0.449-0.046
				c-0.088,0.042-0.207,0.067-0.363,0.075c-0.044,0.002-0.115,0.004-0.211,0.004c-0.104,0.006-0.18,0.011-0.223,0.014
				c-0.289,0.016-0.481,0.105-0.576,0.266c-0.135,0.001-0.279-0.04-0.436-0.126c-0.158-0.088-0.297-0.133-0.418-0.137
				c-0.313-0.187-0.484-0.493-0.509-0.924c-0.005-0.096,0.032-0.475,0.112-1.138l0.543-0.47c-0.094-0.169-0.204-0.535-0.334-1.103
				C132.135,37.09,131.968,36.744,131.748,36.523 M132.749,40.323l-0.013-0.008c-0.008-0.041-0.004,0.105,0.016,0.438
				c0.01,0.163,0.068,0.278,0.178,0.349c0.059-0.085,0.072,0.117,0.1-0.085c0.031-0.203,0.078-0.347,0.147-0.436
				c0.187,0.001,0.229,0.112,0.341,0.268c0.069,0.099,0.103,0.013,0.103,0.02l0.051-0.041c0.028-0.025,0.06-0.055,0.095-0.087
				s0.072-0.043,0.111-0.033c-0.004-0.034,0.014-0.093,0.051-0.169c0.035-0.076,0.053-0.13,0.051-0.16
				c-0.002-0.054-0.045-0.092-0.129-0.118c0.014-0.12,0.02-0.246,0.012-0.379c-0.006-0.07-0.021-0.233-0.051-0.489
				c-0.035-0.201-0.047-0.374-0.041-0.518c-0.068-0.003-0.131-0.002-0.19,0.002c-0.259,0.015-0.429,0.117-0.506,0.307
				c-0.025,0.056-0.056,0.256-0.089,0.598C132.956,40.041,132.876,40.22,132.749,40.323"/>
			<path clip-path="url(#SVGID_6_)" d="M168.605,51.931v-0.009c0.032-0.311,0.043-0.525,0.031-0.643
				c0.049-0.02,0.111-0.022,0.186-0.01c0.101,0.017,0.158,0.024,0.173,0.023c0.043-0.002,0.077-0.018,0.104-0.045
				c0.061,0.038,0.102,0.056,0.123,0.05c0.059-0.035,0.086-0.085,0.083-0.149c-0.002-0.028-0.013-0.073-0.032-0.141
				c-0.02-0.068-0.031-0.116-0.033-0.148c0-0.043,0.008-0.111,0.027-0.205c0.02-0.093,0.028-0.168,0.025-0.229
				c-0.004-0.069-0.02-0.181-0.046-0.331c-0.026-0.149-0.041-0.262-0.046-0.338c0.031-0.147,0.043-0.297,0.035-0.447
				c-0.008-0.185-0.061-0.431-0.151-0.74c-0.017-0.005-0.032-0.007-0.049-0.005c-0.036,0.001-0.082,0.029-0.134,0.08
				c-0.051,0.05-0.097,0.076-0.133,0.079c-0.027,0.001-0.059-0.004-0.091-0.021c-0.098-0.312-0.147-0.517-0.153-0.608
				c-0.002-0.044-0.002-0.09,0-0.138c0.146-0.035,0.248,0.015,0.309,0.147c-0.008,0.037,0.014,0.077,0.064,0.118l0.162-0.171
				c-0.16-0.024-0.222-0.146-0.189-0.363c0.014-0.045,0.047-0.068,0.102-0.07c0.094,0.001,0.135,0.001,0.131,0.001l0.133,0.237
				l0.053-0.067c0.045,0.112,0.096,0.164,0.154,0.161c0.033-0.002,0.09-0.028,0.172-0.08c0.08-0.054,0.148-0.081,0.201-0.084
				c0.043-0.003,0.086,0.009,0.131,0.033c0.004,0.065,0.013,0.132,0.023,0.202c0.012,0.07,0.049,0.114,0.108,0.133
				c0.003,0.17-0.003,0.608-0.013,1.324c-0.006,0.541,0,0.979,0.016,1.314c0.008,0.141,0.018,0.277,0.029,0.41
				c0.029,0.042,0.057,0.063,0.084,0.062c0.022-0.002,0.055-0.024,0.098-0.07c0.044-0.046,0.082-0.066,0.113-0.062
				c0.005,0.054,0.029,0.142,0.076,0.26c0.045,0.119,0.07,0.206,0.074,0.26c0.004,0.092-0.031,0.172-0.103,0.24l-0.188-0.046
				c-0.076,0.105-0.109,0.286-0.096,0.54c0.003,0.048,0.01,0.126,0.02,0.23c0.012,0.104,0.019,0.181,0.021,0.23
				c0.021,0.415-0.106,0.63-0.382,0.645c-0.102,0.005-0.227-0.014-0.375-0.056l-0.182-0.047c-0.014-0.069-0.023-0.142-0.027-0.217
				c-0.006-0.104-0.002-0.254,0.014-0.452c0.016-0.199,0.02-0.344,0.016-0.433c-0.008-0.148-0.033-0.28-0.078-0.397
				c-0.043,0.003-0.11,0.027-0.203,0.071c-0.092,0.046-0.159,0.069-0.203,0.071C168.714,52.038,168.652,52.005,168.605,51.931
				 M169.17,51.35l0.009,0.187l0.058,0.054L169.17,51.35z"/>
			<path clip-path="url(#SVGID_6_)" d="M166.379,52.513l-0.008,0.001c0.018-0.147,0.041-0.295,0.066-0.442
				c0.029-0.168,0.076-0.301,0.143-0.396c0.012,0.005,0.078,0.035,0.199,0.096c0.084,0.044,0.158,0.062,0.222,0.054
				c0.05-0.317,0.076-0.748,0.081-1.295c0.003-0.698,0.01-1.12,0.016-1.266c0.084,0.005,0.144-0.021,0.184-0.08
				c0.041-0.059,0.079-0.117,0.113-0.179c0.015-0.034,0.021-0.064,0.02-0.09c-0.001-0.045-0.038-0.087-0.111-0.125
				c-0.072-0.04-0.109-0.083-0.111-0.133c0.031-0.115,0.1-0.176,0.201-0.18c0.049-0.003,0.134,0.013,0.254,0.043
				c0.119,0.032,0.205,0.047,0.255,0.044l0.116,2.315c-0.047,0.061-0.065,0.104-0.06,0.124l0.067,0.045
				c-0.006,0.098-0.012,0.584-0.016,1.455c-0.002,0.59-0.025,1.067-0.066,1.432c0.005-0.001-0.161,0.011-0.501,0.033
				c-0.21,0.011-0.347-0.048-0.407-0.175c0-0.118,0.012-0.318,0.036-0.602c0.024-0.261,0.032-0.461,0.026-0.602
				c-0.01-0.174-0.037-0.328-0.082-0.467C166.834,52.37,166.622,52.5,166.379,52.513 M165.574,52.018
				c-0.016-0.215-0.027-0.426-0.04-0.632c-0.045-0.896-0.03-1.854,0.042-2.874c0.078-0.07,0.197-0.085,0.359-0.046
				c0.16,0.038,0.279,0.021,0.351-0.046c0.093,0.119,0.146,0.334,0.163,0.648c0.021,0.453,0.034,0.688,0.035,0.704
				c0.02,1.135-0.092,2.053-0.333,2.752C165.872,52.452,165.68,52.283,165.574,52.018"/>
			<path clip-path="url(#SVGID_6_)" d="M162.733,50.841c0.035-0.071,0.05-0.147,0.046-0.227c-0.004-0.083-0.008-0.161-0.013-0.237
				c0.009-0.064,0.026-0.129,0.056-0.198c0.049,0.015,0.09,0.021,0.123,0.02c0.037-0.002,0.076-0.016,0.114-0.042
				c0.039-0.027,0.071-0.041,0.092-0.041c0.033-0.003,0.076,0.01,0.132,0.033l0.377,0.549c-0.014-0.161-0.051-0.303-0.111-0.425
				c-0.03-0.062-0.061-0.126-0.09-0.188c0.22-0.04,0.345-0.047,0.371-0.02l0.054-0.068l0.131,0.172
				c0.103-0.124,0.125-0.306,0.069-0.547c-0.066-0.262-0.07-0.45-0.012-0.567c-0.082-0.121-0.179-0.177-0.293-0.172
				c-0.049,0.003-0.09,0.02-0.127,0.055c-0.053,0.134-0.105,0.266-0.158,0.398c-0.08,0.161-0.166,0.244-0.264,0.248
				c-0.074,0.005-0.164-0.035-0.266-0.118c-0.121-0.042-0.184-0.098-0.188-0.167c-0.001-0.044,0.025-0.115,0.084-0.211
				c0.055-0.098,0.084-0.174,0.081-0.229c-0.002-0.021-0.005-0.039-0.011-0.057c0.078-0.057,0.146-0.145,0.21-0.261
				c0.062-0.118,0.144-0.197,0.244-0.242c0.087-0.083,0.169-0.128,0.243-0.132c0.061-0.003,0.15,0.043,0.268,0.137
				c0.118,0.095,0.229,0.138,0.331,0.134c0.042,0.095,0.147,0.201,0.315,0.316s0.272,0.241,0.312,0.374
				c-0.001-0.01,0.001,0.032,0.006,0.129c0.004,0.055,0.026,0.09,0.07,0.103l-0.061,0.06c0.082,0.002,0.123,0.047,0.127,0.141
				c0,0.01,0.002,0.031,0.002,0.065c-0.002,0.026-0.004,0.048-0.004,0.064c0.004,0.064,0.025,0.108,0.064,0.135l0.014,0.282
				c0.008,0.146,0.037,0.251,0.09,0.312c-0.053,0.344-0.106,0.688-0.16,1.03c-0.088,0.399-0.219,0.604-0.391,0.613
				c-0.027,0.001-0.054-0.003-0.08-0.012c-0.158,0.153-0.344,0.236-0.565,0.247c-0.243,0.012-0.513-0.062-0.806-0.22
				C162.931,51.7,162.789,51.288,162.733,50.841 M163.85,51.736l0.055-0.068c0.036-0.007,0.082,0.012,0.133,0.058l-0.011-0.186
				c0.083-0.091,0.115-0.23,0.101-0.42c-0.016-0.324-0.023-0.479-0.023-0.469l-0.242,0.003c-0.115,0.066-0.171,0.174-0.162,0.325
				c0.004,0.076,0.028,0.2,0.08,0.374C163.828,51.526,163.852,51.652,163.85,51.736"/>
			<polygon clip-path="url(#SVGID_6_)" fill-rule="evenodd" clip-rule="evenodd" points="160.831,42.674 160.59,42.535 
				159.771,44.683 160.046,44.773 160.863,42.625 160.625,42.474 			"/>
			<polygon clip-path="url(#SVGID_6_)" fill-rule="evenodd" clip-rule="evenodd" points="160.474,42.971 160.572,42.932 
				160.83,42.674 160.625,42.474 160.361,42.746 160.463,42.694 			"/>
			<polygon clip-path="url(#SVGID_6_)" fill-rule="evenodd" clip-rule="evenodd" points="158.493,42.987 158.377,43.079 
				160.473,42.971 160.465,42.694 158.367,42.801 158.234,42.9 			"/>
			<polygon clip-path="url(#SVGID_6_)" fill-rule="evenodd" clip-rule="evenodd" points="157.546,44.962 157.689,45.14 
				158.492,42.987 158.234,42.899 157.417,45.049 157.559,45.227 			"/>
			<polygon clip-path="url(#SVGID_6_)" fill-rule="evenodd" clip-rule="evenodd" points="159.544,44.894 159.648,44.842 
				157.546,44.962 157.559,45.227 159.65,45.134 159.755,45.081 			"/>
			<polygon clip-path="url(#SVGID_6_)" fill-rule="evenodd" clip-rule="evenodd" points="159.771,44.683 159.803,44.636 
				159.543,44.894 159.754,45.08 160.016,44.82 160.045,44.773 			"/>
			<polygon clip-path="url(#SVGID_6_)" fill-rule="evenodd" clip-rule="evenodd" points="158.031,42.733 157.844,42.815 
				158.295,43.065 158.436,42.811 157.975,42.556 157.771,42.646 158.045,42.737 			"/>
			<polygon clip-path="url(#SVGID_6_)" fill-rule="evenodd" clip-rule="evenodd" points="157.152,44.715 157.227,44.885 
				158.045,42.736 157.771,42.646 156.954,44.794 157.028,44.962 			"/>
			<polygon clip-path="url(#SVGID_6_)" fill-rule="evenodd" clip-rule="evenodd" points="157.417,45.049 157.619,44.958 
				157.152,44.715 157.027,44.962 157.477,45.213 157.689,45.14 			"/>
			<polygon clip-path="url(#SVGID_6_)" points="159.902,44.725 159.916,44.729 159.655,44.989 157.711,45.084 157.689,45.14 
				157.547,45.093 157.418,45.049 157.424,45.025 157.084,44.837 156.954,44.794 157.008,44.654 156.055,42.391 156.86,40.238 
				157.901,42.688 158.035,42.634 158.045,42.737 158.034,42.763 158.362,42.943 158.437,42.811 158.478,42.938 160.473,42.842 
				160.733,42.583 			"/>
			<polygon clip-path="url(#SVGID_6_)" fill-rule="evenodd" clip-rule="evenodd" points="156.99,40.282 156.727,40.295 
				157.768,42.745 158.035,42.634 156.994,40.183 156.73,40.195 157.004,40.286 			"/>
			<polygon clip-path="url(#SVGID_6_)" fill-rule="evenodd" clip-rule="evenodd" points="156.176,42.329 156.186,42.435 
				157.003,40.286 156.73,40.195 155.912,42.342 155.921,42.445 			"/>
			<polygon clip-path="url(#SVGID_6_)" fill-rule="evenodd" clip-rule="evenodd" points="156.954,44.794 157.219,44.781 
				156.176,42.329 155.921,42.445 156.962,44.897 157.227,44.885 			"/>
			<polygon clip-path="url(#SVGID_6_)" fill-rule="evenodd" clip-rule="evenodd" fill="#FFFFFF" points="157.023,44.24 
				156.907,43.984 156.863,43.727 156.877,43.472 156.95,43.207 157.08,42.949 157.256,42.719 157.486,42.509 157.764,42.326 
				157.914,42.261 158.065,42.197 158.234,42.166 158.391,42.132 158.541,42.111 158.705,42.094 158.856,42.114 159.012,42.123 
				159.146,42.153 159.289,42.202 159.426,42.261 159.547,42.331 159.651,42.409 159.769,42.492 159.863,42.595 159.941,42.708 
				160.06,42.962 160.102,43.223 160.102,43.481 160.014,43.74 159.902,43.991 159.721,44.232 159.491,44.444 159.203,44.621 
				159.062,44.69 158.898,44.752 158.744,44.785 158.588,44.819 158.424,44.838 158.273,44.858 158.121,44.838 157.965,44.828 
				157.823,44.782 157.68,44.733 157.551,44.69 157.418,44.616 157.31,44.553 157.196,44.457 157.118,44.344 			"/>
			<polygon clip-path="url(#SVGID_6_)" fill-rule="evenodd" clip-rule="evenodd" points="156.92,43.816 156.804,43.561 
				156.766,43.29 156.775,43.034 156.848,42.783 156.963,42.52 157.158,42.283 157.369,42.079 157.658,41.902 157.814,41.825 
				157.966,41.761 158.122,41.728 158.29,41.694 158.441,41.674 158.589,41.664 158.745,41.674 158.908,41.699 159.043,41.73 
				159.186,41.777 159.311,41.834 159.443,41.907 159.553,41.973 159.652,42.063 159.751,42.154 159.839,42.283 159.959,42.525 
				160.002,42.785 159.984,43.054 159.915,43.304 159.799,43.567 159.621,43.797 159.393,44.009 159.104,44.185 158.947,44.263 
				158.8,44.315 158.641,44.362 158.471,44.392 158.324,44.401 158.173,44.422 158.021,44.401 157.867,44.392 157.719,44.357 
				157.576,44.311 157.451,44.255 157.312,44.191 157.209,44.116 157.092,44.034 157.016,43.92 156.924,43.804 			"/>
			<polygon clip-path="url(#SVGID_6_)" fill-rule="evenodd" clip-rule="evenodd" fill="#FFFFFF" points="156.848,43.519 
				156.725,43.276 156.687,43.004 156.701,42.748 156.769,42.499 156.898,42.239 157.08,41.998 157.291,41.795 157.58,41.618 
				157.724,41.535 157.889,41.475 158.044,41.44 158.213,41.411 158.365,41.388 158.511,41.38 158.666,41.388 158.83,41.415 
				158.965,41.445 159.107,41.492 159.232,41.549 159.367,41.623 159.475,41.688 159.587,41.782 159.67,41.882 159.761,41.998 
				159.881,42.239 159.925,42.501 159.912,42.755 159.839,43.019 159.722,43.281 159.539,43.523 159.303,43.718 159.025,43.9 
				158.869,43.977 158.719,44.043 158.562,44.077 158.394,44.108 158.244,44.128 158.096,44.138 157.927,44.124 157.787,44.108 
				157.642,44.071 157.498,44.024 157.361,43.965 157.24,43.896 157.132,43.83 157.016,43.748 156.938,43.635 			"/>
			<polygon clip-path="url(#SVGID_6_)" fill-rule="evenodd" clip-rule="evenodd" points="156.743,43.096 156.626,42.841 
				156.582,42.58 156.582,42.322 156.67,42.062 156.782,41.812 156.977,41.574 157.192,41.356 157.481,41.181 157.62,41.112 
				157.785,41.052 157.94,41.017 158.096,40.983 158.262,40.965 158.412,40.944 158.562,40.965 158.719,40.974 158.865,41.008 
				159.008,41.057 159.135,41.112 159.268,41.186 159.371,41.265 159.475,41.341 159.57,41.445 159.661,41.562 159.764,41.812 
				159.821,42.077 159.807,42.331 159.734,42.596 159.609,42.842 159.428,43.083 159.198,43.295 158.922,43.476 158.77,43.541 
				158.619,43.605 158.45,43.636 158.295,43.671 158.143,43.692 157.982,43.696 157.828,43.688 157.684,43.685 157.537,43.648 
				157.395,43.601 157.258,43.541 157.137,43.472 157.018,43.39 156.916,43.311 156.82,43.207 156.747,43.082 			"/>
			<polygon clip-path="url(#SVGID_6_)" fill-rule="evenodd" clip-rule="evenodd" fill="#FFFFFF" points="156.592,42.815 
				156.47,42.571 156.427,42.313 156.432,42.041 156.501,41.79 156.631,41.53 156.824,41.293 157.035,41.09 157.314,40.908 
				157.47,40.831 157.634,40.771 157.789,40.735 157.945,40.702 158.109,40.685 158.256,40.675 158.412,40.685 158.562,40.706 
				158.71,40.74 158.854,40.788 158.979,40.845 159.104,40.9 159.22,40.983 159.32,41.073 159.414,41.178 159.492,41.289 
				159.613,41.531 159.666,41.808 159.652,42.063 159.57,42.31 159.453,42.572 159.273,42.815 159.047,43.014 158.771,43.194 
				158.615,43.272 158.464,43.337 158.299,43.354 158.14,43.402 157.988,43.424 157.828,43.428 157.672,43.419 157.533,43.402 
				157.387,43.368 157.232,43.315 157.107,43.26 156.98,43.203 156.863,43.121 156.765,43.029 156.669,42.926 			"/>
			<polygon clip-path="url(#SVGID_6_)" fill-rule="evenodd" clip-rule="evenodd" points="156.475,42.386 156.371,42.136 
				156.314,41.872 156.328,41.617 156.401,41.354 156.527,41.106 156.709,40.864 156.938,40.652 157.215,40.472 157.365,40.406 
				157.531,40.347 157.685,40.312 157.841,40.277 157.992,40.256 158.156,40.239 158.309,40.26 158.463,40.27 158.598,40.3 
				158.752,40.352 158.879,40.407 158.998,40.477 159.117,40.559 159.22,40.637 159.315,40.74 159.393,40.853 159.509,41.107 
				159.565,41.371 159.553,41.627 159.467,41.887 159.354,42.139 159.172,42.379 158.943,42.592 158.654,42.768 158.515,42.837 
				158.351,42.896 158.195,42.932 158.039,42.966 157.875,42.983 157.724,43.005 157.574,42.983 157.43,42.979 157.27,42.939 
				157.127,42.892 157.002,42.835 156.881,42.767 156.765,42.685 156.662,42.606 156.566,42.503 			"/>
			<polygon clip-path="url(#SVGID_6_)" fill-rule="evenodd" clip-rule="evenodd" points="170.766,45.685 170.752,45.767 
				171.574,43.606 171.314,43.521 170.494,45.681 170.49,45.736 			"/>
			<polygon clip-path="url(#SVGID_6_)" fill-rule="evenodd" clip-rule="evenodd" points="170.787,45.795 170.782,45.807 
				170.766,45.685 170.489,45.736 170.518,45.862 170.514,45.875 			"/>
			<polygon clip-path="url(#SVGID_6_)" fill-rule="evenodd" clip-rule="evenodd" points="170.817,45.918 170.787,45.795 
				170.514,45.875 170.545,46.001 			"/>
			
				<rect x="170.64" y="45.873" transform="matrix(0.2912 0.9567 -0.9567 0.2912 165.0194 -130.6849)" clip-path="url(#SVGID_6_)" fill-rule="evenodd" clip-rule="evenodd" width="0.117" height="0.285"/>
			<polygon clip-path="url(#SVGID_6_)" fill-rule="evenodd" clip-rule="evenodd" points="170.882,46.156 170.882,46.156 
				170.852,46.03 170.578,46.112 170.611,46.237 170.613,46.225 			"/>
			<polygon clip-path="url(#SVGID_6_)" fill-rule="evenodd" clip-rule="evenodd" points="170.916,46.312 170.916,46.268 
				170.882,46.156 170.613,46.225 170.648,46.338 170.635,46.29 			"/>
			<polygon clip-path="url(#SVGID_6_)" fill-rule="evenodd" clip-rule="evenodd" points="170.641,46.364 170.912,46.411 
				170.916,46.312 170.635,46.29 170.632,46.389 170.904,46.438 170.645,46.352 			"/>
			<polygon clip-path="url(#SVGID_6_)" fill-rule="evenodd" clip-rule="evenodd" fill="#4D494A" points="170.404,40.075 
				170.43,40.214 170.719,40.166 170.698,40.015 			"/>
			<polygon clip-path="url(#SVGID_6_)" fill-rule="evenodd" clip-rule="evenodd" points="169.802,41.876 169.794,41.945 
				170.611,39.798 170.352,39.713 169.533,41.86 169.539,41.934 			"/>
			<polygon clip-path="url(#SVGID_6_)" fill-rule="evenodd" clip-rule="evenodd" points="169.824,42.028 169.803,41.876 
				169.539,41.934 169.559,42.084 169.838,42.032 			"/>
			<polygon clip-path="url(#SVGID_6_)" fill-rule="evenodd" clip-rule="evenodd" points="169.862,42.17 169.838,42.032 
				169.559,42.084 169.598,42.227 			"/>
			<polygon clip-path="url(#SVGID_6_)" fill-rule="evenodd" clip-rule="evenodd" points="169.897,42.326 169.889,42.31 
				169.862,42.17 169.599,42.227 169.621,42.379 169.612,42.36 			"/>
			<polygon clip-path="url(#SVGID_6_)" fill-rule="evenodd" clip-rule="evenodd" points="169.638,42.456 169.914,42.492 
				169.897,42.326 169.613,42.36 169.634,42.511 169.91,42.546 			"/>
			<path clip-path="url(#SVGID_6_)" fill="#4D494A" d="M171.573,44.035l0.132-0.039L171.573,44.035z"/>
			<polygon clip-path="url(#SVGID_6_)" fill="#4D494A" points="171.437,43.585 171.432,43.597 171.364,43.592 171.314,43.521 
				171.436,43.56 			"/>
			<polygon clip-path="url(#SVGID_6_)" points="171.735,44.12 171.594,44.147 171.592,44.246 170.77,46.405 170.774,46.394 
				170.774,46.307 170.752,46.198 170.709,46.068 170.674,45.956 170.645,45.832 170.623,45.724 170.493,45.681 171.314,43.521 
				171.364,43.592 171.432,43.597 171.437,43.585 171.436,43.56 171.314,43.521 171.435,43.527 171.432,43.429 171.514,43.532 
				171.584,43.537 171.601,43.658 171.551,43.669 171.498,43.808 171.635,43.77 171.674,43.87 171.705,43.996 171.573,44.035 
				171.705,43.996 171.7,44.009 			"/>
			<polygon clip-path="url(#SVGID_6_)" points="171.44,43.705 165.422,43.902 165.268,43.896 165.241,43.884 165.094,43.852 
				165.082,43.845 164.924,43.794 164.774,43.729 164.762,43.725 164.618,43.634 164.592,43.626 164.48,43.53 164.445,43.504 
				164.363,43.406 164.355,43.388 164.299,43.298 164.295,43.268 164.56,43.187 164.602,43.253 164.605,43.24 164.674,43.336 
				164.674,43.336 164.767,43.41 164.744,43.388 164.892,43.465 164.891,43.467 165.043,43.53 165.172,43.574 165.319,43.607 
				165.293,43.6 165.432,43.617 165.432,43.63 171.432,43.429 			"/>
			<polygon clip-path="url(#SVGID_6_)" points="164.566,43.184 164.56,43.187 164.545,43.162 			"/>
			<polygon clip-path="url(#SVGID_6_)" fill-rule="evenodd" clip-rule="evenodd" points="161.353,38.136 161.353,38.221 
				162.174,36.061 161.901,35.97 161.08,38.131 161.08,38.216 			"/>
			<polygon clip-path="url(#SVGID_6_)" fill-rule="evenodd" clip-rule="evenodd" points="163.727,45.312 163.746,45.345 
				161.353,38.136 161.08,38.216 163.473,45.428 163.478,45.456 			"/>
			<polygon clip-path="url(#SVGID_6_)" fill-rule="evenodd" clip-rule="evenodd" points="163.775,45.384 163.783,45.4 
				163.727,45.312 163.478,45.456 163.533,45.548 163.547,45.554 163.789,45.388 			"/>
			<polygon clip-path="url(#SVGID_6_)" fill-rule="evenodd" clip-rule="evenodd" points="163.831,45.475 163.854,45.495 
				163.789,45.388 163.546,45.554 163.637,45.668 163.659,45.691 			"/>
			<polygon clip-path="url(#SVGID_6_)" fill-rule="evenodd" clip-rule="evenodd" points="163.927,45.535 163.947,45.557 
				163.83,45.475 163.658,45.691 163.775,45.772 163.797,45.795 			"/>
			<polygon clip-path="url(#SVGID_6_)" fill-rule="evenodd" clip-rule="evenodd" points="164.057,45.622 164.07,45.626 
				163.927,45.535 163.797,45.795 163.945,45.872 163.957,45.876 			"/>
			<polygon clip-path="url(#SVGID_6_)" fill-rule="evenodd" clip-rule="evenodd" points="164.194,45.682 164.225,45.679 
				164.057,45.622 163.957,45.876 164.108,45.941 164.121,45.945 164.211,45.675 			"/>
			<polygon clip-path="url(#SVGID_6_)" fill-rule="evenodd" clip-rule="evenodd" points="164.351,45.733 164.369,45.726 
				164.211,45.675 164.121,45.945 164.277,45.997 164.355,45.722 			"/>
			<polygon clip-path="url(#SVGID_6_)" fill-rule="evenodd" clip-rule="evenodd" points="164.471,45.761 164.496,45.769 
				164.355,45.722 164.277,45.997 164.437,46.036 164.449,46.041 			"/>
			<polygon clip-path="url(#SVGID_6_)" fill-rule="evenodd" clip-rule="evenodd" points="164.61,45.778 164.614,45.766 
				164.471,45.761 164.449,46.041 164.602,46.064 164.618,46.054 			"/>
			<polygon clip-path="url(#SVGID_6_)" fill-rule="evenodd" clip-rule="evenodd" points="170.48,45.676 170.627,45.583 
				164.61,45.778 164.619,46.054 170.623,45.853 170.752,45.767 170.494,45.681 			"/>
			<polygon clip-path="url(#SVGID_6_)" fill="#4D494A" points="168.969,39.106 168.99,39.118 168.977,39.124 			"/>
			<path clip-path="url(#SVGID_6_)" fill="#4D494A" d="M165.719,38.135l0.023-0.292L165.719,38.135z"/>
			<path clip-path="url(#SVGID_6_)" d="M170.699,40.015l-0.027-0.139l-0.053-0.147l-0.064-0.108l-0.367-0.193l-0.367-0.194
				l-0.354-0.191l-0.358-0.177l-0.014-0.005l-0.363-0.163l-0.361-0.166l-0.395-0.159l-0.398-0.147l-0.013-0.004l-0.423-0.112
				l-0.424-0.112l-0.014-0.005l-0.467-0.07l-0.479-0.073l-0.013-0.004l-0.522-0.028l-0.019,0.007l-0.558-0.014l-0.596,0.02
				l-0.632,0.033l-0.131,0.086l-0.815,2.147l0.138,0.19l-0.009-0.277l0.044,0.055l-0.031,0.08l0.09-0.006l0.039,0.049l0.021-0.054
				l0.47-0.027h0.604l0.558,0.012l0.51,0.026l0.498,0.065l0.463,0.081l0.424,0.113l0.423,0.112l0.397,0.147l0.385,0.144l0.363,0.164
				l0.358,0.177l0.372,0.182l0.355,0.19l0.353,0.19l0.245,0.129l-0.006,0.023l0.129,0.043l0.035,0.154l0.025,0.14l0.012,0.047
				l-0.099,0.212l0.138,0.045l0.006,0.002l0.129,0.042l0.818-2.146l0.008-0.069l-0.021-0.15L170.699,40.015z M170.598,40.356
				l-0.005-0.028l0.015,0.006L170.598,40.356z"/>
			<polygon clip-path="url(#SVGID_6_)" fill-rule="evenodd" clip-rule="evenodd" points="163.231,39.973 162.601,40.007 
				162.609,40.285 163.241,40.249 			"/>
			
				<rect x="163.236" y="39.964" transform="matrix(0.9996 -0.0294 0.0294 0.9996 -1.1083 4.8251)" clip-path="url(#SVGID_6_)" fill-rule="evenodd" clip-rule="evenodd" width="0.598" height="0.277"/>
			<polygon clip-path="url(#SVGID_6_)" fill-rule="evenodd" clip-rule="evenodd" points="164.398,39.973 164.385,39.971 
				163.828,39.955 163.836,40.231 164.394,40.245 164.377,40.254 164.403,39.961 			"/>
			<polygon clip-path="url(#SVGID_6_)" fill-rule="evenodd" clip-rule="evenodd" points="164.936,40.007 164.922,40.004 
				164.403,39.961 164.377,40.254 164.9,40.286 164.888,40.28 			"/>
			<polygon clip-path="url(#SVGID_6_)" fill-rule="evenodd" clip-rule="evenodd" points="165.42,40.068 164.936,40.007 
				164.888,40.28 165.367,40.354 			"/>
			<polygon clip-path="url(#SVGID_6_)" fill-rule="evenodd" clip-rule="evenodd" points="165.896,40.155 165.881,40.149 
				165.42,40.068 165.367,40.354 165.848,40.428 165.834,40.424 			"/>
			<polygon clip-path="url(#SVGID_6_)" fill-rule="evenodd" clip-rule="evenodd" points="166.318,40.269 165.896,40.155 
				165.834,40.424 166.256,40.536 166.323,40.255 			"/>
			<polygon clip-path="url(#SVGID_6_)" fill-rule="evenodd" clip-rule="evenodd" points="166.76,40.371 166.746,40.367 
				166.322,40.255 166.257,40.536 166.681,40.648 166.668,40.644 			"/>
			<polygon clip-path="url(#SVGID_6_)" fill-rule="evenodd" clip-rule="evenodd" points="167.157,40.52 167.157,40.52 
				166.76,40.371 166.668,40.644 167.066,40.79 167.053,40.787 167.17,40.523 			"/>
			<polygon clip-path="url(#SVGID_6_)" fill-rule="evenodd" clip-rule="evenodd" points="167.551,40.679 167.169,40.523 
				167.052,40.787 167.433,40.943 			"/>
			<polygon clip-path="url(#SVGID_6_)" fill-rule="evenodd" clip-rule="evenodd" points="167.913,40.844 167.551,40.679 
				167.434,40.943 167.801,41.096 			"/>
			<polygon clip-path="url(#SVGID_6_)" fill-rule="evenodd" clip-rule="evenodd" points="168.285,41.026 168.277,41.007 
				167.913,40.844 167.801,41.096 168.172,41.274 168.159,41.271 168.29,41.013 			"/>
			<polygon clip-path="url(#SVGID_6_)" fill-rule="evenodd" clip-rule="evenodd" points="168.644,41.202 168.289,41.013 
				168.16,41.271 168.519,41.448 168.647,41.189 			"/>
			<polygon clip-path="url(#SVGID_6_)" fill-rule="evenodd" clip-rule="evenodd" points="168.998,41.393 168.646,41.189 
				168.52,41.448 168.872,41.638 169.012,41.396 			"/>
			<polygon clip-path="url(#SVGID_6_)" fill-rule="evenodd" clip-rule="evenodd" points="169.366,41.587 169.012,41.396 
				168.872,41.638 169.227,41.83 			"/>
			<polygon clip-path="url(#SVGID_6_)" fill-rule="evenodd" clip-rule="evenodd" points="169.534,41.86 169.733,41.782 
				169.366,41.587 169.227,41.83 169.594,42.023 169.795,41.945 			"/>
			<polygon clip-path="url(#SVGID_6_)" fill-rule="evenodd" clip-rule="evenodd" points="132.062,45.752 132.885,43.591 
				130.201,42.696 129.578,44.131 129.561,44.269 129.556,44.412 129.578,44.564 129.629,44.71 129.715,44.839 129.785,44.979 
				129.897,45.116 130.014,45.241 130.135,45.354 130.27,45.471 130.408,45.575 130.541,45.649 130.672,45.734 130.824,45.8 
				130.957,45.874 131.086,45.916 131.203,45.955 131.342,45.973 131.467,45.984 131.588,45.968 131.709,45.95 131.838,45.908 
				131.951,45.83 			"/>
			<polygon clip-path="url(#SVGID_6_)" fill-rule="evenodd" clip-rule="evenodd" points="130.321,42.765 130.153,42.838 
				132.838,43.733 132.928,43.461 130.243,42.567 130.062,42.636 			"/>
			<polygon clip-path="url(#SVGID_6_)" points="171.735,44.25 171.721,44.29 170.903,46.438 170.645,46.352 171.438,44.229 
				171.453,44.143 171.457,44.173 171.735,44.12 171.738,44.15 			"/>
			<polygon clip-path="url(#SVGID_6_)" fill="#4D494A" points="158.572,39.166 158.62,39.138 158.625,39.142 			"/>
			<path clip-path="url(#SVGID_6_)" d="M171.635,43.77l-0.029-0.125l-0.005,0.014l-0.21,0.043l0.055-0.138l-6.019,0.196
				l-0.142-0.005l-0.156-0.053l-0.156-0.05l-0.154-0.054l-0.144-0.089l-0.116-0.083l-0.083-0.101l-0.05-0.099l0.141-0.044
				l-2.392-7.21l-0.142-0.001l-0.002-0.09h-0.217l-0.203,0.005l-0.186-0.005l-0.169,0.03l-0.172,0.045l-0.173,0.084l-0.16,0.135
				l-0.189,0.182l-0.005,0.015l-0.11,0.149l-0.123,0.16l-0.144,0.168l-0.101,0.169l-0.125,0.203l-0.131,0.173l-0.105,0.193
				l-0.139,0.201l-0.112,0.163l-0.16,0.177l-0.131,0.173l-0.149,0.152l-0.135,0.142l-0.144,0.126l-0.138,0.111l-0.16,0.09
				l-0.034,0.019l0.103,0.099l-0.103-0.099l-0.161,0.177l-0.146,0.139l-0.129,0.129l-0.14,0.114l-0.136,0.098l-0.139,0.083
				l-0.127,0.073l-0.139,0.068l-0.154,0.035l-0.152,0.063l-0.156,0.036l-0.18,0.025l-0.199,0.035l-0.221,0.013l-0.239,0.021
				l-0.232,0.01l-0.014-0.006l-25.968,1.941l-0.15,0.019l-0.139,0.028l-0.125,0.029l-0.131,0.043l-0.121,0.061l-0.125,0.074
				l-0.104,0.095l-0.121,0.104l-0.025,0.033l-0.454,1.059l0.237,0.152l-0.105-0.104l0.018-0.013l0.114,0.081l0.113-0.266
				l0.077-0.045l0.099-0.04l0.117-0.047l0.108-0.021l0.138-0.026l0.139-0.025l25.979-1.936l0.166-0.016l0.16-0.006l0.158-0.004
				l0.17-0.027h0.174l0.149-0.024l0.165-0.017l0.15-0.021l0.17-0.031l0.15-0.021l0.154-0.034l0.174-0.045l0.156-0.033l0.165-0.061
				l0.164-0.062l0.155-0.077l0.307-0.186l0.312-0.285l0.328-0.338l0.315-0.384l0.307-0.401l0.265-0.359l0.259-0.346l0.215-0.26
				l0.127-0.029l0.106-0.022l0.136-0.013h0.13h0.13l0.11,0.009l0.144,0.005l0.126,0.014l2.385,7.192l0.051,0.104l0.082,0.101
				l0.117,0.081l0.156,0.095l0.151,0.065l0.155,0.053l0.147,0.034l0.144,0.004l6.012-0.184l0.723-1.9l0.004,0.025L171.635,43.77z
				 M128.427,43.57l-0.008,0.019l-0.099-0.095L128.427,43.57z"/>
			<polygon clip-path="url(#SVGID_6_)" fill-rule="evenodd" clip-rule="evenodd" points="129.336,43.04 129.181,43.076 
				129.043,43.102 128.916,43.133 128.786,43.176 128.666,43.236 128.54,43.309 128.441,43.391 128.32,43.494 128.525,43.694 
				128.617,43.595 128.713,43.524 128.805,43.469 128.902,43.431 128.999,43.404 129.111,43.37 129.232,43.353 129.365,43.34 			"/>
			<polygon clip-path="url(#SVGID_6_)" fill-rule="evenodd" clip-rule="evenodd" points="155.3,41.114 129.336,43.04 129.365,43.34 
				155.333,41.4 			"/>
			<polygon clip-path="url(#SVGID_6_)" fill-rule="evenodd" clip-rule="evenodd" points="157.846,40.653 157.695,40.718 
				157.547,40.771 157.369,40.826 157.223,40.878 157.063,40.924 156.912,40.946 156.76,40.969 156.592,40.998 156.453,41.026 
				156.294,41.028 156.129,41.046 155.965,41.063 155.801,41.08 155.654,41.089 155.477,41.102 155.3,41.114 155.332,41.4 
				155.498,41.382 155.66,41.366 155.834,41.366 155.998,41.349 156.16,41.344 156.314,41.31 156.476,41.306 156.652,41.293 
				156.809,41.258 156.963,41.224 157.132,41.193 157.306,41.15 157.451,41.099 157.629,41.043 157.806,40.986 157.963,40.909 			
				"/>
			<polygon clip-path="url(#SVGID_6_)" fill-rule="evenodd" clip-rule="evenodd" points="160.172,38.088 160.115,38.126 
				159.999,38.261 159.896,38.398 159.771,38.558 159.641,38.731 159.492,38.912 159.359,39.099 159.208,39.294 159.056,39.486 
				158.9,39.694 158.74,39.872 158.584,40.036 158.425,40.214 158.291,40.356 158.122,40.472 157.984,40.584 157.846,40.653 
				157.963,40.909 158.141,40.809 158.291,40.702 158.468,40.559 158.636,40.398 158.792,40.234 158.947,40.07 159.12,39.854 
				159.273,39.66 159.424,39.466 159.574,39.271 159.708,39.085 159.857,38.904 159.986,38.731 160.111,38.571 160.214,38.433 
				160.311,38.32 160.258,38.348 			"/>
			<polygon clip-path="url(#SVGID_6_)" fill-rule="evenodd" clip-rule="evenodd" fill="#FFFFFF" points="165.146,45.898 
				164.61,45.907 164.566,45.907 169.17,47.442 169.403,47.305 165.15,45.886 			"/>
			<polygon clip-path="url(#SVGID_6_)" fill-rule="evenodd" clip-rule="evenodd" fill="#FFFFFF" points="165.146,45.898 
				170.623,45.724 170.645,45.832 170.674,45.956 170.709,46.068 170.752,46.198 170.774,46.307 170.774,46.394 170.739,46.497 
				170.645,46.567 170.418,46.722 170.168,46.868 169.918,47.016 169.666,47.162 169.429,47.314 169.403,47.305 165.15,45.886 			
				"/>
			<polygon clip-path="url(#SVGID_6_)" fill="#FFFFFF" points="168.476,42.572 164.744,42.782 163.285,42.194 162.77,40.669 
				162.613,40.142 163.231,40.104 163.836,40.104 164.395,40.115 164.904,40.142 165.401,40.207 165.865,40.288 166.289,40.401 
				166.711,40.514 167.108,40.661 167.494,40.805 167.856,40.969 168.216,41.146 168.588,41.327 168.942,41.518 169.295,41.708 
				169.664,41.903 169.699,42.058 169.725,42.197 169.759,42.352 169.781,42.504 			"/>
			<polygon clip-path="url(#SVGID_6_)" fill-rule="evenodd" clip-rule="evenodd" fill="#FFFFFF" points="159.077,42.146 
				159.023,42.084 158.545,41.795 158.391,42.044 158.87,42.335 158.822,42.262 159.077,42.146 159.059,42.111 159.023,42.084 			
				"/>
			<polygon clip-path="url(#SVGID_6_)" fill-rule="evenodd" clip-rule="evenodd" fill="#FFFFFF" points="163.344,42.056 
				163.426,42.155 162.742,40.099 162.472,40.182 163.154,42.239 163.228,42.32 163.154,42.239 163.175,42.303 163.228,42.32 			"/>
			<polygon clip-path="url(#SVGID_6_)" fill-rule="evenodd" clip-rule="evenodd" fill="#FFFFFF" points="164.73,42.647 
				164.801,42.657 163.344,42.056 163.228,42.32 164.683,42.921 164.74,42.925 164.683,42.921 164.709,42.929 164.74,42.925 			"/>
			<polygon clip-path="url(#SVGID_6_)" fill-rule="evenodd" clip-rule="evenodd" fill="#FFFFFF" points="169.634,42.511 
				169.771,42.356 164.73,42.647 164.74,42.925 169.779,42.634 169.914,42.492 169.779,42.634 169.941,42.63 169.914,42.492 			"/>
			<polygon clip-path="url(#SVGID_6_)" fill-rule="evenodd" clip-rule="evenodd" fill="#FFFFFF" points="169.594,42.023 
				169.539,41.934 169.543,42.007 169.56,42.084 169.564,42.157 169.586,42.223 169.591,42.295 169.607,42.373 169.629,42.438 
				169.634,42.511 169.914,42.492 169.914,42.404 169.902,42.313 169.88,42.251 169.875,42.177 169.854,42.111 169.837,42.032 
				169.807,41.95 169.802,41.876 169.734,41.782 169.802,41.876 169.781,41.812 169.734,41.782 			"/>
			<polygon clip-path="url(#SVGID_6_)" fill-rule="evenodd" clip-rule="evenodd" fill="#FFFFFF" points="162.74,40.112 
				162.623,40.288 163.241,40.249 163.838,40.231 164.377,40.254 164.9,40.286 165.367,40.354 165.834,40.424 166.258,40.536 
				166.668,40.644 167.066,40.791 167.432,40.943 167.801,41.096 168.159,41.271 168.518,41.448 168.872,41.638 169.227,41.83 
				169.594,42.023 169.733,41.782 169.366,41.587 169.012,41.396 168.646,41.189 168.29,41.013 167.913,40.844 167.551,40.679 
				167.157,40.52 166.76,40.371 166.323,40.255 165.895,40.155 165.42,40.068 164.922,40.004 164.403,39.961 163.828,39.955 
				163.231,39.973 162.588,40.003 162.471,40.182 162.588,40.003 162.41,40.017 162.471,40.182 162.742,40.099 			"/>
			<polygon clip-path="url(#SVGID_6_)" fill-rule="evenodd" clip-rule="evenodd" fill="#FFFFFF" points="155.333,41.4 
				155.523,41.392 155.736,41.361 155.926,41.354 156.133,41.337 156.332,41.302 156.544,41.271 156.756,41.24 156.96,41.193 
				157.163,41.146 157.34,41.09 157.535,41.026 157.716,40.956 157.872,40.878 158.057,40.797 158.209,40.688 158.348,40.576 
				158.174,40.358 158.04,40.459 157.91,40.547 157.768,40.628 157.604,40.688 157.443,40.778 157.271,40.822 157.066,40.869 
				156.891,40.925 156.695,40.946 156.521,40.99 156.314,41.007 156.116,41.041 155.904,41.072 155.697,41.09 155.503,41.11 
				155.3,41.114 			"/>
			<polygon clip-path="url(#SVGID_6_)" fill-rule="evenodd" clip-rule="evenodd" fill="#FFFFFF" points="129.366,43.34 
				155.333,41.4 155.301,41.114 129.336,43.04 			"/>
			<polygon clip-path="url(#SVGID_6_)" fill-rule="evenodd" clip-rule="evenodd" fill="#FFFFFF" points="128.882,44.923 
				128.773,44.771 128.66,44.631 128.609,44.485 128.527,44.342 128.484,44.212 128.471,44.079 128.468,43.963 128.476,43.851 
				128.506,43.759 128.549,43.672 128.605,43.59 128.705,43.508 128.809,43.455 128.974,43.396 129.146,43.353 129.365,43.34 
				129.336,43.04 129.099,43.063 128.891,43.124 128.71,43.194 128.549,43.282 128.402,43.379 128.299,43.518 128.242,43.643 
				128.191,43.798 128.193,43.958 128.186,44.112 128.221,44.269 128.277,44.444 128.342,44.599 128.429,44.771 128.54,44.951 
				128.652,45.09 			"/>
			<polygon clip-path="url(#SVGID_6_)" fill-rule="evenodd" clip-rule="evenodd" fill="#FFFFFF" points="131.978,46.4 
				131.744,46.409 131.506,46.387 131.264,46.335 131.031,46.3 130.81,46.227 130.588,46.153 130.377,46.054 130.178,45.958 
				129.971,45.847 129.781,45.726 129.578,45.6 129.431,45.479 129.275,45.341 129.123,45.189 128.998,45.047 128.881,44.923 
				128.652,45.09 128.787,45.25 128.938,45.4 129.09,45.554 129.258,45.695 129.443,45.829 129.629,45.962 129.819,46.085 
				130.035,46.215 130.26,46.317 130.49,46.409 130.724,46.486 130.969,46.569 131.211,46.622 131.459,46.66 131.74,46.682 
				131.984,46.68 			"/>
			<polygon clip-path="url(#SVGID_6_)" fill-rule="evenodd" clip-rule="evenodd" fill="#FFFFFF" points="154.952,45.609 
				131.977,46.4 131.984,46.68 154.948,45.882 			"/>
			<polygon clip-path="url(#SVGID_6_)" fill-rule="evenodd" clip-rule="evenodd" fill="#FFFFFF" points="158.579,46.187 
				158.363,46.099 158.135,46.052 157.913,45.979 157.684,45.931 157.443,45.878 157.219,45.817 156.973,45.779 156.751,45.748 
				156.521,45.7 156.284,45.68 156.051,45.645 155.821,45.642 155.602,45.61 155.367,45.619 155.156,45.604 154.952,45.609 
				154.948,45.882 155.165,45.882 155.377,45.895 155.575,45.903 155.801,45.92 156.025,45.938 156.249,45.956 156.471,45.986 
				156.702,46.021 156.932,46.068 157.152,46.099 157.377,46.158 157.609,46.193 157.835,46.256 158.074,46.319 158.273,46.371 
				158.492,46.444 158.583,46.173 			"/>
			<polygon clip-path="url(#SVGID_6_)" fill-rule="evenodd" clip-rule="evenodd" fill="#FFFFFF" points="166.329,48.31 
				165.936,48.366 165.564,48.401 165.21,48.428 164.887,48.449 164.579,48.462 164.303,48.427 164.018,48.418 163.779,48.396 
				163.532,48.358 163.303,48.309 163.088,48.267 162.893,48.201 162.686,48.133 162.521,48.063 162.318,47.981 162.158,47.899 
				161.973,47.807 161.786,47.718 161.604,47.612 161.424,47.509 161.241,47.406 161.051,47.283 160.865,47.193 160.663,47.068 
				160.438,46.964 160.223,46.834 159.979,46.739 159.746,46.618 159.482,46.502 159.197,46.405 158.893,46.277 158.583,46.173 
				158.492,46.444 158.805,46.549 159.109,46.665 159.367,46.767 159.635,46.869 159.88,46.995 160.092,47.095 160.309,47.225 
				160.52,47.323 160.727,47.436 160.922,47.544 161.104,47.647 161.293,47.77 161.475,47.873 161.661,47.964 161.848,48.054 
				162.016,48.154 162.201,48.244 162.404,48.327 162.596,48.404 162.803,48.474 163.021,48.548 163.252,48.595 163.484,48.63 
				163.741,48.686 164.004,48.717 164.275,48.72 164.594,48.725 164.895,48.726 165.245,48.713 165.6,48.687 165.975,48.64 
				166.364,48.596 166.344,48.316 			"/>
			<polygon clip-path="url(#SVGID_6_)" fill-rule="evenodd" clip-rule="evenodd" fill="#FFFFFF" points="170.57,46.439 
				170.346,46.597 170.096,46.744 169.844,46.89 169.59,47.05 169.355,47.188 169.092,47.331 168.846,47.465 168.592,47.581 
				168.317,47.706 168.047,47.832 167.778,47.943 167.502,48.039 167.202,48.111 166.93,48.194 166.633,48.267 166.342,48.316 
				166.364,48.596 166.688,48.532 166.995,48.475 167.299,48.391 167.584,48.312 167.868,48.191 168.163,48.087 168.43,47.974 
				168.703,47.849 168.979,47.711 169.243,47.568 169.49,47.436 169.741,47.288 169.992,47.141 170.242,46.995 170.479,46.843 
				170.717,46.692 170.584,46.444 			"/>
			<polygon clip-path="url(#SVGID_6_)" fill-rule="evenodd" clip-rule="evenodd" fill="#FFFFFF" points="170.623,45.853 
				170.477,45.732 170.52,45.862 170.545,46.001 170.579,46.112 170.609,46.237 170.627,46.316 170.641,46.364 170.618,46.428 
				170.584,46.444 170.718,46.692 170.843,46.576 170.908,46.424 170.926,46.285 170.882,46.156 170.852,46.03 170.816,45.918 
				170.782,45.807 170.762,45.697 170.627,45.582 170.762,45.697 170.757,45.582 170.627,45.582 			"/>
			<polygon clip-path="url(#SVGID_6_)" fill="#FFFFFF" points="160.01,44.833 160.014,44.819 160.016,44.82 			"/>
			<polygon clip-path="url(#SVGID_6_)" fill="#FFFFFF" points="160.075,44.769 160.016,44.82 160.049,44.674 			"/>
			<polygon clip-path="url(#SVGID_6_)" fill="#FFFFFF" points="156.207,43.118 151.471,41.537 151.982,41.507 151.986,41.495 
				156.102,42.866 			"/>
			<path clip-path="url(#SVGID_6_)" fill="#FFFFFF" d="M170.627,45.583l-6.018,0.195l-0.125-0.013l-0.116-0.04l-0.157-0.051
				l-0.142-0.049l-0.13-0.087l-0.094-0.06l-0.057-0.092l-0.044-0.043l-2.394-7.209l-0.035-0.112l-0.116,0.004l-0.121,0.017
				l-0.138-0.017l-0.17-0.014l-0.158,0.005l-0.156-0.01l-0.143,0.039l-0.159,0.047l-0.13,0.087l-0.156,0.166l-0.13,0.172
				l-0.121,0.146l-0.121,0.146l-0.104,0.14l-0.099,0.126l-0.086,0.128l-0.104,0.14l-0.086,0.129l-0.1,0.125l-0.1,0.127l-0.107,0.107
				l-0.113,0.121l-0.129,0.129l-0.131,0.131l-0.164,0.145l0.088,0.11l-0.129,0.107l-0.15,0.094l-0.168,0.074l-0.155,0.078
				l-0.168,0.072l-0.19,0.053l-0.195,0.065l-0.189,0.051l-0.182,0.026l-0.199,0.036l-0.211,0.028l-0.199,0.034l-0.207,0.018
				l-0.208,0.018l-0.194,0.021l-0.19,0.008l-3.338,0.242l4.112,1.371l0.107,0.252l-4.736-1.581l-22.125,1.651l-0.412,0.064
				l-0.308,0.143l-0.212,0.203l-0.076,0.233v0.259l-0.005,0.014l0.073,0.298l0.146,0.295l0.213,0.315l0.125,0.142l0.138,0.147
				l0.151,0.15l0.159,0.127l0.169,0.143l0.189,0.12l0.203,0.126l0.203,0.126l0.218,0.087l0.212,0.099l0.232,0.078l0.248,0.081
				l0.231,0.034l0.243,0.053l0.252,0.026l0.244-0.005l3.342-0.123l19.622-0.672h0.217l0.202-0.003l0.23,0.003l0.219,0.03
				l0.226,0.018l0.224,0.018l0.221,0.031l0.234,0.034l0.233,0.034l0.229,0.048l0.229,0.049l0.229,0.047l0.237,0.063l0.224,0.062
				l0.215,0.056l0.22,0.072l0.312,0.105l0.306,0.117l0.269,0.103l0.268,0.104l0.234,0.12l0.225,0.104l0.232,0.123l0.213,0.099
				l0.203,0.125l0.182,0.104l0.195,0.107l0.18,0.104l0.195,0.107l0.18,0.105l0.175,0.086l0.182,0.104l0.185,0.09l0.192,0.078
				l0.181,0.062l0.207,0.068l0.221,0.073l0.211,0.058l0.234,0.033l0.246,0.039l0.252,0.027l0.28,0.021l0.3,0.014l0.305-0.014
				l0.32-0.008l0.358-0.038l0.372-0.035l0.406-0.052l0.303-0.043l0.299-0.073l0.299-0.073l0.276-0.096l0.293-0.104l0.28-0.106
				l0.268-0.112l0.273-0.125l0.26-0.13l0.264-0.144l-4.199-1.4l5.652-0.189L170.627,45.583z M132.145,45.462l-0.025,0.165
				l-0.057,0.125l-0.103,0.095l-0.155,0.078l-0.183,0.025l-0.099-0.004l-0.114-0.009l-0.106-0.021l-0.108-0.021l-0.13-0.044
				l-0.117-0.039l-0.125-0.056l-0.135-0.073l-0.111-0.052l-0.117-0.083l-0.104-0.077l-0.113-0.096l-0.116-0.081l-0.081-0.1
				l-0.101-0.091l-0.082-0.099l-0.15-0.195l-0.077-0.199l-0.039-0.1l-0.022-0.065l0.013-0.169l0.031-0.133l0.096-0.112l0.137-0.069
				l0.187-0.038l0.104-0.01l0.106,0.023l0.126,0.012l0.135,0.03l0.116,0.039l0.129,0.044l0.138,0.059l0.123,0.07l0.125,0.057
				l0.135,0.073l0.117,0.081l0.11,0.097l0.104,0.078l0.107,0.106l0.096,0.104l0.082,0.101l0.133,0.204l0.078,0.196l0.022,0.065
				L132.145,45.462z M156.062,42.407L156.062,42.407l0.093,0.074L156.062,42.407z M159.745,44.691l-0.151,0.153l-1.975,0.113
				l-0.418-0.218l-0.99-2.33l0.153-0.196l2.12-0.151l-0.094-0.019l0.071-0.114l0.011-0.001l0.471,0.271l0.002,0.005l-0.123,0.057
				L159.745,44.691z"/>
			<polygon clip-path="url(#SVGID_6_)" fill-rule="evenodd" clip-rule="evenodd" points="133.482,43.964 133.603,44.032 
				133.625,44.142 133.451,44.185 133.416,44.071 133.521,44.149 			"/>
			<polygon clip-path="url(#SVGID_6_)" fill-rule="evenodd" clip-rule="evenodd" points="133.247,44.102 133.273,44.066 
				133.316,44.024 133.37,43.998 133.42,43.973 133.482,43.964 133.52,44.149 133.494,44.142 133.455,44.171 133.408,44.185 
				133.403,44.196 133.412,44.171 133.252,44.089 			"/>
			<polygon clip-path="url(#SVGID_6_)" fill-rule="evenodd" clip-rule="evenodd" points="133.736,45.187 133.723,45.183 
				133.641,45.082 133.533,44.975 133.43,44.854 133.33,44.72 133.248,44.577 133.201,44.416 133.2,44.244 133.252,44.089 
				133.412,44.171 133.379,44.275 133.385,44.378 133.416,44.504 133.494,44.615 133.58,44.745 133.674,44.85 133.784,44.957 
				133.866,45.057 133.854,45.053 			"/>
			<polygon clip-path="url(#SVGID_6_)" fill-rule="evenodd" clip-rule="evenodd" points="135.326,45.646 135.34,45.65 
				135.11,45.646 134.895,45.646 134.691,45.607 134.497,45.585 134.299,45.533 134.112,45.441 133.918,45.334 133.736,45.187 
				133.854,45.053 134.03,45.17 134.199,45.27 134.358,45.351 134.531,45.396 134.723,45.429 134.916,45.451 135.115,45.459 
				135.318,45.455 135.312,45.468 135.346,45.637 			"/>
			<polygon clip-path="url(#SVGID_6_)" fill-rule="evenodd" clip-rule="evenodd" points="152.194,44.761 152.121,44.81 
				135.344,45.637 135.313,45.468 152.096,44.627 152.021,44.675 			"/>
			<polygon clip-path="url(#SVGID_6_)" fill-rule="evenodd" clip-rule="evenodd" points="152.593,44.174 152.775,44.234 
				152.761,44.36 152.727,44.463 152.675,44.575 152.605,44.653 152.516,44.71 152.398,44.757 152.27,44.8 152.121,44.81 
				152.096,44.627 152.234,44.602 152.359,44.57 152.42,44.563 152.48,44.511 152.51,44.463 152.558,44.407 152.584,44.329 
				152.578,44.213 152.761,44.274 			"/>
			<polygon clip-path="url(#SVGID_6_)" points="133.589,44.244 133.636,44.318 133.697,44.396 133.745,44.47 133.811,44.536 
				133.871,44.611 133.936,44.677 133.995,44.754 134.169,44.884 134.346,45.001 134.523,45.074 134.709,45.122 134.902,45.145 
				135.107,45.182 135.306,45.192 135.521,45.192 152.303,44.35 152.165,44.611 152.111,44.619 152.096,44.627 135.314,45.468 
				135.033,45.446 134.799,45.455 134.579,45.425 134.377,45.386 134.189,45.295 134.023,45.196 133.865,45.057 133.689,44.854 
				133.533,44.672 133.42,44.491 133.365,44.357 133.365,44.271 133.402,44.196 133.511,44.132 133.525,44.128 133.533,44.154 			
				"/>
			<path clip-path="url(#SVGID_6_)" d="M152.773,44.234l-0.016-0.163l-0.035-0.113l-0.047-0.159l-0.113-0.183l-0.137-0.146
				l-0.178-0.161l-0.213-0.143l-0.238-0.107l-0.248-0.067l-0.305-0.002l-17.239,0.875l-0.329,0.034l-0.232,0.052l-0.17,0.116
				l-0.094,0.157l0.004,0.159l0.064,0.194l0.125,0.186l0.173,0.218l0.177,0.202l0.191,0.165l0.202,0.124l0.198,0.095l0.217,0.044
				l0.26,0.043h0.26l0.295-0.017l16.775-0.827v-0.005l0.178-0.009l0.182-0.068l0.119-0.104l0.084-0.116l0.056-0.126L152.773,44.234z
				 M152.579,44.213l-0.021,0.108l-0.008,0.017l-0.014,0.004h-0.087l-0.147,0.009l-0.14,0.261l-0.051,0.008l-0.017,0.008
				l-16.783,0.841l-0.279-0.021l-0.234,0.009l-0.22-0.03l-0.202-0.039l-0.188-0.091l-0.168-0.099l-0.155-0.14l-0.179-0.203
				l-0.154-0.182l-0.113-0.181l-0.055-0.134v-0.087l0.038-0.074l0.108-0.064l0.014-0.004l0.189-0.044L134,44.051l17.244-0.889
				l0.014,0.004l0.241,0.009l0.237,0.065l0.213,0.1l0.181,0.104l0.151,0.151l0.107,0.152l0.096,0.146l0.074,0.125l0.013,0.092
				L152.579,44.213z"/>
		</g>
		<line fill="#919396" x1="0" y1="270.188" x2="0" y2="0.188"/>
		<g>
			<defs>
				<line id="SVGID_31_" x1="0" y1="0.188" x2="0" y2="270.188"/>
			</defs>
			<clipPath id="SVGID_8_">
				<use xlink:href="#SVGID_31_"  overflow="visible"/>
			</clipPath>
		</g>
		<g>
			<defs>
				<line id="SVGID_33_" x1="0" y1="0.188" x2="0" y2="270.188"/>
			</defs>
			<clipPath id="SVGID_10_">
				<use xlink:href="#SVGID_33_"  overflow="visible"/>
			</clipPath>
		</g>
		<g>
			<defs>
				<line id="SVGID_35_" x1="0" y1="0.188" x2="0" y2="270.188"/>
			</defs>
			<clipPath id="SVGID_12_">
				<use xlink:href="#SVGID_35_"  overflow="visible"/>
			</clipPath>
		</g>
	</g>
</g>
<g id="white_background">
	<rect x="20.25" y="20.685" fill="#FFFFFF" width="157.5" height="229"/>
</g>
<g id="images">
	<g id="layer2_3_">
		<g id="g2843_5_" transform="matrix(1.3442815,0,0,1.3442815,2.3043024,60.255529)">
			
				<radialGradient id="path3099_3_" cx="-215.5637" cy="101.7499" r="8.7188" gradientTransform="matrix(0 5.4396 1.9126 0 -151.8717 1191.8629)" gradientUnits="userSpaceOnUse">
				<stop  offset="0" style="stop-color:#000000"/>
				<stop  offset="1" style="stop-color:#000000;stop-opacity:0"/>
			</radialGradient>
			<path id="path3099_5_" opacity="0.4091" fill="url(#path3099_3_)" enable-background="new    " d="M42.734,54.563
				c-6.85,0-12.405-15.795-12.405-35.281c0-19.485,5.555-35.28,12.405-35.28c6.85,0,12.405,15.795,12.405,35.28
				C55.139,38.768,49.585,54.563,42.734,54.563z"/>
			
				<path id="path1650_5_" fill="#971B1E" stroke="#680E12" stroke-width="0.8839" stroke-linecap="round" stroke-linejoin="round" d="
				M76.064,53.985c-19.155,0-34.684-15.529-34.684-34.685c0-19.155,15.529-34.685,34.684-34.685
				c19.157,0,34.685,15.529,34.685,34.685C110.749,38.455,95.221,53.985,76.064,53.985z"/>
			
				<path id="path3392_5_" fill="#971B1E" stroke="#EC1E25" stroke-width="0.8839" stroke-linecap="round" stroke-linejoin="round" d="
				M76.216,53.096c-18.536,0-33.562-15.027-33.562-33.564S57.68-14.031,76.216-14.031S109.78,0.995,109.78,19.532
				S94.753,53.096,76.216,53.096z"/>
			<path id="path3068_7_" fill="#D21F26" fill-opacity="0.2139" d="M77.611,51.628c-18.068,0,7.184-10.096-0.644-31.155
				c-7.891-21.226-17.424-34.312,0.644-34.312c18.069,0,32.733,14.666,32.733,32.734C110.344,36.965,95.68,51.628,77.611,51.628z"/>
			<path id="rect1872_5_" fill="#FFFFFF" d="M94.467,14.572c0-0.213-0.291-0.392-0.641-0.392l-24.091,1.776
				c-0.35,0-0.641,0.179-0.641,0.392c0,0-0.02,1.403,0,2.559c0.007,0.381-0.034,0.497,0,0.843c-0.02,1.157,0,2.56,0,2.56
				c0,0.214,0.291,0.391,0.641,0.391l24.091,1.776c0.349,0,0.591-0.178,0.591-0.392v-4.305c0.004-0.016,0.05-0.015,0.05-0.031
				V14.572L94.467,14.572z"/>
			<path id="path2062_5_" fill="#FFFFFF" d="M61.408,23.246c-2.123,0-3.843-1.72-3.843-3.842c0-2.123,1.72-3.843,3.843-3.843
				c2.122,0,3.843,1.72,3.843,3.843C65.251,21.527,63.53,23.246,61.408,23.246z"/>
			<circle fill="#231F20" fill-opacity="0.2" cx="61.408" cy="19.404" r="5.166"/>
			<path fill="#231F20" fill-opacity="0.2" d="M69.094,16.349c0,0-0.02,1.403,0,2.559c0.007,0.381-0.034,0.497,0,0.843
				c-0.02,1.157,0,2.56,0,2.56c0,0.214,0.291,0.391,0.641,0.391l8.099,0.597c-0.227-0.92-0.509-1.86-0.868-2.826
				c-0.63-1.695-1.269-3.321-1.905-4.909l-5.326,0.393C69.385,15.957,69.094,16.136,69.094,16.349z"/>
		</g>
	</g>
</g>
<g id="text">
	<rect x="56.55" y="117.797" fill="none" width="90.297" height="127.391"/>
	<text transform="matrix(0 1 -1 0 138.2784 134.4102)"><tspan x="0" y="0" fill="#231F20" font-family="'HelveticaNeue-CondensedBold'" font-size="12">[intrusion detected]</tspan><tspan x="27.473" y="22" fill="#231F20" font-family="'HelveticaNeue-CondensedBold'" font-size="20">virus </tspan><tspan x="9.512" y="44" fill="#231F20" font-family="'HelveticaNeue-CondensedBold'" font-size="20">signature</tspan><tspan x="12.473" y="66" fill="#231F20" font-family="'HelveticaNeue-CondensedBold'" font-size="20">matched</tspan></text>
</g>
<g id="presentation_borders" display="none">
	<path display="inline" fill="#231F20" d="M189,257.185v-244c0-2.209-1.791-4-4-4H13c-2.21,0-4,1.791-4,4v244c0,2.211,1.79,4,4,4
		h172C187.209,261.185,189,259.396,189,257.185z M25.736,247.728c-1.882,0-3.402-1.598-3.402-3.574V26.052
		c0-1.977,1.521-3.574,3.402-3.574h146.445c1.879,0,3.402,1.598,3.402,3.574v218.102c0,1.977-1.523,3.574-3.402,3.574H25.736z"/>
</g>
<g id="print_borders">
	<path fill="#231F20" d="M0,0.185h198v270H0V0.185z M22.375,244.235c0,1.977,1.521,3.574,3.402,3.574h146.445
		c1.879,0,3.402-1.598,3.402-3.574V26.134c0-1.976-1.523-3.574-3.402-3.574H25.777c-1.882,0-3.402,1.598-3.402,3.574V244.235z"/>
</g>
<g id="TGC_x5F_Poker_x5F_Template_and_guides" display="none">
	<g id="_x3C_Group_x3E__Guides_one_card_15_" display="inline">
		<g opacity="0.5">
			<g>
				<path fill="#F05A28" d="M198,0.185H0v270h198V0.185z M13.04,261.267c-2.21,0-4-1.789-4-4v-244c0-2.209,1.79-4,4-4h172.001
					c2.209,0,4,1.791,4,4v244c0,2.211-1.791,4-4,4H13.04z"/>
			</g>
		</g>
		<path fill="none" stroke="#EA222A" d="M189.041,257.267c0,2.211-1.791,4-4,4H13.04c-2.21,0-4-1.789-4-4v-244c0-2.209,1.79-4,4-4
			h172.001c2.209,0,4,1.791,4,4V257.267z"/>
		<path fill="none" stroke="#2BA4DD" stroke-dasharray="1.44,1.44" d="M179.534,248.36c0,2.154-1.714,3.898-3.828,3.898H21.622
			c-2.114,0-3.828-1.744-3.828-3.898V22.171c0-2.153,1.714-3.899,3.828-3.899h154.084c2.114,0,3.828,1.746,3.828,3.899V248.36z"/>
		<rect x="0" y="76.957" fill="#F9A51B" width="27.001" height="27"/>
		<rect x="63.127" y="0.185" fill="#F9A51B" width="27.002" height="27"/>
		
			<rect x="35.686" y="35.427" fill="none" stroke="#00ADEE" stroke-width="0.5" stroke-dasharray="8,2" width="126.281" height="198.555"/>
		
			<rect x="44.719" y="45.243" fill="none" stroke="#6D6E70" stroke-width="0.5" stroke-dasharray="8,2" width="108.281" height="179.789"/>
	</g>
</g>
</svg>
