<?xml version="1.0" encoding="utf-8"?>
<!-- Generator: Adobe Illustrator 16.1.0, SVG Export Plug-In . SVG Version: 6.00 Build 0)  -->
<!DOCTYPE svg PUBLIC "-//W3C//DTD SVG 1.1//EN" "http://www.w3.org/Graphics/SVG/1.1/DTD/svg11.dtd">
<svg version="1.1" xmlns="http://www.w3.org/2000/svg" xmlns:xlink="http://www.w3.org/1999/xlink" x="0px" y="0px" width="81.12px"
	 height="81.12px" viewBox="0 0 81.12 81.12" enable-background="new 0 0 81.12 81.12" xml:space="preserve">
<g id="presentation_border">
	<circle cx="40.591" cy="40.904" r="39.898"/>
</g>
<g id="print_border" display="none">
	<rect id="_x3C_Path_x3E_" x="-7.487" y="-6.951" display="inline" width="96.095" height="95.2"/>
</g>
<g id="white-center">
	<circle fill="#FFFFFF" cx="40.425" cy="40.575" r="29.88"/>
</g>
<g id="central_image">
	<g id="layer2">
		
			<radialGradient id="path4475_1_" cx="-37.5347" cy="-635.0259" r="16.531" gradientTransform="matrix(1.4464 0 0 -0.3617 106.968 -170.5528)" gradientUnits="userSpaceOnUse">
			<stop  offset="0" style="stop-color:#000000"/>
			<stop  offset="1" style="stop-color:#000000;stop-opacity:0"/>
		</radialGradient>
		<path id="path4475" opacity="0.1711" fill="url(#path4475_1_)" enable-background="new    " d="M76.585,59.135
			c0.002,3.302-10.7,5.979-23.904,5.98c-13.203,0-23.909-2.676-23.911-5.979c0,0,0-0.001,0-0.002
			c-0.002-3.302,10.699-5.979,23.903-5.979c13.203-0.001,23.909,2.676,23.912,5.978C76.585,59.134,76.585,59.135,76.585,59.135z"/>
		
			<radialGradient id="path4485_1_" cx="348.4092" cy="-2181.0005" r="16.5283" gradientTransform="matrix(0.4978 0 0 -0.1451 -123.7048 -258.5212)" gradientUnits="userSpaceOnUse">
			<stop  offset="0" style="stop-color:#FFFFFF"/>
			<stop  offset="1" style="stop-color:#FFFFFF;stop-opacity:0"/>
		</radialGradient>
		<path id="path4485" fill="url(#path4485_1_)" d="M57.961,57.942c0.001,1.324-3.683,2.397-8.226,2.398
			c-4.544,0-8.229-1.074-8.229-2.398l0,0c-0.002-1.324,3.682-2.398,8.225-2.398C54.276,55.543,57.96,56.617,57.961,57.942
			L57.961,57.942z"/>
	</g>
	<g id="layer3">
		<g id="g1772" transform="translate(0.12372323,0.07535096)">
			
				<linearGradient id="path2844_1_" gradientUnits="userSpaceOnUse" x1="42.2728" y1="37.8787" x2="46.5779" y2="33.5651" gradientTransform="matrix(1 0 0 -1 0.1235 82.0436)">
				<stop  offset="0" style="stop-color:#8A8A8A"/>
				<stop  offset="1" style="stop-color:#484848"/>
			</linearGradient>
			
				<path id="path2844" fill="#DCDCDC" stroke="url(#path2844_1_)" stroke-width="2.169" stroke-linecap="round" stroke-miterlimit="10" d="
				M32.955,18.713c-8.828,0-15.992,7.164-15.992,15.991s7.165,15.991,15.992,15.991c3.772,0,7.104-1.502,9.84-3.689
				c-0.223,1.091-0.085,2.207,0.82,2.993L55.506,60.33c1.338,1.162,3.349,1.012,4.509-0.327c1.163-1.338,1.011-3.35-0.327-4.511
				L47.798,45.16c-0.729-0.634-1.618-0.819-2.503-0.697c2.156-2.726,3.651-6.018,3.651-9.759
				C48.947,25.877,41.782,18.713,32.955,18.713z M32.873,20.043c8.285,0,14.415,5.193,14.415,14.416
				c0,9.408-6.309,14.415-14.415,14.415c-7.921,0-14.416-5.941-14.416-14.415C18.457,25.799,24.775,20.043,32.873,20.043z"/>
			<path id="path4430" fill="#DCDCDC" d="M32.928,18.645c-8.856,0-16.043,7.187-16.043,16.043c0,8.854,7.187,16.042,16.043,16.042
				c3.785,0,7.127-1.507,9.872-3.701c-0.224,1.096-0.084,2.215,0.822,3.002l11.931,10.366c1.341,1.165,3.359,1.013,4.523-0.328
				c1.167-1.344,1.014-3.359-0.327-4.527L47.82,45.177c-0.73-0.636-1.625-0.824-2.51-0.699c2.162-2.733,3.662-6.038,3.662-9.79
				C48.972,25.832,41.784,18.645,32.928,18.645z M32.845,22.1c6.812,0,12.341,5.529,12.341,12.34c0,6.812-5.528,12.34-12.341,12.34
				c-6.812,0-12.34-5.528-12.34-12.34C20.505,27.629,26.034,22.1,32.845,22.1z"/>
			
				<linearGradient id="path4438_1_" gradientUnits="userSpaceOnUse" x1="-24.4997" y1="114.1029" x2="-21.7209" y2="117.2883" gradientTransform="matrix(1.3346 0 0 -1.2913 81.835 201.8094)">
				<stop  offset="0" style="stop-color:#7D7D7D"/>
				<stop  offset="0.5" style="stop-color:#B1B1B1"/>
				<stop  offset="1" style="stop-color:#686868"/>
			</linearGradient>
			<path id="path4438" fill="url(#path4438_1_)" d="M55.599,60.397c-0.519-2.466,1.515-5.22,3.888-5.194L47.818,45.163
				c-3.195-0.062-4.632,2.463-4.098,4.988L55.599,60.397z"/>
			
				<linearGradient id="path4450_1_" gradientUnits="userSpaceOnUse" x1="-22.7077" y1="125.7591" x2="-23.5665" y2="112.5905" gradientTransform="matrix(1.2457 0 0 -1.2457 61.4401 183.6051)">
				<stop  offset="0" style="stop-color:#FFFFFF"/>
				<stop  offset="0.5" style="stop-color:#FFFFFF;stop-opacity:0.219"/>
				<stop  offset="1" style="stop-color:#FFFFFF"/>
			</linearGradient>
			
				<path id="path4450" fill="none" stroke="url(#path4450_1_)" stroke-width="0.8706" stroke-linecap="round" stroke-miterlimit="10" d="
				M47.61,34.167c0,8.244-6.684,14.927-14.928,14.927S17.755,42.41,17.755,34.167S24.438,19.24,32.682,19.24
				S47.61,25.923,47.61,34.167z"/>
			
				<path id="rect4495" opacity="0.4332" fill="none" stroke="#FFFFFF" stroke-width="1.0846" stroke-linecap="round" stroke-miterlimit="10" enable-background="new    " d="
				M47.368,45.758l12.065,10.545c0.964,0.84,1.149,2.222,0.417,3.081l-0.469,0.548c-0.732,0.861-2.108,0.875-3.073,0.035
				L44.243,49.423c-0.964-0.844-1.15-2.224-0.417-3.085l0.468-0.548C45.03,44.929,46.404,44.914,47.368,45.758z"/>
			
				<radialGradient id="path4452_1_" cx="-46.9758" cy="149.1859" r="9.0107" gradientTransform="matrix(1.3986 0 0 -1.3986 99.3705 248.0489)" gradientUnits="userSpaceOnUse">
				<stop  offset="0" style="stop-color:#729FCF;stop-opacity:0.2078"/>
				<stop  offset="1" style="stop-color:#729FCF;stop-opacity:0.6762"/>
			</radialGradient>
			
				<path id="path4452" fill="url(#path4452_1_)" stroke="#3063A3" stroke-width="0.7754" stroke-linecap="round" stroke-miterlimit="10" d="
				M45.285,34.332c0,6.96-5.641,12.603-12.601,12.603c-6.961,0.003-12.604-5.64-12.605-12.6c0-0.001,0-0.002,0-0.003
				c0-6.96,5.641-12.603,12.6-12.604c6.961-0.001,12.604,5.641,12.606,12.602C45.285,34.33,45.285,34.331,45.285,34.332z"/>
			
				<radialGradient id="path4462_1_" cx="-142.072" cy="259.1292" r="7.2181" gradientTransform="matrix(2.593 0 0 -2.2521 397.3163 610.2889)" gradientUnits="userSpaceOnUse">
				<stop  offset="0" style="stop-color:#FFFFFF"/>
				<stop  offset="1" style="stop-color:#FFFFFF;stop-opacity:0.2476"/>
			</radialGradient>
			<path id="path4462" opacity="0.8342" fill="url(#path4462_1_)" enable-background="new    " d="M32.445,23.326
				c-5.648,0-10.222,4.573-10.222,10.221c0,1.631,0.456,3.132,1.136,4.5c1.358,0.501,2.801,0.842,4.333,0.842
				c6.691,0,12.037-5.273,12.449-11.861C38.264,24.809,35.575,23.326,32.445,23.326z"/>
		</g>
		<g id="layer1">
			<g id="g4336" transform="matrix(0.5028156,0,0,0.5028156,2.8171971,33.165856)">
				<g id="g4683" transform="matrix(0,-2.7499998,1,0,5.6654159,107.07076)">
					<path id="path4739" fill="#86AED6" stroke="#3465A4" stroke-width="1.0845" d="M45.191,51.819h-1.642
						c-0.345-6.605-2.231-11.79-4.633-12.739v-4.517h-1.568v4.517c-2.402,0.949-4.287,6.133-4.632,12.739h-1.642v4.314h1.642
						c0.345,6.605,2.23,11.791,4.632,12.74v4.516h1.568v-4.516c2.402-0.949,4.287-6.134,4.633-12.74h1.642V51.819z M41.98,51.819
						h-1.103l-1.569,2.157l1.569,2.157h1.103c-0.314,4.214-1.532,7.565-3.064,8.426v-3.034l-0.785-4.314l-0.784,4.314v3.034
						c-1.532-0.861-2.751-4.213-3.064-8.426h1.103l1.569-2.157l-1.569-2.157h-1.103c0.313-4.213,1.532-7.564,3.064-8.425v3.033
						l0.784,4.314l0.785-4.314v-3.033C40.447,44.255,41.666,47.606,41.98,51.819z"/>
					<path id="path4755" opacity="0.4" fill="#EEEEEC" enable-background="new    " d="M44.798,52.898h-1.25h-0.344l-0.049-0.944
						c-0.321-6.136-2.058-10.915-4.289-11.795l-0.344-0.135V39.08v-3.438h-0.735c0.351,4.542,0.493,8.402,0.515,11.795l0.22-1.213
						v-2.831v-1.348l0.466,0.27c1.688,0.95,3.037,4.661,3.383,9.301l0.098,1.281h-0.49h-1.03l-0.784,1.078l0.784,1.078h1.03h0.49
						l-0.098,1.282c-0.345,4.641-1.695,8.351-3.383,9.301l-0.466,0.27v-1.348v-2.831l-0.392-2.158l-0.147,0.742
						c-0.14,3.917-0.202,7.65,0.172,11.998h0.367v-3.438v-0.945l0.344-0.134c2.231-0.88,3.968-5.66,4.289-11.795l0.049-0.945h0.344
						h1.25V52.898z"/>
				</g>
			</g>
		</g>
	</g>
</g>
<g id="text">
</g>
<g id="guides" display="none">
	<g id="guide_2_" display="inline">
	</g>
	<g id="guide" display="inline">
	</g>
	<g id="guide_5_" display="inline">
	</g>
	<g id="guide_4_" display="inline">
	</g>
	<g id="guide_6_" display="inline">
	</g>
	<g id="guide_7_" display="inline">
	</g>
	<g id="guide_3_" display="inline">
	</g>
	<g id="guide_1_" display="inline">
	</g>
	<g id="guide_8_" display="inline">
		<rect x="0.061" y="-0.12" fill="none" width="81.059" height="81.059"/>
		<circle fill="none" stroke="#EC1E28" cx="40.59" cy="40.408" r="36.027"/>
		<circle fill="none" stroke="#2BA6DE" stroke-dasharray="1.1716" cx="40.424" cy="40.576" r="31.523"/>
	</g>
</g>
</svg>
