<?xml version="1.0" encoding="utf-8"?>
<!-- Generator: Adobe Illustrator 16.1.0, SVG Export Plug-In . SVG Version: 6.00 Build 0)  -->
<!DOCTYPE svg PUBLIC "-//W3C//DTD SVG 1.1//EN" "http://www.w3.org/Graphics/SVG/1.1/DTD/svg11.dtd">
<svg version="1.1" xmlns="http://www.w3.org/2000/svg" xmlns:xlink="http://www.w3.org/1999/xlink" x="0px" y="0px" width="81.12px"
	 height="81.12px" viewBox="0 0 81.12 81.12" enable-background="new 0 0 81.12 81.12" xml:space="preserve">
<g id="presentation_border">
	<circle fill="#1BA649" cx="40.548" cy="40.805" r="39.898"/>
</g>
<g id="print_border" display="none">
	<rect id="_x3C_Path_x3E__2_" x="-7.457" y="-7.04" display="inline" fill="#1BA649" width="96.095" height="95.2"/>
</g>
<g id="white-center">
	<circle fill="#FFFFFF" cx="40.425" cy="40.642" r="29.88"/>
</g>
<g id="central_image">
	<g id="layer1_4_" inkscape:groupmode="layer" inkscape:label="Layer 1">
		
			<radialGradient id="path2290_2_" cx="-172.1631" cy="-611.5952" r="19.9591" gradientTransform="matrix(1.3723 0 0 -0.4845 275.8012 -240.4779)" gradientUnits="userSpaceOnUse">
			<stop  offset="0" style="stop-color:#231F20"/>
			<stop  offset="0.262" style="stop-color:#272324;stop-opacity:0.738"/>
			<stop  offset="0.53" style="stop-color:#312F2F;stop-opacity:0.47"/>
			<stop  offset="0.7998" style="stop-color:#434441;stop-opacity:0.2002"/>
			<stop  offset="1" style="stop-color:#555853;stop-opacity:0"/>
		</radialGradient>
		
			<path id="path2290_1_" sodipodi:cy="41.416107" sodipodi:cx="18.66226" sodipodi:type="arc" sodipodi:ry="10.183721" sodipodi:rx="21.030567" opacity="0.5" fill="url(#path2290_2_)" enable-background="new    " d="
			M65.017,56.33c0.001,4.794-11.007,8.682-24.591,8.683c-13.58,0.001-24.591-3.886-24.593-8.682c0-0.001,0-0.001,0-0.001
			c-0.002-4.794,11.007-8.682,24.589-8.683C54.002,47.647,65.014,51.532,65.017,56.33C65.017,56.33,65.017,56.33,65.017,56.33z"/>
		
			<path id="path2773_1_" sodipodi:cy="18.894651" sodipodi:cx="26.492901" sodipodi:type="arc" sodipodi:ry="2.1770399" sodipodi:rx="6.330162" fill="#EBD316" stroke="#796328" stroke-width="1.0742" d="
			M63.509,55.388c0,1.408-2.295,2.551-5.126,2.551c-2.832,0-5.127-1.141-5.127-2.551l0,0c0-1.41,2.295-2.552,5.125-2.553
			c2.83,0,5.128,1.143,5.128,2.551C63.509,55.386,63.509,55.387,63.509,55.388z"/>
		
			<path id="path2775_1_" sodipodi:cy="18.894651" sodipodi:cx="26.492901" sodipodi:type="arc" sodipodi:ry="2.1770399" sodipodi:rx="6.330162" fill="none" d="
			M62.482,55.387c0,0.845-1.836,1.529-4.103,1.529c-2.266,0-4.103-0.685-4.103-1.528c0,0,0,0,0-0.001
			c0-0.843,1.835-1.528,4.101-1.528S62.481,54.542,62.482,55.387C62.482,55.387,62.482,55.387,62.482,55.387z"/>
		
			<path id="path2777_1_" sodipodi:cy="18.894651" sodipodi:cx="26.492901" sodipodi:type="arc" sodipodi:ry="2.1770399" sodipodi:rx="6.330162" fill="#EBD316" stroke="#8B742D" stroke-width="1.0742" d="
			M63.52,53.352c0,1.409-2.296,2.552-5.127,2.552s-5.128-1.143-5.128-2.551c0-0.001,0-0.001,0-0.001c0-1.41,2.296-2.552,5.126-2.553
			c2.831,0,5.127,1.143,5.129,2.551V53.352z"/>
		
			<path id="path2779_1_" sodipodi:cy="18.894651" sodipodi:cx="26.492901" sodipodi:type="arc" sodipodi:ry="2.1770399" sodipodi:rx="6.330162" fill="none" d="
			M62.493,53.352c0,0.843-1.837,1.529-4.104,1.529c-2.266,0-4.103-0.686-4.103-1.529l0,0c-0.001-0.844,1.835-1.529,4.101-1.529
			c2.266-0.001,4.104,0.684,4.105,1.527C62.493,53.352,62.493,53.352,62.493,53.352z"/>
		<path id="rect1354_1_" fill="#EDEEEC" stroke="#555853" stroke-width="1.023" d="M24.515,18.107H56.32
			c1.132,0,2.05,0.913,2.05,2.042v31.657c0,1.127-0.918,2.042-2.05,2.042H24.515c-1.132,0-2.05-0.915-2.05-2.042V20.149
			C22.465,19.021,23.382,18.107,24.515,18.107z"/>
		
			<path id="path2781_1_" sodipodi:cy="18.894651" sodipodi:cx="26.492901" sodipodi:type="arc" sodipodi:ry="2.1770399" sodipodi:rx="6.330162" fill="#EBD316" stroke="#8B742D" stroke-width="1.0742" d="
			M63.52,51.309c0,1.409-2.296,2.551-5.127,2.551c-2.831,0.001-5.128-1.14-5.128-2.55v-0.001c0-1.41,2.296-2.552,5.126-2.553
			C61.222,48.756,63.518,49.898,63.52,51.309L63.52,51.309z"/>
		
			<radialGradient id="rect2229_2_" cx="-334.4497" cy="84.8096" r="14.2237" gradientTransform="matrix(3.5882 0 0 -2.9832 1240.511 308.2327)" gradientUnits="userSpaceOnUse">
			<stop  offset="0" style="stop-color:#D3D7CF"/>
			<stop  offset="1" style="stop-color:#D3D7CF;stop-opacity:0"/>
		</radialGradient>
		<path id="rect2229_1_" fill="url(#rect2229_2_)" d="M26.747,21.679h27.382c0.919,0,1.665,0.743,1.665,1.66v22.214
			c0,0.918-0.746,1.66-1.665,1.66H26.747c-0.919,0-1.665-0.742-1.665-1.66V23.339C25.082,22.422,25.827,21.679,26.747,21.679z"/>
		
			<path id="path2783_1_" sodipodi:cy="18.894651" sodipodi:cx="26.492901" sodipodi:type="arc" sodipodi:ry="2.1770399" sodipodi:rx="6.330162" fill="none" d="
			M62.493,51.309c0,0.844-1.837,1.528-4.104,1.528c-2.266,0-4.103-0.684-4.103-1.528l0,0c-0.001-0.843,1.835-1.529,4.101-1.529
			S62.491,50.464,62.493,51.309C62.493,51.309,62.493,51.309,62.493,51.309z"/>
		
			<radialGradient id="rect2281_2_" cx="16.3721" cy="21.3232" r="36.1793" gradientTransform="matrix(1.0796 0 0 1.0762 23.2621 7.0295)" gradientUnits="userSpaceOnUse">
			<stop  offset="0" style="stop-color:#B9BCB5"/>
			<stop  offset="1" style="stop-color:#B9BCB5;stop-opacity:0"/>
		</radialGradient>
		<path id="rect2281_1_" fill="url(#rect2281_2_)" d="M30.21,21.679v4.086h-4.131v1.021h4.131v4.086h-4.131v1.022h4.131v4.085
			h-4.131v1.021h4.131v4.086h-4.131v1.021h4.131v4.085h1.024v-4.085h4.099v4.085h1.024v-4.085h4.1v4.085h1.024v-4.085h4.098v4.085
			h1.025v-4.085h4.098v4.085h1.025v-4.085h4.066v-1.021h-4.066v-4.086h4.066v-1.021h-4.066v-4.085h4.066v-1.022h-4.066v-4.086h4.066
			v-1.021h-4.066v-4.086h-1.025v4.086h-4.098v-4.086h-1.025v4.086h-4.098v-4.086h-1.024v4.086h-4.1v-4.086h-1.024v4.086h-4.099
			v-4.086H30.21z M31.234,26.785h4.099v4.086h-4.099V26.785z M36.357,26.785h4.1v4.086h-4.1V26.785z M41.481,26.785h4.098v4.086
			h-4.098V26.785z M46.604,26.785h4.098v4.086h-4.098V26.785z M31.234,31.894h4.099v4.085h-4.099V31.894z M36.357,31.894h4.1v4.085
			h-4.1V31.894z M41.481,31.894h4.098v4.085h-4.098V31.894z M46.604,31.894h4.098v4.085h-4.098V31.894z M31.234,36.999h4.099v4.086
			h-4.099V36.999z M36.357,36.999h4.1v4.086h-4.1V36.999z M41.481,36.999h4.098v4.086h-4.098V36.999z M46.604,36.999h4.098v4.086
			h-4.098V36.999z"/>
		
			<path id="path2785_1_" sodipodi:cy="18.894651" sodipodi:cx="26.492901" sodipodi:type="arc" sodipodi:ry="2.1770399" sodipodi:rx="6.330162" fill="#EBD316" stroke="#8B742D" stroke-width="1.0742" d="
			M63.505,49.261c0.001,1.41-2.294,2.553-5.125,2.553c-2.832,0-5.128-1.143-5.128-2.552v-0.001
			c-0.001-1.409,2.294-2.553,5.126-2.553S63.505,47.851,63.505,49.261C63.505,49.26,63.505,49.26,63.505,49.261z"/>
		
			<linearGradient id="rect2293_2_" gradientUnits="userSpaceOnUse" x1="-71.5664" y1="-146.6172" x2="-66.8925" y2="-138.5218" gradientTransform="matrix(1 0 0 -1 108 -112.1113)">
			<stop  offset="0" style="stop-color:#204A87"/>
			<stop  offset="1" style="stop-color:#204A87;stop-opacity:0"/>
		</linearGradient>
		<path id="rect2293_1_" sodipodi:nodetypes="ccccccccc" fill="url(#rect2293_2_)" d="M45.067,28.828l-5.003,9.006l-8.822-4.9
			l-6.156,9.684l0.896,0.511l5.545-8.913l8.916,4.883l5.519-9.758L45.067,28.828z"/>
		<rect id="rect2600_1_" x="25.055" y="46.191" fill="#888985" width="30.739" height="1.021"/>
		
			<path id="path2787_1_" sodipodi:cy="18.894651" sodipodi:cx="26.492901" sodipodi:type="arc" sodipodi:ry="2.1770399" sodipodi:rx="6.330162" fill="none" d="
			M62.493,49.259c0,0.846-1.837,1.529-4.104,1.529c-2.266,0-4.103-0.684-4.103-1.528c0,0,0,0,0-0.001
			c-0.001-0.844,1.835-1.53,4.101-1.53S62.491,48.414,62.493,49.259C62.493,49.259,62.493,49.259,62.493,49.259z"/>
		<rect id="rect2231_1_" x="25.082" y="21.679" fill="#888985" width="1.024" height="25.534"/>
		<path id="path2321_1_" fill="#4E9A44" stroke="#345D2D" stroke-width="1.023" d="M17.37,50.776h24.592v6.154H17.37V50.776z"/>
		<path id="path2323_1_" sodipodi:nodetypes="ccccc" fill="#59AF47" stroke="#345D2D" stroke-width="1.023" d="M20.265,44.66h20.771
			l0.926,6.138H17.37L20.265,44.66z"/>
		<rect id="rect2325_1_" x="17.882" y="54.4" fill="#345D2D" width="23.567" height="1.021"/>
		<rect id="rect2327_1_" x="17.882" y="52.357" fill="#345D2D" width="23.567" height="1.021"/>
		
			<path id="path2329_3_" sodipodi:nodetypes="ccccc" opacity="0.25" fill="none" stroke="#FFFFFF" stroke-width="1.023" enable-background="new    " d="
			M20.892,45.734l-2.018,4.021h21.87l-0.608-4.021H20.892z"/>
		
			<rect id="rect2341_1_" x="27.648" y="50.762" fill="#EDEEEC" stroke="#555853" stroke-width="1.023" width="5.059" height="6.239"/>
		
			<path id="path2746_1_" sodipodi:cy="-0.43681452" sodipodi:cx="12.551146" sodipodi:type="arc" sodipodi:ry="3.6239223" sodipodi:rx="7.0710678" fill="#345D2D" d="
			M35.301,47.724c0,0.846-2.293,1.532-5.123,1.532c-2.829,0-5.123-0.687-5.123-1.532l0,0c0-0.847,2.294-1.532,5.123-1.532
			C33.007,46.191,35.301,46.877,35.301,47.724L35.301,47.724z"/>
		<path id="path2715_1_" sodipodi:nodetypes="ccccccc" fill="#D3D7CF" stroke="#555853" stroke-width="1.023" d="M28.641,44.655
			l-1.024,5.758v6.507h5.123v-6.562l-1.121-5.703H28.641z"/>
		<path id="rect2271_1_" fill="#4E9A44" stroke="#345D2D" stroke-width="1.023" d="M21.459,55.864h24.6v6.169h-24.6V55.864z"/>
		<path id="path3816_1_" sodipodi:nodetypes="ccccc" fill="#5AAE47" stroke="#345D2D" stroke-width="1.023" d="M23.467,49.771
			h20.708l1.885,6.122H21.468L23.467,49.771z"/>
		
			<path id="path2413_1_" sodipodi:cy="18.894651" sodipodi:cx="26.492901" sodipodi:type="arc" sodipodi:ry="2.1770399" sodipodi:rx="6.330162" fill="#EBD316" stroke="#796328" stroke-width="1.0742" d="
			M58.376,58.444c0,1.409-2.294,2.552-5.126,2.553c-2.832,0-5.127-1.144-5.127-2.551v-0.002c-0.003-1.408,2.293-2.551,5.124-2.551
			S58.374,57.034,58.376,58.444L58.376,58.444z"/>
		
			<path id="path2789_1_" sodipodi:cy="18.894651" sodipodi:cx="26.492901" sodipodi:type="arc" sodipodi:ry="2.1770399" sodipodi:rx="6.330162" fill="#EBD316" stroke="#8B742D" stroke-width="1.0742" d="
			M63.52,47.217c0,1.408-2.296,2.552-5.127,2.552s-5.128-1.143-5.128-2.552l0,0c0-1.409,2.296-2.552,5.126-2.553
			c2.831,0,5.127,1.144,5.129,2.551V47.217z"/>
		<rect id="rect2441_1_" x="21.98" y="59.47" fill="#345D2D" width="23.567" height="1.021"/>
		
			<path id="path2415_1_" sodipodi:cy="18.894651" sodipodi:cx="26.492901" sodipodi:type="arc" sodipodi:ry="2.1770399" sodipodi:rx="6.330162" fill="none" d="
			M57.349,58.444c0,0.844-1.836,1.53-4.102,1.53c-2.267,0-4.104-0.685-4.104-1.528c0-0.002,0-0.002,0-0.002
			c0-0.844,1.836-1.528,4.102-1.528C55.512,56.916,57.349,57.601,57.349,58.444L57.349,58.444z"/>
		<rect id="rect2443_1_" x="21.98" y="57.428" fill="#345D2D" width="23.567" height="1.021"/>
		
			<path id="path2417_1_" sodipodi:cy="18.894651" sodipodi:cx="26.492901" sodipodi:type="arc" sodipodi:ry="2.1770399" sodipodi:rx="6.330162" fill="#EBD316" stroke="#8B742D" stroke-width="1.0742" d="
			M58.385,56.409c0,1.408-2.293,2.552-5.124,2.552c-2.832,0-5.128-1.142-5.129-2.552l0,0c-0.001-1.41,2.295-2.552,5.125-2.553
			c2.831,0,5.127,1.143,5.128,2.551V56.409z"/>
		
			<path id="path2791_1_" sodipodi:cy="18.894651" sodipodi:cx="26.492901" sodipodi:type="arc" sodipodi:ry="2.1770399" sodipodi:rx="6.330162" fill="none" d="
			M62.493,47.217c0,0.845-1.837,1.529-4.104,1.529c-2.266,0-4.103-0.685-4.103-1.529l0,0c-0.001-0.845,1.835-1.53,4.101-1.53
			s4.104,0.684,4.105,1.528C62.493,47.217,62.493,47.217,62.493,47.217z"/>
		
			<path id="path2419_1_" sodipodi:cy="18.894651" sodipodi:cx="26.492901" sodipodi:type="arc" sodipodi:ry="2.1770399" sodipodi:rx="6.330162" fill="none" d="
			M57.359,56.409c0,0.843-1.837,1.528-4.104,1.528c-2.265,0-4.102-0.686-4.102-1.528l0,0c0-0.845,1.835-1.53,4.102-1.53
			c2.265,0,4.103,0.684,4.104,1.528C57.359,56.409,57.359,56.409,57.359,56.409z"/>
		
			<path id="path2421_1_" sodipodi:cy="18.894651" sodipodi:cx="26.492901" sodipodi:type="arc" sodipodi:ry="2.1770399" sodipodi:rx="6.330162" fill="#EBD316" stroke="#8B742D" stroke-width="1.0742" d="
			M58.385,54.366c0,1.408-2.293,2.551-5.124,2.551c-2.832,0-5.128-1.14-5.129-2.551l0,0c-0.001-1.41,2.295-2.552,5.125-2.553
			c2.831,0,5.127,1.143,5.128,2.551C58.385,54.364,58.385,54.365,58.385,54.366z"/>
		
			<path id="path2797_1_" sodipodi:cy="18.894651" sodipodi:cx="26.492901" sodipodi:type="arc" sodipodi:ry="2.1770399" sodipodi:rx="6.330162" fill="#EBD316" stroke="#8B742D" stroke-width="1.0742" d="
			M63.52,45.178c0,1.41-2.296,2.553-5.127,2.553c-2.831,0.001-5.128-1.143-5.128-2.55c0-0.001,0-0.003,0-0.003
			c0-1.408,2.296-2.552,5.126-2.552C61.222,42.626,63.518,43.768,63.52,45.178L63.52,45.178z"/>
		<path id="path2269_1_" opacity="0.25" fill="none" stroke="#FFFFFF" stroke-width="1.023" enable-background="new    " d="
			M24.254,50.819l-1.313,4.021h21.677l-1.248-4.021H24.254z"/>
		
			<path id="path2423_1_" sodipodi:cy="18.894651" sodipodi:cx="26.492901" sodipodi:type="arc" sodipodi:ry="2.1770399" sodipodi:rx="6.330162" fill="none" d="
			M57.359,54.365c0,0.845-1.837,1.529-4.104,1.529c-2.265,0-4.102-0.685-4.102-1.528c0,0,0,0,0-0.001
			c0-0.843,1.835-1.528,4.102-1.528C55.521,52.837,57.358,53.521,57.359,54.365C57.359,54.365,57.359,54.365,57.359,54.365z"/>
		
			<path id="path2425_1_" sodipodi:cy="18.894651" sodipodi:cx="26.492901" sodipodi:type="arc" sodipodi:ry="2.1770399" sodipodi:rx="6.330162" fill="#EBD316" stroke="#8B742D" stroke-width="1.0742" d="
			M58.372,52.318c0.002,1.408-2.294,2.552-5.125,2.552c-2.831,0.001-5.128-1.143-5.128-2.551v-0.001
			c0-1.408,2.294-2.552,5.126-2.552C56.077,49.766,58.372,50.907,58.372,52.318C58.372,52.318,58.372,52.318,58.372,52.318z"/>
		
			<path id="path2427_1_" sodipodi:cy="18.894651" sodipodi:cx="26.492901" sodipodi:type="arc" sodipodi:ry="2.1770399" sodipodi:rx="6.330162" fill="none" d="
			M57.359,52.315c0,0.846-1.837,1.53-4.104,1.53c-2.265,0-4.102-0.684-4.102-1.527c0-0.001,0-0.001,0-0.003
			c0-0.844,1.835-1.527,4.102-1.527C55.521,50.788,57.358,51.472,57.359,52.315L57.359,52.315z"/>
		
			<path id="path2799_1_" sodipodi:cy="18.894651" sodipodi:cx="26.492901" sodipodi:type="arc" sodipodi:ry="2.1770399" sodipodi:rx="6.330162" fill="#EBD316" stroke="#8B742D" stroke-width="1.0742" d="
			M63.505,43.132c0.001,1.408-2.294,2.552-5.125,2.552c-2.832,0-5.128-1.143-5.128-2.552l0,0c-0.001-1.41,2.294-2.552,5.126-2.553
			c2.832,0,5.127,1.143,5.127,2.55C63.505,43.129,63.505,43.131,63.505,43.132z"/>
		
			<path id="path2429_1_" sodipodi:cy="18.894651" sodipodi:cx="26.492901" sodipodi:type="arc" sodipodi:ry="2.1770399" sodipodi:rx="6.330162" fill="#EBD316" stroke="#8B742D" stroke-width="1.0742" d="
			M58.385,50.273c0,1.409-2.293,2.553-5.124,2.553c-2.832,0-5.128-1.144-5.129-2.552c0,0,0,0,0-0.001
			c-0.001-1.407,2.295-2.552,5.125-2.552C56.088,47.722,58.384,48.863,58.385,50.273L58.385,50.273z"/>
		
			<path id="path2431_1_" sodipodi:cy="18.894651" sodipodi:cx="26.492901" sodipodi:type="arc" sodipodi:ry="2.1770399" sodipodi:rx="6.330162" fill="none" d="
			M57.359,50.273c0,0.845-1.837,1.53-4.104,1.53c-2.265,0-4.102-0.685-4.102-1.529c0,0,0,0,0-0.001c0-0.845,1.835-1.527,4.102-1.527
			C55.521,48.746,57.358,49.429,57.359,50.273L57.359,50.273z"/>
		
			<path id="path2267_1_" sodipodi:cy="-0.43681452" sodipodi:cx="12.551146" sodipodi:type="arc" sodipodi:ry="3.6239223" sodipodi:rx="7.0710678" fill="#345D2D" d="
			M27.072,49.751c0,0.282-0.458,0.511-1.025,0.511s-1.024-0.229-1.024-0.511l0,0c0-0.282,0.458-0.511,1.024-0.511
			S27.072,49.469,27.072,49.751L27.072,49.751z"/>
		
			<path id="path3843_1_" sodipodi:cy="-0.43681452" sodipodi:cx="12.551146" sodipodi:type="arc" sodipodi:ry="3.6239223" sodipodi:rx="7.0710678" fill="#345D2D" d="
			M42.442,49.751c0,0.282-0.459,0.511-1.025,0.511s-1.025-0.229-1.025-0.511l0,0c0-0.282,0.459-0.511,1.025-0.511
			S42.442,49.469,42.442,49.751L42.442,49.751z"/>
		
			<path id="path3837_1_" sodipodi:cy="-0.43681452" sodipodi:cx="12.551146" sodipodi:type="arc" sodipodi:ry="3.6239223" sodipodi:rx="7.0710678" fill="#345D2D" d="
			M39.399,52.831c0,0.845-2.293,1.531-5.123,1.531c-2.83,0-5.123-0.687-5.123-1.531l0,0c0-0.847,2.293-1.533,5.123-1.533
			C37.106,51.298,39.399,51.984,39.399,52.831L39.399,52.831z"/>
		
			<path id="path3839_1_" sodipodi:cy="-0.43681452" sodipodi:cx="12.551146" sodipodi:type="arc" sodipodi:ry="3.6239223" sodipodi:rx="7.0710678" fill="#345D2D" d="
			M27.104,53.836c0,0.283-0.695,0.511-1.553,0.511s-1.553-0.228-1.553-0.511l0,0c0-0.281,0.695-0.511,1.553-0.511
			S27.104,53.555,27.104,53.836L27.104,53.836z"/>
		
			<path id="path3841_1_" sodipodi:cy="-0.43681452" sodipodi:cx="12.551146" sodipodi:type="arc" sodipodi:ry="3.6239223" sodipodi:rx="7.0710678" fill="#345D2D" d="
			M43.499,53.852c0,0.283-0.689,0.511-1.537,0.511c-0.85,0-1.537-0.228-1.537-0.511l0,0c0-0.282,0.688-0.511,1.537-0.511
			C42.81,53.341,43.499,53.569,43.499,53.852L43.499,53.852z"/>
		<path id="rect1372_1_" sodipodi:nodetypes="ccccccc" fill="#D3D7CF" stroke="#555853" stroke-width="1.023" d="M32.739,49.788
			l-1.025,5.746v6.492h5.124v-6.548l-1.121-5.69H32.739z"/>
		<rect id="rect2721_1_" x="32.227" y="56.405" fill="#888985" width="4.099" height="5.106"/>
		
			<linearGradient id="rect2673_2_" gradientUnits="userSpaceOnUse" x1="-73.7236" y1="-243.9917" x2="-73.7236" y2="-250.9165" gradientTransform="matrix(1 0 0 -0.8333 108 -146.9131)">
			<stop  offset="0" style="stop-color:#EDEEEC"/>
			<stop  offset="1" style="stop-color:#EDEEEC;stop-opacity:0"/>
		</linearGradient>
		<rect id="rect2673_1_" x="32.227" y="56.405" fill="url(#rect2673_2_)" width="4.099" height="5.106"/>
		
			<path id="path2691_1_" sodipodi:cy="-0.43681452" sodipodi:cx="12.551146" sodipodi:type="arc" sodipodi:ry="3.6239223" sodipodi:rx="7.0710678" fill="#345D2D" d="
			M42.474,51.809c0,0.283-0.688,0.511-1.537,0.511c-0.848,0-1.538-0.228-1.538-0.511l0,0c0-0.281,0.689-0.511,1.538-0.511
			C41.785,51.298,42.474,51.527,42.474,51.809L42.474,51.809z"/>
		
			<path id="path2693_1_" sodipodi:cy="-0.43681452" sodipodi:cx="12.551146" sodipodi:type="arc" sodipodi:ry="3.6239223" sodipodi:rx="7.0710678" fill="#345D2D" d="
			M28.128,51.809c0,0.283-0.688,0.511-1.537,0.511s-1.537-0.228-1.537-0.511l0,0c0-0.281,0.688-0.511,1.537-0.511
			S28.128,51.527,28.128,51.809L28.128,51.809z"/>
		<path id="rect2743_1_" sodipodi:nodetypes="cccc" opacity="0.2" fill="#FFFFFF" enable-background="new    " d="M25.055,21.679
			h30.739c-12.46,3.994-11.618,18.385-30.739,18.385V21.679z"/>
		
			<path id="path2748_1_" sodipodi:cy="-0.43681452" sodipodi:cx="12.551146" sodipodi:type="arc" sodipodi:ry="3.6239223" sodipodi:rx="7.0710678" fill="#345D2D" d="
			M23.005,48.746c0,0.28-0.695,0.51-1.553,0.51s-1.553-0.229-1.553-0.51l0,0c0-0.282,0.696-0.512,1.553-0.512
			S23.005,48.464,23.005,48.746L23.005,48.746z"/>
		
			<path id="path2750_1_" sodipodi:cy="-0.43681452" sodipodi:cx="12.551146" sodipodi:type="arc" sodipodi:ry="3.6239223" sodipodi:rx="7.0710678" fill="#345D2D" d="
			M40.425,48.746c0,0.28-0.689,0.51-1.538,0.51c-0.849,0-1.537-0.229-1.537-0.51l0,0c0-0.282,0.688-0.512,1.537-0.512
			C39.735,48.234,40.425,48.464,40.425,48.746L40.425,48.746z"/>
		
			<path id="path2752_1_" sodipodi:cy="-0.43681452" sodipodi:cx="12.551146" sodipodi:type="arc" sodipodi:ry="3.6239223" sodipodi:rx="7.0710678" fill="#345D2D" d="
			M39.399,46.702c0,0.282-0.688,0.511-1.536,0.511c-0.849,0-1.538-0.229-1.538-0.511l0,0c0-0.281,0.689-0.511,1.538-0.511
			C38.711,46.191,39.399,46.421,39.399,46.702L39.399,46.702z"/>
		
			<path id="path2754_1_" sodipodi:cy="-0.43681452" sodipodi:cx="12.551146" sodipodi:type="arc" sodipodi:ry="3.6239223" sodipodi:rx="7.0710678" fill="#345D2D" d="
			M24.03,46.702c0,0.282-0.689,0.511-1.538,0.511s-1.537-0.229-1.537-0.511l0,0c0-0.281,0.688-0.511,1.537-0.511
			S24.03,46.421,24.03,46.702L24.03,46.702z"/>
		
			<path id="path2801_1_" sodipodi:cy="18.894651" sodipodi:cx="26.492901" sodipodi:type="arc" sodipodi:ry="2.1770399" sodipodi:rx="6.330162" fill="#EBD316" stroke="#8B742D" stroke-width="1.0742" d="
			M63.52,41.087c0,1.408-2.296,2.552-5.127,2.552s-5.128-1.142-5.128-2.552l0,0c0-1.409,2.296-2.552,5.126-2.552
			c2.831-0.002,5.127,1.142,5.129,2.55C63.52,41.086,63.52,41.087,63.52,41.087z"/>
		
			<path id="path2809_1_" sodipodi:cy="18.894651" sodipodi:cx="26.492901" sodipodi:type="arc" sodipodi:ry="2.1770399" sodipodi:rx="6.330162" fill="#EBD316" stroke="#8B742D" stroke-width="1.0742" d="
			M63.52,39.044c0,1.408-2.296,2.552-5.127,2.552s-5.128-1.141-5.128-2.551c0-0.001,0-0.001,0-0.001c0-1.41,2.296-2.553,5.126-2.553
			c2.831,0,5.127,1.143,5.129,2.551C63.52,39.043,63.52,39.044,63.52,39.044z"/>
		
			<path id="path2793_1_" sodipodi:cy="18.894651" sodipodi:cx="26.492901" sodipodi:type="arc" sodipodi:ry="2.1770399" sodipodi:rx="6.330162" fill="#FBE74E" stroke="#8B742D" stroke-width="1.0742" d="
			M63.499,36.997c0,1.409-2.294,2.553-5.125,2.553c-2.832,0.001-5.127-1.143-5.129-2.551c0-0.001,0-0.002,0-0.002
			c0-1.407,2.296-2.552,5.127-2.552S63.498,35.587,63.499,36.997L63.499,36.997z"/>
		
			<path id="path2761_1_" sodipodi:cy="18.894651" sodipodi:cx="26.492901" sodipodi:type="arc" sodipodi:ry="2.1770399" sodipodi:rx="6.330162" fill="#FBE74E" stroke="#8B742D" stroke-width="1.0742" d="
			M58.366,48.23c0,1.41-2.295,2.553-5.126,2.554c-2.832,0-5.128-1.144-5.128-2.553V48.23c-0.001-1.409,2.295-2.552,5.126-2.552
			S58.366,46.82,58.366,48.23L58.366,48.23z"/>
		
			<path id="path2763_1_" sodipodi:cy="18.894651" sodipodi:cx="26.492901" sodipodi:type="arc" sodipodi:ry="2.1770399" sodipodi:rx="6.330162" opacity="0.5" fill="none" stroke="#FFFFFF" stroke-width="0.4361" enable-background="new    " d="
			M57.34,48.23c0,0.846-1.838,1.53-4.103,1.53c-2.267,0-4.104-0.685-4.104-1.529c0-0.001,0-0.001,0-0.001
			c0-0.844,1.836-1.528,4.102-1.528S57.34,47.387,57.34,48.23L57.34,48.23z"/>
		
			<path id="path2795_1_" sodipodi:cy="18.894651" sodipodi:cx="26.492901" sodipodi:type="arc" sodipodi:ry="2.1770399" sodipodi:rx="6.330162" opacity="0.5" fill="none" stroke="#FFFFFF" stroke-width="0.8723" enable-background="new    " d="
			M62.464,36.996c0,0.844-1.836,1.529-4.102,1.529s-4.104-0.685-4.104-1.528c0,0,0,0,0-0.001c0-0.845,1.836-1.528,4.103-1.528
			C60.627,35.468,62.464,36.151,62.464,36.996L62.464,36.996z"/>
	</g>
</g>
<g id="text">
</g>
<g id="guides" display="none">
	<g id="guide_2_" display="inline">
	</g>
	<g id="guide" display="inline">
	</g>
	<g id="guide_5_" display="inline">
	</g>
	<g id="guide_4_" display="inline">
	</g>
	<g id="guide_6_" display="inline">
	</g>
	<g id="guide_7_" display="inline">
		<rect x="0.062" y="0.031" fill="none" width="81.059" height="81.059"/>
		<circle fill="none" stroke="#EC1E28" cx="40.59" cy="40.559" r="36.027"/>
		<circle fill="none" stroke="#2BA6DE" stroke-dasharray="1.1716" cx="40.424" cy="40.727" r="31.523"/>
	</g>
	<g id="guide_3_" display="inline">
	</g>
	<g id="guide_1_" display="inline">
	</g>
	<g id="guide_8_" display="inline">
	</g>
</g>
</svg>
