<?xml version="1.0" encoding="utf-8"?>
<!-- Generator: Adobe Illustrator 16.1.0, SVG Export Plug-In . SVG Version: 6.00 Build 0)  -->
<!DOCTYPE svg PUBLIC "-//W3C//DTD SVG 1.1//EN" "http://www.w3.org/Graphics/SVG/1.1/DTD/svg11.dtd">
<svg version="1.1" xmlns="http://www.w3.org/2000/svg" xmlns:xlink="http://www.w3.org/1999/xlink" x="0px" y="0px" width="81.12px"
	 height="81.12px" viewBox="0 0 81.12 81.12" enable-background="new 0 0 81.12 81.12" xml:space="preserve">
<g id="presentation_border">
	<circle fill="#1BA649" cx="40.591" cy="40.26" r="39.897"/>
</g>
<g id="print_border" display="none">
	<rect id="_x3C_Path_x3E__3_" x="-7.761" y="-7.19" display="inline" fill="#1BA649" width="96.094" height="95.2"/>
</g>
<g id="white-center">
	<circle fill="#FFFFFF" cx="40.59" cy="40.906" r="29.88"/>
</g>
<g id="central_image">
	<g>
		<g id="beaker" display="none">
			<g id="layer6_2_" display="inline">
				
					<linearGradient id="path7784_2_" gradientUnits="userSpaceOnUse" x1="31.291" y1="45.9185" x2="42.6536" y2="46.7704" gradientTransform="matrix(1 0 0 -1 0 83.1201)">
					<stop  offset="0" style="stop-color:#CDCDCD"/>
					<stop  offset="0.5" style="stop-color:#FFFFFF;stop-opacity:0.3162"/>
					<stop  offset="1" style="stop-color:#D5D6D5"/>
				</linearGradient>
				<path id="path7784" opacity="0.5" fill="url(#path7784_2_)" enable-background="new    " d="M29.454,17.028
					c-1.023,0.268-1.533,3.539,0.512,3.748v8.568L19.268,47.462c-1.279,2.169-2.704,5.553,1.53,7.698
					c2.732,1.137,7.592,1.918,13.768,1.918c6.172,0,11.031-0.781,13.769-1.918c4.23-2.146,2.805-5.529,1.525-7.698L39.162,29.344
					v-8.568c2.043-0.209,1.535-3.48,0.511-3.748"/>
				
					<radialGradient id="path3683_2_" cx="-1475.1196" cy="741.8774" r="18.481" gradientTransform="matrix(-0.3767 -0.2572 -0.1511 0.2214 -405.867 -492.9328)" gradientUnits="userSpaceOnUse">
					<stop  offset="0" style="stop-color:#DADAD6"/>
					<stop  offset="0.5" style="stop-color:#E3E4E1;stop-opacity:0.498"/>
					<stop  offset="1" style="stop-color:#DADAD6"/>
				</radialGradient>
				
					<path id="path3683" opacity="0.5" fill="url(#path3683_2_)" stroke="#FFFFFF" stroke-width="1.071" stroke-linecap="round" stroke-linejoin="round" stroke-opacity="0.5" enable-background="new    " d="
					M49.896,51.725c0,2.363-4.724,4.285-15.331,4.285c-10.71,0-15.33-1.922-15.33-4.285c0-2.368,6.861-4.285,15.33-4.285
					C43.031,47.44,49.896,49.357,49.896,51.725z"/>
			</g>
			<g id="layer5_2_" display="inline">
				
					<linearGradient id="path8952_2_" gradientUnits="userSpaceOnUse" x1="36.3535" y1="34.3872" x2="44.589" y2="36.1857" gradientTransform="matrix(1 0 0 -1 0 82.1201)">
					<stop  offset="0" style="stop-color:#8F489A"/>
					<stop  offset="0.5" style="stop-color:#964E9D;stop-opacity:0.498"/>
					<stop  offset="1" style="stop-color:#8F489A"/>
				</linearGradient>
				<path id="path8952" opacity="0.8" fill="url(#path8952_2_)" enable-background="new    " d="M23.854,40.581l-3.513,6.09
					c-1.768,3.072-2.203,4.077-1.707,5.589c0.651,2.009,3.347,4.285,15.393,4.285c9.301,0,15.24-0.957,16.502-4.217
					c0.439-1.14-0.007-2.878-0.869-4.317l-4.42-7.396c-0.127,0.196-0.265,0.396-0.47,0.57c-0.471,0.398-1.178,0.758-2.075,1.036
					c-1.791,0.555-4.441,0.869-8.13,0.869c-3.726,0-6.383-0.314-8.165-0.869c-0.894-0.278-1.574-0.637-2.044-1.036
					C24.145,41.002,23.985,40.791,23.854,40.581z"/>
				<path id="path8965" opacity="0.5" fill="#8F489A" fill-opacity="0.9245" enable-background="new    " d="M34.565,36.465
					c-2.956,0-5.619,0.333-7.582,0.882c-0.983,0.274-1.809,0.608-2.393,0.995c-0.584,0.387-0.992,0.859-0.992,1.435
					c0,0.524,0.303,0.998,0.772,1.399c0.469,0.399,1.131,0.753,2.024,1.028c1.782,0.555,4.444,0.885,8.17,0.885
					c3.688,0,6.339-0.33,8.131-0.885c0.897-0.275,1.589-0.629,2.062-1.028c0.474-0.401,0.774-0.872,0.774-1.399
					c0-0.576-0.407-1.047-0.997-1.435c-0.585-0.386-1.408-0.72-2.393-0.995C40.182,36.798,37.519,36.465,34.565,36.465z"/>
				
					<radialGradient id="path8954_2_" cx="271.3125" cy="-1349.063" r="9.2356" gradientTransform="matrix(0.4348 -0.1087 -0.0619 -0.2475 -169.3196 -264.3216)" gradientUnits="userSpaceOnUse">
					<stop  offset="0" style="stop-color:#924B9C"/>
					<stop  offset="1" style="stop-color:#9D57A2"/>
				</radialGradient>
				<path id="path8954" opacity="0.8" fill="url(#path8954_2_)" enable-background="new    " d="M34.565,37.419
					c2.615,0,4.982,0.298,6.67,0.773c0.847,0.234,1.521,0.523,1.963,0.812c0.438,0.291,0.601,0.555,0.601,0.772
					c0,0.264-0.126,0.513-0.457,0.792c-0.328,0.278-0.872,0.559-1.625,0.794c-1.51,0.467-3.866,0.771-7.151,0.771
					c-3.318,0-5.691-0.304-7.197-0.771c-0.748-0.234-1.279-0.517-1.605-0.794c-0.325-0.279-0.436-0.525-0.436-0.792
					c0-0.218,0.164-0.481,0.605-0.772c0.438-0.289,1.113-0.578,1.959-0.812C29.58,37.717,31.952,37.419,34.565,37.419z"/>
			</g>
			<g id="layer1_34_" display="inline">
				
					<linearGradient id="path8687_2_" gradientUnits="userSpaceOnUse" x1="34.6006" y1="29.3413" x2="34.4586" y2="33.5074" gradientTransform="matrix(1 0 0 -1 0 82.1201)">
					<stop  offset="0" style="stop-color:#FFFFFF"/>
					<stop  offset="1" style="stop-color:#F3F2F2;stop-opacity:0"/>
				</linearGradient>
				<path id="path8687" opacity="0.5" fill="url(#path8687_2_)" enable-background="new    " d="M34.565,46.938
					c-4.271,0-8.141,0.48-10.978,1.271c-1.419,0.398-2.567,0.88-3.416,1.439c-0.843,0.559-1.437,1.241-1.437,2.076
					c0,0.753,0.392,1.461,1.068,2.039c0.677,0.582,1.657,1.074,2.946,1.474c2.577,0.803,6.43,1.274,11.815,1.274
					c5.33,0,9.189-0.472,11.779-1.274c1.296-0.399,2.293-0.894,2.979-1.474c0.686-0.575,1.072-1.282,1.072-2.039
					c0-0.835-0.592-1.518-1.44-2.076c-0.845-0.56-1.993-1.041-3.415-1.439C42.701,47.418,38.838,46.938,34.565,46.938z
					 M34.565,47.941c4.193,0,7.996,0.483,10.707,1.238c1.357,0.38,2.442,0.841,3.148,1.308c0.702,0.468,0.972,0.89,0.972,1.238
					c0,0.426-0.207,0.824-0.736,1.271c-0.535,0.446-1.401,0.899-2.612,1.272c-2.426,0.749-6.204,1.239-11.479,1.239
					c-5.324,0-9.136-0.491-11.549-1.239c-1.206-0.373-2.053-0.826-2.577-1.272c-0.521-0.444-0.7-0.841-0.7-1.271
					c0-0.349,0.264-0.771,0.97-1.238c0.704-0.467,1.79-0.928,3.146-1.308C26.565,48.424,30.368,47.941,34.565,47.941z"/>
				
					<linearGradient id="path3785-0_2_" gradientUnits="userSpaceOnUse" x1="258.9775" y1="-44.6602" x2="263.1668" y2="-45.4132" gradientTransform="matrix(0.6227 0 0 -0.7737 -129.478 -17.7194)">
					<stop  offset="0" style="stop-color:#DADAD6"/>
					<stop  offset="0.5" style="stop-color:#E3E4E1;stop-opacity:0.498"/>
					<stop  offset="1" style="stop-color:#DADAD6"/>
				</linearGradient>
				
					<path id="path3785-0" fill="url(#path3785-0_2_)" stroke="#888985" stroke-width="1.5429" stroke-linecap="round" stroke-linejoin="round" d="
					M40.041,17.452c0,0.688-2.448,1.244-5.474,1.244c-3.026,0-5.48-0.557-5.481-1.243c0-0.001,0-0.001,0-0.001
					c0-0.686,2.454-1.243,5.479-1.243C37.59,16.209,40.04,16.767,40.041,17.452L40.041,17.452z"/>
				<path id="path8638" fill-opacity="0.0377" d="M21.948,55.035c-1.607-0.854-0.97-3.457,0.355-5.352
					c1.324-1.889,9.499-18.553,9.972-19.687v-9.36l2.065,0.127l0.046,9.601c0,0-3.947,14.629-6.004,22.115
					c-0.34,1.25-1.372,2.461,0.285,3.88C25.164,55.864,24.289,55.767,21.948,55.035z"/>
				<path id="path8640" fill-opacity="0.0566" d="M48.564,54.222c1.605-0.854,0.896-3.547-0.428-5.44
					c-1.324-1.895-9.498-18.553-9.974-19.69v-8.64l-1.01,0.179l-0.03,8.83c0,0,5.524,14.797,7.576,22.284
					c0.341,1.247,1.372,2.459-0.285,3.878C47.919,55.126,46.396,55.376,48.564,54.222z"/>
				
					<path id="path3835" opacity="0.5" fill="none" stroke="#D3D7CF" stroke-width="1.071" stroke-linecap="round" stroke-linejoin="round" enable-background="new    " d="
					M39.162,20.776c-1.696,0.291-2.202,0.531-4.592,0.531c-2.394,0-3.167-0.305-4.623-0.481"/>
				
					<radialGradient id="path7795_2_" cx="759.4561" cy="-2060.7578" r="16.5747" gradientTransform="matrix(0.3498 0.0053 0.0036 -0.1445 -223.7427 -272.5372)" gradientUnits="userSpaceOnUse">
					<stop  offset="0" style="stop-color:#FFFFFF;stop-opacity:0"/>
					<stop  offset="0.6176" style="stop-color:#FFFFFF;stop-opacity:0"/>
					<stop  offset="0.746" style="stop-color:#FFFFFF"/>
					<stop  offset="1" style="stop-color:#FFFFFF;stop-opacity:0"/>
				</radialGradient>
				
					<path id="path7795" opacity="0.75" fill="none" stroke="url(#path7795_2_)" stroke-width="2.142" stroke-linecap="round" stroke-linejoin="round" enable-background="new    " d="
					M38.868,29.913c-0.997,0.89-3.474,0.985-4.364,0.985c-1.009,0-2.458,0.069-4.364-0.89"/>
				
					<path id="path8736" opacity="0.1" fill="none" stroke="#FFFFFF" stroke-width="2.1419" stroke-linecap="round" stroke-linejoin="round" enable-background="new    " d="
					M50.177,49.912c-3.558,2.032-12.511,2.795-15.675,2.795c-3.596,0-8.61-0.381-15.406-2.574"/>
				
					<linearGradient id="path8704_2_" gradientUnits="userSpaceOnUse" x1="35.5596" y1="63.9546" x2="38.6057" y2="64.3228" gradientTransform="matrix(1 0 0 -1 0 83.1201)">
					<stop  offset="0" style="stop-color:#CDCDCD"/>
					<stop  offset="0.7083" style="stop-color:#FFFFFF;stop-opacity:0.3162"/>
					<stop  offset="1" style="stop-color:#D5D6D5"/>
				</linearGradient>
				<path id="path8704" opacity="0.5" fill="url(#path8704_2_)" enable-background="new    " d="M29.144,18.322
					c-0.171,1.325-0.056,1.753,1.34,2.026c1.396,0.274,2.323,0.38,4.013,0.414c1.061,0.021,3.003-0.159,4.11-0.407
					c0.859-0.193,1.109-0.364,1.319-0.707c0.32-0.529,0.181-1.1,0.101-1.333c-1.076,0.622-3.069,0.962-5.663,0.912
					C31.771,19.176,29.829,18.793,29.144,18.322z"/>
				
					<path id="path9030" opacity="0.1" fill="none" stroke="#2F3436" stroke-width="2.1419" stroke-linecap="round" stroke-linejoin="round" enable-background="new    " d="
					M50.177,52.091c-3.558,2.032-12.511,2.694-15.675,2.694c-3.596,0-8.61-0.286-15.406-2.479"/>
				<path id="path8685" fill="none" stroke="#888985" stroke-width="1.071" d="M29.454,17.028c-1.023,0.268-1.602,3.254,0.512,3.748
					v8.568L19.268,47.462c-1.279,2.169-2.704,5.553,1.53,7.698c2.732,1.137,7.592,1.918,13.768,1.918
					c6.172,0,11.031-0.781,13.769-1.918c4.23-2.146,2.805-5.529,1.525-7.698L39.162,29.344v-8.568
					c2.28-0.589,1.535-3.48,0.511-3.748"/>
			</g>
			
				<radialGradient id="path4533_1_" cx="-886.4912" cy="1576.6011" r="16.2402" gradientTransform="matrix(1.0442 0 0 -0.2365 959.6947 429.6744)" gradientUnits="userSpaceOnUse">
				<stop  offset="0" style="stop-color:#000000"/>
				<stop  offset="1" style="stop-color:#000000;stop-opacity:0"/>
			</radialGradient>
			<path id="path4533_5_" display="inline" opacity="0.5161" fill="url(#path4533_1_)" enable-background="new    " d="
				M50.983,56.808c0,2.122-7.597,3.84-16.964,3.84c-9.364,0-16.96-1.718-16.96-3.84c0-2.124,7.596-3.84,16.96-3.84
				C43.387,52.968,50.983,54.684,50.983,56.808z"/>
		</g>
		<g id="beaker_1_">
			<g id="layer6_1_">
				
					<linearGradient id="path7784_3_" gradientUnits="userSpaceOnUse" x1="30.7461" y1="45.9243" x2="41.7051" y2="46.746" gradientTransform="matrix(1 0 0 -1 0 83.1201)">
					<stop  offset="0" style="stop-color:#CDCDCD"/>
					<stop  offset="0.5" style="stop-color:#FFFFFF;stop-opacity:0.3162"/>
					<stop  offset="1" style="stop-color:#D5D6D5"/>
				</linearGradient>
				<path id="path7784_1_" opacity="0.5" fill="url(#path7784_3_)" enable-background="new    " d="M29.015,17.028
					c-0.988,0.268-1.478,3.539,0.49,3.748v8.568L19.19,47.462c-1.235,2.169-2.612,5.553,1.473,7.698
					c2.637,1.137,7.323,1.918,13.276,1.918c5.954,0,10.64-0.781,13.278-1.918c4.083-2.146,2.708-5.529,1.475-7.698L38.378,29.344
					v-8.568c1.968-0.209,1.475-3.48,0.49-3.748"/>
				
					<radialGradient id="path3683_5_" cx="-1484.4429" cy="731.0435" r="18.4814" gradientTransform="matrix(-0.3633 -0.2572 -0.1457 0.2214 -395.812 -492.9328)" gradientUnits="userSpaceOnUse">
					<stop  offset="0" style="stop-color:#DADAD6"/>
					<stop  offset="0.5" style="stop-color:#E3E4E1;stop-opacity:0.498"/>
					<stop  offset="1" style="stop-color:#DADAD6"/>
				</radialGradient>
				
					<path id="path3683_1_" opacity="0.5" fill="url(#path3683_5_)" stroke="#FFFFFF" stroke-width="1.071" stroke-linecap="round" stroke-linejoin="round" stroke-opacity="0.5" enable-background="new    " d="
					M48.724,51.725c0,2.363-4.555,4.285-14.784,4.285c-10.328,0-14.785-1.922-14.785-4.285c0-2.368,6.62-4.285,14.785-4.285
					S48.724,49.357,48.724,51.725z"/>
			</g>
			<g id="layer5_1_">
				
					<linearGradient id="path8952_3_" gradientUnits="userSpaceOnUse" x1="35.6445" y1="34.3687" x2="43.5899" y2="36.1038" gradientTransform="matrix(1 0 0 -1 0 82.1201)">
					<stop  offset="0" style="stop-color:#8F489A"/>
					<stop  offset="0.5" style="stop-color:#964E9D;stop-opacity:0.498"/>
					<stop  offset="1" style="stop-color:#8F489A"/>
				</linearGradient>
				<path id="path8952_1_" opacity="0.8" fill="url(#path8952_3_)" enable-background="new    " d="M23.611,40.581l-3.389,6.09
					c-1.703,3.072-2.122,4.077-1.646,5.589c0.63,2.009,3.229,4.285,14.846,4.285c8.967,0,14.696-0.957,15.913-4.217
					c0.426-1.14-0.006-2.878-0.84-4.317l-4.261-7.396c-0.122,0.196-0.256,0.396-0.45,0.57c-0.458,0.398-1.138,0.758-2.004,1.036
					c-1.725,0.555-4.28,0.869-7.842,0.869c-3.592,0-6.156-0.314-7.874-0.869c-0.858-0.278-1.516-0.637-1.968-1.036
					C23.89,41.002,23.738,40.791,23.611,40.581z"/>
				<path id="path8965_1_" opacity="0.5" fill="#8F489A" fill-opacity="0.9245" enable-background="new    " d="M33.939,36.465
					c-2.851,0-5.418,0.333-7.31,0.882c-0.948,0.274-1.744,0.608-2.307,0.995c-0.566,0.387-0.958,0.859-0.958,1.435
					c0,0.524,0.29,0.998,0.741,1.399c0.457,0.399,1.097,0.753,1.955,1.028c1.717,0.555,4.286,0.885,7.878,0.885
					c3.562,0,6.117-0.33,7.843-0.885c0.865-0.275,1.531-0.629,1.989-1.028c0.457-0.401,0.746-0.872,0.746-1.399
					c0-0.576-0.396-1.047-0.958-1.435c-0.566-0.386-1.362-0.72-2.309-0.995C39.357,36.798,36.79,36.465,33.939,36.465z"/>
				
					<radialGradient id="path8954_3_" cx="282.3223" cy="-1353.897" r="9.2364" gradientTransform="matrix(0.4193 -0.1087 -0.0597 -0.2475 -167.5896 -264.3216)" gradientUnits="userSpaceOnUse">
					<stop  offset="0" style="stop-color:#924B9C"/>
					<stop  offset="1" style="stop-color:#9D57A2"/>
				</radialGradient>
				<path id="path8954_1_" opacity="0.8" fill="url(#path8954_3_)" enable-background="new    " d="M33.939,37.419
					c2.521,0,4.808,0.298,6.436,0.773c0.812,0.234,1.466,0.523,1.891,0.812c0.425,0.291,0.581,0.555,0.581,0.772
					c0,0.264-0.121,0.513-0.439,0.792c-0.319,0.278-0.843,0.559-1.57,0.794c-1.455,0.467-3.729,0.771-6.897,0.771
					c-3.198,0-5.487-0.304-6.938-0.771c-0.724-0.234-1.233-0.517-1.547-0.794c-0.313-0.279-0.424-0.525-0.424-0.792
					c0-0.218,0.162-0.481,0.587-0.772c0.42-0.289,1.073-0.578,1.886-0.812C29.135,37.717,31.418,37.419,33.939,37.419z"/>
			</g>
			<g id="layer1_33_">
				
					<linearGradient id="path8687_3_" gradientUnits="userSpaceOnUse" x1="33.9766" y1="29.3423" x2="33.8346" y2="33.5059" gradientTransform="matrix(1 0 0 -1 0 82.1201)">
					<stop  offset="0" style="stop-color:#FFFFFF"/>
					<stop  offset="1" style="stop-color:#F3F2F2;stop-opacity:0"/>
				</linearGradient>
				<path id="path8687_1_" opacity="0.5" fill="url(#path8687_3_)" enable-background="new    " d="M33.939,46.938
					c-4.118,0-7.85,0.48-10.585,1.271c-1.367,0.398-2.476,0.88-3.291,1.439c-0.819,0.559-1.389,1.241-1.389,2.076
					c0,0.753,0.38,1.461,1.03,2.039c0.655,0.582,1.601,1.074,2.84,1.474c2.485,0.803,6.201,1.274,11.395,1.274
					c5.144,0,8.864-0.472,11.362-1.274c1.248-0.399,2.211-0.894,2.871-1.474c0.663-0.575,1.035-1.282,1.035-2.039
					c0-0.835-0.574-1.518-1.39-2.076c-0.814-0.56-1.923-1.041-3.29-1.439C41.788,47.418,38.059,46.938,33.939,46.938z
					 M33.939,47.941c4.047,0,7.713,0.483,10.327,1.238c1.31,0.38,2.356,0.841,3.034,1.308c0.679,0.468,0.938,0.89,0.938,1.238
					c0,0.426-0.199,0.824-0.713,1.271s-1.346,0.899-2.517,1.272c-2.337,0.749-5.985,1.239-11.07,1.239
					c-5.135,0-8.811-0.491-11.133-1.239c-1.164-0.373-1.981-0.826-2.486-1.272c-0.504-0.444-0.677-0.841-0.677-1.271
					c0-0.349,0.254-0.771,0.933-1.238c0.684-0.467,1.73-0.928,3.035-1.308C26.225,48.424,29.893,47.941,33.939,47.941z"/>
				
					<linearGradient id="path3785-0_3_" gradientUnits="userSpaceOnUse" x1="258.1328" y1="-44.6875" x2="262.1735" y2="-45.4138" gradientTransform="matrix(0.6227 0 0 -0.7737 -129.478 -17.7194)">
					<stop  offset="0" style="stop-color:#DADAD6"/>
					<stop  offset="0.5" style="stop-color:#E3E4E1;stop-opacity:0.498"/>
					<stop  offset="1" style="stop-color:#DADAD6"/>
				</linearGradient>
				
					<path id="path3785-0_1_" fill="url(#path3785-0_3_)" stroke="#888985" stroke-width="0.8222" stroke-linecap="round" stroke-linejoin="round" d="
					M39.223,17.452c0,0.688-2.362,1.244-5.283,1.244c-2.915,0-5.282-0.557-5.283-1.243c0-0.001,0-0.001,0-0.001
					c-0.001-0.686,2.366-1.243,5.281-1.243C36.858,16.209,39.221,16.767,39.223,17.452L39.223,17.452z"/>
				<path id="path8638_1_" fill-opacity="0.0377" d="M21.771,55.035c-1.551-0.854-0.933-3.457,0.345-5.352
					c1.277-1.889,9.158-18.553,9.614-19.687v-9.36l1.993,0.127l0.046,9.601c0,0-3.809,14.629-5.789,22.115
					c-0.332,1.25-1.323,2.461,0.273,3.88C24.879,55.864,24.032,55.767,21.771,55.035z"/>
				<path id="path8640_1_" fill-opacity="0.0566" d="M47.438,54.222c1.548-0.854,0.866-3.547-0.411-5.44
					c-1.276-1.895-9.157-18.553-9.613-19.69v-8.64l-0.976,0.179l-0.032,8.83c0,0,5.325,14.797,7.306,22.284
					c0.332,1.247,1.322,2.459-0.274,3.878C46.818,55.126,45.351,55.376,47.438,54.222z"/>
				
					<path id="path3835_1_" opacity="0.5" fill="none" stroke="#D3D7CF" stroke-width="1.071" stroke-linecap="round" stroke-linejoin="round" enable-background="new    " d="
					M38.378,20.776c-1.639,0.291-2.125,0.531-4.434,0.531c-2.31,0-3.05-0.305-4.457-0.481"/>
				
					<radialGradient id="path7795_3_" cx="774.1553" cy="-2060.2212" r="16.5808" gradientTransform="matrix(0.3373 0.0053 0.0035 -0.1445 -220.0367 -272.5372)" gradientUnits="userSpaceOnUse">
					<stop  offset="0" style="stop-color:#FFFFFF;stop-opacity:0"/>
					<stop  offset="0.6176" style="stop-color:#FFFFFF;stop-opacity:0"/>
					<stop  offset="0.746" style="stop-color:#FFFFFF"/>
					<stop  offset="1" style="stop-color:#FFFFFF;stop-opacity:0"/>
				</radialGradient>
				
					<path id="path7795_1_" opacity="0.75" fill="none" stroke="url(#path7795_3_)" stroke-width="2.142" stroke-linecap="round" stroke-linejoin="round" enable-background="new    " d="
					M38.092,29.913c-0.964,0.89-3.352,0.985-4.21,0.985c-0.972,0-2.369,0.069-4.209-0.89"/>
				
					<path id="path8736_1_" opacity="0.1" fill="none" stroke="#FFFFFF" stroke-width="2.1419" stroke-linecap="round" stroke-linejoin="round" enable-background="new    " d="
					M48.997,49.912c-3.432,2.032-12.065,2.795-15.115,2.795c-3.469,0-8.308-0.381-14.862-2.574"/>
				
					<linearGradient id="path8704_3_" gradientUnits="userSpaceOnUse" x1="34.9023" y1="63.9438" x2="37.8404" y2="64.299" gradientTransform="matrix(1 0 0 -1 0 83.1201)">
					<stop  offset="0" style="stop-color:#CDCDCD"/>
					<stop  offset="0.7083" style="stop-color:#FFFFFF;stop-opacity:0.3162"/>
					<stop  offset="1" style="stop-color:#D5D6D5"/>
				</linearGradient>
				<path id="path8704_1_" opacity="0.5" fill="url(#path8704_3_)" enable-background="new    " d="M28.711,18.322
					c-0.159,1.325-0.054,1.753,1.291,2.026c1.352,0.274,2.242,0.38,3.875,0.414c1.019,0.021,2.894-0.159,3.957-0.407
					c0.831-0.193,1.076-0.364,1.278-0.707c0.307-0.529,0.173-1.1,0.094-1.333c-1.036,0.622-2.958,0.962-5.462,0.912
					C31.245,19.176,29.374,18.793,28.711,18.322z"/>
				
					<path id="path9030_1_" opacity="0.1" fill="none" stroke="#2F3436" stroke-width="2.1419" stroke-linecap="round" stroke-linejoin="round" enable-background="new    " d="
					M48.997,52.091c-3.432,2.032-12.065,2.694-15.115,2.694c-3.469,0-8.308-0.286-14.862-2.479"/>
				<path id="path8685_1_" fill="none" stroke="#888985" stroke-width="0.6989" d="M29.015,17.028
					c-0.988,0.268-1.549,3.254,0.49,3.748v8.568L19.19,47.462c-1.235,2.169-2.612,5.553,1.473,7.698
					c2.637,1.137,7.323,1.918,13.276,1.918c5.954,0,10.64-0.781,13.278-1.918c4.083-2.146,2.708-5.529,1.475-7.698L38.378,29.344
					v-8.568c2.196-0.589,1.475-3.48,0.49-3.748"/>
			</g>
			
				<radialGradient id="path4533_2_" cx="-881.8643" cy="1576.6011" r="16.2393" gradientTransform="matrix(1.007 0 0 -0.2365 921.4532 429.6744)" gradientUnits="userSpaceOnUse">
				<stop  offset="0" style="stop-color:#000000"/>
				<stop  offset="1" style="stop-color:#000000;stop-opacity:0"/>
			</radialGradient>
			<path id="path4533_4_" opacity="0.5161" fill="url(#path4533_2_)" enable-background="new    " d="M49.771,56.808
				c0,2.122-7.321,3.84-16.354,3.84c-9.037,0-16.358-1.718-16.358-3.84c0-2.124,7.321-3.84,16.358-3.84
				C42.45,52.968,49.771,54.684,49.771,56.808z"/>
		</g>
		<g id="g4548_2_">
			<path id="path4216_4_" fill="#888985" stroke="#888985" stroke-width="0.7021" d="M39.019,30.167
				c-4.77,1.811-8.263,6.468-8.715,11.526c-0.461,4.633,1.602,9.469,5.322,12.277c3.562,2.753,8.502,3.637,12.78,2.173
				c4.038-1.328,7.381-4.599,8.727-8.628c1.389-4.004,0.819-8.637-1.57-12.156c-2.358-3.546-6.415-5.91-10.675-6.125
				C42.894,29.117,40.875,29.431,39.019,30.167z M39.967,31.852c1.868-0.705,4.191,0.47,4.7,2.414
				c0.515,1.714-0.406,3.746-2.101,4.397c-1.571,0.663-3.563,0.087-4.462-1.379c-0.851-1.309-0.776-3.166,0.275-4.339
				C38.802,32.442,39.349,32.073,39.967,31.852z M34.71,38.375c1.857-0.757,4.221,0.377,4.771,2.311
				c0.573,1.748-0.389,3.852-2.13,4.492c-1.594,0.646-3.604,0.017-4.467-1.487c-0.812-1.327-0.687-3.183,0.39-4.327
				C33.667,38.92,34.159,38.586,34.71,38.375z M47.958,33.439c1.876-0.809,4.259,0.325,4.824,2.283
				c0.56,1.715-0.344,3.789-2.056,4.46c-1.602,0.688-3.643,0.087-4.528-1.439c-0.842-1.355-0.696-3.269,0.448-4.414
				C47.011,33.941,47.462,33.635,47.958,33.439z M43.293,41.042c0.503-0.244,1.056,0.513,0.635,0.896
				c-0.323,0.388-1.064,0.104-0.979-0.419C42.969,41.314,43.098,41.115,43.293,41.042z M44.849,41.333
				c0.446-0.187,0.928,0.354,0.691,0.774c-0.198,0.456-0.918,0.395-1.041-0.08C44.407,41.755,44.56,41.422,44.849,41.333z
				 M42.299,42.292c0.45-0.238,0.991,0.345,0.726,0.777c-0.202,0.435-0.925,0.364-1.032-0.102
				C41.899,42.704,42.051,42.391,42.299,42.292z M45.412,42.724c0.457-0.198,0.927,0.345,0.729,0.774
				c-0.186,0.447-0.937,0.396-1.058-0.086C45.026,43.141,45.15,42.833,45.412,42.724z M42.86,43.711
				c0.477-0.209,0.982,0.416,0.689,0.837c-0.268,0.431-1.072,0.25-1.039-0.286C42.506,44.033,42.651,43.793,42.86,43.711z
				 M50.925,40.933c1.886-0.778,4.292,0.401,4.799,2.4c0.499,1.68-0.386,3.678-2.034,4.348c-1.559,0.695-3.571,0.161-4.498-1.305
				c-0.893-1.312-0.819-3.203,0.249-4.394C49.839,41.515,50.355,41.148,50.925,40.933z M37.515,46.061
				c1.834-0.747,4.177,0.354,4.753,2.258c0.596,1.728-0.322,3.85-2.052,4.521c-1.564,0.672-3.58,0.09-4.48-1.382
				c-0.878-1.357-0.752-3.294,0.395-4.459C36.512,46.583,36.989,46.266,37.515,46.061z M44.451,43.957
				c0.458-0.197,0.938,0.41,0.654,0.812c-0.224,0.461-1.029,0.293-1.041-0.23C44.032,44.283,44.208,44.033,44.451,43.957z
				 M45.676,47.324c1.837-0.763,4.193,0.346,4.764,2.269c0.573,1.706-0.307,3.787-1.99,4.475c-1.536,0.684-3.507,0.193-4.451-1.222
				c-0.919-1.285-0.903-3.175,0.124-4.39C44.53,47.949,45.07,47.555,45.676,47.324z"/>
			<path id="path4297_2_" fill="#B8BBB4" stroke="#ECEDEC" stroke-width="0.4583" d="M39.657,30.792
				c-4.094,1.553-7.263,5.28-8.184,9.551c-1,4.397,0.433,9.277,3.679,12.41c2.804,2.757,6.853,4.197,10.771,3.76
				c4.09-0.434,7.926-2.836,10.029-6.381c2.09-3.441,2.516-7.85,1.062-11.618c-1.394-3.755-4.58-6.792-8.393-7.993
				C45.72,29.577,42.498,29.666,39.657,30.792L39.657,30.792z M40.25,31.86c1.854-0.748,4.168,0.197,4.977,2.027
				c0.806,1.657,0.246,3.823-1.251,4.879c-1.447,1.078-3.623,0.981-4.953-0.227c-1.359-1.174-1.754-3.319-0.854-4.874
				C38.618,32.844,39.365,32.189,40.25,31.86L40.25,31.86z M35.121,38.295c1.855-0.747,4.177,0.196,4.98,2.03
				c0.834,1.704,0.209,3.953-1.395,4.975c-1.496,1.018-3.685,0.828-4.953-0.471c-1.295-1.206-1.562-3.32-0.652-4.828
				C33.549,39.219,34.28,38.618,35.121,38.295L35.121,38.295z M48.317,33.377c1.857-0.747,4.169,0.196,4.979,2.026
				c0.809,1.657,0.245,3.824-1.252,4.88c-1.447,1.078-3.619,0.98-4.951-0.228c-1.36-1.175-1.755-3.319-0.856-4.874
				C46.687,34.36,47.434,33.707,48.317,33.377L48.317,33.377z M43.592,40.958c0.471-0.254,1.059,0.097,1.23,0.499
				c0.434-0.469,1.301-0.315,1.498,0.295c0.123,0.263,0.025,0.605-0.069,0.817c0.619,0.127,0.95,0.965,0.523,1.459
				c-0.201,0.256-0.563,0.356-0.862,0.315c0.24,0.587-0.27,1.31-0.91,1.232c-0.339-0.023-0.646-0.286-0.775-0.573
				c-0.386,0.485-1.235,0.407-1.502-0.153c-0.159-0.304-0.096-0.689,0.077-0.957c-0.628-0.13-0.939-0.976-0.505-1.466
				c0.203-0.237,0.532-0.335,0.833-0.305C42.95,41.692,43.155,41.141,43.592,40.958L43.592,40.958z M43.831,42.672
				c0.123,0.288,0.032,0.653-0.104,0.884c0.296,0.057,0.535,0.303,0.648,0.553c0.199-0.252,0.554-0.357,0.854-0.318
				c-0.105-0.266-0.066-0.584,0.084-0.824c-0.31-0.065-0.558-0.31-0.682-0.59C44.438,42.603,44.109,42.702,43.831,42.672
				L43.831,42.672z M51.206,40.828c1.859-0.747,4.17,0.198,4.981,2.03c0.804,1.657,0.243,3.825-1.251,4.879
				c-1.447,1.073-3.62,0.978-4.953-0.227c-1.36-1.177-1.756-3.322-0.856-4.875C49.578,41.815,50.323,41.161,51.206,40.828
				L51.206,40.828z M37.906,45.917c1.854-0.745,4.168,0.198,4.977,2.024c0.83,1.725,0.21,3.962-1.399,4.985
				c-1.483,0.997-3.622,0.826-4.901-0.42c-1.302-1.208-1.645-3.335-0.714-4.857C36.32,46.862,37.051,46.236,37.906,45.917z
				 M46.002,47.163c1.859-0.744,4.172,0.2,4.98,2.026c0.835,1.723,0.206,3.961-1.403,4.985c-1.479,0.998-3.621,0.826-4.901-0.419
				c-1.3-1.215-1.637-3.343-0.705-4.861C44.42,48.11,45.149,47.481,46.002,47.163L46.002,47.163z"/>
			
				<path id="path4371_2_" sodipodi:nodetypes="csscccscc" fill="#2F3436" stroke="#000000" stroke-width="0.4095" stroke-linejoin="round" d="
				M44.021,54.671c-2.812,3.183-5.821,3.157-8.166,3.125c-5.397-0.083-6.104,4.09-5.993,6.007c0.005,0.037,0.005,0.077,0.009,0.117
				l-0.038-0.02l-2.962-1.774c-0.149-1.852,0.432-6.298,5.938-6.218c2.35,0.034,5.352,0.061,8.164-3.124L44.021,54.671"/>
			
				<linearGradient id="path4477_1_" gradientUnits="userSpaceOnUse" x1="-129.1309" y1="-2.9902" x2="-114.6855" y2="3.6538" gradientTransform="matrix(0.936 -0.352 -0.352 -0.936 148.5493 15.3801)">
				<stop  offset="0" style="stop-color:#FFFFFF;stop-opacity:0.548"/>
				<stop  offset="0.0625" style="stop-color:#FFFFFF;stop-opacity:0.6836"/>
				<stop  offset="0.2607" style="stop-color:#FFFFFF;stop-opacity:0.9661"/>
				<stop  offset="0.4254" style="stop-color:#FFFFFF;stop-opacity:0.749"/>
				<stop  offset="0.6412" style="stop-color:#FFFFFF;stop-opacity:0.6235"/>
				<stop  offset="0.8093" style="stop-color:#FFFFFF;stop-opacity:0.498"/>
				<stop  offset="1" style="stop-color:#FFFFFF;stop-opacity:0"/>
			</linearGradient>
			
				<path id="path4477_2_" opacity="0.5914" fill="url(#path4477_1_)" stroke="#ECEDEC" stroke-width="0.4096" stroke-linejoin="round" enable-background="new    " d="
				M30.082,56.713c-1.662,0.65-2.701,2.396-2.835,4.146c-0.019,0.348-0.112,0.781,0.019,1.093c0.742,0.444,1.488,0.895,2.234,1.34
				c0.016-2.045,1-4.204,2.895-5.14c1.584-0.845,3.438-0.706,5.171-0.717c2.088-0.092,4.179-0.899,5.638-2.419
				c0.398-0.234,0.151-0.398-0.18-0.55c-0.662-0.397-1.332-0.846-1.992-1.214c-1.697,1.903-4.241,3.024-6.798,3.001
				C32.837,56.286,31.396,56.147,30.082,56.713z"/>
			<path id="path4375_2_" sodipodi:nodetypes="cc" fill="none" stroke="#000000" stroke-width="0.234" d="M27.424,58.9l2.937,1.749"
				/>
			<path id="path4218_2_" fill="#2F3436" stroke="#000000" stroke-width="0.4095" d="M57.725,39.7
				c2.13,5.661-0.734,11.974-6.396,14.104c-5.655,2.126-11.973-0.733-14.099-6.396c-2.13-5.66,0.735-11.973,6.391-14.103
				C49.282,31.177,55.594,34.039,57.725,39.7L57.725,39.7z"/>
			
				<radialGradient id="path4533_6_" cx="-883.8374" cy="1550.5659" r="16.2458" gradientTransform="matrix(1.0442 0.0071 0.0016 -0.2365 967.5203 430.9746)" gradientUnits="userSpaceOnUse">
				<stop  offset="0" style="stop-color:#000000"/>
				<stop  offset="1" style="stop-color:#000000;stop-opacity:0"/>
			</radialGradient>
			<path id="path4533_3_" opacity="0.5161" fill="url(#path4533_6_)" enable-background="new    " d="M64.06,58.107
				c-0.016,2.123-7.621,3.787-16.987,3.727c-9.369-0.065-16.951-1.835-16.936-3.957c0.017-2.124,7.619-3.792,16.987-3.728
				C56.492,54.214,64.074,55.982,64.06,58.107z"/>
			<path id="path4153_2_" fill="#888985" stroke="#888985" stroke-width="0.7021" d="M43.433,30.957
				c-4.505,1.708-7.936,5.873-8.802,10.598c-0.854,4.405,0.544,9.188,3.656,12.433c3.132,3.324,7.938,4.997,12.454,4.275
				c4.312-0.645,8.26-3.37,10.33-7.208c2.137-3.835,2.349-8.68,0.513-12.691c-1.896-4.285-6.03-7.47-10.655-8.198
				C48.428,29.75,45.802,30.02,43.433,30.957z M44.306,32.959c1.749-0.756,3.988,0.183,4.679,1.971
				c0.667,1.562,0.049,3.55-1.41,4.433c-1.426,0.917-3.485,0.651-4.604-0.636c-1.158-1.255-1.251-3.364-0.136-4.679
				C43.222,33.567,43.734,33.188,44.306,32.959z M39.026,39.587c1.745-0.754,3.967,0.175,4.667,1.926
				c0.706,1.602,0.052,3.665-1.479,4.528c-1.432,0.863-3.443,0.571-4.535-0.698c-1.162-1.281-1.228-3.398-0.081-4.713
				C37.97,40.178,38.472,39.811,39.026,39.587z M52.617,34.521c1.75-0.757,3.988,0.183,4.68,1.971
				c0.665,1.563,0.048,3.551-1.41,4.432c-1.429,0.92-3.488,0.65-4.609-0.632c-1.154-1.256-1.247-3.367-0.132-4.682
				C51.531,35.131,52.047,34.749,52.617,34.521z M47.863,42.287c0.407-0.21,0.843,0.391,0.523,0.72
				c-0.266,0.342-0.914,0.062-0.797-0.38C47.615,42.476,47.72,42.337,47.863,42.287z M46.87,43.55
				c0.404-0.206,0.842,0.394,0.522,0.722c-0.269,0.354-0.933,0.05-0.798-0.391C46.627,43.736,46.73,43.607,46.87,43.55z
				 M49.43,42.588c0.407-0.208,0.842,0.392,0.523,0.721c-0.274,0.356-0.933,0.042-0.793-0.401
				C49.191,42.767,49.293,42.642,49.43,42.588z M50.035,44.012c0.408-0.209,0.835,0.396,0.523,0.722
				c-0.269,0.354-0.933,0.05-0.797-0.392C49.793,44.198,49.896,44.068,50.035,44.012z M47.421,45.018
				c0.414-0.208,0.848,0.414,0.512,0.735c-0.281,0.333-0.915,0.024-0.787-0.406C47.179,45.204,47.284,45.075,47.421,45.018z
				 M55.593,42.197c1.75-0.756,3.992,0.184,4.68,1.973c0.667,1.562,0.048,3.549-1.41,4.431c-1.427,0.92-3.487,0.653-4.605-0.633
				c-1.158-1.259-1.248-3.367-0.135-4.679C54.509,42.804,55.027,42.425,55.593,42.197z M41.891,47.437
				c1.73-0.744,3.934,0.155,4.653,1.899c0.722,1.596,0.089,3.653-1.436,4.536c-1.452,0.9-3.516,0.594-4.616-0.732
				c-1.104-1.278-1.163-3.327-0.059-4.627C40.818,48.037,41.323,47.664,41.891,47.437z M49.009,45.272
				c0.412-0.21,0.847,0.399,0.522,0.724c-0.269,0.33-0.894,0.061-0.802-0.356C48.753,45.478,48.857,45.324,49.009,45.272z
				 M50.229,48.721c1.735-0.743,3.936,0.155,4.654,1.897c0.722,1.597,0.089,3.653-1.438,4.539c-1.452,0.9-3.514,0.593-4.611-0.734
				c-1.106-1.278-1.166-3.326-0.058-4.626C49.164,49.318,49.668,48.944,50.229,48.721z"/>
			
				<path id="path4367_2_" sodipodi:expansion="1" sodipodi:argument="-45.239765" sodipodi:revolution="7.3000002" sodipodi:radius="227.1114" sodipodi:t0="0" sodipodi:cy="238.17923" sodipodi:cx="-303.04578" sodipodi:type="spiral" fill="none" stroke="#000000" stroke-width="0.351" d="
				M47.062,43.228c0.229,0.02,0.085,0.316-0.032,0.379c-0.324,0.162-0.664-0.148-0.734-0.449c-0.123-0.543,0.348-1.007,0.862-1.063
				c0.76-0.086,1.386,0.558,1.44,1.276c0.068,0.953-0.764,1.718-1.696,1.749c-1.179,0.034-2.115-0.978-2.143-2.104
				c-0.028-1.369,1.177-2.439,2.527-2.435c1.596,0.004,2.85,1.389,2.842,2.932c-0.005,1.777-1.586,3.158-3.355,3.119
				c-2.015-0.047-3.58-1.812-3.545-3.76c0.04-2.19,1.999-3.881,4.192-3.806c2.428,0.085,4.316,2.222,4.244,4.59
				c-0.081,2.603-2.414,4.602-5.023,4.485c-2.848-0.12-5.053-2.639-4.948-5.413c0.118-3.015,2.831-5.329,5.854-5.177
				c3.265,0.167,5.794,3.055,5.652,6.249c-0.154,3.425-3.243,6.05-6.688,5.857c-3.682-0.209-6.527-3.468-6.354-7.07
				c0.194-3.842,3.658-6.776,7.518-6.546c4.101,0.246,7.271,3.886,7.056,7.9c-0.222,4.251-4.068,7.497-8.346,7.229
				c-4.518-0.287-8.006-4.299-7.76-8.726c0.26-4.664,4.482-8.222,9.179-7.915c4.938,0.323,8.744,4.713,8.463,9.551
				c-0.299,5.079-4.899,8.948-10.011,8.602c-5.354-0.362-9.483-5.132-9.162-10.382c0.327-5.486,5.309-9.669,10.838-9.284
				c5.775,0.403,10.222,5.547,9.865,11.207c-0.365,5.903-5.722,10.396-11.669,9.972c-1.174-0.083-2.334-0.346-3.423-0.787"/>
			
				<path id="path4343_2_" sodipodi:cy="354.14789" sodipodi:cx="372.5" sodipodi:type="arc" sodipodi:ry="60" sodipodi:rx="60" fill="none" stroke="#555854" stroke-width="0.7021" d="
				M48.963,35.249c0.661,1.754-0.227,3.714-1.984,4.375c-1.756,0.66-3.714-0.229-4.376-1.983c-0.657-1.757,0.229-3.715,1.983-4.375
				C46.345,32.604,48.301,33.491,48.963,35.249z"/>
			
				<path id="path4345_2_" sodipodi:cy="354.14789" sodipodi:cx="372.5" sodipodi:type="arc" sodipodi:ry="60" sodipodi:rx="60" fill="none" stroke="#555854" stroke-width="0.7021" d="
				M43.731,41.816c0.66,1.756-0.23,3.715-1.984,4.374c-1.758,0.658-3.714-0.229-4.376-1.982c-0.658-1.759,0.229-3.714,1.985-4.376
				C41.109,39.174,43.069,40.057,43.731,41.816z"/>
			<path id="path4381_2_" sodipodi:nodetypes="cc" fill="none" stroke="#000000" stroke-width="0.234" d="M34.628,55.853
				l2.421,1.857"/>
			<path id="path4383_2_" sodipodi:nodetypes="cc" fill="none" stroke="#000000" stroke-width="0.234" d="M37.187,55.292
				l2.905,2.031"/>
			<path id="path4385_2_" fill="none" stroke="#000000" stroke-width="0.234" d="M39.64,54.102l2.746,1.957"/>
			<path id="path4389_2_" sodipodi:nodetypes="cc" fill="none" stroke="#000000" stroke-width="0.234" d="M29.22,56.905l2.66,1.968"
				/>
			<path id="path4387_2_" sodipodi:nodetypes="cc" fill="none" stroke="#000000" stroke-width="0.234" d="M31.962,56.009
				l2.421,1.856"/>
			
				<path id="path4347_2_" sodipodi:cy="354.14789" sodipodi:cx="372.5" sodipodi:type="arc" sodipodi:ry="60" sodipodi:rx="60" fill="none" stroke="#555854" stroke-width="0.7021" d="
				M46.525,49.425c0.662,1.757-0.226,3.714-1.983,4.376c-1.756,0.657-3.714-0.229-4.373-1.984c-0.66-1.758,0.229-3.715,1.98-4.376
				C43.908,46.783,45.862,47.667,46.525,49.425z"/>
			
				<path id="path4349_2_" sodipodi:cy="354.14789" sodipodi:cx="372.5" sodipodi:type="arc" sodipodi:ry="60" sodipodi:rx="60" fill="none" stroke="#555854" stroke-width="0.7021" d="
				M54.581,50.659c0.659,1.757-0.229,3.714-1.982,4.376c-1.757,0.657-3.717-0.226-4.38-1.983c-0.659-1.757,0.231-3.715,1.988-4.377
				C51.963,48.017,53.921,48.902,54.581,50.659z"/>
			
				<path id="path4351_2_" sodipodi:cy="354.14789" sodipodi:cx="372.5" sodipodi:type="arc" sodipodi:ry="60" sodipodi:rx="60" fill="none" stroke="#555854" stroke-width="0.7021" d="
				M59.884,44.4c0.662,1.756-0.228,3.718-1.983,4.376c-1.757,0.661-3.715-0.229-4.375-1.985c-0.659-1.753,0.229-3.715,1.983-4.371
				C57.265,41.757,59.222,42.646,59.884,44.4z"/>
			
				<path id="path4353_2_" sodipodi:cy="354.14789" sodipodi:cx="372.5" sodipodi:type="arc" sodipodi:ry="60" sodipodi:rx="60" fill="none" stroke="#555854" stroke-width="0.7021" d="
				M57.089,36.792c0.659,1.754-0.228,3.711-1.984,4.374c-1.756,0.661-3.714-0.228-4.376-1.983c-0.658-1.756,0.229-3.715,1.984-4.375
				C54.471,34.149,56.426,35.034,57.089,36.792z"/>
			
				<radialGradient id="path4229_1_" cx="-198.1426" cy="20.957" r="14.0559" gradientTransform="matrix(0.9002 -0.3386 -0.3396 -0.903 227.5587 -7.1031)" gradientUnits="userSpaceOnUse">
				<stop  offset="0" style="stop-color:#FFFFFF"/>
				<stop  offset="1" style="stop-color:#D3D7CF"/>
			</radialGradient>
			<path id="path4229_2_" fill="url(#path4229_1_)" stroke="#FFFFFF" stroke-width="0.3957" d="M44.03,31.537
				c-4.688,1.722-8.173,6.248-8.68,11.217c-0.518,4.538,1.402,9.31,4.992,12.149c3.351,2.716,8.003,3.737,12.159,2.56
				c4.062-1.111,7.546-4.195,9.053-8.136c1.528-3.846,1.196-8.413-0.954-11.979c-2.185-3.716-6.203-6.292-10.492-6.647
				C48.062,30.513,45.956,30.792,44.03,31.537z M44.759,33.282c1.842-0.757,4.179,0.397,4.703,2.332
				c0.529,1.675-0.372,3.697-2.014,4.352c-1.535,0.672-3.514,0.125-4.42-1.314c-0.89-1.353-0.783-3.276,0.349-4.433
				C43.755,33.802,44.229,33.477,44.759,33.282L44.759,33.282z M39.67,39.688c1.831-0.753,4.169,0.387,4.702,2.312
				c0.529,1.66-0.331,3.663-1.952,4.345c-1.499,0.689-3.476,0.2-4.407-1.194c-0.948-1.317-0.887-3.275,0.228-4.471
				C38.63,40.232,39.116,39.894,39.67,39.688L39.67,39.688z M52.77,34.802c1.849-0.759,4.198,0.396,4.716,2.335
				c0.522,1.698-0.367,3.705-2.034,4.357c-1.519,0.65-3.454,0.12-4.369-1.284c-0.91-1.327-0.835-3.263,0.286-4.44
				C51.745,35.34,52.235,35.01,52.77,34.802z M48.134,42.331c0.474-0.227,1.021,0.482,0.632,0.866
				c-0.289,0.396-1.043,0.149-0.979-0.361C47.788,42.617,47.927,42.402,48.134,42.331L48.134,42.331z M47.192,43.55
				c0.459-0.197,0.934,0.406,0.653,0.812c-0.227,0.404-0.899,0.317-0.998-0.141C46.753,43.948,46.917,43.635,47.192,43.55z
				 M49.681,42.613c0.478-0.173,0.914,0.437,0.629,0.837c-0.246,0.4-0.899,0.279-1.002-0.165
				C49.228,43.004,49.395,42.69,49.681,42.613L49.681,42.613z M50.201,44.002c0.429-0.199,0.887,0.268,0.757,0.7
				c-0.127,0.464-0.857,0.489-1.039,0.044C49.808,44.475,49.932,44.125,50.201,44.002z M47.704,44.967
				c0.473-0.212,1.002,0.458,0.649,0.855c-0.282,0.417-1.065,0.182-0.996-0.353C47.368,45.256,47.509,45.042,47.704,44.967
				L47.704,44.967z M55.659,42.231c1.847-0.764,4.2,0.402,4.709,2.349c0.501,1.646-0.331,3.605-1.923,4.291
				c-1.523,0.716-3.524,0.221-4.463-1.206c-0.916-1.306-0.87-3.219,0.216-4.412C54.59,42.794,55.092,42.441,55.659,42.231z
				 M42.444,47.285c1.838-0.75,4.176,0.391,4.701,2.324c0.514,1.651-0.314,3.605-1.892,4.306c-1.498,0.718-3.463,0.268-4.434-1.113
				c-0.979-1.31-0.941-3.321,0.192-4.528C41.397,47.834,41.895,47.489,42.444,47.285L42.444,47.285z M49.262,45.217
				c0.483-0.208,0.946,0.437,0.638,0.838c-0.248,0.364-0.868,0.274-0.985-0.147C48.81,45.628,48.981,45.294,49.262,45.217z
				 M50.427,48.561c1.851-0.8,4.227,0.337,4.767,2.286c0.553,1.719-0.396,3.792-2.103,4.411c-1.518,0.609-3.425,0.062-4.321-1.351
				c-0.912-1.357-0.781-3.336,0.391-4.492C49.521,49.042,49.945,48.753,50.427,48.561L50.427,48.561z"/>
			
				<radialGradient id="path4544_1_" cx="-557.1211" cy="2813.7632" r="16.2417" gradientTransform="matrix(0.7902 -0.0074 -0.0014 -0.1457 478.8355 468.5469)" gradientUnits="userSpaceOnUse">
				<stop  offset="0" style="stop-color:#000000"/>
				<stop  offset="1" style="stop-color:#000000;stop-opacity:0"/>
			</radialGradient>
			<path id="path4544_2_" opacity="0.3011" fill="url(#path4544_1_)" enable-background="new    " d="M47.496,62.584
				c0.014,1.308-5.726,2.422-12.815,2.486c-7.087,0.068-12.845-0.937-12.858-2.244c-0.012-1.307,5.726-2.419,12.813-2.487
				C41.726,60.275,47.481,61.28,47.496,62.584z"/>
		</g>
		<g id="g10691_2_" transform="translate(757.3475,-17.057376)">
			<g id="path3670_2_" inkscape:connector-curvature="0" opacity="0.4444" enable-background="new    ">
				
					<radialGradient id="SVGID_1_" cx="-1158.3098" cy="2482.428" r="13.4894" gradientTransform="matrix(0.7847 0 0 -0.1832 203.9145 535.7762)" gradientUnits="userSpaceOnUse">
					<stop  offset="0" style="stop-color:#000000"/>
					<stop  offset="1" style="stop-color:#000000;stop-opacity:0"/>
				</radialGradient>
				<path fill="url(#SVGID_1_)" d="M-694.452,80.998c0,1.354-4.729,2.454-10.561,2.454s-10.559-1.101-10.559-2.454
					c0-1.36,4.727-2.46,10.559-2.46S-694.452,79.638-694.452,80.998z"/>
			</g>
			<g id="g3663_2_" transform="matrix(0.49169338,0,0,0.49169338,64.202077,421.35888)">
				<path id="path3601_2_" inkscape:connector-curvature="0" fill="#3E72B7" stroke="#231F20" stroke-width="0.8191" d="
					M-1558.571-739.068v32.811c-2.151-2.089-5.458-3.428-9.16-3.428c-6.487,0-11.73,4.097-11.73,9.152
					c0,5.053,5.243,9.146,11.73,9.146c6.479,0,11.734-4.093,11.734-9.146c0-0.367-0.028-0.729-0.082-1.09v-31.216
					c0.614,2.536,5.521,1.648,7.422,4.423c2.262,3.307,0.099,14.391-0.234,15.758c0.155-0.391,0.673-1.595,2.268-5.22
					c3.023-6.898,1.986-15.112-3.055-16.36c-4.779-1.18-6.125-3.917-6.401-4.632v-0.199H-1558.571z M-1548.891-712.659
					c-0.123,0.298-0.042,0.135-0.042,0.135C-1548.931-712.516-1548.919-712.564-1548.891-712.659z"/>
				
					<path id="path3619_2_" inkscape:connector-curvature="0" opacity="0.4" fill="none" stroke="#FFFFFF" stroke-width="0.4095" enable-background="new    " d="
					M-1556.643-738.441c-0.423,0.038-0.858,0.004-1.283,0.014c0.012,10.709-0.022,21.418,0.018,32.131
					c0.193,0.536-0.604,1.084-0.999,0.63c-2.991-2.959-7.537-3.895-11.587-3.11c-3.14,0.616-6.252,2.429-7.686,5.376
					c-0.993,2.085-0.816,4.669,0.481,6.576c1.792,2.79,5.086,4.324,8.32,4.695c3.664,0.435,7.593-0.572,10.314-3.11
					c1.627-1.533,2.659-3.77,2.387-6.018c-0.103-3.223-0.008-6.443-0.052-9.668c0-7.404,0-14.803,0.012-22.207
					c0.099-0.516,0.967-0.685,1.148-0.139c0.165,0.747,0.812,1.289,1.519,1.482c1.809,0.707,3.964,0.91,5.39,2.348
					c1.224,1.229,1.504,3.069,1.609,4.727c0.147,2.324-0.02,4.653-0.32,6.959c1.168-2.687,1.911-5.603,1.787-8.556
					c-0.079-2.133-0.598-4.354-2.04-5.998c-0.806-0.862-1.922-1.329-3.059-1.527c-2.439-0.741-4.81-2.25-5.927-4.608
					L-1556.643-738.441z"/>
				
					<radialGradient id="path3637_1_" cx="-1576.2856" cy="906.4002" r="15.6656" gradientTransform="matrix(0.4558 0.0099 0.0075 -0.3422 -858.6298 -375.6046)" gradientUnits="userSpaceOnUse">
					<stop  offset="0" style="stop-color:#FFFFFF"/>
					<stop  offset="1" style="stop-color:#FFFFFF;stop-opacity:0"/>
				</radialGradient>
				
					<path id="path3637_2_" inkscape:connector-curvature="0" opacity="0.6939" fill="url(#path3637_1_)" enable-background="new    " d="
					M-1556.569-738.584c-0.483,0.068-0.993,0.004-1.488,0.026c0,10.753-0.01,21.51,0.012,32.261
					c0.177,0.421-0.425,0.918-0.771,0.542c-2.814-2.792-7.027-3.805-10.898-3.277c-3.148,0.423-6.29,1.974-8.082,4.675
					c-1.366,2.048-1.557,4.842-0.361,7.007c1.378,2.632,4.095,4.294,6.908,5.003c3.885,0.995,8.268,0.332,11.49-2.123
					c1.94-1.472,3.386-3.851,3.235-6.364c-0.143-2.544-0.042-5.086-0.066-7.631c-0.012-8.157,0-16.312,0-24.459
					c-0.109-0.498,0.695-0.808,0.894-0.306c0.173,0.677,0.693,1.259,1.364,1.46c1.813,0.779,3.978,0.924,5.462,2.326
					c1.225,1.114,1.527,2.834,1.672,4.409c0.201,2.729-0.054,5.474-0.427,8.159c1.136-2.487,2.034-5.122,2.147-7.881
					c0.145-2.522-0.215-5.208-1.742-7.277c-0.782-1.013-1.978-1.674-3.247-1.883c-2.49-0.717-4.957-2.242-6.062-4.665
					C-1556.54-738.584-1556.553-738.592-1556.569-738.584L-1556.569-738.584z"/>
			</g>
		</g>
	</g>
</g>
<g id="text">
</g>
<g id="guides" display="none">
	<g id="guide_2_" display="inline">
	</g>
	<g id="guide" display="inline">
	</g>
	<g id="guide_5_" display="inline">
	</g>
	<g id="guide_4_" display="inline">
	</g>
	<g id="guide_6_" display="inline">
	</g>
	<g id="guide_7_" display="inline">
	</g>
	<g id="guide_3_" display="inline">
	</g>
	<g id="guide_1_" display="inline">
		<circle fill="none" stroke="#2BA6DE" stroke-dasharray="1.1716" cx="40.394" cy="40.742" r="31.523"/>
		<circle fill="none" stroke="#EC1E28" cx="40.56" cy="40.574" r="36.027"/>
		<rect x="0.031" y="0.046" fill="none" width="81.059" height="81.059"/>
	</g>
	<g id="guide_8_" display="inline">
	</g>
</g>
</svg>
