<?xml version="1.0" encoding="utf-8"?>
<!-- Generator: Adobe Illustrator 16.1.0, SVG Export Plug-In . SVG Version: 6.00 Build 0)  -->
<!DOCTYPE svg PUBLIC "-//W3C//DTD SVG 1.1//EN" "http://www.w3.org/Graphics/SVG/1.1/DTD/svg11.dtd">
<svg version="1.1" xmlns="http://www.w3.org/2000/svg" xmlns:xlink="http://www.w3.org/1999/xlink" x="0px" y="0px" width="81.12px"
	 height="81.12px" viewBox="0 0 81.12 81.12" enable-background="new 0 0 81.12 81.12" xml:space="preserve">
<g id="presentation_border">
	<circle fill="#1BA649" cx="40.558" cy="40.562" r="39.898"/>
</g>
<g id="print_border" display="none">
	<rect id="_x3C_Path_x3E__4_" x="-7.486" y="-7.367" display="inline" fill="#1BA649" width="96.094" height="95.199"/>
</g>
<g id="white-center">
	<circle fill="#FFFFFF" cx="40.56" cy="40.729" r="29.88"/>
</g>
<g id="central_image">
	<g id="pii_1_">
		<g id="layer1_12_" inkscape:groupmode="layer" inkscape:label="Layer 1">
			<g id="g5022_3_" transform="matrix(2.312904e-2,0,0,1.485743e-2,45.62082,30.57952)">
				
					<linearGradient id="rect4173_3_" gradientUnits="userSpaceOnUse" x1="316667.875" y1="-869447.6875" x2="316667.875" y2="-869745.25" gradientTransform="matrix(0.0642 0 0 -0.0293 -20548.9805 -23994.2734)">
					<stop  offset="0" style="stop-color:#000000;stop-opacity:0"/>
					<stop  offset="0.5" style="stop-color:#000000"/>
					<stop  offset="1" style="stop-color:#000000;stop-opacity:0"/>
				</linearGradient>
				
					<rect id="rect4173_4_" x="-917.736" y="1480.558" opacity="0.4021" fill="url(#rect4173_3_)" enable-background="new    " width="1397.647" height="586.91"/>
				
					<radialGradient id="path5058_3_" cx="329482.7188" cy="-879345" r="143.6145" gradientTransform="matrix(0.0546 0 0 -0.0293 -17500.9766 -23994.2734)" gradientUnits="userSpaceOnUse">
					<stop  offset="0" style="stop-color:#000000"/>
					<stop  offset="1" style="stop-color:#000000;stop-opacity:0"/>
				</radialGradient>
				<path id="path5058_4_" sodipodi:nodetypes="cccc" opacity="0.4021" fill="url(#path5058_3_)" enable-background="new    " d="
					M479.911,1480.558v586.91c149.088,1.118,360.453-131.461,360.453-293.488C840.364,1611.888,673.839,1480.558,479.911,1480.558z"
					/>
				
					<radialGradient id="path5018_3_" cx="-316925.9062" cy="-879345" r="143.6145" gradientTransform="matrix(-0.0546 0 0 -0.0293 -18230.7012 -23994.2734)" gradientUnits="userSpaceOnUse">
					<stop  offset="0" style="stop-color:#000000"/>
					<stop  offset="1" style="stop-color:#000000;stop-opacity:0"/>
				</radialGradient>
				<path id="path5018_4_" sodipodi:nodetypes="cccc" opacity="0.4021" fill="url(#path5018_3_)" enable-background="new    " d="
					M-917.735,1480.558v586.91c-149.087,1.118-360.453-131.461-360.453-293.488
					C-1278.188,1611.888-1111.663,1480.558-917.735,1480.558z"/>
			</g>
			<g id="g2570_3_" transform="matrix(1.004727,0,0,1.006001,5.456518e-2,-9.119156)" inkscape:r_cy="true" inkscape:r_cx="true">
				<g>
					
						<linearGradient id="path12723_1_" gradientUnits="userSpaceOnUse" x1="-98.2241" y1="194.3358" x2="-89.7538" y2="168.2263" gradientTransform="matrix(1.3498 0 0 -1.5149 164.4732 316.2063)">
						<stop  offset="0" style="stop-color:#FFFFFF"/>
						<stop  offset="1" style="stop-color:#E1E1E1"/>
					</linearGradient>
					
						<path id="path12723_8_" inkscape:r_cy="true" inkscape:r_cx="true" fill="url(#path12723_1_)" stroke="#58595B" stroke-width="0.4" stroke-linejoin="round" d="
						M17.569,34.598v31.89h45.368l-0.078-31.766c0-0.008,0-0.035,0-0.044c-0.002-0.007,0-0.031,0-0.04
						c-0.002-0.009-0.037-0.031-0.039-0.04H17.569z"/>
					
						<linearGradient id="path1634_1_" gradientUnits="userSpaceOnUse" x1="-260.7274" y1="-84.3726" x2="-259.8423" y2="-101.5783" gradientTransform="matrix(2.4664 0 0 -0.7666 681.0823 -12.9879)">
						<stop  offset="0" style="stop-color:#DFDFDE"/>
						<stop  offset="0.2381" style="stop-color:#A5AFA5"/>
						<stop  offset="1" style="stop-color:#B5BDB4"/>
					</linearGradient>
					<path id="path1634_8_" sodipodi:nodetypes="ccccccc" inkscape:r_cy="true" inkscape:r_cx="true" fill="url(#path1634_1_)" d="
						M34.931,51.29l-16.44,13.466l17.07-11.786h11.067l15.237,11.636L47.308,51.29H34.931z"/>
					<path id="path15103_8_" inkscape:r_cy="true" inkscape:r_cx="true" fill="none" stroke="#FFFFFF" stroke-width="0.3118" d="
						M18.798,36.166c-0.01,0.018,0.006,0.024,0,0.039c-0.004,0.007-0.035,0.033-0.039,0.04c-0.002,0.005,0,0.032,0,0.039
						c-0.002,0.005,0,0.033,0,0.038l0.039,28.807H61.67l-0.076-28.652c0-0.002,0.002-0.033,0-0.038
						c-0.019-0.059-0.052-0.161-0.115-0.272H18.798z"/>
					
						<radialGradient id="path2563_1_" cx="338.835" cy="329.0857" r="22.0597" gradientTransform="matrix(0.6329 0.4615 0.1486 -0.25 -218.8652 -19.9203)" gradientUnits="userSpaceOnUse">
						<stop  offset="0" style="stop-color:#000000;stop-opacity:0.1287"/>
						<stop  offset="1" style="stop-color:#000000;stop-opacity:0"/>
					</radialGradient>
					<path id="path2563_8_" inkscape:r_cy="true" inkscape:r_cx="true" fill="url(#path2563_1_)" d="M38.414,56.125
						c-2.935-0.548-18.936-17.459-20.536-20.403c-0.018-0.035-0.049-0.101-0.062-0.131h42.353
						c-0.342,3.069-9.234,20.253-11.734,20.534c-0.01,0-0.025,0-0.037,0h-9.842C38.515,56.125,38.461,56.133,38.414,56.125z"/>
					
						<linearGradient id="path1613_1_" gradientUnits="userSpaceOnUse" x1="-83.2567" y1="695.3224" x2="-80.6737" y2="694.7124" gradientTransform="matrix(1.3021 0 0 1.4455 143.1592 -961.0109)">
						<stop  offset="0" style="stop-color:#FFFFFF"/>
						<stop  offset="1" style="stop-color:#E1E1E1"/>
					</linearGradient>
					
						<path id="path1613_8_" inkscape:r_cy="true" inkscape:r_cx="true" fill="url(#path1613_1_)" stroke="#969696" stroke-width="0.2671" stroke-linejoin="round" d="
						M35.279,53.777C32.372,53.299,19.535,38.479,18.522,35.9c-0.014-0.03-0.031-0.088-0.039-0.116h43.616
						c-1.011,2.692-13.866,17.75-16.5,17.994c-0.012,0.002-0.027,0-0.037,0H35.426C35.384,53.777,35.327,53.786,35.279,53.777z"/>
					
						<linearGradient id="path18153_1_" gradientUnits="userSpaceOnUse" x1="-147.8236" y1="721.6887" x2="-139.0471" y2="755.7428" gradientTransform="matrix(1.578 0 0 1.2389 270.038 -868.9302)">
						<stop  offset="0" style="stop-color:#FFFFFF"/>
						<stop  offset="1" style="stop-color:#E1E1E1"/>
					</linearGradient>
					<path id="path18153_8_" inkscape:r_cy="true" inkscape:r_cx="true" fill="url(#path18153_1_)" d="M35.094,53.049
						c-2.583-0.604-15.833-15.343-16.679-17.21c-0.004-0.008,0.002-0.033,0-0.039c-0.008-0.02-0.037-0.065-0.041-0.081
						c0-0.003,0-0.037,0-0.039c0.002-0.002,0.037,0.002,0.041,0l0.113-0.12h43.525c-0.002,0.031-0.027,0.083-0.037,0.12
						c-0.01,0.029-0.025,0.086-0.039,0.119c-1.131,2.675-14.121,16.893-16.374,17.249c-0.018,0.002-0.06,0-0.076,0h-10.28
						C35.211,53.047,35.139,53.059,35.094,53.049z"/>
					
						<linearGradient id="path1616_1_" gradientUnits="userSpaceOnUse" x1="-104.8713" y1="690.2708" x2="-71.8021" y2="686.5612" gradientTransform="matrix(1.3774 0 0 1.4733 177.0146 -972.8784)">
						<stop  offset="0" style="stop-color:#FFFFFF"/>
						<stop  offset="1" style="stop-color:#ECECEC"/>
					</linearGradient>
					
						<path id="path1616_8_" inkscape:r_cy="true" inkscape:r_cx="true" fill="none" stroke="url(#path1616_1_)" stroke-width="0.2671" d="
						M35.401,52.508c-3.003-0.673-14.935-14.254-16.374-16.686h42.452c-1.829,2.862-13.557,16.457-16.144,16.686
						c-0.01,0.002-0.029,0-0.039,0h-9.702c-0.033,0-0.08,0.004-0.115,0C35.454,52.505,35.426,52.515,35.401,52.508z"/>
					
						<linearGradient id="path1636_1_" gradientUnits="userSpaceOnUse" x1="29.4799" y1="35.2077" x2="35.3469" y2="38.068" gradientTransform="matrix(1.0047 0 0 -1.006 2.0148 93.0134)">
						<stop  offset="0" style="stop-color:#FFFFFF"/>
						<stop  offset="1" style="stop-color:#FFFFFF;stop-opacity:0"/>
					</linearGradient>
					<path id="path1636_8_" sodipodi:nodetypes="cccccc" inkscape:r_cy="true" inkscape:r_cx="true" fill="url(#path1636_1_)" d="
						M35.504,52.994l-14.653,10.15l2.725,0.008l12.268-8.429l10.826-1.746L35.504,52.994z"/>
				</g>
			</g>
		</g>
		<path id="path2857_3_" opacity="0.1" fill="#333332" enable-background="new    " d="M41.871,32.96l-6.684-12.399
			c-1.346-2.496-4.471-3.433-6.967-2.087c-2.496,1.345-3.432,4.47-2.088,6.967c0,0,0.389,0.72,0.447,0.827
			c-0.074,0.011-0.148,0.028-0.219,0.066l-0.787,0.424c-0.326,0.176-0.447,0.583-0.271,0.908l5.939,11.022
			c1.58,2.931,5.248,4.029,8.178,2.45C42.352,39.56,43.449,35.891,41.871,32.96z M38.359,39.17c-1.043,0.562-2.229,0.569-3.246,0.15
			c1.018,0.28,2.139,0.193,3.141-0.348c1-0.539,1.691-1.428,2.016-2.433C40.061,37.622,39.402,38.608,38.359,39.17z M32.66,22.939
			c-0.326,0.175-0.449,0.582-0.273,0.908l5.623,10.432c0.525,0.977,0.16,2.199-0.816,2.726c-0.977,0.527-2.201,0.161-2.727-0.816
			L28.102,24.38c-0.76-1.411-0.23-3.178,1.18-3.938c1.412-0.76,3.178-0.23,3.938,1.18c0,0,0.391,0.725,0.445,0.827
			c-0.074,0.011-0.148,0.028-0.217,0.066L32.66,22.939z"/>
		<g>
			<linearGradient id="SVGID_1_" gradientUnits="userSpaceOnUse" x1="25.1543" y1="42.3076" x2="63.9004" y2="42.3076">
				<stop  offset="0" style="stop-color:#58595B;stop-opacity:0"/>
				<stop  offset="0.5101" style="stop-color:#58595B;stop-opacity:0.6"/>
				<stop  offset="1" style="stop-color:#58595B;stop-opacity:0"/>
			</linearGradient>
			<polygon fill="url(#SVGID_1_)" points="53.916,60.635 25.154,49.286 35.139,23.981 63.9,35.33 			"/>
			
				<rect x="28.466" y="27.706" transform="matrix(0.9302 0.367 -0.367 0.9302 18.2273 -13.2393)" fill="#FFFFFF" stroke="#58595B" stroke-width="0.32" stroke-miterlimit="10" width="30.92" height="27.203"/>
			
				<linearGradient id="SVGID_2_" gradientUnits="userSpaceOnUse" x1="-221.771" y1="-381.6987" x2="-221.7202" y2="-359.9479" gradientTransform="matrix(0.8333 0.3288 -0.3425 0.8679 102.1192 434.6348)">
				<stop  offset="0" style="stop-color:#3970A3"/>
				<stop  offset="0.6327" style="stop-color:#A4BAD7"/>
				<stop  offset="0.6411" style="stop-color:#006838"/>
				<stop  offset="1" style="stop-color:#4B6931"/>
			</linearGradient>
			<polygon fill="url(#SVGID_2_)" stroke="#404041" stroke-width="0.32" stroke-miterlimit="10" points="53.266,54.626 
				27.766,44.564 35.445,25.105 60.943,35.167 			"/>
			<g>
				<g id="layer2_10_" inkscape:groupmode="layer" inkscape:label="dalsi cipek">
					
						<radialGradient id="path4306_1_" cx="-82.4004" cy="184.0918" r="2.9219" gradientTransform="matrix(1.4795 0.5838 0.2 -0.5068 129.5385 185.7302)" gradientUnits="userSpaceOnUse">
						<stop  offset="0" style="stop-color:#000000"/>
						<stop  offset="1" style="stop-color:#000000;stop-opacity:0"/>
					</radialGradient>
					
						<path id="path4306_12_" sodipodi:cy="19.008621" sodipodi:cx="31.112698" sodipodi:type="arc" sodipodi:ry="8.6620579" sodipodi:rx="8.6620579" fill="url(#path4306_1_)" d="
						M48.768,46.033c-0.32,0.818-2.518,0.718-4.902-0.223c-2.389-0.941-4.062-2.368-3.74-3.186c0-0.001,0-0.002,0-0.002
						c0.32-0.818,2.516-0.719,4.904,0.223c2.387,0.941,4.061,2.367,3.738,3.186C48.768,46.032,48.768,46.032,48.768,46.033z"/>
					
						<radialGradient id="path4308_1_" cx="-39.1035" cy="138.2461" r="4.5744" gradientTransform="matrix(1.0812 0.4266 0.303 -0.7679 45.22 163.8122)" gradientUnits="userSpaceOnUse">
						<stop  offset="0" style="stop-color:#3D74B9"/>
						<stop  offset="1" style="stop-color:#2D5A90"/>
					</radialGradient>
					
						<path id="path4308_12_" sodipodi:nodetypes="cczcczc" fill="url(#path4308_1_)" stroke="#204A87" stroke-width="0.32" stroke-linecap="round" stroke-linejoin="round" d="
						M42.781,44.434l2.98,1.177c0.844,0.333,1.807,0.341,2.477-0.458c0.635-0.758,1.049-2.516-0.307-4.605l-3.527-1.392
						c-2.377,0.497-3.283,2.102-3.24,3.266C41.207,43.606,41.887,44.081,42.781,44.434z"/>
					
						<linearGradient id="path4310_1_" gradientUnits="userSpaceOnUse" x1="10.4551" y1="130.1182" x2="10.4551" y2="128.011" gradientTransform="matrix(0.8333 0.3288 0.3425 -0.8679 -7.7112 150.9392)">
						<stop  offset="0" style="stop-color:#FFFFFF"/>
						<stop  offset="1" style="stop-color:#C9C9C8"/>
					</linearGradient>
					<path id="path4310_12_" sodipodi:nodetypes="cccc" fill="url(#path4310_1_)" d="M44.816,39.856
						c0.568,1.18-0.219,4.337-0.219,4.337s1.58-2.844,2.623-3.448L44.816,39.856z"/>
					<path id="path4312_12_" sodipodi:nodetypes="cccc" fill="#729ECE" d="M45.334,40.42c0,0-0.795,0.246-0.975,0.852
						c-0.365-0.753,0.016-1.77,0.016-1.77L45.334,40.42z"/>
					
						<path id="path4314_12_" sodipodi:nodetypes="cczcczc" opacity="0.2152" fill="none" stroke="#FFFFFF" stroke-width="0.32" stroke-linecap="round" stroke-linejoin="round" enable-background="new    " d="
						M42.881,44.121l2.951,1.157c0.742,0.292,1.588,0.3,2.176-0.402c0.557-0.666,0.852-2.237-0.34-4.073l-3.211-1.349
						c-2.088,0.437-2.998,1.802-2.98,2.897C41.492,43.447,42.018,43.773,42.881,44.121z"/>
					<path id="path4316_12_" sodipodi:nodetypes="cccc" fill="#729ECE" d="M46.58,40.911c0,0,0.414,0.725,0.131,1.29
						c0.781-0.302,1.197-1.305,1.197-1.305L46.58,40.911z"/>
					
						<radialGradient id="path4318_1_" cx="10.5986" cy="135.9951" r="2.9219" gradientTransform="matrix(0.8333 0.3288 0.3425 -0.8679 -9.0139 153.9362)" gradientUnits="userSpaceOnUse">
						<stop  offset="0" style="stop-color:#000000"/>
						<stop  offset="1" style="stop-color:#000000;stop-opacity:0"/>
					</radialGradient>
					
						<path id="path4318_12_" sodipodi:cy="19.008621" sodipodi:cx="31.112698" sodipodi:type="arc" sodipodi:ry="8.6620579" sodipodi:rx="8.6620579" fill="url(#path4318_1_)" d="
						M48.828,40.352c-0.551,1.399-2.088,2.105-3.434,1.576c-1.344-0.53-1.986-2.096-1.436-3.495
						c0.002-0.001,0.002-0.001,0.002-0.003c0.551-1.4,2.088-2.105,3.434-1.576c1.344,0.529,1.986,2.094,1.436,3.495
						C48.83,40.349,48.828,40.351,48.828,40.352z"/>
					
						<radialGradient id="path4320_1_" cx="67.9951" cy="144.1709" r="3.0899" gradientTransform="matrix(0.6566 0.2591 0.2699 -0.6839 -36.9943 118.5965)" gradientUnits="userSpaceOnUse">
						<stop  offset="0" style="stop-color:#F4D8B0"/>
						<stop  offset="1" style="stop-color:#DF9827"/>
					</radialGradient>
					
						<path id="path4320_12_" sodipodi:cy="19.008621" sodipodi:cx="31.112698" sodipodi:type="arc" sodipodi:ry="8.6620579" sodipodi:rx="8.6620579" fill="url(#path4320_1_)" stroke="#C07E2B" stroke-width="0.32" stroke-linecap="round" stroke-linejoin="round" d="
						M49.268,39.341c-0.551,1.399-2.09,2.106-3.434,1.576c-1.344-0.529-1.986-2.095-1.436-3.495c0.002,0,0.002-0.002,0.002-0.002
						c0.551-1.4,2.088-2.106,3.434-1.577c1.344,0.53,1.986,2.095,1.436,3.495C49.27,39.339,49.268,39.34,49.268,39.341z"/>
					
						<path id="path4322_12_" sodipodi:cy="19.008621" sodipodi:cx="31.112698" sodipodi:type="arc" sodipodi:ry="8.6620579" sodipodi:rx="8.6620579" opacity="0.1962" fill="none" stroke="#FFFFFF" stroke-width="0.3648" stroke-linecap="round" stroke-linejoin="round" enable-background="new    " d="
						M48.969,39.222c-0.484,1.229-1.832,1.848-3.012,1.383c-1.18-0.464-1.742-1.837-1.258-3.064c0,0,0-0.002,0-0.003
						c0.484-1.229,1.832-1.846,3.012-1.382s1.742,1.837,1.258,3.064C48.969,39.221,48.969,39.221,48.969,39.222z"/>
					
						<linearGradient id="path4354_1_" gradientUnits="userSpaceOnUse" x1="-4.0283" y1="167.752" x2="-3.3655" y2="167.6171" gradientTransform="matrix(0.7572 0.4809 0.4881 -0.7938 -36.8845 177.0807)">
						<stop  offset="0" style="stop-color:#000000"/>
						<stop  offset="1" style="stop-color:#000000;stop-opacity:0"/>
					</linearGradient>
					<path id="path4354_12_" sodipodi:nodetypes="cccc" opacity="0.2278" fill="url(#path4354_1_)" enable-background="new    " d="
						M41.719,43.723c-0.289-0.297-0.293-0.743-0.293-0.743c0.707-1.098,1.857-1.649,1.857-1.649S41.904,42.954,41.719,43.723z"/>
					
						<linearGradient id="path4364_1_" gradientUnits="userSpaceOnUse" x1="-423.2627" y1="83.9473" x2="-423.6941" y2="84.1669" gradientTransform="matrix(-0.8866 -0.1391 0.1598 -0.9176 -341.3033 62.3078)">
						<stop  offset="0" style="stop-color:#000000"/>
						<stop  offset="1" style="stop-color:#000000;stop-opacity:0"/>
					</linearGradient>
					<path id="path4364_12_" sodipodi:nodetypes="cccc" opacity="0.2278" fill="url(#path4364_1_)" enable-background="new    " d="
						M47.129,45.568c0.414-0.034,0.738-0.386,0.738-0.386c0.197-1.29-0.326-2.444-0.326-2.444S47.5,44.869,47.129,45.568z"/>
				</g>
				<g id="layer1_11_" inkscape:groupmode="layer" inkscape:label="cipek">
					
						<radialGradient id="path4177_1_" cx="-80.7031" cy="138.5205" r="2.9219" gradientTransform="matrix(1.4795 0.5838 0.3285 -0.8325 109.4559 204.2746)" gradientUnits="userSpaceOnUse">
						<stop  offset="0" style="stop-color:#000000"/>
						<stop  offset="1" style="stop-color:#000000;stop-opacity:0"/>
					</radialGradient>
					
						<path id="path4177_12_" sodipodi:cy="19.008621" sodipodi:cx="31.112698" sodipodi:type="arc" sodipodi:ry="8.6620579" sodipodi:rx="8.6620579" fill="url(#path4177_1_)" d="
						M39.881,43.547c-0.529,1.344-2.893,1.67-5.279,0.729c-2.387-0.94-3.893-2.793-3.365-4.137c0,0,0-0.001,0.002-0.002
						c0.527-1.343,2.891-1.67,5.279-0.729c2.387,0.94,3.893,2.793,3.363,4.137V43.547z"/>
					
						<radialGradient id="path2329_1_" cx="0.1494" cy="147.3574" r="4.5742" gradientTransform="matrix(0.8333 0.3288 0.2335 -0.5918 1.5153 126.4032)" gradientUnits="userSpaceOnUse">
						<stop  offset="0" style="stop-color:#737F35"/>
						<stop  offset="1" style="stop-color:#5B662D"/>
					</radialGradient>
					
						<path id="path2329_14_" sodipodi:nodetypes="cczcczc" fill="url(#path2329_1_)" stroke="#43481D" stroke-width="0.32" stroke-linecap="round" stroke-linejoin="round" d="
						M33.619,42.643l2.98,1.176c0.844,0.334,1.807,0.341,2.477-0.457c0.635-0.758,1.051-2.516-0.307-4.605l-3.527-1.393
						c-2.377,0.498-3.283,2.103-3.24,3.266C32.047,41.815,32.725,42.29,33.619,42.643z"/>
					<path id="path3812_13_" sodipodi:nodetypes="cccc" fill="#9DB13B" d="M36.758,38.859c0,0-0.795,0.248-0.975,0.854
						c-0.365-0.754,0.016-1.77,0.016-1.77L36.758,38.859z"/>
					
						<path id="path3838_13_" sodipodi:nodetypes="cczcczc" opacity="0.2152" fill="none" stroke="#FFFFFF" stroke-width="0.32" stroke-linecap="round" stroke-linejoin="round" enable-background="new    " d="
						M33.771,42.344l2.898,1.143c0.742,0.294,1.588,0.3,2.176-0.401c0.559-0.666,0.852-2.237-0.34-4.073l-3.238-1.277
						c-2.088,0.436-2.953,1.818-2.916,2.84C32.391,41.615,32.986,42.033,33.771,42.344z"/>
					<path id="path3810_13_" sodipodi:nodetypes="cccc" fill="#9DB13B" d="M37.033,38.968c0,0,0.412,0.724,0.131,1.289
						c0.781-0.301,1.195-1.304,1.195-1.304L37.033,38.968z"/>
					
						<radialGradient id="path3814_1_" cx="13.4775" cy="127.1768" r="2.9214" gradientTransform="matrix(0.8333 0.3288 0.3425 -0.8679 -17.5539 143.5446)" gradientUnits="userSpaceOnUse">
						<stop  offset="0" style="stop-color:#000000"/>
						<stop  offset="1" style="stop-color:#000000;stop-opacity:0"/>
					</radialGradient>
					
						<path id="path3814_13_" sodipodi:cy="19.008621" sodipodi:cx="31.112698" sodipodi:type="arc" sodipodi:ry="8.6620579" sodipodi:rx="8.6620579" fill="url(#path3814_1_)" d="
						M39.668,38.561c-0.553,1.399-2.09,2.105-3.434,1.576c-1.346-0.53-1.988-2.095-1.436-3.495c0-0.001,0-0.001,0-0.002
						c0.553-1.401,2.09-2.106,3.434-1.577c1.346,0.529,1.986,2.095,1.436,3.495C39.668,38.559,39.668,38.559,39.668,38.561z"/>
					
						<radialGradient id="path2327_1_" cx="71.6465" cy="132.9795" r="3.0898" gradientTransform="matrix(0.6566 0.2591 0.2699 -0.6839 -45.5334 108.2049)" gradientUnits="userSpaceOnUse">
						<stop  offset="0" style="stop-color:#E8B15D"/>
						<stop  offset="1" style="stop-color:#956527"/>
					</radialGradient>
					
						<path id="path2327_13_" sodipodi:cy="19.008621" sodipodi:cx="31.112698" sodipodi:type="arc" sodipodi:ry="8.6620579" sodipodi:rx="8.6620579" fill="url(#path2327_1_)" stroke="#6F491D" stroke-width="0.32" stroke-linecap="round" stroke-linejoin="round" d="
						M40.107,37.549c-0.553,1.401-2.09,2.107-3.436,1.577c-1.344-0.53-1.986-2.095-1.436-3.494c0.002-0.001,0.002-0.002,0.002-0.003
						c0.553-1.4,2.09-2.106,3.434-1.576c1.344,0.529,1.988,2.094,1.436,3.494V37.549z"/>
					
						<path id="path3834_13_" sodipodi:cy="19.008621" sodipodi:cx="31.112698" sodipodi:type="arc" sodipodi:ry="8.6620579" sodipodi:rx="8.6620579" opacity="0.1266" fill="none" stroke="#FFFFFF" stroke-width="0.3648" stroke-linecap="round" stroke-linejoin="round" enable-background="new    " d="
						M39.807,37.431c-0.482,1.229-1.832,1.849-3.01,1.383c-1.18-0.464-1.744-1.836-1.26-3.064c0,0,0-0.001,0-0.003
						c0.484-1.229,1.832-1.847,3.012-1.382c1.18,0.464,1.744,1.837,1.26,3.064C39.809,37.43,39.809,37.431,39.807,37.431z"/>
					
						<linearGradient id="path4173_1_" gradientUnits="userSpaceOnUse" x1="14.9531" y1="121.2998" x2="14.9531" y2="119.1935" gradientTransform="matrix(0.8333 0.3288 0.3425 -0.8679 -15.6613 140.78)">
						<stop  offset="0" style="stop-color:#FFFFFF"/>
						<stop  offset="1" style="stop-color:#C9C9C8"/>
					</linearGradient>
					<path id="path4173_13_" fill="url(#path4173_1_)" d="M37.229,41.496l1.193,0.471L37.99,41.02l-0.23,0.148l-0.088-0.214
						L37.229,41.496z"/>
					
						<linearGradient id="path4368_1_" gradientUnits="userSpaceOnUse" x1="0.543" y1="159.5068" x2="1.2052" y2="159.3721" gradientTransform="matrix(0.7572 0.4809 0.4881 -0.7938 -45.5134 166.4772)">
						<stop  offset="0" style="stop-color:#000000"/>
						<stop  offset="1" style="stop-color:#000000;stop-opacity:0"/>
					</linearGradient>
					<path id="path4368_13_" sodipodi:nodetypes="cccc" opacity="0.2278" fill="url(#path4368_1_)" enable-background="new    " d="
						M32.527,41.861c-0.289-0.297-0.293-0.744-0.293-0.744c0.705-1.097,1.857-1.648,1.857-1.648S32.711,41.093,32.527,41.861z"/>
					
						<linearGradient id="path4370_1_" gradientUnits="userSpaceOnUse" x1="-424.3174" y1="74.582" x2="-424.7487" y2="74.8016" gradientTransform="matrix(-0.8866 -0.1391 0.1598 -0.9176 -349.9332 51.7043)">
						<stop  offset="0" style="stop-color:#000000"/>
						<stop  offset="1" style="stop-color:#000000;stop-opacity:0"/>
					</linearGradient>
					<path id="path4370_13_" sodipodi:nodetypes="cccc" opacity="0.2278" fill="url(#path4370_1_)" enable-background="new    " d="
						M37.937,43.707c0.414-0.034,0.738-0.387,0.738-0.387c0.197-1.289-0.326-2.443-0.326-2.443S38.309,43.007,37.937,43.707z"/>
				</g>
				<g id="layer1_10_" inkscape:groupmode="layer" inkscape:label="cipek">
					
						<radialGradient id="path4177_2_" cx="-77.0449" cy="137.8643" r="2.9209" gradientTransform="matrix(1.4795 0.5838 0.3285 -0.8325 109.4559 204.2746)" gradientUnits="userSpaceOnUse">
						<stop  offset="0" style="stop-color:#000000"/>
						<stop  offset="1" style="stop-color:#000000;stop-opacity:0"/>
					</radialGradient>
					
						<path id="path4177_11_" sodipodi:cy="19.008621" sodipodi:cx="31.112698" sodipodi:type="arc" sodipodi:ry="8.6620579" sodipodi:rx="8.6620579" fill="url(#path4177_2_)" d="
						M45.076,46.229c-0.529,1.344-2.893,1.67-5.279,0.729c-2.387-0.94-3.895-2.792-3.365-4.136c0-0.001,0-0.002,0.002-0.003
						c0.527-1.344,2.891-1.67,5.277-0.729c2.389,0.941,3.895,2.793,3.365,4.137V46.229z"/>
					
						<radialGradient id="path2329_4_" cx="6.6416" cy="146.4316" r="4.5749" gradientTransform="matrix(0.8333 0.3288 0.2335 -0.5918 1.5153 126.4032)" gradientUnits="userSpaceOnUse">
						<stop  offset="0" style="stop-color:#525352"/>
						<stop  offset="1" style="stop-color:#383838"/>
					</radialGradient>
					
						<path id="path2329_13_" sodipodi:nodetypes="cczcczc" fill="url(#path2329_4_)" stroke="#1A1A1A" stroke-width="0.32" stroke-linecap="round" stroke-linejoin="round" d="
						M38.814,45.326l2.98,1.175c0.844,0.333,1.807,0.341,2.477-0.458c0.635-0.758,1.049-2.516-0.307-4.605l-3.527-1.391
						c-2.377,0.496-3.283,2.101-3.24,3.266C37.242,44.497,37.92,44.972,38.814,45.326z"/>
					<path id="path3812_12_" sodipodi:nodetypes="cccc" fill="#D7A063" d="M41.953,41.541c0,0-0.797,0.248-0.975,0.854
						c-0.365-0.753,0.018-1.77,0.018-1.77L41.953,41.541z"/>
					
						<path id="path3838_12_" sodipodi:nodetypes="cczcczc" opacity="0.2152" fill="none" stroke="#FFFFFF" stroke-width="0.32" stroke-linecap="round" stroke-linejoin="round" enable-background="new    " d="
						M38.967,45.025l2.898,1.145c0.742,0.291,1.588,0.299,2.176-0.403c0.559-0.665,0.852-2.236-0.34-4.073l-3.238-1.277
						c-2.088,0.437-2.955,1.818-2.916,2.841C37.584,44.299,38.182,44.716,38.967,45.025z"/>
					<path id="path3810_12_" sodipodi:nodetypes="cccc" fill="#D7A063" d="M42.229,41.649c0,0,0.412,0.725,0.131,1.289
						c0.781-0.3,1.195-1.304,1.195-1.304L42.229,41.649z"/>
					
						<radialGradient id="path3814_3_" cx="19.9697" cy="126.5459" r="2.9219" gradientTransform="matrix(0.8333 0.3288 0.3425 -0.8679 -17.5539 143.5446)" gradientUnits="userSpaceOnUse">
						<stop  offset="0" style="stop-color:#000000"/>
						<stop  offset="1" style="stop-color:#000000;stop-opacity:0"/>
					</radialGradient>
					
						<path id="path3814_12_" sodipodi:cy="19.008621" sodipodi:cx="31.112698" sodipodi:type="arc" sodipodi:ry="8.6620579" sodipodi:rx="8.6620579" fill="url(#path3814_3_)" d="
						M44.861,41.242c-0.551,1.4-2.088,2.105-3.434,1.576c-1.344-0.529-1.986-2.095-1.436-3.494c0.002-0.002,0.002-0.002,0.002-0.004
						c0.553-1.399,2.09-2.105,3.434-1.576c1.344,0.53,1.986,2.096,1.436,3.496C44.863,41.24,44.861,41.241,44.861,41.242z"/>
					
						<radialGradient id="path2327_3_" cx="79.8877" cy="132.1787" r="3.0899" gradientTransform="matrix(0.6566 0.2591 0.2699 -0.6839 -45.5334 108.2049)" gradientUnits="userSpaceOnUse">
						<stop  offset="0" style="stop-color:#E8B15D"/>
						<stop  offset="1" style="stop-color:#956527"/>
					</radialGradient>
					
						<path id="path2327_12_" sodipodi:cy="19.008621" sodipodi:cx="31.112698" sodipodi:type="arc" sodipodi:ry="8.6620579" sodipodi:rx="8.6620579" fill="url(#path2327_3_)" stroke="#6F491D" stroke-width="0.32" stroke-linecap="round" stroke-linejoin="round" d="
						M45.301,40.232c-0.551,1.399-2.088,2.105-3.434,1.576c-1.344-0.529-1.986-2.095-1.434-3.495c0-0.001,0-0.002,0-0.003
						c0.551-1.4,2.088-2.106,3.434-1.576c1.344,0.529,1.986,2.095,1.436,3.494C45.303,40.23,45.301,40.23,45.301,40.232z"/>
					
						<path id="path3834_12_" sodipodi:cy="19.008621" sodipodi:cx="31.112698" sodipodi:type="arc" sodipodi:ry="8.6620579" sodipodi:rx="8.6620579" opacity="0.1266" fill="none" stroke="#FFFFFF" stroke-width="0.3648" stroke-linecap="round" stroke-linejoin="round" enable-background="new    " d="
						M45.002,40.113c-0.484,1.229-1.832,1.847-3.012,1.383s-1.742-1.837-1.258-3.064c0-0.001,0-0.002,0-0.003
						c0.484-1.228,1.832-1.847,3.012-1.383c1.18,0.465,1.742,1.837,1.26,3.064C45.002,40.111,45.002,40.112,45.002,40.113z"/>
					
						<linearGradient id="path4173_3_" gradientUnits="userSpaceOnUse" x1="21.4453" y1="120.6699" x2="21.4453" y2="118.5609" gradientTransform="matrix(0.8333 0.3288 0.3425 -0.8679 -15.6613 140.78)">
						<stop  offset="0" style="stop-color:#FFFFFF"/>
						<stop  offset="1" style="stop-color:#C9C9C8"/>
					</linearGradient>
					<path id="path4173_12_" fill="url(#path4173_3_)" d="M42.424,44.179l1.191,0.47l-0.43-0.946l-0.23,0.147l-0.088-0.214
						L42.424,44.179z"/>
					
						<linearGradient id="path4368_3_" gradientUnits="userSpaceOnUse" x1="7.043" y1="160.0664" x2="7.7049" y2="159.9317" gradientTransform="matrix(0.7572 0.4809 0.4881 -0.7938 -45.5134 166.4772)">
						<stop  offset="0" style="stop-color:#000000"/>
						<stop  offset="1" style="stop-color:#000000;stop-opacity:0"/>
					</linearGradient>
					<path id="path4368_12_" sodipodi:nodetypes="cccc" opacity="0.2278" fill="url(#path4368_3_)" enable-background="new    " d="
						M37.721,44.544c-0.287-0.298-0.293-0.744-0.293-0.744c0.707-1.097,1.859-1.649,1.859-1.649S37.906,43.773,37.721,44.544z"/>
					
						<linearGradient id="path4370_3_" gradientUnits="userSpaceOnUse" x1="-430.5332" y1="72.6016" x2="-430.9642" y2="72.821" gradientTransform="matrix(-0.8866 -0.1391 0.1598 -0.9176 -349.9332 51.7043)">
						<stop  offset="0" style="stop-color:#000000"/>
						<stop  offset="1" style="stop-color:#000000;stop-opacity:0"/>
					</linearGradient>
					<path id="path4370_12_" sodipodi:nodetypes="cccc" opacity="0.2278" fill="url(#path4370_3_)" enable-background="new    " d="
						M43.133,46.389c0.414-0.033,0.738-0.386,0.738-0.386c0.197-1.29-0.328-2.443-0.328-2.443S43.504,45.688,43.133,46.389z"/>
				</g>
				<g id="layer1_9_" inkscape:groupmode="layer" inkscape:label="cipek">
					
						<radialGradient id="path4177_3_" cx="-73.2861" cy="137.5117" r="2.9214" gradientTransform="matrix(1.4795 0.5838 0.3285 -0.8325 109.4559 204.2746)" gradientUnits="userSpaceOnUse">
						<stop  offset="0" style="stop-color:#000000"/>
						<stop  offset="1" style="stop-color:#000000;stop-opacity:0"/>
					</radialGradient>
					
						<path id="path4177_10_" sodipodi:cy="19.008621" sodipodi:cx="31.112698" sodipodi:type="arc" sodipodi:ry="8.6620579" sodipodi:rx="8.6620579" fill="url(#path4177_3_)" d="
						M50.521,48.717c-0.529,1.343-2.893,1.669-5.279,0.728c-2.387-0.94-3.893-2.792-3.363-4.136c0-0.001,0-0.001,0-0.002
						c0.529-1.344,2.893-1.67,5.279-0.729c2.387,0.94,3.893,2.793,3.365,4.137L50.521,48.717z"/>
					
						<radialGradient id="path2329_5_" cx="13.4111" cy="146.0449" r="4.5749" gradientTransform="matrix(0.8333 0.3288 0.2335 -0.5918 1.5153 126.4032)" gradientUnits="userSpaceOnUse">
						<stop  offset="0" style="stop-color:#8158A3"/>
						<stop  offset="1" style="stop-color:#522C7B"/>
					</radialGradient>
					
						<path id="path2329_12_" sodipodi:nodetypes="cczcczc" fill="url(#path2329_5_)" stroke="#552D88" stroke-width="0.32" stroke-linecap="round" stroke-linejoin="round" d="
						M44.365,47.779l2.979,1.177c0.846,0.333,1.809,0.341,2.479-0.458c0.635-0.758,1.049-2.516-0.307-4.605l-3.527-1.392
						c-2.379,0.497-3.283,2.102-3.24,3.266C42.791,46.953,43.471,47.427,44.365,47.779z"/>
					<path id="path3812_11_" sodipodi:nodetypes="cccc" fill="#8E7EBA" d="M47.4,44.029c0,0-0.797,0.247-0.977,0.853
						c-0.365-0.753,0.018-1.77,0.018-1.77L47.4,44.029z"/>
					
						<path id="path3838_11_" sodipodi:nodetypes="cczcczc" opacity="0.2152" fill="none" stroke="#FFFFFF" stroke-width="0.32" stroke-linecap="round" stroke-linejoin="round" enable-background="new    " d="
						M44.412,47.513l2.9,1.144c0.74,0.293,1.586,0.299,2.174-0.402c0.559-0.664,0.854-2.236-0.338-4.072l-3.24-1.277
						c-2.088,0.436-2.953,1.817-2.916,2.84C43.031,46.785,43.627,47.203,44.412,47.513z"/>
					<path id="path3810_11_" sodipodi:nodetypes="cccc" fill="#8E7EBA" d="M47.676,44.137c0,0,0.412,0.725,0.129,1.289
						c0.781-0.3,1.195-1.303,1.195-1.303L47.676,44.137z"/>
					
						<radialGradient id="path3814_4_" cx="26.6445" cy="126.208" r="2.9224" gradientTransform="matrix(0.8333 0.3288 0.3425 -0.8679 -17.5539 143.5446)" gradientUnits="userSpaceOnUse">
						<stop  offset="0" style="stop-color:#000000"/>
						<stop  offset="1" style="stop-color:#000000;stop-opacity:0"/>
					</radialGradient>
					
						<path id="path3814_11_" sodipodi:cy="19.008621" sodipodi:cx="31.112698" sodipodi:type="arc" sodipodi:ry="8.6620579" sodipodi:rx="8.6620579" fill="url(#path3814_4_)" d="
						M50.309,43.729c-0.553,1.399-2.09,2.106-3.434,1.577c-1.344-0.53-1.986-2.095-1.436-3.495c0-0.001,0-0.001,0-0.003
						c0.553-1.4,2.09-2.105,3.436-1.576c1.344,0.529,1.986,2.094,1.436,3.494C50.309,43.728,50.309,43.729,50.309,43.729z"/>
					
						<radialGradient id="path2327_4_" cx="88.3574" cy="131.7529" r="3.0901" gradientTransform="matrix(0.6566 0.2591 0.2699 -0.6839 -45.5334 108.2049)" gradientUnits="userSpaceOnUse">
						<stop  offset="0" style="stop-color:#E8B15D"/>
						<stop  offset="1" style="stop-color:#956527"/>
					</radialGradient>
					
						<path id="path2327_11_" sodipodi:cy="19.008621" sodipodi:cx="31.112698" sodipodi:type="arc" sodipodi:ry="8.6620579" sodipodi:rx="8.6620579" fill="url(#path2327_4_)" stroke="#6F491D" stroke-width="0.32" stroke-linecap="round" stroke-linejoin="round" d="
						M50.748,42.719c-0.553,1.401-2.09,2.106-3.434,1.576c-1.346-0.528-1.986-2.094-1.436-3.494c0-0.001,0-0.002,0-0.003
						c0.553-1.4,2.09-2.105,3.434-1.577c1.346,0.53,1.988,2.095,1.436,3.496C50.748,42.718,50.748,42.719,50.748,42.719z"/>
					
						<path id="path3834_11_" sodipodi:cy="19.008621" sodipodi:cx="31.112698" sodipodi:type="arc" sodipodi:ry="8.6620579" sodipodi:rx="8.6620579" opacity="0.1266" fill="none" stroke="#FFFFFF" stroke-width="0.3648" stroke-linecap="round" stroke-linejoin="round" enable-background="new    " d="
						M50.449,42.601c-0.484,1.229-1.832,1.848-3.012,1.384c-1.18-0.466-1.744-1.838-1.26-3.065c0-0.001,0-0.001,0.002-0.003
						c0.484-1.229,1.832-1.848,3.01-1.383c1.18,0.465,1.744,1.838,1.26,3.064C50.449,42.599,50.449,42.6,50.449,42.601z"/>
					
						<linearGradient id="path4173_4_" gradientUnits="userSpaceOnUse" x1="28.1191" y1="120.333" x2="28.1191" y2="118.224" gradientTransform="matrix(0.8333 0.3288 0.3425 -0.8679 -15.6613 140.78)">
						<stop  offset="0" style="stop-color:#FFFFFF"/>
						<stop  offset="1" style="stop-color:#C9C9C8"/>
					</linearGradient>
					<path id="path4173_11_" fill="url(#path4173_4_)" d="M47.869,46.666l1.193,0.471l-0.43-0.947l-0.23,0.148l-0.09-0.215
						L47.869,46.666z"/>
					
						<linearGradient id="path4368_4_" gradientUnits="userSpaceOnUse" x1="13.667" y1="160.9473" x2="14.3308" y2="160.8122" gradientTransform="matrix(0.7572 0.4809 0.4881 -0.7938 -45.5134 166.4772)">
						<stop  offset="0" style="stop-color:#000000"/>
						<stop  offset="1" style="stop-color:#000000;stop-opacity:0"/>
					</linearGradient>
					<path id="path4368_11_" sodipodi:nodetypes="cccc" opacity="0.2278" fill="url(#path4368_4_)" enable-background="new    " d="
						M43.168,47.031c-0.287-0.297-0.293-0.744-0.293-0.744c0.705-1.098,1.859-1.648,1.859-1.648S43.354,46.262,43.168,47.031z"/>
					
						<linearGradient id="path4370_4_" gradientUnits="userSpaceOnUse" x1="-436.9883" y1="70.8682" x2="-437.4199" y2="71.0879" gradientTransform="matrix(-0.8866 -0.1391 0.1598 -0.9176 -349.9332 51.7043)">
						<stop  offset="0" style="stop-color:#000000"/>
						<stop  offset="1" style="stop-color:#000000;stop-opacity:0"/>
					</linearGradient>
					<path id="path4370_11_" sodipodi:nodetypes="cccc" opacity="0.2278" fill="url(#path4370_4_)" enable-background="new    " d="
						M48.578,48.876c0.414-0.032,0.738-0.386,0.738-0.386c0.199-1.289-0.326-2.443-0.326-2.443S48.951,48.176,48.578,48.876z"/>
				</g>
				<g id="layer2_9_" inkscape:groupmode="layer" inkscape:label="dalsi cipek">
					
						<radialGradient id="path4306_2_" cx="-85.6553" cy="176.834" r="2.9219" gradientTransform="matrix(1.4795 0.5838 0.2 -0.5068 129.5385 185.7302)" gradientUnits="userSpaceOnUse">
						<stop  offset="0" style="stop-color:#000000"/>
						<stop  offset="1" style="stop-color:#000000;stop-opacity:0"/>
					</radialGradient>
					
						<path id="path4306_11_" sodipodi:cy="19.008621" sodipodi:cx="31.112698" sodipodi:type="arc" sodipodi:ry="8.6620579" sodipodi:rx="8.6620579" fill="url(#path4306_2_)" d="
						M42.5,47.811c-0.32,0.818-2.516,0.719-4.902-0.223s-4.062-2.368-3.74-3.186c0,0,0-0.001,0-0.002
						c0.322-0.818,2.518-0.718,4.904,0.224c2.387,0.94,4.061,2.367,3.74,3.186C42.502,47.811,42.502,47.811,42.5,47.811z"/>
					
						<radialGradient id="path4308_2_" cx="-43.5576" cy="133.4551" r="4.5739" gradientTransform="matrix(1.0812 0.4266 0.303 -0.7679 45.221 163.8122)" gradientUnits="userSpaceOnUse">
						<stop  offset="0" style="stop-color:#BB4C3D"/>
						<stop  offset="1" style="stop-color:#912D1E"/>
					</radialGradient>
					
						<path id="path4308_11_" sodipodi:nodetypes="cczcczc" fill="url(#path4308_2_)" stroke="#885953" stroke-width="0.32" stroke-linecap="round" stroke-linejoin="round" d="
						M36.514,46.212l2.98,1.176c0.844,0.333,1.807,0.341,2.477-0.458c0.635-0.758,1.051-2.515-0.307-4.605l-3.527-1.391
						c-2.377,0.496-3.283,2.102-3.24,3.266C34.941,45.384,35.619,45.859,36.514,46.212z"/>
					
						<linearGradient id="path4310_2_" gradientUnits="userSpaceOnUse" x1="4.6758" y1="125.8818" x2="4.6758" y2="123.7738" gradientTransform="matrix(0.8333 0.3288 0.3425 -0.8679 -7.7112 150.9392)">
						<stop  offset="0" style="stop-color:#FFFFFF"/>
						<stop  offset="1" style="stop-color:#C9C9C8"/>
					</linearGradient>
					<path id="path4310_11_" sodipodi:nodetypes="cccc" fill="url(#path4310_2_)" d="M38.549,41.635
						c0.568,1.18-0.219,4.337-0.219,4.337s1.582-2.844,2.625-3.449L38.549,41.635z"/>
					<path id="path4312_11_" sodipodi:nodetypes="cccc" fill="#729ECE" d="M39.068,42.197c0,0-0.797,0.247-0.977,0.854
						c-0.365-0.754,0.018-1.77,0.018-1.77L39.068,42.197z"/>
					
						<path id="path4314_11_" sodipodi:nodetypes="cczcczc" opacity="0.2152" fill="none" stroke="#FFFFFF" stroke-width="0.32" stroke-linecap="round" stroke-linejoin="round" enable-background="new    " d="
						M36.615,45.898l2.949,1.157c0.742,0.292,1.588,0.3,2.176-0.401c0.559-0.666,0.854-2.238-0.34-4.074l-3.209-1.348
						c-2.09,0.436-2.998,1.801-2.982,2.896S35.75,45.551,36.615,45.898z"/>
					<path id="path4316_11_" sodipodi:nodetypes="cccc" fill="#729ECE" d="M40.314,42.689c0,0,0.414,0.724,0.131,1.289
						c0.781-0.301,1.195-1.305,1.195-1.305L40.314,42.689z"/>
					
						<radialGradient id="path4318_2_" cx="4.8203" cy="131.7588" r="2.9219" gradientTransform="matrix(0.8333 0.3288 0.3425 -0.8679 -9.0139 153.9362)" gradientUnits="userSpaceOnUse">
						<stop  offset="0" style="stop-color:#000000"/>
						<stop  offset="1" style="stop-color:#000000;stop-opacity:0"/>
					</radialGradient>
					
						<path id="path4318_11_" sodipodi:cy="19.008621" sodipodi:cx="31.112698" sodipodi:type="arc" sodipodi:ry="8.6620579" sodipodi:rx="8.6620579" fill="url(#path4318_2_)" d="
						M42.562,42.129c-0.553,1.4-2.09,2.106-3.434,1.576c-1.346-0.529-1.988-2.095-1.436-3.495c0,0,0-0.001,0-0.002
						c0.553-1.399,2.09-2.106,3.434-1.577c1.346,0.53,1.988,2.095,1.436,3.495C42.562,42.127,42.562,42.128,42.562,42.129z"/>
					
						<radialGradient id="path4320_2_" cx="60.6611" cy="138.7939" r="3.0893" gradientTransform="matrix(0.6566 0.2591 0.2699 -0.6839 -36.9943 118.5965)" gradientUnits="userSpaceOnUse">
						<stop  offset="0" style="stop-color:#F4D8B0"/>
						<stop  offset="1" style="stop-color:#DF9827"/>
					</radialGradient>
					
						<path id="path4320_11_" sodipodi:cy="19.008621" sodipodi:cx="31.112698" sodipodi:type="arc" sodipodi:ry="8.6620579" sodipodi:rx="8.6620579" fill="url(#path4320_2_)" stroke="#C07E2B" stroke-width="0.32" stroke-linecap="round" stroke-linejoin="round" d="
						M43.002,41.118c-0.553,1.4-2.09,2.106-3.434,1.577c-1.346-0.53-1.988-2.096-1.436-3.494c0-0.002,0-0.002,0-0.004
						c0.553-1.4,2.09-2.105,3.434-1.576s1.988,2.094,1.436,3.494C43.002,41.117,43.002,41.117,43.002,41.118z"/>
					
						<path id="path4322_11_" sodipodi:cy="19.008621" sodipodi:cx="31.112698" sodipodi:type="arc" sodipodi:ry="8.6620579" sodipodi:rx="8.6620579" opacity="0.1962" fill="none" stroke="#FFFFFF" stroke-width="0.3648" stroke-linecap="round" stroke-linejoin="round" enable-background="new    " d="
						M42.701,41.001c-0.482,1.228-1.832,1.847-3.01,1.382c-1.18-0.464-1.744-1.836-1.26-3.064c0-0.002,0-0.002,0-0.004
						c0.484-1.227,1.834-1.846,3.012-1.381c1.18,0.463,1.744,1.836,1.26,3.064C42.703,41,42.703,41,42.701,41.001z"/>
					
						<linearGradient id="path4354_2_" gradientUnits="userSpaceOnUse" x1="-8.9414" y1="162.5361" x2="-8.279" y2="162.4014" gradientTransform="matrix(0.7572 0.4809 0.4881 -0.7938 -36.8845 177.0807)">
						<stop  offset="0" style="stop-color:#000000"/>
						<stop  offset="1" style="stop-color:#000000;stop-opacity:0"/>
					</linearGradient>
					<path id="path4354_11_" sodipodi:nodetypes="cccc" opacity="0.2278" fill="url(#path4354_2_)" enable-background="new    " d="
						M35.451,45.501c-0.287-0.297-0.293-0.743-0.293-0.743c0.707-1.099,1.859-1.65,1.859-1.65S35.637,44.731,35.451,45.501z"/>
					
						<linearGradient id="path4364_2_" gradientUnits="userSpaceOnUse" x1="-416.7236" y1="81.0166" x2="-417.1546" y2="81.236" gradientTransform="matrix(-0.8866 -0.1391 0.1598 -0.9176 -341.3033 62.3078)">
						<stop  offset="0" style="stop-color:#000000"/>
						<stop  offset="1" style="stop-color:#000000;stop-opacity:0"/>
					</linearGradient>
					<path id="path4364_11_" sodipodi:nodetypes="cccc" opacity="0.2278" fill="url(#path4364_2_)" enable-background="new    " d="
						M40.863,47.347c0.412-0.033,0.738-0.386,0.738-0.386c0.197-1.291-0.328-2.443-0.328-2.443S41.234,46.646,40.863,47.347z"/>
				</g>
				<g id="layer2_8_" inkscape:groupmode="layer" inkscape:label="dalsi cipek">
					
						<radialGradient id="path4306_3_" cx="-78.2774" cy="177.3916" r="2.9214" gradientTransform="matrix(1.4795 0.5838 0.2 -0.5068 129.5385 185.7302)" gradientUnits="userSpaceOnUse">
						<stop  offset="0" style="stop-color:#000000"/>
						<stop  offset="1" style="stop-color:#000000;stop-opacity:0"/>
					</radialGradient>
					
						<path id="path4306_10_" sodipodi:cy="19.008621" sodipodi:cx="31.112698" sodipodi:type="arc" sodipodi:ry="8.6620579" sodipodi:rx="8.6620579" fill="url(#path4306_3_)" d="
						M53.527,51.836c-0.322,0.818-2.518,0.719-4.904-0.224c-2.387-0.94-4.061-2.367-3.74-3.186c0,0,0-0.001,0-0.002
						c0.322-0.816,2.518-0.718,4.904,0.224s4.061,2.368,3.74,3.186C53.527,51.835,53.527,51.836,53.527,51.836z"/>
					
						<radialGradient id="path4308_3_" cx="-33.4629" cy="133.8203" r="4.5748" gradientTransform="matrix(1.0812 0.4266 0.303 -0.7679 45.221 163.8122)" gradientUnits="userSpaceOnUse">
						<stop  offset="0" style="stop-color:#F8BB23"/>
						<stop  offset="1" style="stop-color:#7B6228"/>
					</radialGradient>
					
						<path id="path4308_10_" sodipodi:nodetypes="cczcczc" fill="url(#path4308_3_)" stroke="#CAA85D" stroke-width="0.32" stroke-linecap="round" stroke-linejoin="round" d="
						M47.539,50.236l2.98,1.176c0.844,0.334,1.807,0.342,2.477-0.457c0.635-0.758,1.051-2.516-0.307-4.605l-3.527-1.392
						c-2.377,0.496-3.283,2.103-3.24,3.266C45.967,49.408,46.645,49.884,47.539,50.236z"/>
					
						<linearGradient id="path4310_3_" gradientUnits="userSpaceOnUse" x1="17.7744" y1="126.2051" x2="17.7744" y2="124.0975" gradientTransform="matrix(0.8333 0.3288 0.3425 -0.8679 -7.7112 150.9392)">
						<stop  offset="0" style="stop-color:#FFFFFF"/>
						<stop  offset="1" style="stop-color:#C9C9C8"/>
					</linearGradient>
					<path id="path4310_10_" sodipodi:nodetypes="cccc" fill="url(#path4310_3_)" d="M49.574,45.659
						c0.568,1.181-0.219,4.338-0.219,4.338s1.582-2.843,2.625-3.449L49.574,45.659z"/>
					<path id="path4312_10_" sodipodi:nodetypes="cccc" fill="#E7602C" d="M50.094,46.222c0,0-0.797,0.248-0.977,0.854
						c-0.365-0.754,0.018-1.771,0.018-1.771L50.094,46.222z"/>
					
						<path id="path4314_10_" sodipodi:nodetypes="cczcczc" opacity="0.2152" fill="none" stroke="#FFFFFF" stroke-width="0.32" stroke-linecap="round" stroke-linejoin="round" enable-background="new    " d="
						M47.639,49.924l2.951,1.157c0.742,0.293,1.588,0.299,2.176-0.402c0.559-0.665,0.854-2.237-0.34-4.072l-3.209-1.351
						c-2.09,0.438-2.998,1.803-2.982,2.898S46.775,49.576,47.639,49.924z"/>
					<path id="path4316_10_" sodipodi:nodetypes="cccc" fill="#E7602C" d="M51.34,46.715c0,0,0.412,0.724,0.129,1.289
						c0.783-0.301,1.197-1.305,1.197-1.305L51.34,46.715z"/>
					
						<radialGradient id="path4318_3_" cx="17.918" cy="132.083" r="2.9219" gradientTransform="matrix(0.8333 0.3288 0.3425 -0.8679 -9.0139 153.9362)" gradientUnits="userSpaceOnUse">
						<stop  offset="0" style="stop-color:#000000"/>
						<stop  offset="1" style="stop-color:#000000;stop-opacity:0"/>
					</radialGradient>
					
						<path id="path4318_10_" sodipodi:cy="19.008621" sodipodi:cx="31.112698" sodipodi:type="arc" sodipodi:ry="8.6620579" sodipodi:rx="8.6620579" fill="url(#path4318_3_)" d="
						M53.588,46.154c-0.553,1.4-2.09,2.105-3.434,1.576c-1.346-0.529-1.988-2.096-1.436-3.495c0,0,0-0.001,0-0.002
						c0.553-1.401,2.09-2.107,3.434-1.577c1.346,0.53,1.988,2.095,1.436,3.495C53.588,46.152,53.588,46.153,53.588,46.154z"/>
					
						<radialGradient id="path4320_3_" cx="77.2822" cy="139.2061" r="3.0901" gradientTransform="matrix(0.6566 0.2591 0.2699 -0.6839 -36.9943 118.5965)" gradientUnits="userSpaceOnUse">
						<stop  offset="0" style="stop-color:#E8B15D"/>
						<stop  offset="1" style="stop-color:#956527"/>
					</radialGradient>
					
						<path id="path4320_10_" sodipodi:cy="19.008621" sodipodi:cx="31.112698" sodipodi:type="arc" sodipodi:ry="8.6620579" sodipodi:rx="8.6620579" fill="url(#path4320_3_)" stroke="#6F491D" stroke-width="0.32" stroke-linecap="round" stroke-linejoin="round" d="
						M54.027,45.143c-0.553,1.401-2.09,2.107-3.434,1.577c-1.346-0.53-1.988-2.094-1.436-3.495c0,0,0-0.001,0-0.002
						c0.553-1.4,2.09-2.106,3.434-1.577C53.937,42.176,54.578,43.74,54.027,45.143L54.027,45.143z"/>
					
						<path id="path4322_10_" sodipodi:cy="19.008621" sodipodi:cx="31.112698" sodipodi:type="arc" sodipodi:ry="8.6620579" sodipodi:rx="8.6620579" opacity="0.1962" fill="none" stroke="#FFFFFF" stroke-width="0.3648" stroke-linecap="round" stroke-linejoin="round" enable-background="new    " d="
						M53.727,45.025c-0.482,1.229-1.832,1.848-3.012,1.383c-1.178-0.465-1.742-1.837-1.258-3.064c0-0.002,0-0.002,0-0.003
						c0.484-1.229,1.832-1.847,3.012-1.384c1.18,0.466,1.744,1.838,1.26,3.066C53.729,45.023,53.727,45.024,53.727,45.025z"/>
					
						<linearGradient id="path4354_3_" gradientUnits="userSpaceOnUse" x1="3.8808" y1="165.2314" x2="4.5433" y2="165.0967" gradientTransform="matrix(0.7572 0.4809 0.4881 -0.7938 -36.8845 177.0807)">
						<stop  offset="0" style="stop-color:#000000"/>
						<stop  offset="1" style="stop-color:#000000;stop-opacity:0"/>
					</linearGradient>
					<path id="path4354_10_" sodipodi:nodetypes="cccc" opacity="0.2278" fill="url(#path4354_3_)" enable-background="new    " d="
						M46.477,49.527c-0.287-0.299-0.293-0.745-0.293-0.745c0.707-1.098,1.859-1.649,1.859-1.649S46.662,48.756,46.477,49.527z"/>
					
						<linearGradient id="path4364_3_" gradientUnits="userSpaceOnUse" x1="-429.5977" y1="78.583" x2="-430.0281" y2="78.8022" gradientTransform="matrix(-0.8866 -0.1391 0.1598 -0.9176 -341.3033 62.3078)">
						<stop  offset="0" style="stop-color:#000000"/>
						<stop  offset="1" style="stop-color:#000000;stop-opacity:0"/>
					</linearGradient>
					<path id="path4364_10_" sodipodi:nodetypes="cccc" opacity="0.2278" fill="url(#path4364_3_)" enable-background="new    " d="
						M51.889,51.372c0.412-0.034,0.738-0.387,0.738-0.387c0.197-1.29-0.328-2.443-0.328-2.443S52.26,50.672,51.889,51.372z"/>
				</g>
			</g>
		</g>
		<g>
			
				<linearGradient id="path2867_1_" gradientUnits="userSpaceOnUse" x1="225.6943" y1="-280.6411" x2="207.4164" y2="-330.8593" gradientTransform="matrix(0.6722 -0.2121 -0.2121 -0.6722 -176.0593 -119.3106)">
				<stop  offset="0" style="stop-color:#58595B;stop-opacity:0"/>
				<stop  offset="0.5" style="stop-color:#58595B;stop-opacity:0.4"/>
				<stop  offset="1" style="stop-color:#58595B;stop-opacity:0"/>
			</linearGradient>
			<path id="path2867_4_" fill="url(#path2867_1_)" d="M42.701,23.714c-0.084,0.026-1.248,0.394-2.898,0.915l0.279,0.891
				c0.672,0.009,1.289,0.443,1.5,1.12c0.262,0.841-0.205,1.735-1.047,1.997s-1.736-0.206-1.998-1.047
				c-0.186-0.599,0-1.226,0.424-1.631l-0.307-0.969c-1.791,0.565-3.936,1.242-6.182,1.951l0.285,0.909
				c0.672,0.009,1.289,0.443,1.5,1.12c0.262,0.841-0.207,1.735-1.047,1.997c-0.842,0.262-1.736-0.206-1.998-1.048
				c-0.186-0.598,0-1.225,0.424-1.631l-0.312-0.984c-2.213,0.697-4.387,1.383-6.182,1.95l0.289,0.927
				c0.674,0.008,1.291,0.442,1.502,1.119c0.26,0.842-0.207,1.736-1.049,1.998c-0.842,0.261-1.734-0.207-1.996-1.049
				c-0.188-0.598-0.002-1.225,0.422-1.63l-0.316-1.003c-1.779,0.561-3.041,0.959-3.131,0.987c0.121,0.382,5.422,16.894,5.541,17.274
				c0.387-0.122,21.453-6.769,21.84-6.891C48.123,40.607,42.822,24.096,42.701,23.714z"/>
			
				<linearGradient id="path2867_2_" gradientUnits="userSpaceOnUse" x1="224.959" y1="-279.6646" x2="206.681" y2="-329.8828" gradientTransform="matrix(0.6722 -0.2121 -0.2121 -0.6722 -176.0593 -119.3106)">
				<stop  offset="0" style="stop-color:#EFEDED"/>
				<stop  offset="0.2012" style="stop-color:#FFFFFF"/>
				<stop  offset="0.3969" style="stop-color:#F7F8F9"/>
				<stop  offset="0.574" style="stop-color:#EFEDED"/>
				<stop  offset="0.7988" style="stop-color:#FFFFFF"/>
			</linearGradient>
			<path id="path2867_5_" fill="url(#path2867_2_)" stroke="#6D6E70" stroke-width="0.3016" d="M42.002,23.214
				c-0.086,0.026-1.25,0.394-2.9,0.915l0.281,0.891c0.672,0.009,1.289,0.443,1.5,1.12c0.262,0.841-0.207,1.735-1.049,1.997
				c-0.84,0.262-1.734-0.206-1.996-1.047c-0.188-0.599-0.002-1.226,0.422-1.631l-0.305-0.969c-1.791,0.565-3.938,1.242-6.184,1.951
				l0.285,0.909c0.674,0.009,1.289,0.443,1.5,1.12c0.262,0.841-0.205,1.735-1.047,1.997s-1.736-0.206-1.998-1.048
				c-0.186-0.598,0-1.225,0.424-1.631l-0.312-0.984c-2.213,0.697-4.387,1.383-6.182,1.95l0.291,0.927
				c0.672,0.008,1.289,0.442,1.5,1.119c0.262,0.842-0.207,1.736-1.047,1.998c-0.842,0.261-1.736-0.207-1.998-1.049
				c-0.186-0.598,0-1.225,0.424-1.63l-0.318-1.003c-1.777,0.561-3.041,0.959-3.131,0.987c0.121,0.382,5.422,16.894,5.543,17.274
				c0.387-0.122,21.451-6.769,21.838-6.891C47.424,40.107,42.121,23.596,42.002,23.214z"/>
			
				<linearGradient id="SVGID_3_" gradientUnits="userSpaceOnUse" x1="393.4854" y1="-140.2329" x2="399.0654" y2="-140.2329" gradientTransform="matrix(0.6742 -0.2053 0.1903 0.6251 -212.7013 206.2894)">
				<stop  offset="0" style="stop-color:#A3BEE3"/>
				<stop  offset="0.6036" style="stop-color:#6292CC"/>
				<stop  offset="1" style="stop-color:#A3BEE3"/>
			</linearGradient>
			<path fill="url(#SVGID_3_)" enable-background="new    " d="M28.691,36.77c0.115-0.277,0.139-0.597,0.043-0.91l0,0
				c-0.213-0.705-0.945-1.106-1.635-0.896c-0.689,0.211-1.074,0.951-0.859,1.656l0,0c0.09,0.297,0.273,0.537,0.504,0.703
				c-0.738,0.905-0.6,1.776-0.23,2.201c0.381,0.44,0.793,0.414,1.252,0.274l1.527-0.466c0.432-0.132,0.811-0.425,0.828-0.936
				C30.135,37.928,29.779,37.166,28.691,36.77z"/>
			
				<polygon id="rect5303_6_" opacity="0.4672" fill="#BBBDBF" fill-opacity="0.2317" stroke="#6D6E70" stroke-width="0.24" enable-background="new    " points="
				22.998,34.512 42.381,28.409 45.984,39.574 26.602,45.678 			"/>
			
				<radialGradient id="path8923_1_" cx="792.9971" cy="-2259.1104" r="13.0307" gradientTransform="matrix(0.2651 -0.0979 -0.0535 -0.1449 -288.2597 -212.293)" gradientUnits="userSpaceOnUse">
				<stop  offset="0" style="stop-color:#7BB4E1"/>
				<stop  offset="0.7303" style="stop-color:#508AC8"/>
				<stop  offset="0.8888" style="stop-color:#4E86C5"/>
				<stop  offset="1" style="stop-color:#7BB4E1"/>
			</radialGradient>
			<path id="path8923_4_" fill="url(#path8923_1_)" d="M43.434,37.003c-0.211,0.039-0.443,0.103-0.686,0.181
				c-0.596,0.192-1.078,0.457-1.283,0.676h-0.004c0,0.001-0.002,0.004-0.004,0.004c0,0-0.002,0.001-0.004,0.001
				c0,0.001-0.004,0.004-0.006,0.005c0,0.001-0.004,0.004-0.004,0.004s-0.002,0.003-0.002,0.004
				c-0.002,0.001-0.004,0.004-0.004,0.004c0,0.002-0.002,0.004-0.004,0.005l-0.002,0.001c-0.08,0.064-0.135,0.153-0.154,0.253
				c-0.002,0-0.004,0-0.004,0c0,0.001,0,0.003,0,0.003c0,0.001-0.004,0.004-0.004,0.005v0.004c0,0.001,0.002,0.006,0.002,0.007
				s-0.002,0.004-0.004,0.004v0.004c0,0.001,0.002,0.004,0.002,0.004c0,0.001,0,0.004,0,0.004s-0.002,0.004-0.004,0.004
				c0,0,0,0.004,0.002,0.004v0.004v0.003c0,0.001-0.002,0.004-0.002,0.005c0,0,0,0.003,0,0.004c0,0,0,0.003,0,0.004v0.003
				c0,0,0,0.003,0,0.004s-0.002,0.003-0.002,0.004c0,0,0,0.003,0,0.004c0,0.002,0.002,0.006,0.002,0.007v0.004v0.004
				c0,0.002,0,0.006,0,0.008c0,0-0.002,0.003-0.002,0.004v0.004c0,0,0.002,0.003,0.002,0.004c0,0,0,0.002,0,0.003
				c0,0.002,0,0.006,0,0.008c0,0.001,0,0.003,0,0.004s0.002,0.003,0.002,0.003c0,0.001,0,0.003,0,0.004c0,0.004,0,0.008,0.002,0.011
				c0,0.002,0,0.002,0,0.004c0,0.004,0,0.008,0.002,0.012v0.003c0,0.001,0,0.004,0,0.004c0,0.001,0,0.004,0,0.004l0.002,0.004v0.003
				h0.004v0.003v0.004l0.002,0.004c0,0.001,0,0.004,0,0.004s0,0.003,0,0.004s0.002,0.006,0.002,0.008v0.003l0.004,0.003v0.004v0.004
				c0.033,0.1,0.137,0.302,0.221,0.354c0.01,0.008,0.023,0.014,0.035,0.018c0.004,0.002,0.012,0.005,0.016,0.006
				c0.006,0.001,0.012,0.002,0.016,0.002c0.006,0.001,0.014,0.001,0.02,0.001c0.037,0,0.076-0.011,0.115-0.03
				s0.08-0.047,0.121-0.072c0.008-0.005,0.014-0.009,0.021-0.014c0.006-0.004,0.012-0.007,0.018-0.01
				c0.002-0.002,0.004-0.003,0.008-0.005c0.006-0.005,0.014-0.01,0.02-0.014c0.002-0.001,0.006-0.005,0.008-0.005
				c0.002-0.004,0.01-0.01,0.014-0.014h0.002c0.004-0.003,0.008-0.006,0.012-0.009c0-0.001,0.002-0.003,0.002-0.004
				s0.004-0.004,0.004-0.005c0.002,0,0.006-0.004,0.006-0.004c0.002-0.001,0.004-0.001,0.004-0.001
				c0.004-0.003,0.008-0.006,0.01-0.009c0.002-0.001,0.006-0.004,0.008-0.005c0-0.001,0.002-0.003,0.004-0.004l-0.002-0.003
				c0.002-0.001,0.004-0.001,0.004-0.001c0-0.001,0.002-0.004,0.004-0.005c0,0,0.002-0.003,0.002-0.004c0.002,0,0.004,0,0.004,0
				c0.002-0.001,0.004-0.004,0.004-0.004c0.006-0.008,0.014-0.015,0.02-0.021c0.002-0.004,0.008-0.01,0.01-0.013
				c0.012-0.015,0.025-0.03,0.035-0.046h0.004c0.006-0.009,0.012-0.018,0.016-0.025c0.027,0.224,0.074,0.528,0.166,0.89
				c0,0.001,0,0.003,0,0.003c0,0.001,0.002,0.004,0.002,0.005c0,0,0,0.003,0,0.004s0.004,0.005,0.004,0.007
				c0.037,0.146,0.08,0.301,0.133,0.463c0,0.002,0.002,0.01,0.006,0.018c0,0,0,0.003,0,0.004c0.002,0.001,0.004,0.005,0.006,0.007
				c0,0.001,0.004,0.005,0.004,0.007c0,0.001,0,0.006,0.002,0.008l0.002-0.001c0,0,0,0.003,0,0.004
				c0.002,0.001,0.004,0.005,0.006,0.007c0,0,0,0.003,0,0.004l0.004-0.001c0.002,0.003,0.006,0.007,0.01,0.01
				c0.002,0.004,0.01,0.011,0.012,0.014l0.004,0.003c0.002,0,0.004,0.003,0.006,0.004l0.006,0.002
				c0.002,0.001,0.002,0.004,0.002,0.004s0.006,0.002,0.008,0.003l0.004-0.001c0,0.001,0.002,0.003,0.004,0.003h0.004
				c0.01,0.003,0.02,0.003,0.029,0.003c0.002,0.001,0.008,0.003,0.01,0.004c0.01-0.001,0.02-0.002,0.033-0.005l0.002-0.001v-0.003
				l0.004-0.001c0.002,0,0.006,0,0.008,0l0.002-0.001l0.004-0.001c0.031-0.01,0.125-0.04,0.199-0.063
				c0.291-0.095,0.77-0.251,0.77-0.251s0.236-0.077,0.428-0.14c0.062-0.021,0.123-0.038,0.184-0.058
				c0.066-0.021,0.09-0.027,0.145-0.046c0.098-0.031,0.176-0.058,0.213-0.069c0,0,0.002,0,0.004,0l-0.002-0.004
				c0.002,0,0.004,0,0.004,0c0.021-0.008,0.037-0.016,0.049-0.025c0.004-0.002,0.008-0.006,0.012-0.01
				c0.002-0.002,0.004-0.006,0.006-0.008c0,0,0.002-0.003,0.002-0.004c0.002-0.002,0.006-0.007,0.008-0.008
				c0-0.001,0.002-0.004,0.002-0.005c0.002-0.001,0.004-0.007,0.004-0.008c0.002-0.006,0.006-0.014,0.008-0.02
				c0-0.001,0.002-0.007,0.004-0.009l-0.002-0.003c0-0.001,0-0.003,0-0.003c0-0.001,0.004-0.005,0.004-0.005s0-0.003,0-0.004
				s-0.002-0.004-0.002-0.004c0-0.001,0-0.003,0-0.003c0-0.002,0.002-0.007,0.002-0.008s0-0.004,0-0.004c0-0.001,0-0.004,0-0.004
				c0-0.002,0-0.006-0.002-0.008c0-0.001,0-0.003,0-0.004s0-0.006,0-0.007c-0.002-0.003-0.006-0.009-0.006-0.011
				c0,0,0-0.003,0-0.004c0,0-0.002-0.003-0.002-0.004v-0.003c0-0.001,0-0.004,0-0.004c-0.051-0.159-0.109-0.306-0.164-0.443v-0.004
				c-0.002-0.01-0.006-0.018-0.006-0.022l-0.002-0.003c-0.137-0.343-0.275-0.617-0.385-0.812c0.096,0.037,0.209,0.048,0.32,0.039
				c0.139-0.01,0.26-0.016,0.307-0.13c0.037-0.091,0.004-0.312-0.027-0.413c-0.061-0.184-0.232-0.304-0.416-0.301h-0.004
				c0,0-0.006,0.001-0.008,0.001c0,0-0.002,0.001-0.004,0.001c-0.154-0.033-0.379-0.031-0.646,0.01
				c-0.016,0.002-0.029,0.004-0.045,0.006c-0.014,0.002-0.029,0.004-0.045,0.006C43.449,37.001,43.441,37.002,43.434,37.003z
				 M43.396,37.368c0.002-0.001,0.008-0.001,0.01-0.001c0,0,0.002,0.003,0,0.004c-0.012,0.009-0.023,0.021-0.035,0.03
				c-0.008,0.006-0.018,0.013-0.025,0.019c-0.002,0.002-0.004,0.003-0.006,0.004c-0.002,0.002-0.002,0.004-0.004,0.005
				c-0.004,0.003-0.012,0.007-0.018,0.01c-0.002,0.002-0.004,0.006-0.006,0.009c-0.006,0.004-0.012,0.005-0.018,0.009
				c-0.006,0.005-0.014,0.011-0.021,0.015c-0.004,0.002-0.006,0.006-0.01,0.009s-0.006,0.006-0.01,0.009H43.25
				c-0.002,0.002-0.008,0.004-0.01,0.006c-0.006,0.004-0.012,0.006-0.018,0.01c-0.105,0.023-0.223,0.055-0.34,0.094
				c-0.117,0.037-0.225,0.078-0.322,0.121c-0.074,0.005-0.166,0.005-0.244,0.002c0.111-0.039,0.273-0.084,0.551-0.174
				C43.133,37.461,43.285,37.4,43.396,37.368z M43.613,37.34c0.047,0.004,0.1,0.013,0.166,0.03c0-0.001,0.002-0.003,0.002-0.004
				c-0.002,0.021-0.002,0.045-0.002,0.067c-0.023,0.001-0.059,0.004-0.104,0.006l-0.02-0.034L43.613,37.34z M42.141,37.812
				l0.008,0.118c-0.039,0.024-0.07,0.044-0.09,0.057c-0.012-0.018-0.025-0.033-0.041-0.05C42.064,37.88,42.102,37.843,42.141,37.812
				z"/>
			<path id="rect6978_25_" opacity="0.3977" fill="#8C8C8C" enable-background="new    " d="M30.959,34.102l9.807-3.104
				c0.363-0.115,0.727,0.005,0.811,0.268l0,0c0.084,0.263-0.145,0.569-0.51,0.685l-9.807,3.104
				c-0.365,0.115-0.729-0.005-0.811-0.268l0,0C30.365,34.524,30.594,34.218,30.959,34.102z"/>
			<path id="rect6978_24_" opacity="0.3977" fill="#8C8C8C" enable-background="new    " d="M31.234,35.449l9.807-3.104
				c0.365-0.115,0.729,0.004,0.811,0.267l0,0c0.084,0.263-0.145,0.57-0.51,0.686L31.535,36.4c-0.363,0.115-0.729-0.004-0.811-0.267
				l0,0C30.641,35.871,30.869,35.564,31.234,35.449z"/>
			<path id="rect6978_23_" opacity="0.3977" fill="#8C8C8C" enable-background="new    " d="M31.785,36.701l9.807-3.104
				c0.365-0.115,0.729,0.004,0.812,0.267l0,0c0.082,0.263-0.146,0.569-0.51,0.686l-9.807,3.104
				c-0.365,0.115-0.729-0.005-0.812-0.267l0,0C31.193,37.123,31.422,36.816,31.785,36.701z"/>
			<path id="rect6978_22_" opacity="0.3977" fill="#8C8C8C" enable-background="new    " d="M27.955,42.645l11.596-3.67
				c0.432-0.136,0.848-0.033,0.932,0.229l0,0c0.082,0.263-0.199,0.587-0.631,0.724l-11.596,3.669
				c-0.43,0.138-0.848,0.034-0.932-0.229l0,0C27.242,43.105,27.525,42.781,27.955,42.645z"/>
			<path id="rect6978_21_" opacity="0.3977" fill="#8C8C8C" enable-background="new    " d="M27.219,41.432l6.148-1.946
				c0.229-0.072,0.482,0.082,0.564,0.345l0,0c0.084,0.264-0.033,0.535-0.262,0.607l-6.148,1.945
				c-0.229,0.073-0.482-0.082-0.566-0.344l0,0C26.873,41.775,26.99,41.504,27.219,41.432z"/>
			<path id="rect6978_20_" opacity="0.3977" fill="#8C8C8C" enable-background="new    " d="M34.467,39.255l5.301-1.678
				c0.199-0.062,0.426,0.1,0.51,0.362l0,0c0.082,0.264-0.01,0.527-0.207,0.59l-5.303,1.678c-0.197,0.062-0.424-0.101-0.508-0.363
				l0,0C34.178,39.58,34.27,39.316,34.467,39.255z"/>
		</g>
		<path fill="#58595B" fill-opacity="0.2" d="M37.949,30.637c-0.795-1.478-1.801-3.345-2.666-4.95h-1.627
			c1.766,3.273,4.434,8.224,4.434,8.224c0.07,0.129,0.127,0.263,0.174,0.397c0,0.001,0,0.002,0.002,0.004
			c0.137,0.407,0.168,0.832,0.104,1.239c-0.096,0.479-0.312,0.929-0.635,1.304c-0.002,0.002-0.004,0.003-0.004,0.005
			c-0.195,0.225-0.428,0.422-0.695,0.58c0.002,0,0.004-0.001,0.006-0.002c0,0,0,0.001-0.002,0.001
			c-0.078,0.043-0.16,0.08-0.24,0.114c-0.133,0.055-0.268,0.096-0.402,0.128c-0.023,0.006-0.047,0.013-0.07,0.018
			c-0.045,0.009-0.092,0.015-0.139,0.021c-0.035,0.006-0.072,0.013-0.109,0.017c-0.039,0.004-0.078,0.006-0.119,0.008
			c-0.043,0.003-0.086,0.006-0.129,0.007c-0.035,0-0.07-0.002-0.105-0.003c-0.047-0.001-0.096-0.003-0.143-0.007
			c-0.031-0.003-0.062-0.007-0.094-0.011c-0.051-0.006-0.102-0.013-0.152-0.022c-0.027-0.005-0.055-0.011-0.084-0.017
			c-0.053-0.012-0.105-0.024-0.158-0.039c-0.023-0.007-0.049-0.015-0.072-0.021c-0.057-0.018-0.111-0.037-0.164-0.059
			c-0.021-0.008-0.041-0.016-0.062-0.024c-0.057-0.023-0.113-0.05-0.17-0.078c-0.016-0.008-0.031-0.016-0.049-0.024
			c-0.059-0.031-0.117-0.066-0.174-0.102c-0.012-0.008-0.023-0.015-0.035-0.022c-0.061-0.04-0.121-0.083-0.178-0.129
			c-0.008-0.005-0.014-0.01-0.02-0.015c-0.262-0.21-0.486-0.475-0.656-0.789l-5.77-10.702h-1.619l6.121,11.384
			c0.725,1.345,2.109,2.11,3.539,2.115c0.65,0.002,1.311-0.153,1.922-0.482c1.955-1.055,2.703-3.502,1.65-5.458L37.949,30.637z"/>
		<g>
			<linearGradient id="SVGID_4_" gradientUnits="userSpaceOnUse" x1="32.6953" y1="37.3989" x2="32.6953" y2="18.2096">
				<stop  offset="0" style="stop-color:#C3C3C3"/>
				<stop  offset="1" style="stop-color:#767676"/>
			</linearGradient>
			<path fill="url(#SVGID_4_)" stroke="#6D6E70" stroke-width="0.48" stroke-miterlimit="10" d="M36.225,23.338l0.445,0.118
				l-2.182-3.159c-0.863-1.604-2.537-2.509-4.244-2.474c-0.393,0.008-0.787,0.072-1.174,0.185l0,0
				c-0.156,0.045-0.311,0.096-0.465,0.158c-0.162,0.065-0.322,0.139-0.479,0.224c-0.012,0.006-0.021,0.014-0.033,0.021
				c-0.023,0.011-0.047,0.021-0.07,0.033c-0.025,0.014-0.049,0.03-0.074,0.045c-0.008,0.004-0.016,0.008-0.025,0.012
				c0.006-0.003,0.014-0.005,0.018-0.008c-1.326,0.752-2.127,2.084-2.25,3.506c-0.105,0.92,0.057,1.879,0.527,2.754l6.355,11.815
				c0.994,1.845,3.303,2.534,5.148,1.54s2.551-3.304,1.557-5.148c0,0-5.539-10.284-5.633-10.454
				c-0.092-0.17-0.287-0.078-0.295-0.075l-0.789,0.424c-0.002,0.001-0.002,0.003-0.004,0.003c0,0-0.186,0.128-0.09,0.309
				c0.098,0.181,5.619,10.421,5.619,10.421c0.266,0.492,0.344,1.035,0.262,1.549c-0.145,0.723-0.582,1.381-1.258,1.782
				c0.002-0.001,0.004-0.002,0.006-0.003l-0.002,0.001c-0.074,0.04-0.15,0.075-0.227,0.108c-1.15,0.477-2.498,0.02-3.102-1.1
				l-6.371-11.815c-0.877-1.628-0.271-3.665,1.357-4.542c1.627-0.878,3.664-0.255,4.543,1.373l1.195,1.863L36.225,23.338z"/>
			<g id="g6351_3_" transform="matrix(1.455572,-0.78451,0.78451,1.455572,-30.28763,12.56664)">
				<g id="g6353_3_" transform="matrix(0.422559,0,0,0.422559,15.18181,11)">
					
						<path id="path6359_3_" sodipodi:nodetypes="csccsccssssssssccssssssssccsccsccccc" opacity="0.23" fill="#333332" enable-background="new    " d="
						M36.767,21.695c-0.915-0.47-1.951-0.723-3.052-0.724c-3.706,0-6.723,3.017-6.722,6.721l-0.018,19.2
						c0,2.999,2.443,5.437,5.441,5.436c3,0.001,5.459-2.429,5.457-5.429l-0.009-16.975c0-0.006,0.014-0.015,0.014-0.02
						c-0.003-0.006-0.007-0.028-0.011-0.033c0-0.006-0.007-0.028-0.008-0.033c-0.001-0.004-0.007-0.028-0.008-0.032
						c-0.013-0.029-0.038-0.065-0.057-0.088c-0.017-0.021-0.05-0.054-0.071-0.068c-0.005-0.003-0.017-0.009-0.022-0.012
						c-0.022-0.012-0.065-0.021-0.09-0.027c-0.012-0.002-0.043-0.003-0.055-0.004l-1.282-0.002c-0.044,0-0.092,0.018-0.13,0.035
						c-0.004,0.002-0.028,0.005-0.033,0.008c-0.018,0.011-0.039,0.036-0.055,0.05c-0.007,0.007-0.037,0.021-0.045,0.03
						c-0.005,0.009-0.017,0.032-0.023,0.042c-0.002,0.004-0.011,0.015-0.014,0.02c-0.002,0.01,0.002,0.044-0.003,0.052
						c-0.002,0.01-0.023,0.031-0.022,0.041c-0.003,0.011-0.004,0.042-0.004,0.054l0.001,16.943c-0.001,1.94-1.568,3.521-3.511,3.521
						c-1.94,0-3.521-1.568-3.52-3.509L28.911,27.68c0.001-2.646,2.149-4.8,4.794-4.801c2.648,0,4.792,2.168,4.791,4.815l0.164,3.243
						l2.459,2.307l-0.683-5.549C40.435,25.087,38.941,22.81,36.767,21.695z"/>
					
						<radialGradient id="path6367_1_" cx="-1761.7595" cy="-275.8866" r="37.8768" gradientTransform="matrix(-0.8683 -1.4072 -1.4072 0.8683 -1901.4978 -2149.0122)" gradientUnits="userSpaceOnUse">
						<stop  offset="0" style="stop-color:#F3F2F2"/>
						<stop  offset="1" style="stop-color:#C3C3C3"/>
					</radialGradient>
					<path id="path6367_3_" sodipodi:nodetypes="csccsccccsccsccccc" fill="url(#path6367_1_)" d="M36.498,21.593
						c-0.84-0.403-1.789-0.622-2.783-0.622c-3.534,0-6.395,2.857-6.395,6.391l-0.018,19.2c0,2.828,2.305,5.121,5.131,5.122
						c2.829,0.001,5.111-2.283,5.111-5.111l0.01-16.964l-1.282-0.002l-0.01,16.964c-0.001,2.116-1.708,3.83-3.826,3.83
						c-2.116,0.001-3.85-1.718-3.851-3.837l0.018-19.199c0-2.823,2.288-5.111,5.111-5.111c2.823,0,5.11,2.286,5.112,5.11
						l0.352,3.725l1.379,1.613l-0.583-7.415C40.106,24.825,38.642,22.628,36.498,21.593z"/>
					
						<linearGradient id="path6375_1_" gradientUnits="userSpaceOnUse" x1="-1736.4692" y1="-306.4792" x2="-1736.4692" y2="-277.6797" gradientTransform="matrix(-0.8683 -1.4072 -1.4072 0.8683 -1901.4978 -2149.0122)">
						<stop  offset="0" style="stop-color:#E7E7E7"/>
						<stop  offset="1" style="stop-color:#FFFFFF"/>
					</linearGradient>
					<path id="path6375_3_" sodipodi:nodetypes="ccccccccsscccccccccccccc" fill="url(#path6375_1_)" d="M36.378,21.662
						c-0.914-0.448-1.943-0.69-2.992-0.688c3.384,0.166,6.081,2.981,6.082,6.408l0.383,4.544l0.702,0.777l-0.449-5.335
						C40.105,24.88,38.541,22.721,36.378,21.662z M33.067,22.237c-0.023,0.001-0.044,0.016-0.066,0.017
						c0.029-0.002,0.056-0.003,0.086-0.006C33.081,22.247,33.074,22.237,33.067,22.237z M32.949,22.249
						c-2.762,0.07-5.005,2.339-5.004,5.118l0.001,19.212c0,2.109,1.706,3.799,3.81,3.813c-1.953-0.178-3.48-1.815-3.479-3.814
						l0.324-19.213C28.602,24.689,30.348,22.47,32.949,22.249z M37.225,29.611l-0.328,0.001l0.02,16.955
						c0.001,2.708-2.117,4.929-4.78,5.11c2.815-0.014,5.088-2.305,5.089-5.123L37.225,29.611z"/>
					
						<linearGradient id="path6383_1_" gradientUnits="userSpaceOnUse" x1="-2382.5498" y1="310.4858" x2="-2382.5498" y2="291.24" gradientTransform="matrix(-0.6151 -0.3315 -0.3315 0.6151 -1328.1006 -931.6219)">
						<stop  offset="0" style="stop-color:#C3C3C3"/>
						<stop  offset="1" style="stop-color:#767676"/>
					</linearGradient>
					<path id="path6383_3_" fill="url(#path6383_1_)" d="M36.428,46.568l0.002-16.959l-0.32-0.001l0.001,16.961
						c-0.001,2.064-1.638,3.747-3.681,3.832c0.053,0.002,0.107,0.008,0.16,0.009C34.707,50.409,36.43,48.686,36.428,46.568z"/>
					
						<linearGradient id="path6391_1_" gradientUnits="userSpaceOnUse" x1="-1747.2894" y1="-284.1443" x2="-1747.2894" y2="-303.1628" gradientTransform="matrix(-0.8683 -1.4072 -1.4072 0.8683 -1901.4978 -2149.0122)">
						<stop  offset="0" style="stop-color:#C3C3C3"/>
						<stop  offset="1" style="stop-color:#767676"/>
					</linearGradient>
					<path id="path6391_3_" fill="url(#path6391_1_)" d="M36.039,22.722c-0.639-0.299-1.355-0.467-2.103-0.476
						c2.646,0.194,4.73,2.413,4.728,5.108l0.243,3.702l0.268,0.033l-0.195-3.716C38.982,25.321,37.783,23.538,36.039,22.722z
						 M33.831,22.24c-0.016,0-0.02,0.007-0.033,0.008c0.018,0.002,0.034,0.002,0.052,0.004C33.844,22.252,33.837,22.24,33.831,22.24
						z"/>
					
						<linearGradient id="path6407_1_" gradientUnits="userSpaceOnUse" x1="-2377.999" y1="314.1118" x2="-2377.999" y2="285.6904" gradientTransform="matrix(-0.6151 -0.3315 -0.3315 0.6151 -1328.1006 -931.6219)">
						<stop  offset="0" style="stop-color:#C3C3C3"/>
						<stop  offset="1" style="stop-color:#767676"/>
					</linearGradient>
					<path id="path6407_3_" fill="url(#path6407_1_)" d="M32.268,51.687c0.054,0,0.108-0.005,0.16-0.008
						c-2.752-0.084-4.96-2.338-4.958-5.111l0-19.201c-0.001-3.481,2.779-6.306,6.24-6.392c-0.054,0-0.105-0.006-0.161-0.007
						c-3.534-0.001-6.4,2.865-6.399,6.4l0,19.201C27.15,49.395,29.442,51.688,32.268,51.687z"/>
				</g>
			</g>
		</g>
	</g>
</g>
<g id="text">
</g>
<g id="guides" display="none">
	<g id="guide_2_" display="inline">
	</g>
	<g id="guide" display="inline">
	</g>
	<g id="guide_5_" display="inline">
	</g>
	<g id="guide_4_" display="inline">
	</g>
	<g id="guide_6_" display="inline">
	</g>
	<g id="guide_7_" display="inline">
	</g>
	<g id="guide_3_" display="inline">
		<circle fill="none" stroke="#2BA6DE" stroke-dasharray="1.1716" cx="40.393" cy="40.73" r="31.523"/>
		<circle fill="none" stroke="#EC1E28" cx="40.559" cy="40.563" r="36.027"/>
		<rect x="0.03" y="0.034" fill="none" width="81.059" height="81.06"/>
	</g>
	<g id="guide_1_" display="inline">
	</g>
	<g id="guide_8_" display="inline">
	</g>
</g>
</svg>
