<?xml version="1.0" encoding="utf-8"?>
<!-- Generator: Adobe Illustrator 16.1.0, SVG Export Plug-In . SVG Version: 6.00 Build 0)  -->
<!DOCTYPE svg PUBLIC "-//W3C//DTD SVG 1.1//EN" "http://www.w3.org/Graphics/SVG/1.1/DTD/svg11.dtd">
<svg version="1.1" xmlns="http://www.w3.org/2000/svg" xmlns:xlink="http://www.w3.org/1999/xlink" x="0px" y="0px" width="198px"
	 height="270px" viewBox="0 0 198 270" enable-background="new 0 0 198 270" xml:space="preserve">
<g id="TGC_x5F_Poker_x5F_Template" display="none">
	<rect display="inline" fill="#919396" width="198" height="270"/>
	<g display="inline">
		<defs>
			<rect id="SVGID_1_" width="198" height="270"/>
		</defs>
		<clipPath id="SVGID_2_">
			<use xlink:href="#SVGID_1_"  overflow="visible"/>
		</clipPath>
		<path clip-path="url(#SVGID_2_)" fill="#FFFFFF" d="M8.96,12.919c0-2.211,1.791-4,4-4h172c2.21,0,4,1.789,4,4v244
			c0,2.209-1.79,4-4,4h-172c-2.209,0-4-1.791-4-4V12.919z"/>
		<path clip-path="url(#SVGID_2_)" fill="none" stroke="#EA222A" d="M8.96,12.919c0-2.211,1.791-4,4-4h172c2.21,0,4,1.789,4,4v244
			c0,2.209-1.79,4-4,4h-172c-2.209,0-4-1.791-4-4V12.919z"/>
		<path clip-path="url(#SVGID_2_)" fill="none" stroke="#2BA4DD" stroke-dasharray="1.44,1.44" d="M18.466,21.825
			c0-2.156,1.714-3.9,3.828-3.9h154.084c2.114,0,3.828,1.744,3.828,3.9v226.188c0,2.153-1.714,3.899-3.828,3.899H22.294
			c-2.114,0-3.828-1.746-3.828-3.899V21.825z"/>
		<rect x="20.999" y="195.74" clip-path="url(#SVGID_2_)" fill="#E7E6E6" width="157" height="54.333"/>
		<rect x="20.998" y="20.666" clip-path="url(#SVGID_2_)" fill="#E7E6E6" width="157" height="16.244"/>
	</g>
	<text transform="matrix(1 0 0 1 134.0586 47.0107)" display="inline"><tspan x="0" y="0" fill="#231F20" font-family="'Arial-Black'" font-size="6">Sa</tspan><tspan x="8.335" y="0" fill="#231F20" font-family="'Arial-Black'" font-size="6">f</tspan><tspan x="10.568" y="0" fill="#231F20" font-family="'Arial-Black'" font-size="6">e Zone</tspan></text>
	<text transform="matrix(1 0 0 1 25.6084 53.6108)" display="inline"><tspan x="0" y="0" fill="#2BA4DD" font-family="'Arial-BoldMT'" font-size="6">DO NOT place</tspan><tspan x="40.342" y="0" fill="#2BA4DD" font-family="'Arial-BoldMT'" font-size="6"> </tspan><tspan x="41.793" y="0" fill="#2BA4DD" font-family="'Arial-BoldMT'" font-size="6">AN</tspan><tspan x="50.459" y="0" fill="#2BA4DD" font-family="'Arial-BoldMT'" font-size="6">Y</tspan><tspan x="54.359" y="0" fill="#2BA4DD" font-family="'Arial-BoldMT'" font-size="6"> important text/images beyond</tspan></text>
	<text transform="matrix(1 0 0 1 38.5264 60.2109)" display="inline"><tspan x="0" y="0" fill="#2BA4DD" font-family="'Arial-BoldMT'" font-size="6">this dotted line.</tspan><tspan x="44.332" y="0" fill="#2BA4DD" font-family="'Arial-BoldMT'" font-size="6"> </tspan><tspan x="45.783" y="0" fill="#2BA4DD" font-family="'Arial-BoldMT'" font-size="6">Anything past the dotted line</tspan></text>
	<text transform="matrix(1 0 0 1 32.2808 66.8105)" display="inline" fill="#2BA4DD" font-family="'Arial-BoldMT'" font-size="6">has the potential for being trimmed. This line is</text>
	<text transform="matrix(1 0 0 1 25.2788 73.4106)" display="inline" fill="#2BA4DD" font-family="'Arial-BoldMT'" font-size="6">provided to prevent trimming of your text/images.</text>
	<text transform="matrix(1 0 0 1 136.2246 86.6108)" display="inline"><tspan x="0" y="0" fill="#231F20" font-family="'Arial-Black'" font-size="6">T</tspan><tspan x="4.075" y="0" fill="#231F20" font-family="'Arial-Black'" font-size="6">rim Line</tspan></text>
	<text transform="matrix(1 0 0 1 38.6104 93.2109)" display="inline" fill="#EA222A" font-family="'Arial-BoldMT'" font-size="6">This is the actual cutline of your final design.</text>
	<text transform="matrix(1 0 0 1 129.9551 106.4106)" display="inline" fill="#231F20" font-family="'Arial-Black'" font-size="6">Bleed Zone</text>
	<text transform="matrix(1 0 0 1 45.6006 113.0107)" display="inline" fill="#919396" font-family="'Arial-BoldMT'" font-size="6">Extend any card artwork/color to the edge </text>
	<text transform="matrix(1 0 0 1 35.2808 119.6108)" display="inline" fill="#919396" font-family="'Arial-BoldMT'" font-size="6">(covering the gray) if you want your design to </text>
	<text transform="matrix(1 0 0 1 24.3906 126.2109)" display="inline"><tspan x="0" y="0" fill="#919396" font-family="'Arial-BoldMT'" font-size="6">extend to the edge on the final print. </tspan><tspan x="105.003" y="0" fill="#919396" font-family="'Arial-BoldMT'" font-size="6">W</tspan><tspan x="110.564" y="0" fill="#919396" font-family="'Arial-BoldMT'" font-size="6">e require a </tspan></text>
	<text transform="matrix(1 0 0 1 25.9204 132.8105)" display="inline" fill="#919396" font-family="'Arial-BoldMT'" font-size="6">bleed of 1/8”. Please use the Safe Zone guideline </text>
	<text transform="matrix(1 0 0 1 36.2646 139.4111)" display="inline" fill="#919396" font-family="'Arial-BoldMT'" font-size="6">  to prevent trimming of essential text/images.</text>
	<text transform="matrix(1 0 0 1 39.9307 146.0107)" display="inline" fill="#919396" font-family="'Arial-BoldMT'" font-size="6">The bleed is to make sure your design/color </text>
	<text transform="matrix(1 0 0 1 76.6147 152.6104)" display="inline" fill="#919396" font-family="'Arial-BoldMT'" font-size="6">extends to the edge of the card.</text>
	<text transform="matrix(1 0 0 1 127.3809 165.8105)" display="inline"><tspan x="0" y="0" fill="#231F20" font-family="'Arial-Black'" font-size="6">Bo</tspan><tspan x="8.669" y="0" fill="#231F20" font-family="'Arial-Black'" font-size="6">r</tspan><tspan x="11.482" y="0" fill="#231F20" font-family="'Arial-Black'" font-size="6">der A</tspan><tspan x="28.817" y="0" fill="#231F20" font-family="'Arial-Black'" font-size="6">r</tspan><tspan x="31.576" y="0" fill="#231F20" font-family="'Arial-Black'" font-size="6">ea</tspan></text>
	<text transform="matrix(1 0 0 1 45.6064 172.4111)" display="inline" fill="#F9A51B" font-family="'Arial-BoldMT'" font-size="6">This is the minimum recommended border</text>
	<text transform="matrix(1 0 0 1 44.2744 179.0107)" display="inline" fill="#F9A51B" font-family="'Arial-BoldMT'" font-size="6">area. If you want a border around the edge </text>
	<text transform="matrix(1 0 0 1 56.2866 185.6104)" display="inline" fill="#F9A51B" font-family="'Arial-BoldMT'" font-size="6">of your card, you will want it to extend </text>
	<text transform="matrix(1 0 0 1 31.2847 192.2109)" display="inline" fill="#F9A51B" font-family="'Arial-BoldMT'" font-size="6">the width of this guide on each side of the card.</text>
	<text transform="matrix(1 0 0 1 23.1729 26.7686)" display="inline"><tspan x="0" y="0" fill="#231F20" font-family="'Arial-BoldMT'" font-size="7">2.5” x 3.5” POKER CARD TEMPL</tspan><tspan x="108.913" y="0" fill="#231F20" font-family="'Arial-BoldMT'" font-size="7">A</tspan><tspan x="113.45" y="0" fill="#231F20" font-family="'Arial-BoldMT'" font-size="7">TES</tspan></text>
	<text transform="matrix(1 0 0 1 23.1729 34.7695)" display="inline"><tspan x="0" y="0" fill="#231F20" font-family="'Arial-BoldMT'" font-size="7">ww</tspan><tspan x="11.59" y="0" fill="#231F20" font-family="'Arial-BoldMT'" font-size="7">w</tspan><tspan x="17.125" y="0" fill="#231F20" font-family="'Arial-BoldMT'" font-size="7">.</tspan><tspan x="19.42" y="0" fill="#231F20" font-family="'Arial-BoldMT'" font-size="7">t</tspan><tspan x="22.094" y="0" fill="#231F20" font-family="'Arial-BoldMT'" font-size="7">h</tspan><tspan x="26.72" y="0" fill="#231F20" font-family="'Arial-BoldMT'" font-size="7">e</tspan><tspan x="30.956" y="0" fill="#231F20" font-family="'Arial-BoldMT'" font-size="7">g</tspan><tspan x="35.582" y="0" fill="#231F20" font-family="'Arial-BoldMT'" font-size="7">amecrafte</tspan><tspan x="71.745" y="0" fill="#231F20" font-family="'Arial-BoldMT'" font-size="7">r</tspan><tspan x="74.434" y="0" fill="#231F20" font-family="'Arial-BoldMT'" font-size="7">.</tspan><tspan x="76.729" y="0" fill="#231F20" font-family="'Arial-BoldMT'" font-size="7">c</tspan><tspan x="80.965" y="0" fill="#231F20" font-family="'Arial-BoldMT'" font-size="7">o</tspan><tspan x="85.591" y="0" fill="#231F20" font-family="'Arial-BoldMT'" font-size="7">m</tspan></text>
	<g display="inline">
		<defs>
			<rect id="SVGID_3_" width="198" height="270"/>
		</defs>
		<clipPath id="SVGID_4_">
			<use xlink:href="#SVGID_3_"  overflow="visible"/>
		</clipPath>
		<rect x="170.999" y="166.687" clip-path="url(#SVGID_4_)" fill="#F9A51B" width="27.001" height="26.085"/>
		<line clip-path="url(#SVGID_4_)" fill="none" stroke="#F9A51B" x1="127.714" y1="167.186" x2="191.993" y2="167.186"/>
		<line clip-path="url(#SVGID_4_)" fill="none" stroke="#EA222A" x1="136.749" y1="87.761" x2="189.22" y2="87.761"/>
		<line clip-path="url(#SVGID_4_)" fill="none" stroke="#919396" x1="130.249" y1="107.679" x2="192.749" y2="107.679"/>
		
			<line clip-path="url(#SVGID_4_)" fill="none" stroke="#2BA4DD" stroke-dasharray="1.44,1.44" x1="134.47" y1="48.011" x2="180" y2="48.011"/>
		<path clip-path="url(#SVGID_4_)" fill="#EA222A" d="M134.481,41.076c0,0.411-0.188,0.813-0.559,1.202l-0.059,0.059l-3.259,3.433
			c-0.692,0.728-1.282,1.289-1.77,1.687c-0.486,0.398-0.83,0.597-1.03,0.597c-0.211,0-0.473-0.1-0.786-0.298
			c-0.312-0.2-0.516-0.404-0.606-0.615c-0.078-0.176-0.15-0.548-0.219-1.118c-0.068-0.569-0.103-1.187-0.103-1.851
			c0-0.363,0.151-0.698,0.452-1.005c0.304-0.308,0.638-0.461,1.003-0.461c0.349,0,0.556,0.318,0.621,0.954
			c0.009,0.074,0.014,0.129,0.018,0.164c0.056,0.488,0.121,0.829,0.193,1.023c0.075,0.193,0.176,0.29,0.302,0.29
			c0.053,0,0.151-0.057,0.296-0.171c0.144-0.115,0.316-0.27,0.517-0.467l3.349-3.318c0.281-0.28,0.532-0.493,0.754-0.637
			c0.222-0.145,0.408-0.216,0.564-0.216c0.116,0,0.198,0.044,0.248,0.131c0.049,0.088,0.073,0.236,0.073,0.443V41.076z"/>
		<path clip-path="url(#SVGID_4_)" fill="#EA222A" d="M135.696,80.052c0,0.411-0.187,0.813-0.559,1.202l-0.059,0.059l-3.259,3.432
			c-0.692,0.728-1.282,1.29-1.769,1.688c-0.487,0.397-0.831,0.596-1.031,0.596c-0.211,0-0.473-0.099-0.786-0.298
			c-0.312-0.199-0.515-0.404-0.606-0.615c-0.077-0.175-0.15-0.548-0.219-1.118c-0.068-0.569-0.103-1.186-0.103-1.85
			c0-0.363,0.151-0.698,0.453-1.005c0.303-0.308,0.637-0.461,1.002-0.461c0.349,0,0.556,0.317,0.621,0.954
			c0.009,0.074,0.014,0.128,0.018,0.164c0.056,0.488,0.121,0.829,0.194,1.023c0.074,0.193,0.175,0.29,0.301,0.29
			c0.053,0,0.151-0.057,0.296-0.171c0.144-0.115,0.316-0.27,0.517-0.468l3.349-3.317c0.281-0.281,0.532-0.493,0.754-0.637
			c0.222-0.145,0.409-0.217,0.564-0.217c0.116,0,0.198,0.045,0.248,0.132c0.049,0.088,0.073,0.236,0.073,0.443V80.052z"/>
		<path clip-path="url(#SVGID_4_)" fill="#EA222A" d="M130.196,99.452c0,0.411-0.187,0.813-0.559,1.202l-0.059,0.059l-3.259,3.432
			c-0.692,0.728-1.282,1.29-1.769,1.688c-0.487,0.397-0.831,0.596-1.031,0.596c-0.211,0-0.473-0.099-0.786-0.298
			c-0.312-0.199-0.515-0.404-0.606-0.615c-0.077-0.175-0.15-0.547-0.219-1.118c-0.068-0.569-0.103-1.186-0.103-1.85
			c0-0.363,0.151-0.698,0.453-1.005c0.303-0.308,0.637-0.461,1.002-0.461c0.349,0,0.556,0.318,0.621,0.954
			c0.009,0.074,0.014,0.128,0.018,0.164c0.056,0.488,0.121,0.829,0.194,1.023c0.074,0.193,0.175,0.29,0.301,0.29
			c0.053,0,0.151-0.057,0.296-0.171c0.144-0.115,0.316-0.27,0.517-0.468l3.349-3.317c0.281-0.281,0.532-0.493,0.754-0.638
			c0.222-0.144,0.409-0.216,0.564-0.216c0.116,0,0.198,0.045,0.248,0.132c0.049,0.088,0.073,0.236,0.073,0.443V99.452z"/>
		<path clip-path="url(#SVGID_4_)" fill="#EA222A" d="M127.481,160.052c0,0.412-0.188,0.813-0.559,1.203l-0.059,0.06l-3.259,3.432
			c-0.692,0.728-1.282,1.29-1.77,1.688c-0.486,0.398-0.83,0.596-1.03,0.596c-0.211,0-0.473-0.101-0.786-0.298
			c-0.312-0.199-0.516-0.403-0.606-0.614c-0.078-0.176-0.15-0.549-0.219-1.117c-0.068-0.57-0.103-1.188-0.103-1.853
			c0-0.361,0.151-0.697,0.452-1.003c0.304-0.31,0.638-0.462,1.003-0.462c0.349,0,0.556,0.317,0.621,0.954
			c0.009,0.074,0.014,0.128,0.018,0.164c0.056,0.487,0.121,0.829,0.193,1.023c0.075,0.192,0.176,0.289,0.302,0.289
			c0.053,0,0.151-0.057,0.296-0.173c0.144-0.112,0.316-0.27,0.517-0.465l3.349-3.318c0.281-0.281,0.532-0.494,0.754-0.637
			c0.222-0.145,0.408-0.216,0.564-0.216c0.116,0,0.198,0.042,0.248,0.13c0.049,0.088,0.073,0.236,0.073,0.443V160.052z"/>
	</g>
	<text transform="matrix(1 0 0 1 117.5801 206.998)" display="inline"><tspan x="0" y="0" fill="#231F20" font-family="'Arial-Black'" font-size="6">PLEASE N</tspan><tspan x="33" y="0" fill="#231F20" font-family="'Arial-Black'" font-size="6">O</tspan><tspan x="37.842" y="0" fill="#231F20" font-family="'Arial-Black'" font-size="6">TE:</tspan></text>
	<text transform="matrix(1 0 0 1 82.6963 214.1982)" display="inline"><tspan x="0" y="0" fill="#231F20" font-family="'Arial-Black'" font-size="6">R</tspan><tspan x="4.523" y="0" fill="#231F20" font-family="'Arial-Black'" font-size="6">em</tspan><tspan x="14.525" y="0" fill="#231F20" font-family="'Arial-Black'" font-size="6">o</tspan><tspan x="18.329" y="0" fill="#231F20" font-family="'Arial-Black'" font-size="6">v</tspan><tspan x="21.844" y="0" fill="#231F20" font-family="'Arial-Black'" font-size="6">e this la</tspan><tspan x="48.176" y="0" fill="#231F20" font-family="'Arial-Black'" font-size="6">y</tspan><tspan x="51.745" y="0" fill="#231F20" font-family="'Arial-Black'" font-size="6">er be</tspan><tspan x="68.415" y="0" fill="#231F20" font-family="'Arial-Black'" font-size="6">f</tspan><tspan x="70.647" y="0" fill="#231F20" font-family="'Arial-Black'" font-size="6">o</tspan><tspan x="74.649" y="0" fill="#231F20" font-family="'Arial-Black'" font-size="6">r</tspan><tspan x="77.409" y="0" fill="#231F20" font-family="'Arial-Black'" font-size="6">e </tspan></text>
	<text transform="matrix(1 0 0 1 85.4141 221.3984)" display="inline" fill="#231F20" font-family="'Arial-Black'" font-size="6">sending the file to print. </text>
	<text transform="matrix(1 0 0 1 78.1299 228.5977)" display="inline"><tspan x="0" y="0" fill="#231F20" font-family="'Arial-Black'" font-size="6">T</tspan><tspan x="4.489" y="0" fill="#231F20" font-family="'Arial-Black'" font-size="6">his la</tspan><tspan x="22.155" y="0" fill="#231F20" font-family="'Arial-Black'" font-size="6">y</tspan><tspan x="25.724" y="0" fill="#231F20" font-family="'Arial-Black'" font-size="6">er is p</tspan><tspan x="46.056" y="0" fill="#231F20" font-family="'Arial-Black'" font-size="6">r</tspan><tspan x="48.815" y="0" fill="#231F20" font-family="'Arial-Black'" font-size="6">o</tspan><tspan x="52.619" y="0" fill="#231F20" font-family="'Arial-Black'" font-size="6">vided as a </tspan></text>
	<text transform="matrix(1 0 0 1 110.9443 235.7979)" display="inline"><tspan x="0" y="0" fill="#231F20" font-family="'Arial-Black'" font-size="6">guide </tspan><tspan x="20.007" y="0" fill="#231F20" font-family="'Arial-Black'" font-size="6">f</tspan><tspan x="22.24" y="0" fill="#231F20" font-family="'Arial-Black'" font-size="6">or set u</tspan><tspan x="47.239" y="0" fill="#231F20" font-family="'Arial-Black'" font-size="6">p</tspan><tspan x="51.145" y="0" fill="#231F20" font-family="'Arial-Black'" font-size="6">. </tspan></text>
	<text transform="matrix(1 0 0 1 74.584 242.998)" display="inline"><tspan x="0" y="0" fill="#231F20" font-family="'Arial-Black'" font-size="6">DELETE L</tspan><tspan x="32.004" y="0" fill="#231F20" font-family="'Arial-Black'" font-size="6">A</tspan><tspan x="36.167" y="0" fill="#231F20" font-family="'Arial-Black'" font-size="6">YER AFTER USE.</tspan></text>
	<g display="inline">
		<defs>
			<rect id="SVGID_5_" width="198" height="270"/>
		</defs>
		<clipPath id="SVGID_6_">
			<use xlink:href="#SVGID_5_"  overflow="visible"/>
		</clipPath>
		<path clip-path="url(#SVGID_6_)" fill="#EA222A" d="M117.389,201.307c0,0.41-0.187,0.812-0.559,1.201l-0.059,0.059L113.513,206
			c-0.692,0.727-1.282,1.289-1.769,1.688c-0.487,0.396-0.831,0.595-1.031,0.595c-0.211,0-0.473-0.099-0.786-0.298
			c-0.312-0.198-0.515-0.403-0.606-0.613c-0.077-0.177-0.15-0.55-0.219-1.12c-0.067-0.567-0.103-1.185-0.103-1.849
			c0-0.364,0.151-0.697,0.453-1.006c0.303-0.307,0.637-0.461,1.002-0.461c0.349,0,0.556,0.317,0.622,0.955
			c0.008,0.072,0.013,0.128,0.017,0.163c0.056,0.489,0.121,0.829,0.194,1.021c0.074,0.194,0.175,0.291,0.301,0.291
			c0.053,0,0.151-0.058,0.296-0.171c0.144-0.115,0.317-0.27,0.517-0.467l3.349-3.318c0.281-0.279,0.532-0.493,0.754-0.637
			c0.222-0.145,0.409-0.218,0.564-0.218c0.116,0,0.198,0.046,0.248,0.133c0.049,0.089,0.073,0.236,0.073,0.444V201.307z"/>
		<path clip-path="url(#SVGID_6_)" fill-rule="evenodd" clip-rule="evenodd" d="M71.58,222.382
			c0,13.244-10.736,23.979-23.979,23.979c-13.244,0-23.981-10.734-23.981-23.979c0-13.245,10.737-23.981,23.981-23.981
			C60.844,198.4,71.58,209.137,71.58,222.382"/>
		<path clip-path="url(#SVGID_6_)" fill-rule="evenodd" clip-rule="evenodd" fill="#B7D333" d="M69.417,222.514
			c0,12.04-9.76,21.801-21.8,21.801s-21.8-9.761-21.8-21.801c0-12.041,9.76-21.801,21.8-21.801S69.417,210.473,69.417,222.514"/>
		<path clip-path="url(#SVGID_6_)" d="M42.949,217.761c-0.302,2.671-0.527,4.818-0.677,6.438l-0.994,0.044
			c0.015-0.054,0.022-0.115,0.024-0.183c0.001-0.121-0.043-0.281-0.134-0.479c-0.092-0.197-0.144-0.323-0.157-0.377
			c-0.256,0.036-0.503,0.216-0.738,0.533c-0.236,0.321-0.449,0.481-0.637,0.479c-0.108-0.005-0.23-0.033-0.364-0.088
			c-0.177,0.118-0.408,0.169-0.692,0.151c-0.256-0.046-0.506-0.083-0.748-0.114c-0.009-0.341-0.341-0.635-0.999-0.89
			c0.003-0.136-0.066-0.336-0.203-0.603c-0.138-0.266-0.205-0.452-0.202-0.561c0-0.122,0.049-0.222,0.146-0.302
			c-0.014-0.04-0.125-0.293-0.332-0.757c-0.143-0.341-0.212-0.632-0.209-0.874c0.004-0.189,0.047-0.364,0.132-0.525
			c-0.116-1.151-0.167-2.14-0.153-2.963c0.021-1.271,0.203-2.438,0.546-3.501c-0.024-0.163-0.035-0.325-0.033-0.486
			c0.016-0.852,0.31-1.441,0.882-1.771l0.005-0.263c0.566-0.723,1.311-1.242,2.236-1.564c0.554,0.132,1.105,0.255,1.657,0.374
			c0.619,0.212,1.045,0.578,1.279,1.095c0.187,0.113,0.279,0.338,0.273,0.674c-0.006,0.38,0.037,0.624,0.129,0.733l-0.103,0.119
			c0.108,0.8,0.161,1.287,0.158,1.463c-0.009,0.515-0.144,0.877-0.404,1.089c-0.094-0.001-0.343-0.086-0.746-0.256
			c-0.096,0.093-0.199,0.139-0.306,0.136c-0.055-0.001-0.153-0.03-0.293-0.086c-0.141-0.057-0.26-0.084-0.354-0.086
			c-0.067-0.001-0.136,0.011-0.203,0.036c-0.009-1.067,0.025-1.865,0.101-2.392c-0.107-0.068-0.215-0.229-0.325-0.471
			c-0.113-0.246-0.255-0.384-0.429-0.414c-0.112,0.135-0.16,0.222-0.148,0.263l-0.363-0.128c-0.33,0.359-0.55,0.984-0.659,1.874
			c-0.112,1.026-0.252,1.705-0.42,2.041c0.145,0.151,0.217,0.361,0.211,0.632c-0.001,0.095-0.017,0.251-0.048,0.465
			c-0.032,0.217-0.047,0.379-0.048,0.487c-0.003,0.122,0.008,0.23,0.034,0.325l-0.247,0.239c0.1,0.461,0.158,1.044,0.173,1.748
			c-0.01,0.594-0.014,1.188-0.01,1.783c-0.013,0-0.129,0.004-0.344,0.015c-0.135-0.003-0.232,0.042-0.286,0.137
			c0.081-0.012,0.155-0.019,0.222-0.016c0.297,0.004,0.53,0.214,0.698,0.629c0.17,0.416,0.315,0.625,0.437,0.628
			c0.135,0.001,0.319-0.124,0.554-0.379c0.398-0.425,0.605-1.01,0.618-1.752c0.007-0.365-0.034-0.758-0.122-1.178
			c-0.096,0.051-0.146,0.187-0.149,0.402c-0.216-0.003-0.353,0.042-0.409,0.134c-0.093-0.028-0.133-0.104-0.117-0.223
			c0.017-0.176,0.024-0.271,0.024-0.285c0.164-0.05,0.245-0.124,0.248-0.219c0-0.04-0.028-0.116-0.087-0.225
			s-0.087-0.196-0.087-0.266c0.001-0.055,0.016-0.106,0.044-0.161l0.094-0.79c0.296,0.088,0.937,0.125,1.925,0.116
			c-0.029,0.065,0.011,0.154,0.117,0.264c0.096-0.093,0.198-0.14,0.306-0.136c0.081,0.002,0.202,0.037,0.362,0.107
			C42.767,217.724,42.881,217.759,42.949,217.761"/>
		<path clip-path="url(#SVGID_6_)" d="M50.518,224.743c-0.188-0.084-0.391-0.127-0.606-0.132c-0.19-0.003-0.449,0.033-0.774,0.11
			c-0.366,0.073-0.617,0.115-0.752,0.128c-0.144-0.286-0.245-0.68-0.304-1.182c-0.109-0.731-0.177-1.145-0.203-1.241
			c0.043-0.079,0.065-0.147,0.065-0.2c0.003-0.149-0.114-0.283-0.348-0.403c-0.235-0.117-0.351-0.212-0.349-0.279
			c0-0.08,0.137-0.199,0.41-0.357c-0.066-0.081-0.115-0.249-0.144-0.498c-0.028-0.251-0.091-0.418-0.183-0.501
			c-0.166,0.146-0.434,0.24-0.806,0.28c-0.373,0.042-0.62,0.102-0.743,0.18c0.008,1.055-0.165,1.763-0.523,2.12
			c-0.188-0.043-0.333,0.029-0.429,0.217c-0.14,0.228-0.257,0.36-0.352,0.399l0.118,0.144c-0.109,0.093-0.286,0.131-0.528,0.113
			c-0.379-0.021-0.581-0.03-0.609-0.03l-0.114-0.368l1.32-10.947c0.013-0.689,0.047-1.158,0.105-1.399
			c-0.017-0.609,0.126-0.984,0.425-1.128c0.187,0.124,0.424,0.189,0.707,0.194c0.23,0.005,0.589-0.043,1.076-0.145
			c0.49-0.099,0.828-0.148,1.018-0.146c0.662,0.013,0.95,0.489,0.868,1.436c-0.067,0.756,0.051,1.752,0.354,2.987
			c0.316,1.331,0.468,2.327,0.457,2.99c-0.004,0.2,0.063,0.622,0.046,0.824c-0.287,0.156-0.652,0.253-1.099,0.285
			c-0.393,0.021-0.792,0.042-1.198,0.06c-0.104-1.028-0.286-2.269-0.39-3.284c-0.128-1.219-0.286-2.221-0.477-3.01l-0.626,5.79
			c-0.048,0.5,0.178,0.754,0.678,0.764c0.162,0.001,0.317-0.036,0.468-0.115c0.123-0.038,0.291,0.052,0.503,0.272
			c-0.008,0.419,0.076,0.67,0.251,0.754c0.218-0.145,0.504-0.281,0.858-0.411c0.312-0.116,0.62-0.226,0.919-0.329
			c0.17,0.233,0.28,0.58,0.327,1.04c0.056,0.65,0.098,1.029,0.122,1.138c0.023,0.258,0.128,0.813,0.316,1.669
			c0.137,0.677,0.203,1.226,0.196,1.646C50.563,224.38,50.545,224.568,50.518,224.743"/>
		<path clip-path="url(#SVGID_6_)" d="M59.854,215.086c-0.015,0.041-0.019,0.277-0.012,0.71c-0.007,0.351-0.051,0.614-0.134,0.788
			c-0.101,0.27-0.154,0.655-0.163,1.153c-0.003,0.109,0.002,0.278,0.012,0.508c-0.005,0.23-0.007,0.399-0.008,0.507
			c-0.015,0.851-0.161,1.47-0.439,1.857c0.024,0.219,0.034,0.435,0.032,0.65c-0.012,0.676-0.244,1.585-0.696,2.727
			c-0.122,0.039-0.225,0.057-0.307,0.056c-0.162-0.004-0.277-0.098-0.349-0.281c-0.072-0.183-0.139-0.356-0.204-0.52
			c0.044-1.039,0.023-2.555-0.065-4.544l0.123-0.12c-0.089-0.352-0.128-0.744-0.121-1.177c0.005-0.312,0.045-0.764,0.114-1.357
			c0.071-0.595,0.109-1.04,0.113-1.337c0.005-0.189,0-0.371-0.008-0.547c-0.467,1.114-0.796,3-0.99,5.66l-0.169,0.402
			c-0.057,0.135-0.173,0.208-0.348,0.218c-0.053-0.094-0.107-0.143-0.159-0.144c-0.041-0.003-0.114,0.047-0.216,0.148
			c-0.104,0.098-0.19,0.142-0.256,0.127l-0.269,0.237c0.12,0.152,0.375,0.17,0.771,0.057c0.311-0.092,0.472,0.027,0.48,0.352
			c0.009,0.271-0.065,0.634-0.221,1.091c-0.157,0.457-0.237,0.8-0.24,1.03c-0.003,0.163,0.014,0.325,0.051,0.486l-1.402,0.221
			c-0.131-0.272-0.228-0.73-0.292-1.374c-0.062-0.642-0.159-1.101-0.29-1.373c0.082-0.093,0.124-0.192,0.126-0.303
			c0.002-0.094-0.035-0.237-0.114-0.427c-0.078-0.191-0.122-0.334-0.135-0.43c-0.011-0.147-0.058-0.508-0.144-1.076
			c-0.059-0.46-0.088-0.821-0.083-1.075c0.002-0.137,0.012-0.258,0.027-0.366c0.002-0.095-0.052-0.233-0.156-0.419
			c-0.104-0.184-0.156-0.316-0.154-0.397c0.001-0.067,0.028-0.127,0.083-0.181c-0.093-0.111-0.13-0.3-0.112-0.569
			c0.018-0.271-0.02-0.461-0.112-0.569c-0.198,0.522-0.304,1.23-0.32,2.121c-0.007,1.244-0.019,1.963-0.036,2.15l0.14,0.125
			L53.059,220c0.099,0.488,0.144,1.111,0.13,1.867c-0.036,1.365-0.054,2.001-0.053,1.908c-0.191,0.171-0.457,0.255-0.795,0.248
			c-0.419-0.006-0.704,0.03-0.853,0.107c-0.171-0.3-0.253-0.687-0.244-1.159c0.006-0.365,0.068-0.81,0.185-1.336
			c-0.184-0.342-0.27-0.815-0.26-1.425c0.002-0.148,0.021-0.431,0.055-0.851c0.02-0.337,0.024-0.588,0.014-0.749
			c0.135-0.065,0.205-0.138,0.205-0.22c0.002-0.054-0.04-0.146-0.127-0.276c-0.086-0.128-0.128-0.228-0.127-0.296
			c0.002-0.082,0.057-0.161,0.166-0.241l-0.437-6.558c0.261-0.171,0.681-0.252,1.263-0.241c0.634,0.024,1.069-0.01,1.299-0.1
			c0.042-0.027,0.089-0.039,0.143-0.039c0.055,0.002,0.118,0.032,0.191,0.095c0.074,0.062,0.124,0.094,0.15,0.094
			c0.054,0,0.103-0.04,0.145-0.12l0.379,0.373c0.127,0.476,0.247,1.396,0.359,2.763c0.114,1.178,0.295,2.068,0.543,2.667
			c0.331-1.197,0.605-2.2,0.821-3.007l0.441-3.21l3.143-0.068c0.011,0.175,0.05,1.115,0.134,1.658
			c0.072,0.473,0.108,0.859,0.103,1.156c-0.005,0.339-0.058,0.642-0.158,0.91c0.105,0.151,0.157,0.341,0.153,0.569
			C60.023,214.752,59.964,214.938,59.854,215.086"/>
		<path clip-path="url(#SVGID_6_)" d="M66.305,222.193v-0.021c-0.084,0.174-0.136,0.376-0.152,0.605
			c-0.016,0.148-0.02,0.357-0.011,0.628c0.008,0.311,0.011,0.527,0.01,0.649c-0.11-0.002-0.541-0.01-1.297-0.021
			c-0.461-0.008-0.873,0.031-1.24,0.121l-0.378-0.412c-0.112,0.105-0.153,0.192-0.127,0.261c-0.067-0.015-0.378-0.02-0.933-0.016
			c-0.433-0.007-0.756-0.055-0.97-0.139c-0.221,0.228-0.477,0.222-0.771-0.014c-0.107-0.081-0.117-0.221-0.034-0.415
			c0.085-0.195,0.06-0.341-0.073-0.438c0.021-0.432,0.08-1.101,0.176-2.005c0.095-0.809,0.146-1.444,0.154-1.903
			c0.009-0.623-0.033-1.218-0.132-1.787c0.153-0.146,0.321-0.218,0.51-0.214c0.218,0.002,0.472,0.109,0.766,0.317
			c0.413,0.288,0.629,0.437,0.642,0.437l0.118,0.143c0.015-0.04,0.086-0.255,0.215-0.645c0.071-0.256,0.175-0.422,0.312-0.503
			l0.12,0.125c0.055-0.025,0.232-0.151,0.534-0.376c0.231-0.159,0.421-0.534,0.555-0.529c0.151,0,0.289,0.085,0.422,0.25
			c0.229,0.123,0.371,0.61,0.442,0.859c0.07,0.253,0.137,0.5,0.202,0.746c-0.61,0.017-1.111,0-1.501-0.047
			c-0.097,0.147-0.233,0.169-0.408,0.064c-0.172-0.104-0.3-0.089-0.384,0.043c-0.005,0.244-0.013,0.685-0.024,1.319
			c-0.023,0.565-0.029,1.013-0.021,1.338c0.004,0.5,0.037,0.96,0.097,1.38c0.108,0.002,0.621,0.012,1.54,0.027
			C65.3,222.034,65.846,222.09,66.305,222.193 M66.348,212.479c-0.122,0.012-0.257,0.016-0.405,0.014
			c-0.312-0.006-0.724-0.055-1.236-0.144c-0.634-0.091-1.018-0.146-1.153-0.161c-0.193,0.28-0.295,0.678-0.305,1.191
			c-0.018,1.108-0.018,1.588-0.003,1.439c0.188,0.11,0.28,0.316,0.274,0.613c-0.022,0.405-0.025,0.616-0.011,0.629
			c-0.095,0.038-0.145,0.173-0.148,0.402c-0.149-0.056-0.302-0.168-0.461-0.333c-0.213-0.206-0.326,0.493-0.311,0.319l-0.128,0.416
			l-0.12-0.123c-0.109,0.011-0.294-0.046-0.555-0.173c-0.262-0.126-0.445-0.241-0.551-0.354c0.004-0.216,0.04-0.337,0.107-0.363
			l-0.258-0.287l-0.125,0.18c-0.151-1.409-0.114-4.043,0.073-5.527c0.512,0.09,1.08,0.147,1.701,0.171
			c0.419,0.021,1.006,0.031,1.763,0.031c0.866,0.001,1.489,0.004,1.867,0.01c0.158,0.151,0.237,0.349,0.232,0.593
			c-0.001,0.149-0.043,0.389-0.123,0.718C66.392,212.071,66.351,212.316,66.348,212.479"/>
		<path clip-path="url(#SVGID_6_)" d="M43.559,234.454v-0.011c0,0.007-0.034,0.306-0.104,0.895
			c-0.036,0.361-0.123,0.646-0.262,0.854l-0.088-0.071c-0.165,0.344-0.388,0.554-0.671,0.628c-0.136,0.143-0.332,0.221-0.587,0.236
			c-0.151,0.01-0.501-0.035-1.05-0.132c-0.265-0.165-0.41-0.257-0.435-0.274c-0.167-0.125-0.247-0.252-0.239-0.382
			c-0.161-0.164-0.387-0.458-0.473-0.825c-0.104-0.407-0.166-0.429-0.262-0.572c-0.153,0.113-0.208-0.126-0.297-0.271l0.08-0.061
			c-0.05-0.036-0.076-0.077-0.079-0.122c-0.002-0.032,0.013-0.08,0.04-0.143c0.03-0.062,0.043-0.109,0.04-0.142
			c-0.003-0.051-0.033-0.095-0.091-0.129c0.061-0.32,0.118-0.8,0.168-1.438c0.109-0.059,0.16-0.17,0.155-0.338
			c-0.006-0.166,0.017-0.277,0.069-0.331c0.259-0.518,0.678-0.866,1.259-1.048c0.032,0.004,0.187,0.001,0.468-0.008
			c0.191-0.005,0.336,0.012,0.434,0.052c0.173-0.031,0.349,0.013,0.522,0.123c0.151,0.115,0.302,0.228,0.452,0.342
			c0.281,0.305,0.433,0.651,0.456,1.035c0.007,0.127-0.001,0.264-0.025,0.405c-0.208-0.006-0.356,0.13-0.444,0.413l-0.81,0.076
			c-0.086-0.124-0.137-0.289-0.148-0.494c-0.005-0.07-0.004-0.174,0-0.308c0.003-0.137,0.004-0.238,0-0.309
			c-0.013-0.212-0.062-0.379-0.15-0.505l-0.242,0.141c-0.1-0.039-0.15-0.097-0.155-0.174c-0.002-0.025,0.002-0.063,0.011-0.111
			c0.01-0.05,0.014-0.083,0.013-0.103c-0.005-0.083-0.08-0.133-0.225-0.152c-0.099,0.913-0.129,1.852-0.089,2.812
			c0.026,0.032,0.104,0.053,0.232,0.066c0.104,0.012,0.158,0.045,0.161,0.095c0.001,0.021-0.005,0.046-0.02,0.079l-0.08,0.062
			c0.044,0.067,0.07,0.164,0.077,0.285c0.003,0.063,0.001,0.162-0.007,0.295s-0.01,0.231-0.006,0.293
			c0.011,0.193,0.059,0.339,0.145,0.438c-0.009,0.141,0.05,0.238,0.172,0.288c0.078-0.03,0.148-0.046,0.213-0.05
			c0.247-0.015,0.419,0.12,0.515,0.403c0.001,0.007-0.001,0.055-0.003,0.146c0.003,0.052,0.028,0.084,0.078,0.101
			c0.107-0.064,0.16-0.18,0.159-0.347c-0.002-0.192,0.022-0.316,0.074-0.37c-0.014-0.09-0.066-0.219-0.16-0.386
			c-0.094-0.17-0.143-0.301-0.149-0.397c-0.006-0.103,0.025-0.2,0.09-0.294c-0.056-0.018-0.082-0.054-0.078-0.112
			c0.003-0.091,0.004-0.139,0.004-0.145C42.658,234.354,43.105,234.352,43.559,234.454"/>
		<path clip-path="url(#SVGID_6_)" d="M47.229,235.206h-0.01c-0.048,0.092-0.062,0.225-0.046,0.397
			c0.022,0.244,0.034,0.369,0.034,0.375c-0.036,0.015-0.086-0.004-0.147-0.053c-0.095,0.034-0.141,0.094-0.135,0.177
			c0,0.013,0.005,0.033,0.015,0.062c0.001,0.035,0.003,0.06,0.004,0.071c0.003,0.065-0.016,0.114-0.059,0.148
			c-0.107-0.061-0.25-0.099-0.424-0.116c-0.176-0.016-0.343-0.032-0.5-0.046c-0.003-0.813-0.112-1.61-0.328-2.387
			c0,0.007-0.005-0.073-0.014-0.242c0.001-0.12-0.027-0.204-0.081-0.255l-0.075,0.066c-0.001-0.012,0.024-0.034,0.074-0.07
			c0.051-0.036,0.075-0.072,0.072-0.108c-0.001-0.018-0.006-0.035-0.015-0.051l-0.081-0.06c-0.139,0.045-0.202,0.156-0.192,0.333
			c0.007,0.12-0.041,0.204-0.141,0.251c0.038,0.028,0.059,0.064,0.061,0.104c0.002,0.024-0.001,0.059-0.011,0.101
			c-0.009,0.041-0.013,0.074-0.011,0.1c0.003,0.052,0.032,0.096,0.085,0.128c0.003,0.036,0.021,0.358,0.057,0.967
			c0.022,0.388,0.012,0.717-0.031,0.987l0.007,0.152c-0.052-0.002-0.112-0.001-0.177,0.002c-0.075,0.004-0.183,0.016-0.323,0.033
			c-0.138,0.018-0.243,0.027-0.309,0.031c-0.275,0.016-0.467-0.031-0.577-0.138l-0.117-3.341c-0.053-0.163-0.088-0.393-0.106-0.685
			l-0.036-0.645c-0.027-0.315-0.068-0.558-0.122-0.728c0.023-0.116,0.125-0.18,0.302-0.188c0.111-0.007,0.259,0.008,0.449,0.046
			c0.086-0.04,0.208-0.066,0.363-0.075c0.045-0.004,0.114-0.004,0.212-0.004c0.103-0.006,0.178-0.01,0.222-0.013
			c0.29-0.016,0.481-0.105,0.576-0.267c0.134-0.002,0.279,0.041,0.437,0.127c0.157,0.087,0.295,0.134,0.414,0.138
			c0.316,0.185,0.486,0.492,0.511,0.922c0.006,0.096-0.032,0.475-0.112,1.138l-0.542,0.469c0.092,0.17,0.203,0.537,0.332,1.104
			C46.842,234.639,47.006,234.985,47.229,235.206 M46.228,231.405l0.012,0.008c0.009,0.041,0.005-0.105-0.015-0.438
			c-0.009-0.161-0.068-0.277-0.177-0.35c-0.061,0.087,0.009,0.128-0.021,0.329c-0.028,0.203-0.148,0.146-0.218,0.233
			c-0.185,0-0.227,0.113-0.268-0.064c-0.083-0.289-0.155-0.264-0.156-0.269l-0.079,0.047c-0.028,0.025-0.06,0.054-0.095,0.087
			c-0.035,0.032-0.071,0.042-0.109,0.033c0.002,0.036-0.016,0.092-0.052,0.169c-0.037,0.077-0.054,0.129-0.052,0.159
			c0.003,0.055,0.045,0.094,0.13,0.119c-0.015,0.12-0.019,0.246-0.012,0.376c0.005,0.071,0.021,0.236,0.051,0.491
			c0.034,0.201,0.046,0.374,0.04,0.518c0.068,0.002,0.13,0.002,0.19-0.001c0.261-0.016,0.429-0.118,0.507-0.308
			c0.026-0.055,0.056-0.256,0.089-0.598C46.021,231.69,46.099,231.508,46.228,231.405"/>
		<path clip-path="url(#SVGID_6_)" d="M51.439,236.504c-0.106-0.031-0.219-0.042-0.338-0.035c-0.103,0.006-0.243,0.032-0.418,0.077
			c-0.2,0.048-0.335,0.077-0.408,0.087c-0.09-0.12-0.159-0.29-0.208-0.508c-0.087-0.318-0.139-0.498-0.155-0.539
			c0.021-0.036,0.03-0.067,0.028-0.092c-0.004-0.065-0.072-0.119-0.204-0.163c-0.134-0.042-0.2-0.08-0.201-0.109
			c-0.002-0.036,0.067-0.093,0.213-0.174c-0.04-0.033-0.072-0.104-0.097-0.215c-0.025-0.108-0.063-0.179-0.118-0.212
			c-0.085,0.071-0.229,0.123-0.431,0.156c-0.203,0.031-0.336,0.067-0.402,0.108c0.043,0.463,0,1.278-0.183,1.45
			c-0.104-0.012-0.18,0.024-0.227,0.113c-0.069,0.104-0.128,0.168-0.179,0.189l0.07,0.058c-0.057,0.047-0.152,0.069-0.285,0.071
			c-0.208,0.006-0.319,0.009-0.334,0.01l-0.076-0.159l0.312-5.369c-0.016-0.305-0.014-0.511,0.008-0.619
			c-0.03-0.268,0.034-0.439,0.194-0.515c0.107,0.048,0.237,0.066,0.394,0.058c0.125-0.007,0.321-0.041,0.584-0.105
			c0.265-0.062,0.448-0.097,0.553-0.104c0.362-0.021,0.537,0.178,0.524,0.598c-0.011,0.335,0.089,0.769,0.299,1.302
			c0.22,0.572,0.337,1.006,0.354,1.299c0.005,0.089,0.125,0.278,0.123,0.369c-0.153,0.08-0.351,0.136-0.593,0.168
			c-0.215,0.025-0.432,0.051-0.654,0.073c-0.093-0.448-0.304-0.993-0.396-1.438c-0.112-0.531-0.235-0.966-0.365-1.308l-0.142,2.576
			c-0.009,0.222,0.124,0.324,0.398,0.309c0.089-0.005,0.173-0.028,0.253-0.068c0.066-0.021,0.16,0.012,0.284,0.1
			c0.01,0.186,0.065,0.294,0.164,0.323c0.115-0.072,0.266-0.145,0.456-0.215c0.167-0.063,0.331-0.124,0.491-0.181
			c0.103,0.096,0.173,0.244,0.217,0.444c0.053,0.285,0.088,0.449,0.105,0.497c0.022,0.112,0.099,0.354,0.232,0.723
			c0.099,0.293,0.154,0.531,0.165,0.717C51.451,236.34,51.449,236.424,51.439,236.504"/>
		<path clip-path="url(#SVGID_6_)" d="M54.508,230.41h0.011c-0.089,0.131-0.203,0.155-0.341,0.074
			c-0.031-0.006-0.163,0.003-0.401,0.022c-0.199,0.012-0.344,0.001-0.436-0.029c-0.022,0.003-0.067,0.024-0.13,0.066
			c-0.065,0.043-0.11,0.064-0.142,0.066c-0.043,0.004-0.068-0.035-0.073-0.112c-0.001-0.011-0.004-0.062-0.008-0.152
			c-0.004-0.059-0.033-0.1-0.086-0.12l-0.138,0.107c-0.043,0.032-0.064,0.065-0.061,0.102c0.001,0.029,0.026,0.071,0.074,0.126
			c0.047,0.054,0.076,0.093,0.084,0.115c0.001,0.019,0.018,0.286,0.047,0.806c0.011,0.33,0.072,0.592,0.181,0.787
			c0.026-0.03,0.095-0.048,0.202-0.05c0.107-0.004,0.179-0.028,0.214-0.071c0.07,0.061,0.187,0.064,0.351,0.011
			c0.165-0.056,0.284-0.037,0.356,0.056l-0.022,0.791c-0.067-0.009-0.167-0.043-0.295-0.099c-0.039,0.114-0.113,0.188-0.221,0.218
			c-0.045,0.016-0.171,0.027-0.378,0.04c0.006-0.036-0.026-0.073-0.097-0.11c-0.201,0.096-0.277,0.324-0.227,0.686
			c0.006-0.037,0.013,0.026,0.023,0.188c0.006,0.101-0.016,0.174-0.065,0.219c-0.126,0.019-0.285-0.009-0.48-0.084
			c-0.192-0.075-0.332-0.111-0.413-0.106c-0.036,0.002-0.07,0.007-0.1,0.015l-0.208,0.064l-0.333-3.614l-0.039-0.688
			c0.276-0.093,0.62-0.152,1.027-0.176c0.319-0.019,0.736-0.016,1.25,0.008c0.033-0.067,0.094,0.021,0.169,0.017
			c0.036-0.002,0.092,0.003,0.167,0.013c0.075,0.011,0.132,0.015,0.169,0.013c0.044-0.002,0.084-0.011,0.12-0.025l0.053-0.057
			c0.151,0.045,0.23,0.125,0.237,0.236c0.003,0.049-0.012,0.131-0.043,0.245c-0.029,0.116-0.043,0.205-0.04,0.264
			C54.47,230.322,54.483,230.37,54.508,230.41 M53.208,236.441c-0.079,0.041-0.201,0.064-0.364,0.075
			c-0.215,0.013-0.344,0.023-0.389,0.031c-0.023-0.022-0.052-0.004-0.1-0.192c-0.03-0.124-0.108-0.183-0.233-0.174
			c-0.03,0.001-0.066,0.005-0.111,0.014l-0.2,0.013l-0.107-1.83c0.109-0.053,0.245-0.085,0.407-0.095
			c0.157-0.009,0.295,0.007,0.415,0.046c-0.002,0.068,0.092,0.097,0.285,0.083l0.211-0.013
			C53.148,234.914,53.226,235.842,53.208,236.441"/>
		<path clip-path="url(#SVGID_6_)" d="M58.953,230.567l0.012,0.008c-0.106-0.007-0.441,0.016-0.699,0.049
			c-0.221,0.025-0.388,0.029-0.501,0.012c-0.107,0.072-0.147,0.17-0.117,0.293l0.069,0.041c-0.057,0.053-0.077,0.091-0.059,0.121
			l0.059,0.059c-0.013,1.061-0.016,1.647-0.009,1.76c0.016,0.28,0.049,0.526,0.098,0.74c-0.044,0.134-0.061,0.287-0.051,0.46
			c0.007,0.112,0.033,0.291,0.081,0.538c0.048,0.245,0.111,1.052,0.119,1.178c0.005,0.094,0.004,0.186-0.007,0.269
			c-0.102,0.042-0.212,0.066-0.33,0.074c-0.2,0.011-0.415-0.03-0.644-0.125c-0.028,0.025-0.059,0.053-0.095,0.082
			c-0.035,0.029-0.045,0.062-0.028,0.097c-0.073,0.021-0.175-0.008-0.307-0.091c-0.07-1.074-0.261-3.26-0.545-5.47
			c-0.101,0.091-0.284,0.016-0.477,0.04c-0.228,0.024-0.453-0.011-0.54,0.03c-0.111-0.119-0.087-0.154-0.097-0.351
			c-0.012-0.19-0.074-0.661-0.025-0.857c0.011-0.043,0.426-0.019,0.67-0.039c0.333-0.02,0.407,0.061,0.429,0.059
			c0.027-0.043,0.189-0.021,0.307-0.029c0.078,0.037,0.161-0.034,0.163,0.021c0.003,0.035,0,0.261-0.025,0.325
			c-0.026,0.065-0.039,0.112-0.037,0.142c0.005,0.071,0.056-0.033,0.177,0.008c0.134-0.004,0.271-0.008,0.411-0.016
			c0.158,0.015,0.338-0.042,0.324,0.091c0.027-0.037,0.044,0.028,0.269-0.062c0.167-0.076,0.268-0.271,0.236-0.405
			c-0.019-0.073,0.083-0.122,0.02-0.087c0.08-0.045,0.006-0.015,0.094-0.049c0.278,0.026,0.431-0.003,0.483-0.005
			c0.111-0.007,0.388,0.064,0.467,0.024c0.057,0.104,0.086,0.431,0.09,0.61C58.947,230.396,58.952,230.549,58.953,230.567"/>
		<path clip-path="url(#SVGID_6_)" d="M62.556,234.3l-0.002-0.009c-0.039,0.079-0.061,0.171-0.062,0.272
			c-0.005,0.065,0.001,0.158,0.016,0.278c0.015,0.136,0.024,0.23,0.028,0.285c-0.06,0.003-0.298,0.016-0.713,0.042
			c-0.251,0.014-0.475,0.047-0.674,0.102l-0.221-0.168c-0.056,0.053-0.075,0.093-0.059,0.121c-0.037-0.004-0.209,0.006-0.512,0.029
			c-0.237,0.015-0.416,0.006-0.538-0.022c-0.111,0.107-0.252,0.116-0.421,0.024c-0.06-0.031-0.072-0.093-0.033-0.183
			c0.039-0.089,0.021-0.152-0.056-0.189c-0.002-0.19,0.005-0.487,0.027-0.89c0.024-0.36,0.029-0.643,0.018-0.846
			c-0.016-0.273-0.062-0.533-0.134-0.781c0.077-0.07,0.168-0.107,0.271-0.113c0.118-0.009,0.262,0.029,0.432,0.107
			c0.236,0.113,0.357,0.17,0.365,0.17l0.07,0.057c0.007-0.017,0.038-0.115,0.094-0.293c0.031-0.114,0.083-0.192,0.155-0.231
			l0.069,0.049c0.029-0.013,0.123-0.075,0.28-0.186c0.121-0.08,0.205-0.37,0.28-0.374c0.08-0.006,0.161,0.026,0.239,0.093
			c0.129,0.047,0.231,0.373,0.278,0.48s0.093,0.215,0.137,0.319c-0.333,0.031-0.609,0.045-0.824,0.039
			c-0.047,0.069-0.123,0.084-0.22,0.045c-0.099-0.039-0.169-0.027-0.21,0.035c0.007,0.106,0.017,0.301,0.033,0.58
			c0.008,0.251,0.019,0.447,0.034,0.59c0.02,0.221,0.056,0.423,0.103,0.605c0.059-0.005,0.341-0.021,0.844-0.049
			C61.999,234.27,62.3,234.271,62.556,234.3 M62.21,230.093c-0.065,0.008-0.141,0.018-0.223,0.021
			c-0.169,0.01-0.394,0.005-0.68-0.015c-0.35-0.016-0.563-0.024-0.637-0.026c-0.096,0.132-0.109,0.238-0.096,0.465
			c0.029,0.488,0.045,0.701,0.048,0.634c0.107,0.042,0.164,0.129,0.171,0.261c0.004,0.179,0.008,0.27,0.017,0.275
			c-0.051,0.021-0.074,0.083-0.068,0.185c-0.082-0.02-0.171-0.062-0.263-0.129c-0.125-0.082-0.165,0.21-0.161,0.133l-0.056,0.183
			l-0.07-0.052c-0.058,0.01-0.162-0.008-0.309-0.054c-0.148-0.045-0.253-0.09-0.315-0.134c-0.004-0.095,0.009-0.149,0.046-0.165
			l-0.152-0.116l-0.062,0.085c-0.131-0.615-0.22-1.698-0.169-2.359c0.283,0.02,0.615-0.028,0.956-0.043
			c0.229-0.009,0.552-0.025,0.967-0.056c0.474-0.033,0.814-0.058,1.021-0.069c0.093,0.062,0.143,0.146,0.148,0.252
			c0.005,0.066-0.009,0.173-0.041,0.321C62.248,229.838,62.206,230.02,62.21,230.093"/>
		<path clip-path="url(#SVGID_6_)" d="M66.252,233.664l-0.011,0.001c-0.045,0.093-0.061,0.226-0.044,0.396
			c0.023,0.245,0.033,0.37,0.033,0.376c-0.037,0.015-0.085-0.003-0.148-0.053c-0.096,0.034-0.14,0.094-0.135,0.178
			c0.001,0.012,0.006,0.031,0.015,0.061c0.002,0.035,0.003,0.06,0.005,0.072c0.004,0.065-0.017,0.114-0.059,0.148
			c-0.108-0.062-0.25-0.1-0.426-0.116c-0.174-0.017-0.34-0.033-0.499-0.049c-0.003-0.812-0.112-1.607-0.327-2.385
			c0,0.008-0.005-0.074-0.013-0.241c0-0.12-0.028-0.204-0.083-0.255l-0.074,0.067c0-0.012,0.024-0.036,0.074-0.071
			c0.049-0.036,0.075-0.072,0.072-0.108c-0.002-0.018-0.006-0.035-0.015-0.054l-0.082-0.059c-0.138,0.045-0.202,0.155-0.19,0.334
			c0.006,0.12-0.042,0.205-0.143,0.252c0.038,0.027,0.06,0.062,0.062,0.104c0.002,0.024-0.002,0.058-0.012,0.098
			c-0.007,0.044-0.012,0.077-0.01,0.102c0.003,0.053,0.03,0.097,0.085,0.131c0.002,0.035,0.021,0.356,0.056,0.965
			c0.023,0.388,0.013,0.718-0.031,0.988l0.009,0.152c-0.051-0.003-0.112-0.003-0.179,0.002c-0.074,0.005-0.182,0.015-0.322,0.031
			c-0.139,0.018-0.243,0.029-0.31,0.032c-0.273,0.016-0.466-0.029-0.576-0.138l-0.117-3.34c-0.053-0.164-0.089-0.393-0.106-0.685
			l-0.038-0.644c-0.025-0.316-0.065-0.56-0.119-0.729c0.022-0.114,0.123-0.178,0.3-0.188c0.113-0.008,0.261,0.008,0.45,0.046
			c0.087-0.042,0.207-0.067,0.363-0.075c0.044-0.002,0.115-0.004,0.211-0.004c0.104-0.006,0.179-0.011,0.223-0.014
			c0.289-0.016,0.481-0.105,0.576-0.266c0.134-0.001,0.279,0.04,0.435,0.126c0.159,0.088,0.297,0.133,0.418,0.137
			c0.314,0.187,0.485,0.493,0.509,0.924c0.005,0.096-0.032,0.475-0.112,1.138l-0.543,0.47c0.093,0.169,0.204,0.535,0.334,1.103
			C65.865,233.098,66.032,233.443,66.252,233.664 M65.251,229.864l0.012,0.008c0.009,0.041,0.005-0.105-0.015-0.438
			c-0.01-0.163-0.069-0.278-0.177-0.349c-0.06,0.085-0.073-0.117-0.101,0.085c-0.03,0.203-0.078,0.347-0.147,0.436
			c-0.186-0.001-0.229-0.112-0.341-0.268c-0.069-0.099-0.102-0.013-0.102-0.02l-0.051,0.041c-0.028,0.025-0.059,0.055-0.095,0.087
			c-0.035,0.032-0.072,0.043-0.111,0.033c0.004,0.034-0.014,0.093-0.051,0.169c-0.035,0.076-0.052,0.13-0.051,0.16
			c0.003,0.054,0.046,0.092,0.13,0.118c-0.015,0.12-0.02,0.246-0.012,0.379c0.005,0.07,0.02,0.233,0.05,0.489
			c0.035,0.201,0.048,0.374,0.042,0.518c0.068,0.003,0.13,0.002,0.19-0.002c0.259-0.015,0.428-0.117,0.506-0.307
			c0.025-0.056,0.055-0.256,0.088-0.598C65.044,230.146,65.124,229.968,65.251,229.864"/>
		<path clip-path="url(#SVGID_6_)" d="M29.394,218.257v0.009c-0.032,0.311-0.043,0.525-0.031,0.643
			c-0.048,0.02-0.111,0.022-0.186,0.01c-0.1-0.017-0.157-0.024-0.172-0.023c-0.043,0.002-0.078,0.018-0.104,0.045
			c-0.061-0.038-0.102-0.056-0.124-0.05c-0.058,0.035-0.086,0.085-0.083,0.149c0.002,0.028,0.013,0.073,0.033,0.141
			c0.019,0.068,0.031,0.116,0.032,0.148c0.001,0.043-0.007,0.111-0.027,0.205c-0.019,0.093-0.028,0.168-0.025,0.229
			c0.004,0.069,0.019,0.181,0.046,0.331c0.026,0.149,0.041,0.262,0.045,0.338c-0.031,0.147-0.042,0.297-0.035,0.447
			c0.009,0.185,0.061,0.431,0.152,0.74c0.017,0.005,0.032,0.007,0.049,0.005c0.036-0.001,0.082-0.029,0.134-0.08
			c0.051-0.05,0.096-0.076,0.133-0.079c0.027-0.001,0.058,0.004,0.09,0.021c0.098,0.312,0.148,0.517,0.154,0.608
			c0.001,0.044,0.001,0.09-0.001,0.138c-0.146,0.035-0.248-0.015-0.308-0.147c0.008-0.037-0.014-0.077-0.064-0.118l-0.162,0.171
			c0.159,0.024,0.221,0.146,0.189,0.363c-0.014,0.045-0.047,0.068-0.102,0.07c-0.093-0.001-0.135-0.001-0.13-0.001l-0.133-0.237
			l-0.053,0.067c-0.045-0.112-0.096-0.164-0.155-0.161c-0.033,0.002-0.089,0.028-0.171,0.08c-0.081,0.054-0.149,0.081-0.202,0.084
			c-0.043,0.003-0.086-0.009-0.131-0.033c-0.004-0.065-0.012-0.132-0.023-0.202c-0.012-0.07-0.048-0.114-0.108-0.133
			c-0.003-0.17,0.002-0.608,0.013-1.324c0.006-0.541,0-0.979-0.016-1.314c-0.008-0.141-0.017-0.277-0.029-0.41
			c-0.029-0.042-0.057-0.063-0.084-0.062c-0.023,0.002-0.055,0.024-0.098,0.07c-0.044,0.046-0.082,0.066-0.114,0.062
			c-0.004-0.054-0.029-0.142-0.075-0.26c-0.046-0.119-0.071-0.206-0.075-0.26c-0.004-0.092,0.031-0.172,0.103-0.24l0.189,0.046
			c0.075-0.105,0.108-0.286,0.095-0.54c-0.003-0.048-0.01-0.126-0.02-0.23c-0.011-0.104-0.018-0.181-0.02-0.23
			c-0.021-0.415,0.106-0.63,0.382-0.645c0.101-0.005,0.227,0.014,0.375,0.056l0.181,0.047c0.014,0.069,0.024,0.142,0.028,0.217
			c0.005,0.104,0.001,0.254-0.014,0.452c-0.015,0.199-0.019,0.344-0.015,0.433c0.007,0.148,0.032,0.28,0.077,0.397
			c0.043-0.003,0.111-0.027,0.204-0.071c0.092-0.046,0.159-0.069,0.203-0.071C29.286,218.149,29.348,218.183,29.394,218.257
			 M28.83,218.838l-0.009-0.187l-0.058-0.054L28.83,218.838z"/>
		<path clip-path="url(#SVGID_6_)" d="M31.621,217.675l0.008-0.001c-0.018,0.147-0.041,0.295-0.066,0.442
			c-0.029,0.168-0.077,0.301-0.143,0.396c-0.011-0.005-0.078-0.035-0.199-0.096c-0.084-0.044-0.158-0.062-0.222-0.054
			c-0.05,0.317-0.076,0.748-0.081,1.295c-0.003,0.698-0.009,1.12-0.016,1.266c-0.083-0.005-0.143,0.021-0.183,0.08
			c-0.041,0.059-0.079,0.117-0.113,0.179c-0.015,0.034-0.022,0.064-0.02,0.09c0.001,0.045,0.038,0.087,0.111,0.125
			c0.073,0.04,0.11,0.083,0.112,0.133c-0.031,0.115-0.1,0.176-0.202,0.18c-0.048,0.003-0.133-0.013-0.254-0.043
			c-0.119-0.032-0.204-0.047-0.254-0.044l-0.116-2.315c0.046-0.061,0.065-0.104,0.059-0.124l-0.067-0.045
			c0.006-0.098,0.011-0.584,0.015-1.455c0.003-0.59,0.026-1.067,0.067-1.432c-0.005,0.001,0.161-0.011,0.501-0.033
			c0.21-0.011,0.347,0.048,0.407,0.175c0,0.118-0.012,0.318-0.036,0.602c-0.024,0.261-0.033,0.461-0.026,0.602
			c0.009,0.174,0.036,0.328,0.082,0.467C31.166,217.817,31.378,217.688,31.621,217.675 M32.426,218.17
			c0.016,0.215,0.028,0.426,0.04,0.632c0.045,0.896,0.031,1.854-0.042,2.874c-0.078,0.07-0.197,0.085-0.36,0.046
			c-0.16-0.038-0.278-0.021-0.35,0.046c-0.093-0.119-0.146-0.334-0.163-0.648c-0.022-0.453-0.034-0.688-0.035-0.704
			c-0.02-1.135,0.092-2.053,0.333-2.752C32.128,217.735,32.32,217.904,32.426,218.17"/>
		<path clip-path="url(#SVGID_6_)" d="M35.267,219.347c-0.035,0.071-0.05,0.147-0.045,0.227c0.003,0.083,0.007,0.161,0.012,0.237
			c-0.009,0.064-0.026,0.129-0.055,0.198c-0.049-0.015-0.09-0.021-0.124-0.02c-0.037,0.002-0.076,0.016-0.114,0.042
			c-0.039,0.027-0.071,0.041-0.092,0.041c-0.033,0.003-0.076-0.01-0.132-0.033l-0.376-0.549c0.013,0.161,0.05,0.303,0.111,0.425
			c0.03,0.062,0.06,0.126,0.09,0.188c-0.22,0.04-0.345,0.047-0.372,0.02l-0.053,0.068l-0.131-0.172
			c-0.102,0.124-0.125,0.306-0.069,0.547c0.066,0.262,0.07,0.45,0.011,0.567c0.082,0.121,0.179,0.177,0.293,0.172
			c0.049-0.003,0.09-0.02,0.127-0.055c0.053-0.134,0.106-0.266,0.159-0.398c0.079-0.161,0.166-0.244,0.263-0.248
			c0.075-0.005,0.164,0.035,0.266,0.118c0.121,0.042,0.183,0.098,0.187,0.167c0.001,0.044-0.025,0.115-0.083,0.211
			c-0.056,0.098-0.085,0.174-0.082,0.229c0.002,0.021,0.005,0.039,0.011,0.057c-0.078,0.057-0.147,0.145-0.21,0.261
			c-0.062,0.118-0.143,0.197-0.244,0.242c-0.087,0.083-0.169,0.128-0.244,0.132c-0.06,0.003-0.149-0.043-0.267-0.137
			c-0.118-0.095-0.228-0.138-0.331-0.134c-0.042-0.095-0.148-0.201-0.315-0.316c-0.168-0.115-0.273-0.241-0.313-0.374
			c0.001,0.01-0.001-0.032-0.005-0.129c-0.004-0.055-0.027-0.09-0.071-0.103l0.061-0.06c-0.082-0.002-0.123-0.047-0.127-0.141
			c-0.001-0.01-0.002-0.031-0.003-0.065c0.003-0.026,0.005-0.048,0.004-0.064c-0.003-0.064-0.025-0.108-0.064-0.135l-0.014-0.282
			c-0.007-0.146-0.037-0.251-0.089-0.312c0.053-0.344,0.106-0.688,0.159-1.03c0.088-0.399,0.219-0.604,0.391-0.613
			c0.028-0.001,0.054,0.003,0.081,0.012c0.157-0.153,0.343-0.236,0.565-0.247c0.243-0.012,0.512,0.062,0.806,0.22
			C35.069,218.487,35.211,218.899,35.267,219.347 M34.15,218.451l-0.054,0.068c-0.037,0.007-0.083-0.012-0.133-0.058l0.01,0.186
			c-0.083,0.091-0.115,0.23-0.101,0.42c0.016,0.324,0.024,0.479,0.024,0.469l0.243-0.003c0.115-0.066,0.17-0.174,0.161-0.325
			c-0.003-0.076-0.028-0.2-0.079-0.374C34.172,218.661,34.148,218.535,34.15,218.451"/>
		<polygon clip-path="url(#SVGID_6_)" fill-rule="evenodd" clip-rule="evenodd" points="37.169,227.514 37.41,227.652 
			38.229,225.505 37.954,225.414 37.137,227.562 37.375,227.714 		"/>
		<polygon clip-path="url(#SVGID_6_)" fill-rule="evenodd" clip-rule="evenodd" points="37.526,227.217 37.427,227.256 
			37.169,227.514 37.375,227.714 37.638,227.441 37.537,227.493 		"/>
		<polygon clip-path="url(#SVGID_6_)" fill-rule="evenodd" clip-rule="evenodd" points="39.507,227.2 39.623,227.108 
			37.527,227.217 37.536,227.493 39.633,227.387 39.766,227.287 		"/>
		<polygon clip-path="url(#SVGID_6_)" fill-rule="evenodd" clip-rule="evenodd" points="40.454,225.226 40.31,225.048 39.507,227.2 
			39.766,227.288 40.583,225.139 40.441,224.961 		"/>
		<polygon clip-path="url(#SVGID_6_)" fill-rule="evenodd" clip-rule="evenodd" points="38.456,225.294 38.352,225.346 
			40.454,225.226 40.441,224.961 38.349,225.054 38.245,225.106 		"/>
		<polygon clip-path="url(#SVGID_6_)" fill-rule="evenodd" clip-rule="evenodd" points="38.229,225.505 38.197,225.552 
			38.457,225.294 38.246,225.107 37.984,225.367 37.955,225.414 		"/>
		<polygon clip-path="url(#SVGID_6_)" fill-rule="evenodd" clip-rule="evenodd" points="39.969,227.454 40.156,227.372 
			39.706,227.122 39.564,227.377 40.026,227.632 40.229,227.542 39.956,227.45 		"/>
		<polygon clip-path="url(#SVGID_6_)" fill-rule="evenodd" clip-rule="evenodd" points="40.848,225.473 40.774,225.303 
			39.956,227.451 40.229,227.542 41.046,225.394 40.972,225.226 		"/>
		<polygon clip-path="url(#SVGID_6_)" fill-rule="evenodd" clip-rule="evenodd" points="40.583,225.139 40.381,225.229 
			40.848,225.473 40.972,225.226 40.523,224.975 40.311,225.048 		"/>
		<polygon clip-path="url(#SVGID_6_)" points="38.098,225.463 38.084,225.458 38.345,225.198 40.29,225.104 40.311,225.048 
			40.454,225.095 40.583,225.139 40.576,225.162 40.916,225.351 41.046,225.394 40.993,225.533 41.946,227.797 41.14,229.949 
			40.099,227.499 39.965,227.554 39.956,227.45 39.966,227.425 39.638,227.244 39.563,227.377 39.522,227.249 37.527,227.346 
			37.267,227.604 		"/>
		<polygon clip-path="url(#SVGID_6_)" fill-rule="evenodd" clip-rule="evenodd" points="41.01,229.905 41.274,229.893 
			40.233,227.442 39.965,227.554 41.006,230.005 41.27,229.992 40.997,229.901 		"/>
		<polygon clip-path="url(#SVGID_6_)" fill-rule="evenodd" clip-rule="evenodd" points="41.824,227.858 41.814,227.753 
			40.997,229.901 41.269,229.992 42.088,227.846 42.079,227.742 		"/>
		<polygon clip-path="url(#SVGID_6_)" fill-rule="evenodd" clip-rule="evenodd" points="41.046,225.394 40.782,225.406 
			41.824,227.858 42.079,227.742 41.038,225.29 40.774,225.303 		"/>
		<polygon clip-path="url(#SVGID_6_)" fill-rule="evenodd" clip-rule="evenodd" fill="#FFFFFF" points="40.977,225.947 
			41.093,226.203 41.137,226.461 41.124,226.716 41.05,226.98 40.919,227.238 40.744,227.469 40.514,227.679 40.237,227.861 
			40.085,227.927 39.935,227.99 39.766,228.021 39.609,228.056 39.458,228.076 39.294,228.094 39.144,228.073 38.988,228.064 
			38.854,228.034 38.711,227.985 38.574,227.927 38.453,227.856 38.349,227.778 38.231,227.695 38.137,227.593 38.059,227.479 
			37.94,227.226 37.898,226.965 37.898,226.706 37.986,226.447 38.098,226.196 38.28,225.955 38.509,225.743 38.797,225.566 
			38.938,225.497 39.102,225.436 39.255,225.402 39.412,225.368 39.577,225.35 39.727,225.329 39.878,225.35 40.035,225.359 
			40.177,225.405 40.32,225.454 40.45,225.497 40.582,225.571 40.69,225.635 40.804,225.73 40.882,225.844 		"/>
		<polygon clip-path="url(#SVGID_6_)" fill-rule="evenodd" clip-rule="evenodd" points="41.08,226.371 41.196,226.627 
			41.235,226.897 41.224,227.153 41.152,227.404 41.037,227.668 40.842,227.904 40.631,228.108 40.341,228.285 40.185,228.362 
			40.034,228.427 39.878,228.46 39.71,228.493 39.559,228.514 39.411,228.523 39.255,228.514 39.091,228.488 38.957,228.457 
			38.814,228.41 38.689,228.354 38.556,228.28 38.447,228.215 38.348,228.124 38.249,228.033 38.161,227.904 38.041,227.662 
			37.998,227.402 38.015,227.134 38.085,226.884 38.201,226.62 38.379,226.391 38.608,226.179 38.896,226.003 39.053,225.925 
			39.2,225.872 39.359,225.825 39.529,225.796 39.676,225.786 39.827,225.766 39.978,225.786 40.133,225.796 40.281,225.83 
			40.424,225.877 40.549,225.933 40.687,225.996 40.791,226.071 40.908,226.153 40.984,226.268 41.076,226.384 		"/>
		<polygon clip-path="url(#SVGID_6_)" fill-rule="evenodd" clip-rule="evenodd" fill="#FFFFFF" points="41.152,226.669 
			41.275,226.911 41.313,227.184 41.299,227.439 41.231,227.688 41.101,227.948 40.919,228.189 40.708,228.393 40.419,228.569 
			40.276,228.652 40.111,228.713 39.956,228.747 39.787,228.776 39.635,228.8 39.489,228.808 39.333,228.8 39.169,228.772 
			39.035,228.742 38.892,228.695 38.767,228.639 38.632,228.564 38.525,228.5 38.413,228.405 38.33,228.306 38.239,228.189 
			38.119,227.948 38.075,227.687 38.088,227.433 38.161,227.169 38.278,226.906 38.46,226.664 38.697,226.47 38.975,226.287 
			39.131,226.211 39.281,226.145 39.438,226.11 39.606,226.079 39.756,226.06 39.904,226.05 40.073,226.063 40.212,226.079 
			40.358,226.116 40.501,226.163 40.638,226.223 40.759,226.292 40.868,226.357 40.984,226.439 41.062,226.553 		"/>
		<polygon clip-path="url(#SVGID_6_)" fill-rule="evenodd" clip-rule="evenodd" points="41.257,227.092 41.374,227.347 
			41.418,227.607 41.418,227.865 41.33,228.125 41.218,228.376 41.024,228.613 40.808,228.831 40.519,229.007 40.38,229.075 
			40.215,229.136 40.06,229.171 39.904,229.204 39.738,229.223 39.588,229.243 39.438,229.223 39.281,229.214 39.135,229.18 
			38.992,229.131 38.866,229.075 38.733,229.002 38.629,228.923 38.526,228.847 38.43,228.742 38.339,228.626 38.236,228.375 
			38.179,228.11 38.193,227.856 38.266,227.592 38.391,227.346 38.573,227.104 38.802,226.893 39.079,226.712 39.23,226.646 
			39.381,226.582 39.55,226.552 39.706,226.517 39.858,226.495 40.018,226.491 40.172,226.5 40.316,226.503 40.463,226.539 
			40.605,226.587 40.743,226.646 40.863,226.716 40.982,226.798 41.084,226.877 41.18,226.98 41.253,227.105 		"/>
		<polygon clip-path="url(#SVGID_6_)" fill-rule="evenodd" clip-rule="evenodd" fill="#FFFFFF" points="41.408,227.372 
			41.53,227.616 41.573,227.874 41.568,228.146 41.499,228.397 41.369,228.657 41.175,228.895 40.964,229.098 40.686,229.279 
			40.53,229.356 40.366,229.417 40.211,229.452 40.054,229.485 39.89,229.503 39.744,229.513 39.588,229.503 39.437,229.481 
			39.29,229.447 39.147,229.399 39.021,229.343 38.896,229.287 38.78,229.204 38.679,229.114 38.586,229.01 38.508,228.898 
			38.386,228.656 38.334,228.38 38.347,228.124 38.429,227.878 38.547,227.615 38.727,227.372 38.953,227.174 39.229,226.993 
			39.385,226.915 39.536,226.851 39.701,226.833 39.86,226.785 40.012,226.764 40.172,226.76 40.328,226.769 40.466,226.785 
			40.613,226.819 40.768,226.872 40.893,226.928 41.02,226.984 41.137,227.066 41.235,227.158 41.331,227.262 		"/>
		<polygon clip-path="url(#SVGID_6_)" fill-rule="evenodd" clip-rule="evenodd" points="41.525,227.802 41.629,228.052 
			41.686,228.315 41.671,228.57 41.599,228.833 41.472,229.081 41.292,229.323 41.062,229.535 40.785,229.716 40.634,229.781 
			40.469,229.841 40.315,229.875 40.159,229.91 40.007,229.932 39.843,229.948 39.691,229.928 39.537,229.918 39.402,229.888 
			39.248,229.836 39.122,229.78 39.001,229.711 38.883,229.629 38.78,229.551 38.685,229.447 38.607,229.335 38.491,229.08 
			38.435,228.816 38.447,228.561 38.533,228.301 38.646,228.049 38.828,227.809 39.057,227.596 39.346,227.42 39.485,227.351 
			39.649,227.291 39.804,227.256 39.961,227.222 40.125,227.204 40.276,227.183 40.426,227.204 40.57,227.209 40.73,227.248 
			40.873,227.296 40.999,227.353 41.12,227.421 41.235,227.503 41.338,227.581 41.434,227.685 		"/>
		<polygon clip-path="url(#SVGID_6_)" fill-rule="evenodd" clip-rule="evenodd" points="27.234,224.503 27.249,224.421 
			26.425,226.581 26.686,226.667 27.506,224.507 27.51,224.451 		"/>
		<polygon clip-path="url(#SVGID_6_)" fill-rule="evenodd" clip-rule="evenodd" points="27.213,224.393 27.218,224.381 
			27.234,224.503 27.511,224.451 27.482,224.325 27.486,224.312 		"/>
		<polygon clip-path="url(#SVGID_6_)" fill-rule="evenodd" clip-rule="evenodd" points="27.183,224.27 27.212,224.393 
			27.487,224.312 27.455,224.187 		"/>
		
			<rect x="27.243" y="224.029" transform="matrix(-0.2912 -0.9567 0.9567 -0.2912 -179.2081 315.5612)" clip-path="url(#SVGID_6_)" fill-rule="evenodd" clip-rule="evenodd" width="0.117" height="0.285"/>
		<polygon clip-path="url(#SVGID_6_)" fill-rule="evenodd" clip-rule="evenodd" points="27.118,224.031 27.118,224.031 
			27.148,224.157 27.421,224.075 27.389,223.95 27.387,223.963 		"/>
		<polygon clip-path="url(#SVGID_6_)" fill-rule="evenodd" clip-rule="evenodd" points="27.084,223.876 27.084,223.92 
			27.118,224.031 27.387,223.963 27.352,223.85 27.365,223.897 		"/>
		<polygon clip-path="url(#SVGID_6_)" fill-rule="evenodd" clip-rule="evenodd" points="27.359,223.823 27.088,223.776 
			27.084,223.876 27.365,223.897 27.368,223.799 27.096,223.749 27.355,223.836 		"/>
		<polygon clip-path="url(#SVGID_6_)" fill-rule="evenodd" clip-rule="evenodd" fill="#4D494A" points="27.596,230.112 
			27.571,229.974 27.282,230.021 27.302,230.173 		"/>
		<polygon clip-path="url(#SVGID_6_)" fill-rule="evenodd" clip-rule="evenodd" points="28.198,228.312 28.206,228.242 
			27.388,230.39 27.648,230.475 28.466,228.327 28.461,228.254 		"/>
		<polygon clip-path="url(#SVGID_6_)" fill-rule="evenodd" clip-rule="evenodd" points="28.176,228.159 28.198,228.312 
			28.461,228.254 28.441,228.104 28.163,228.155 		"/>
		<polygon clip-path="url(#SVGID_6_)" fill-rule="evenodd" clip-rule="evenodd" points="28.138,228.018 28.163,228.155 
			28.441,228.104 28.402,227.961 		"/>
		<polygon clip-path="url(#SVGID_6_)" fill-rule="evenodd" clip-rule="evenodd" points="28.103,227.861 28.111,227.878 
			28.138,228.018 28.401,227.961 28.379,227.809 28.388,227.827 		"/>
		<polygon clip-path="url(#SVGID_6_)" fill-rule="evenodd" clip-rule="evenodd" points="28.362,227.731 28.086,227.695 
			28.103,227.861 28.387,227.827 28.366,227.677 28.09,227.642 		"/>
		<path clip-path="url(#SVGID_6_)" fill="#4D494A" d="M26.427,226.152l-0.132,0.039L26.427,226.152z"/>
		<polygon clip-path="url(#SVGID_6_)" fill="#4D494A" points="26.563,226.603 26.568,226.591 26.636,226.596 26.686,226.666 
			26.564,226.628 		"/>
		<polygon clip-path="url(#SVGID_6_)" points="26.265,226.067 26.406,226.04 26.409,225.941 27.23,223.782 27.226,223.794 
			27.226,223.881 27.248,223.989 27.291,224.119 27.326,224.231 27.355,224.355 27.376,224.464 27.507,224.507 26.686,226.667 
			26.636,226.596 26.568,226.591 26.563,226.603 26.564,226.628 26.686,226.667 26.565,226.66 26.568,226.759 26.486,226.655 
			26.417,226.65 26.399,226.529 26.45,226.519 26.502,226.38 26.366,226.418 26.327,226.317 26.294,226.191 26.427,226.152 
			26.294,226.191 26.3,226.179 		"/>
		<polygon clip-path="url(#SVGID_6_)" points="26.56,226.482 32.578,226.285 32.732,226.292 32.759,226.304 32.906,226.336 
			32.918,226.343 33.076,226.394 33.226,226.459 33.239,226.463 33.382,226.554 33.408,226.562 33.52,226.657 33.555,226.684 
			33.637,226.781 33.645,226.8 33.702,226.89 33.706,226.92 33.44,227.001 33.398,226.935 33.395,226.947 33.326,226.852 
			33.327,226.852 33.233,226.777 33.255,226.8 33.108,226.723 33.109,226.721 32.957,226.657 32.828,226.613 32.681,226.58 
			32.707,226.588 32.568,226.57 32.568,226.558 26.568,226.759 		"/>
		<polygon clip-path="url(#SVGID_6_)" points="33.434,227.004 33.44,227.001 33.455,227.025 		"/>
		<polygon clip-path="url(#SVGID_6_)" fill-rule="evenodd" clip-rule="evenodd" points="36.647,232.052 36.647,231.967 
			35.826,234.127 36.099,234.218 36.92,232.057 36.92,231.972 		"/>
		<polygon clip-path="url(#SVGID_6_)" fill-rule="evenodd" clip-rule="evenodd" points="34.273,224.876 34.254,224.843 
			36.647,232.052 36.92,231.972 34.527,224.76 34.522,224.731 		"/>
		<polygon clip-path="url(#SVGID_6_)" fill-rule="evenodd" clip-rule="evenodd" points="34.225,224.804 34.217,224.787 
			34.273,224.876 34.522,224.731 34.467,224.64 34.454,224.634 34.21,224.8 		"/>
		<polygon clip-path="url(#SVGID_6_)" fill-rule="evenodd" clip-rule="evenodd" points="34.169,224.713 34.147,224.692 
			34.211,224.8 34.454,224.634 34.363,224.52 34.341,224.496 		"/>
		<polygon clip-path="url(#SVGID_6_)" fill-rule="evenodd" clip-rule="evenodd" points="34.073,224.652 34.052,224.631 
			34.169,224.713 34.341,224.496 34.224,224.415 34.203,224.393 		"/>
		<polygon clip-path="url(#SVGID_6_)" fill-rule="evenodd" clip-rule="evenodd" points="33.943,224.565 33.93,224.562 
			34.073,224.652 34.204,224.393 34.055,224.315 34.043,224.312 		"/>
		<polygon clip-path="url(#SVGID_6_)" fill-rule="evenodd" clip-rule="evenodd" points="33.806,224.506 33.776,224.509 
			33.944,224.565 34.042,224.312 33.892,224.246 33.879,224.242 33.789,224.513 		"/>
		<polygon clip-path="url(#SVGID_6_)" fill-rule="evenodd" clip-rule="evenodd" points="33.649,224.454 33.631,224.462 
			33.79,224.513 33.878,224.242 33.722,224.19 33.645,224.466 		"/>
		<polygon clip-path="url(#SVGID_6_)" fill-rule="evenodd" clip-rule="evenodd" points="33.529,224.427 33.503,224.419 
			33.645,224.466 33.722,224.19 33.563,224.151 33.55,224.146 		"/>
		<polygon clip-path="url(#SVGID_6_)" fill-rule="evenodd" clip-rule="evenodd" points="33.39,224.409 33.386,224.422 
			33.53,224.427 33.551,224.146 33.398,224.123 33.382,224.134 		"/>
		<polygon clip-path="url(#SVGID_6_)" fill-rule="evenodd" clip-rule="evenodd" points="27.52,224.512 27.374,224.604 
			33.39,224.409 33.381,224.134 27.376,224.335 27.249,224.421 27.506,224.507 		"/>
		<polygon clip-path="url(#SVGID_6_)" fill="#4D494A" points="29.031,231.081 29.01,231.069 29.023,231.063 		"/>
		<path clip-path="url(#SVGID_6_)" fill="#4D494A" d="M32.281,232.053l-0.024,0.292L32.281,232.053z"/>
		<path clip-path="url(#SVGID_6_)" d="M27.301,230.173l0.027,0.139l0.052,0.147l0.065,0.108l0.367,0.193l0.367,0.194l0.355,0.191
			l0.358,0.177l0.014,0.005l0.363,0.163l0.362,0.166l0.394,0.159l0.398,0.147l0.013,0.004l0.423,0.112l0.424,0.112l0.014,0.005
			l0.466,0.07l0.48,0.073l0.013,0.004l0.522,0.028l0.019-0.007l0.557,0.014l0.596-0.02l0.632-0.033l0.13-0.086l0.816-2.147
			l-0.138-0.19l0.009,0.277l-0.044-0.055l0.032-0.08l-0.091,0.006l-0.039-0.049l-0.02,0.054l-0.469,0.027h-0.605l-0.558-0.012
			l-0.51-0.026l-0.497-0.065l-0.463-0.081l-0.424-0.113l-0.423-0.112l-0.397-0.147l-0.385-0.144l-0.363-0.164l-0.359-0.177
			l-0.372-0.182l-0.355-0.19l-0.353-0.19l-0.246-0.129l0.007-0.023l-0.129-0.043l-0.035-0.154l-0.026-0.14l-0.011-0.047l0.098-0.212
			l-0.137-0.045l-0.007-0.002l-0.128-0.042l-0.819,2.146l-0.008,0.069l0.022,0.15L27.301,230.173z M27.402,229.831l0.005,0.028
			l-0.015-0.006L27.402,229.831z"/>
		<polygon clip-path="url(#SVGID_6_)" fill-rule="evenodd" clip-rule="evenodd" points="34.769,230.215 35.399,230.181 
			35.391,229.902 34.759,229.938 		"/>
		
			<rect x="34.167" y="229.947" transform="matrix(-0.9996 0.0294 -0.0294 -0.9996 75.6855 459.0572)" clip-path="url(#SVGID_6_)" fill-rule="evenodd" clip-rule="evenodd" width="0.597" height="0.277"/>
		<polygon clip-path="url(#SVGID_6_)" fill-rule="evenodd" clip-rule="evenodd" points="33.602,230.215 33.615,230.217 
			34.171,230.232 34.164,229.956 33.606,229.942 33.623,229.934 33.597,230.227 		"/>
		<polygon clip-path="url(#SVGID_6_)" fill-rule="evenodd" clip-rule="evenodd" points="33.064,230.181 33.079,230.184 
			33.597,230.227 33.624,229.934 33.1,229.901 33.112,229.907 		"/>
		<polygon clip-path="url(#SVGID_6_)" fill-rule="evenodd" clip-rule="evenodd" points="32.58,230.119 33.064,230.181 
			33.112,229.907 32.633,229.833 		"/>
		<polygon clip-path="url(#SVGID_6_)" fill-rule="evenodd" clip-rule="evenodd" points="32.104,230.032 32.119,230.038 
			32.581,230.119 32.632,229.833 32.152,229.76 32.167,229.764 		"/>
		<polygon clip-path="url(#SVGID_6_)" fill-rule="evenodd" clip-rule="evenodd" points="31.682,229.919 32.104,230.032 
			32.166,229.764 31.744,229.651 31.677,229.933 		"/>
		<polygon clip-path="url(#SVGID_6_)" fill-rule="evenodd" clip-rule="evenodd" points="31.24,229.816 31.254,229.82 
			31.677,229.933 31.743,229.651 31.319,229.539 31.332,229.544 		"/>
		<polygon clip-path="url(#SVGID_6_)" fill-rule="evenodd" clip-rule="evenodd" points="30.843,229.668 30.843,229.668 
			31.24,229.816 31.332,229.544 30.934,229.397 30.948,229.4 30.831,229.664 		"/>
		<polygon clip-path="url(#SVGID_6_)" fill-rule="evenodd" clip-rule="evenodd" points="30.449,229.509 30.831,229.664 
			30.948,229.4 30.567,229.244 		"/>
		<polygon clip-path="url(#SVGID_6_)" fill-rule="evenodd" clip-rule="evenodd" points="30.087,229.344 30.449,229.509 
			30.567,229.244 30.199,229.092 		"/>
		<polygon clip-path="url(#SVGID_6_)" fill-rule="evenodd" clip-rule="evenodd" points="29.715,229.161 29.723,229.181 
			30.087,229.344 30.199,229.092 29.828,228.913 29.841,228.917 29.71,229.175 		"/>
		<polygon clip-path="url(#SVGID_6_)" fill-rule="evenodd" clip-rule="evenodd" points="29.356,228.985 29.71,229.175 
			29.84,228.917 29.481,228.739 29.353,228.998 		"/>
		<polygon clip-path="url(#SVGID_6_)" fill-rule="evenodd" clip-rule="evenodd" points="29.002,228.795 29.353,228.998 
			29.481,228.739 29.128,228.55 28.988,228.792 		"/>
		<polygon clip-path="url(#SVGID_6_)" fill-rule="evenodd" clip-rule="evenodd" points="28.634,228.601 28.988,228.792 
			29.128,228.55 28.773,228.357 		"/>
		<polygon clip-path="url(#SVGID_6_)" fill-rule="evenodd" clip-rule="evenodd" points="28.466,228.327 28.267,228.405 
			28.634,228.601 28.773,228.357 28.406,228.164 28.206,228.242 		"/>
		<polygon clip-path="url(#SVGID_6_)" fill-rule="evenodd" clip-rule="evenodd" points="65.938,224.436 65.116,226.597 
			67.799,227.491 68.422,226.057 68.439,225.919 68.444,225.775 68.422,225.623 68.371,225.478 68.285,225.349 68.214,225.209 
			68.103,225.071 67.986,224.946 67.866,224.834 67.73,224.717 67.592,224.612 67.458,224.538 67.329,224.453 67.176,224.388 
			67.043,224.313 66.915,224.271 66.797,224.232 66.658,224.215 66.534,224.203 66.413,224.22 66.292,224.237 66.163,224.279 
			66.048,224.357 		"/>
		<polygon clip-path="url(#SVGID_6_)" fill-rule="evenodd" clip-rule="evenodd" points="67.679,227.423 67.847,227.35 
			65.163,226.454 65.072,226.727 67.757,227.62 67.938,227.552 		"/>
		<polygon clip-path="url(#SVGID_6_)" points="26.265,225.938 26.279,225.897 27.097,223.749 27.355,223.836 26.562,225.959 
			26.546,226.045 26.542,226.015 26.265,226.067 26.262,226.037 		"/>
		<polygon clip-path="url(#SVGID_6_)" fill="#4D494A" points="39.428,231.021 39.38,231.05 39.375,231.046 		"/>
		<path clip-path="url(#SVGID_6_)" d="M26.365,226.418l0.029,0.125l0.005-0.014l0.21-0.043l-0.054,0.138l6.018-0.196l0.142,0.005
			l0.156,0.053l0.156,0.05l0.154,0.054l0.144,0.089l0.116,0.083l0.083,0.101l0.05,0.099l-0.141,0.044l2.392,7.21l0.142,0.001
			l0.002,0.09h0.216l0.203-0.005l0.186,0.005l0.169-0.03l0.172-0.045l0.173-0.084l0.16-0.135l0.19-0.182l0.004-0.015l0.11-0.149
			l0.124-0.16l0.143-0.168l0.1-0.169l0.126-0.203l0.13-0.173l0.106-0.193l0.139-0.201l0.112-0.163l0.16-0.177l0.131-0.173
			l0.15-0.152l0.134-0.142l0.144-0.126l0.137-0.111l0.161-0.09l0.034-0.019l-0.103-0.099l0.103,0.099l0.161-0.177l0.146-0.139
			l0.13-0.129l0.139-0.114l0.135-0.098l0.14-0.083l0.126-0.073l0.139-0.068l0.155-0.035l0.152-0.063l0.156-0.036l0.18-0.025
			l0.199-0.035l0.221-0.013l0.239-0.021l0.232-0.01l0.014,0.006l25.967-1.941l0.151-0.019l0.139-0.028l0.125-0.029l0.131-0.043
			l0.12-0.061l0.126-0.074l0.103-0.095l0.121-0.104l0.026-0.033l0.454-1.059l-0.237-0.152l0.105,0.104l-0.017,0.013l-0.115-0.081
			l-0.113,0.266l-0.077,0.045l-0.099,0.04l-0.117,0.047l-0.109,0.021l-0.137,0.026l-0.139,0.025l-25.98,1.936l-0.165,0.016
			l-0.16,0.006l-0.159,0.004l-0.169,0.027h-0.174l-0.15,0.024l-0.165,0.017l-0.15,0.021l-0.17,0.031l-0.151,0.021l-0.154,0.034
			l-0.174,0.045l-0.156,0.033l-0.165,0.061l-0.164,0.062l-0.155,0.077l-0.307,0.186l-0.312,0.285l-0.328,0.338l-0.316,0.384
			l-0.307,0.401l-0.264,0.359l-0.259,0.346l-0.215,0.26l-0.127,0.029l-0.107,0.022l-0.135,0.013h-0.13h-0.13l-0.111-0.009
			l-0.143-0.005l-0.126-0.014l-2.384-7.192l-0.052-0.104l-0.082-0.101l-0.116-0.081l-0.157-0.095l-0.151-0.065l-0.156-0.053
			l-0.147-0.034l-0.143-0.004l-6.012,0.184l-0.723,1.9l-0.004-0.025L26.365,226.418z M69.573,226.617l0.008-0.019l0.098,0.095
			L69.573,226.617z"/>
		<polygon clip-path="url(#SVGID_6_)" fill-rule="evenodd" clip-rule="evenodd" points="68.664,227.147 68.819,227.111 
			68.957,227.086 69.084,227.055 69.214,227.012 69.334,226.951 69.46,226.879 69.559,226.797 69.68,226.693 69.474,226.493 
			69.382,226.593 69.287,226.663 69.195,226.719 69.097,226.757 69.001,226.783 68.889,226.817 68.768,226.835 68.634,226.848 		"/>
		<polygon clip-path="url(#SVGID_6_)" fill-rule="evenodd" clip-rule="evenodd" points="42.7,229.073 68.664,227.147 
			68.634,226.848 42.667,228.787 		"/>
		<polygon clip-path="url(#SVGID_6_)" fill-rule="evenodd" clip-rule="evenodd" points="40.154,229.534 40.305,229.47 
			40.453,229.417 40.631,229.361 40.777,229.31 40.937,229.264 41.088,229.241 41.24,229.219 41.408,229.189 41.547,229.161 
			41.706,229.159 41.871,229.142 42.035,229.124 42.199,229.107 42.345,229.099 42.523,229.086 42.7,229.073 42.667,228.787 
			42.501,228.806 42.339,228.821 42.166,228.821 42.001,228.839 41.84,228.844 41.685,228.878 41.524,228.882 41.347,228.895 
			41.191,228.93 41.037,228.964 40.868,228.994 40.694,229.037 40.548,229.089 40.371,229.145 40.194,229.201 40.037,229.278 		"/>
		<polygon clip-path="url(#SVGID_6_)" fill-rule="evenodd" clip-rule="evenodd" points="37.828,232.1 37.885,232.062 
			38.001,231.927 38.104,231.789 38.229,231.63 38.36,231.456 38.508,231.275 38.641,231.089 38.792,230.894 38.944,230.701 
			39.099,230.493 39.259,230.315 39.416,230.151 39.575,229.974 39.709,229.831 39.878,229.716 40.016,229.604 40.154,229.534 
			40.037,229.278 39.86,229.379 39.709,229.485 39.532,229.629 39.364,229.789 39.208,229.953 39.052,230.117 38.88,230.333 
			38.727,230.527 38.576,230.722 38.425,230.916 38.292,231.103 38.143,231.283 38.014,231.456 37.889,231.616 37.786,231.755 
			37.69,231.867 37.742,231.84 		"/>
		<polygon clip-path="url(#SVGID_6_)" fill-rule="evenodd" clip-rule="evenodd" fill="#FFFFFF" points="32.854,224.289 
			33.39,224.28 33.434,224.28 28.831,222.745 28.597,222.883 32.85,224.302 		"/>
		<polygon clip-path="url(#SVGID_6_)" fill-rule="evenodd" clip-rule="evenodd" fill="#FFFFFF" points="32.854,224.289 
			27.376,224.464 27.355,224.355 27.326,224.231 27.292,224.119 27.249,223.989 27.226,223.881 27.226,223.794 27.261,223.69 
			27.355,223.62 27.582,223.466 27.832,223.319 28.083,223.172 28.333,223.025 28.571,222.873 28.597,222.883 32.85,224.302 		"/>
		<polygon clip-path="url(#SVGID_6_)" fill="#FFFFFF" points="29.524,227.615 33.255,227.405 34.715,227.993 35.23,229.519 
			35.387,230.046 34.769,230.084 34.164,230.084 33.605,230.072 33.095,230.046 32.599,229.98 32.135,229.899 31.711,229.786 
			31.289,229.674 30.892,229.526 30.505,229.383 30.144,229.219 29.784,229.042 29.413,228.86 29.058,228.67 28.705,228.479 
			28.336,228.284 28.301,228.13 28.275,227.99 28.241,227.836 28.218,227.684 		"/>
		<polygon clip-path="url(#SVGID_6_)" fill-rule="evenodd" clip-rule="evenodd" fill="#FFFFFF" points="38.923,228.042 
			38.976,228.104 39.455,228.393 39.61,228.144 39.13,227.853 39.178,227.926 38.923,228.042 38.941,228.076 38.976,228.104 		"/>
		<polygon clip-path="url(#SVGID_6_)" fill-rule="evenodd" clip-rule="evenodd" fill="#FFFFFF" points="34.656,228.132 
			34.574,228.032 35.258,230.089 35.528,230.006 34.846,227.948 34.772,227.867 34.846,227.948 34.825,227.885 34.772,227.867 		"/>
		<polygon clip-path="url(#SVGID_6_)" fill-rule="evenodd" clip-rule="evenodd" fill="#FFFFFF" points="33.27,227.54 33.2,227.53 
			34.657,228.132 34.772,227.867 33.317,227.267 33.259,227.263 33.317,227.267 33.291,227.259 33.259,227.263 		"/>
		<polygon clip-path="url(#SVGID_6_)" fill-rule="evenodd" clip-rule="evenodd" fill="#FFFFFF" points="28.366,227.677 
			28.228,227.831 33.269,227.54 33.26,227.263 28.22,227.554 28.086,227.695 28.22,227.554 28.059,227.558 28.086,227.695 		"/>
		<polygon clip-path="url(#SVGID_6_)" fill-rule="evenodd" clip-rule="evenodd" fill="#FFFFFF" points="28.406,228.164 
			28.461,228.254 28.458,228.181 28.44,228.104 28.435,228.03 28.414,227.965 28.409,227.893 28.392,227.814 28.371,227.749 
			28.366,227.677 28.086,227.695 28.085,227.783 28.098,227.874 28.12,227.937 28.125,228.011 28.146,228.076 28.163,228.155 
			28.193,228.237 28.198,228.312 28.266,228.405 28.198,228.312 28.218,228.375 28.266,228.405 		"/>
		<polygon clip-path="url(#SVGID_6_)" fill-rule="evenodd" clip-rule="evenodd" fill="#FFFFFF" points="35.26,230.075 
			35.377,229.899 34.759,229.938 34.163,229.956 33.623,229.934 33.1,229.901 32.633,229.833 32.166,229.764 31.743,229.651 
			31.332,229.544 30.934,229.396 30.568,229.244 30.199,229.092 29.841,228.917 29.482,228.739 29.128,228.55 28.773,228.357 
			28.406,228.164 28.267,228.405 28.634,228.601 28.989,228.792 29.353,228.998 29.71,229.175 30.087,229.344 30.449,229.509 
			30.843,229.668 31.24,229.816 31.677,229.933 32.105,230.032 32.58,230.119 33.078,230.184 33.597,230.227 34.172,230.232 
			34.769,230.215 35.412,230.185 35.529,230.006 35.412,230.185 35.59,230.171 35.529,230.006 35.258,230.089 		"/>
		<polygon clip-path="url(#SVGID_6_)" fill-rule="evenodd" clip-rule="evenodd" fill="#FFFFFF" points="42.667,228.787 
			42.477,228.796 42.264,228.826 42.074,228.833 41.867,228.851 41.668,228.886 41.456,228.917 41.244,228.947 41.04,228.994 
			40.837,229.042 40.66,229.098 40.465,229.161 40.284,229.231 40.128,229.31 39.943,229.391 39.791,229.5 39.652,229.611 
			39.826,229.829 39.96,229.729 40.09,229.641 40.232,229.56 40.396,229.5 40.557,229.409 40.729,229.365 40.933,229.318 
			41.11,229.263 41.305,229.241 41.478,229.197 41.686,229.181 41.884,229.146 42.096,229.115 42.303,229.098 42.497,229.077 
			42.7,229.073 		"/>
		<polygon clip-path="url(#SVGID_6_)" fill-rule="evenodd" clip-rule="evenodd" fill="#FFFFFF" points="68.634,226.848 
			42.667,228.787 42.7,229.073 68.664,227.147 		"/>
		<polygon clip-path="url(#SVGID_6_)" fill-rule="evenodd" clip-rule="evenodd" fill="#FFFFFF" points="69.118,225.265 
			69.226,225.417 69.339,225.557 69.391,225.702 69.473,225.846 69.515,225.976 69.529,226.108 69.532,226.225 69.524,226.337 
			69.494,226.429 69.451,226.516 69.394,226.598 69.294,226.68 69.191,226.732 69.026,226.792 68.854,226.835 68.634,226.848 
			68.664,227.147 68.901,227.124 69.109,227.063 69.29,226.993 69.451,226.905 69.598,226.809 69.701,226.67 69.758,226.545 
			69.809,226.39 69.806,226.229 69.814,226.075 69.779,225.919 69.722,225.743 69.658,225.589 69.571,225.417 69.46,225.236 
			69.347,225.098 		"/>
		<polygon clip-path="url(#SVGID_6_)" fill-rule="evenodd" clip-rule="evenodd" fill="#FFFFFF" points="66.022,223.787 
			66.256,223.778 66.495,223.801 66.736,223.853 66.968,223.888 67.19,223.961 67.412,224.034 67.623,224.134 67.822,224.229 
			68.029,224.341 68.218,224.462 68.422,224.588 68.569,224.708 68.725,224.847 68.876,224.998 69.001,225.141 69.119,225.265 
			69.348,225.098 69.213,224.938 69.062,224.787 68.911,224.634 68.743,224.492 68.557,224.358 68.372,224.226 68.181,224.103 
			67.964,223.973 67.741,223.87 67.509,223.778 67.276,223.701 67.031,223.618 66.789,223.565 66.542,223.527 66.259,223.506 
			66.016,223.508 		"/>
		<polygon clip-path="url(#SVGID_6_)" fill-rule="evenodd" clip-rule="evenodd" fill="#FFFFFF" points="43.048,224.578 
			66.023,223.787 66.016,223.508 43.052,224.306 		"/>
		<polygon clip-path="url(#SVGID_6_)" fill-rule="evenodd" clip-rule="evenodd" fill="#FFFFFF" points="39.421,224.001 
			39.637,224.089 39.866,224.136 40.087,224.209 40.316,224.257 40.557,224.31 40.782,224.37 41.028,224.408 41.249,224.439 
			41.479,224.487 41.716,224.508 41.949,224.543 42.179,224.546 42.399,224.577 42.633,224.568 42.844,224.583 43.048,224.578 
			43.052,224.306 42.835,224.306 42.623,224.293 42.425,224.284 42.2,224.268 41.975,224.249 41.751,224.231 41.53,224.201 
			41.298,224.167 41.068,224.119 40.848,224.089 40.623,224.029 40.39,223.994 40.165,223.932 39.926,223.868 39.727,223.816 
			39.508,223.743 39.417,224.015 		"/>
		<polygon clip-path="url(#SVGID_6_)" fill-rule="evenodd" clip-rule="evenodd" fill="#FFFFFF" points="31.671,221.878 
			32.064,221.821 32.435,221.786 32.79,221.76 33.114,221.738 33.421,221.726 33.698,221.761 33.983,221.77 34.221,221.791 
			34.468,221.829 34.697,221.879 34.912,221.921 35.108,221.986 35.315,222.055 35.479,222.124 35.682,222.206 35.842,222.288 
			36.027,222.381 36.214,222.47 36.396,222.575 36.577,222.679 36.759,222.781 36.949,222.904 37.135,222.994 37.337,223.119 
			37.562,223.224 37.778,223.354 38.021,223.448 38.254,223.569 38.517,223.686 38.803,223.782 39.107,223.91 39.417,224.015 
			39.508,223.743 39.196,223.639 38.89,223.522 38.633,223.421 38.366,223.318 38.12,223.192 37.908,223.093 37.692,222.963 
			37.48,222.864 37.273,222.752 37.078,222.644 36.897,222.54 36.707,222.418 36.525,222.314 36.339,222.224 36.153,222.134 
			35.984,222.033 35.799,221.943 35.596,221.86 35.405,221.783 35.197,221.714 34.978,221.64 34.748,221.593 34.516,221.558 
			34.259,221.502 33.996,221.471 33.724,221.468 33.407,221.463 33.106,221.462 32.755,221.475 32.4,221.501 32.025,221.548 
			31.636,221.592 31.657,221.871 		"/>
		<polygon clip-path="url(#SVGID_6_)" fill-rule="evenodd" clip-rule="evenodd" fill="#FFFFFF" points="27.43,223.748 
			27.654,223.591 27.905,223.443 28.156,223.298 28.41,223.138 28.645,223 28.909,222.856 29.155,222.723 29.409,222.606 
			29.683,222.481 29.954,222.355 30.222,222.244 30.499,222.148 30.798,222.076 31.07,221.993 31.368,221.921 31.658,221.871 
			31.636,221.592 31.312,221.655 31.005,221.713 30.702,221.797 30.416,221.876 30.132,221.996 29.837,222.101 29.571,222.214 
			29.297,222.339 29.021,222.477 28.757,222.619 28.51,222.752 28.259,222.899 28.008,223.047 27.758,223.192 27.521,223.345 
			27.283,223.495 27.416,223.743 		"/>
		<polygon clip-path="url(#SVGID_6_)" fill-rule="evenodd" clip-rule="evenodd" fill="#FFFFFF" points="27.377,224.335 
			27.524,224.455 27.481,224.325 27.455,224.187 27.421,224.075 27.39,223.95 27.373,223.871 27.359,223.823 27.382,223.76 
			27.416,223.743 27.282,223.495 27.157,223.611 27.092,223.764 27.074,223.902 27.118,224.031 27.148,224.157 27.183,224.27 
			27.218,224.381 27.238,224.49 27.373,224.605 27.238,224.49 27.243,224.605 27.373,224.605 		"/>
		<polygon clip-path="url(#SVGID_6_)" fill="#FFFFFF" points="37.99,225.354 37.986,225.368 37.984,225.367 		"/>
		<polygon clip-path="url(#SVGID_6_)" fill="#FFFFFF" points="37.925,225.419 37.985,225.367 37.951,225.514 		"/>
		<polygon clip-path="url(#SVGID_6_)" fill="#FFFFFF" points="41.793,227.069 46.53,228.65 46.017,228.681 46.013,228.692 
			41.899,227.321 		"/>
		<path clip-path="url(#SVGID_6_)" fill="#FFFFFF" d="M27.373,224.604l6.017-0.195l0.126,0.013l0.116,0.04l0.157,0.051l0.142,0.049
			l0.129,0.087l0.095,0.06l0.056,0.092l0.044,0.043l2.393,7.209l0.035,0.112l0.117-0.004l0.121-0.017l0.138,0.017l0.169,0.014
			l0.159-0.005l0.156,0.01l0.143-0.039l0.159-0.047l0.13-0.087l0.156-0.166l0.13-0.172l0.121-0.146l0.121-0.146l0.104-0.14
			l0.099-0.126l0.086-0.128l0.105-0.14l0.086-0.129l0.099-0.125l0.1-0.127l0.107-0.107l0.113-0.121l0.13-0.129l0.13-0.131
			l0.164-0.145l-0.088-0.11l0.13-0.107l0.149-0.094l0.169-0.074l0.155-0.078l0.168-0.072l0.19-0.053l0.195-0.065l0.19-0.051
			l0.182-0.026l0.199-0.036l0.211-0.028l0.199-0.034l0.207-0.018l0.208-0.018l0.194-0.021l0.191-0.008l3.338-0.242l-4.113-1.371
			l-0.107-0.252l4.737,1.581l22.125-1.651l0.412-0.064l0.307-0.143l0.212-0.203l0.076-0.233v-0.259l0.005-0.014l-0.073-0.298
			l-0.147-0.295l-0.213-0.315l-0.125-0.142l-0.137-0.147l-0.152-0.15l-0.159-0.127l-0.169-0.143l-0.189-0.12L68.1,224.22
			l-0.204-0.126l-0.217-0.087l-0.212-0.099l-0.233-0.078l-0.247-0.081l-0.232-0.034l-0.243-0.053l-0.252-0.026l-0.244,0.005
			l-3.342,0.123l-19.622,0.672h-0.217l-0.202,0.003l-0.23-0.003l-0.219-0.03l-0.226-0.018l-0.224-0.018l-0.22-0.031l-0.235-0.034
			l-0.233-0.034l-0.229-0.048l-0.229-0.049l-0.229-0.047l-0.237-0.063l-0.224-0.062l-0.214-0.056l-0.22-0.072l-0.312-0.105
			l-0.305-0.117l-0.269-0.103l-0.267-0.104l-0.235-0.12l-0.224-0.104l-0.233-0.123l-0.213-0.099l-0.203-0.125l-0.181-0.104
			l-0.195-0.107l-0.181-0.104l-0.195-0.107l-0.18-0.105l-0.174-0.086l-0.182-0.104l-0.185-0.09l-0.192-0.078l-0.18-0.062
			l-0.207-0.068l-0.221-0.073l-0.211-0.058l-0.235-0.033l-0.246-0.039l-0.251-0.027l-0.281-0.021l-0.299-0.014l-0.305,0.014
			l-0.321,0.008l-0.358,0.038l-0.372,0.035l-0.406,0.052l-0.303,0.043l-0.299,0.073l-0.299,0.073l-0.276,0.096l-0.293,0.104
			l-0.281,0.106l-0.267,0.112l-0.273,0.125l-0.26,0.13l-0.264,0.144l4.199,1.4l-5.652,0.189L27.373,224.604z M65.855,224.726
			l0.026-0.165l0.057-0.125l0.102-0.095l0.156-0.078l0.182-0.025l0.099,0.004l0.114,0.009l0.106,0.021l0.109,0.021l0.13,0.044
			l0.117,0.039l0.125,0.056l0.134,0.073l0.112,0.052l0.117,0.083l0.104,0.077l0.113,0.096l0.116,0.081l0.081,0.1l0.101,0.091
			l0.082,0.099l0.15,0.195l0.078,0.199l0.039,0.1l0.022,0.065l-0.013,0.169l-0.031,0.133l-0.096,0.112l-0.137,0.069l-0.186,0.038
			l-0.104,0.01l-0.107-0.023l-0.126-0.012l-0.134-0.03l-0.117-0.039l-0.129-0.044l-0.138-0.059l-0.123-0.07l-0.124-0.057
			l-0.135-0.073l-0.117-0.081l-0.111-0.097l-0.104-0.078l-0.108-0.106l-0.095-0.104l-0.082-0.101l-0.133-0.204l-0.079-0.196
			l-0.022-0.065L65.855,224.726z M41.937,227.78L41.937,227.78l-0.092-0.074L41.937,227.78z M38.255,225.496l0.152-0.153
			l1.974-0.113l0.418,0.218l0.99,2.33l-0.153,0.196l-2.12,0.151l0.093,0.019l-0.071,0.114l-0.01,0.001l-0.471-0.271l-0.002-0.005
			l0.123-0.057L38.255,225.496z"/>
		<polygon clip-path="url(#SVGID_6_)" fill-rule="evenodd" clip-rule="evenodd" points="64.518,226.224 64.397,226.155 
			64.375,226.046 64.549,226.003 64.583,226.116 64.479,226.038 		"/>
		<polygon clip-path="url(#SVGID_6_)" fill-rule="evenodd" clip-rule="evenodd" points="64.753,226.086 64.727,226.121 
			64.683,226.163 64.63,226.189 64.58,226.215 64.518,226.224 64.48,226.038 64.506,226.046 64.545,226.017 64.592,226.003 
			64.597,225.991 64.588,226.017 64.748,226.099 		"/>
		<polygon clip-path="url(#SVGID_6_)" fill-rule="evenodd" clip-rule="evenodd" points="64.264,225.001 64.278,225.005 
			64.36,225.105 64.467,225.213 64.571,225.334 64.67,225.468 64.751,225.61 64.799,225.771 64.8,225.943 64.748,226.099 
			64.588,226.017 64.622,225.912 64.615,225.81 64.583,225.684 64.506,225.572 64.42,225.442 64.327,225.338 64.216,225.23 
			64.134,225.131 64.146,225.135 		"/>
		<polygon clip-path="url(#SVGID_6_)" fill-rule="evenodd" clip-rule="evenodd" points="62.674,224.542 62.66,224.537 
			62.89,224.542 63.106,224.542 63.309,224.58 63.503,224.603 63.701,224.654 63.888,224.746 64.082,224.854 64.264,225.001 
			64.147,225.135 63.97,225.018 63.801,224.918 63.642,224.837 63.469,224.792 63.278,224.759 63.084,224.736 62.885,224.729 
			62.682,224.732 62.687,224.72 62.655,224.551 		"/>
		<polygon clip-path="url(#SVGID_6_)" fill-rule="evenodd" clip-rule="evenodd" points="45.806,225.427 45.879,225.378 
			62.656,224.551 62.687,224.72 45.905,225.561 45.979,225.513 		"/>
		<polygon clip-path="url(#SVGID_6_)" fill-rule="evenodd" clip-rule="evenodd" points="45.407,226.014 45.225,225.953 
			45.239,225.827 45.273,225.725 45.325,225.612 45.394,225.534 45.484,225.478 45.601,225.431 45.731,225.388 45.879,225.378 
			45.904,225.561 45.765,225.586 45.641,225.617 45.58,225.624 45.519,225.677 45.49,225.725 45.442,225.78 45.416,225.858 
			45.421,225.975 45.239,225.913 		"/>
		<polygon clip-path="url(#SVGID_6_)" points="64.411,225.943 64.364,225.869 64.303,225.791 64.255,225.718 64.19,225.651 
			64.129,225.576 64.064,225.511 64.005,225.434 63.831,225.304 63.654,225.187 63.476,225.113 63.291,225.065 63.098,225.043 
			62.893,225.006 62.694,224.995 62.478,224.995 45.697,225.838 45.835,225.576 45.888,225.568 45.904,225.561 62.686,224.72 
			62.967,224.741 63.201,224.732 63.421,224.763 63.623,224.802 63.81,224.893 63.977,224.991 64.134,225.131 64.311,225.334 
			64.467,225.516 64.58,225.696 64.635,225.83 64.635,225.917 64.597,225.991 64.489,226.056 64.474,226.06 64.467,226.033 		"/>
		<path clip-path="url(#SVGID_6_)" d="M45.226,225.953l0.017,0.163l0.034,0.113l0.048,0.159l0.113,0.183l0.137,0.146l0.177,0.161
			l0.213,0.143l0.238,0.107l0.249,0.067l0.304,0.002l17.239-0.875l0.329-0.034l0.233-0.052l0.17-0.116l0.094-0.157l-0.004-0.159
			l-0.065-0.194l-0.125-0.186l-0.173-0.218l-0.177-0.202l-0.191-0.165l-0.202-0.124l-0.199-0.095l-0.216-0.044l-0.26-0.043H62.95
			l-0.295,0.017l-16.776,0.827v0.005l-0.178,0.009l-0.181,0.068l-0.12,0.104l-0.083,0.116l-0.056,0.126L45.226,225.953z
			 M45.421,225.975l0.021-0.108l0.007-0.017l0.014-0.004h0.087l0.147-0.009l0.14-0.261l0.051-0.008l0.016-0.008l16.783-0.841
			l0.28,0.021l0.234-0.009l0.22,0.03l0.202,0.039l0.188,0.091l0.167,0.099l0.156,0.14l0.178,0.203l0.155,0.182l0.113,0.181
			l0.055,0.134v0.087l-0.038,0.074l-0.108,0.064l-0.015,0.004l-0.189,0.044L64,226.137l-17.244,0.889l-0.013-0.004l-0.242-0.009
			l-0.237-0.065l-0.213-0.1l-0.181-0.104l-0.151-0.151l-0.108-0.152l-0.095-0.146l-0.074-0.125l-0.013-0.092L45.421,225.975z"/>
	</g>
	<rect x="198" display="inline" fill="#919396" width="198" height="270"/>
	<g display="inline">
		<defs>
			<rect id="SVGID_7_" x="198" width="198" height="270"/>
		</defs>
		<clipPath id="SVGID_8_">
			<use xlink:href="#SVGID_7_"  overflow="visible"/>
		</clipPath>
	</g>
	<g display="inline">
		<defs>
			<rect id="SVGID_9_" x="198" width="198" height="270"/>
		</defs>
		<clipPath id="SVGID_10_">
			<use xlink:href="#SVGID_9_"  overflow="visible"/>
		</clipPath>
	</g>
	<g display="inline">
		<defs>
			<rect id="SVGID_11_" x="198" width="198" height="270"/>
		</defs>
		<clipPath id="SVGID_12_">
			<use xlink:href="#SVGID_11_"  overflow="visible"/>
		</clipPath>
	</g>
	<rect y="270" display="inline" fill="#919396" width="198" height="270"/>
	<g display="inline">
		<defs>
			<rect id="SVGID_19_" y="270" width="198" height="270"/>
		</defs>
		<clipPath id="SVGID_14_">
			<use xlink:href="#SVGID_19_"  overflow="visible"/>
		</clipPath>
	</g>
	<g display="inline">
		<defs>
			<rect id="SVGID_21_" y="270" width="198" height="270"/>
		</defs>
		<clipPath id="SVGID_16_">
			<use xlink:href="#SVGID_21_"  overflow="visible"/>
		</clipPath>
	</g>
	<g display="inline">
		<defs>
			<rect id="SVGID_23_" y="270" width="198" height="270"/>
		</defs>
		<clipPath id="SVGID_18_">
			<use xlink:href="#SVGID_23_"  overflow="visible"/>
		</clipPath>
	</g>
	<rect x="198" y="270" display="inline" fill="#919396" width="198" height="270"/>
	<g display="inline">
		<defs>
			<rect id="SVGID_25_" x="198" y="270" width="198" height="270"/>
		</defs>
		<clipPath id="SVGID_20_">
			<use xlink:href="#SVGID_25_"  overflow="visible"/>
		</clipPath>
	</g>
	<g display="inline">
		<defs>
			<rect id="SVGID_27_" x="198" y="270" width="198" height="270"/>
		</defs>
		<clipPath id="SVGID_22_">
			<use xlink:href="#SVGID_27_"  overflow="visible"/>
		</clipPath>
	</g>
	<g display="inline">
		<defs>
			<rect id="SVGID_29_" x="198" y="270" width="198" height="270"/>
		</defs>
		<clipPath id="SVGID_24_">
			<use xlink:href="#SVGID_29_"  overflow="visible"/>
		</clipPath>
	</g>
</g>
<g id="white_background">
	<rect x="21" y="21" fill="#FFFFFF" width="156" height="228"/>
</g>
<g id="images">
	<g id="g3963_3_">
		<g id="g6707_9_" transform="matrix(0.06267019,0,0,0.05331895,119.9796,90.615598)">
			
				<linearGradient id="rect6709_20_" gradientUnits="userSpaceOnUse" x1="-2392.9692" y1="100608.3594" x2="-2392.9692" y2="100392.25" gradientTransform="matrix(0.1739 0 0 -0.105 62.0962 12322.6494)">
				<stop  offset="0" style="stop-color:#000000;stop-opacity:0"/>
				<stop  offset="0.5" style="stop-color:#000000"/>
				<stop  offset="1" style="stop-color:#000000;stop-opacity:0"/>
			</linearGradient>
			
				<rect id="rect6709_15_" x="-948.788" y="1758.773" opacity="0.4021" fill="url(#rect6709_20_)" enable-background="new    " width="1189.483" height="425.587"/>
			
				<radialGradient id="path6711_14_" cx="489.1288" cy="98475.9062" r="105.2233" gradientTransform="matrix(0.1719 0 0 -0.104 164.1356 12210.5771)" gradientUnits="userSpaceOnUse">
				<stop  offset="0" style="stop-color:#000000"/>
				<stop  offset="1" style="stop-color:#000000;stop-opacity:0"/>
			</radialGradient>
			<path id="path6711_12_" opacity="0.4021" fill="url(#path6711_14_)" enable-background="new    " d="M240.695,1758.809v425.551
				c126.85,0.815,306.681-95.378,306.681-212.826C547.377,1854.086,405.824,1758.809,240.695,1758.809z"/>
			
				<radialGradient id="path6713_20_" cx="13944.3506" cy="98475.9062" r="105.2249" gradientTransform="matrix(-0.1719 0 0 -0.104 1440.7301 12210.5771)" gradientUnits="userSpaceOnUse">
				<stop  offset="0" style="stop-color:#000000"/>
				<stop  offset="1" style="stop-color:#000000;stop-opacity:0"/>
			</radialGradient>
			<path id="path6713_15_" opacity="0.4021" fill="url(#path6713_20_)" enable-background="new    " d="M-948.788,1758.809v425.551
				c-126.858,0.815-306.681-95.378-306.681-212.826C-1255.47,1854.086-1113.909,1758.809-948.788,1758.809z"/>
		</g>
		
			<rect id="rect4468_3_" x="127.152" y="190.466" fill="#3466A5" stroke="#193863" stroke-width="2.0895" stroke-linejoin="round" width="19.679" height="7.805"/>
		
			<rect id="rect3522_3_" x="51.096" y="190.352" fill="#3466A5" stroke="#193863" stroke-width="2.0895" stroke-linejoin="round" width="19.682" height="7.805"/>
		<g id="g3512_3_" transform="matrix(2.4056388,0,0,2.8453665,68.913295,3.2774312)">
			<path id="path3514_3_" stroke="#000000" stroke-width="0.8618" stroke-linejoin="round" d="M25.251,36.697v9.385l-0.996,3.192
				v10.268c0,0-0.008,1.544,0.442,1.544c0.583,0.007,1.515,0.012,2.096,0.018c0.391,0.021,0.516-0.669,0.5-1.577l0.003-10.292
				l-0.996-3.111c0-5.893,0-12.658,0-9.384C26,36.088,25.536,36.091,25.251,36.697L25.251,36.697z"/>
			
				<linearGradient id="path3516_1_" gradientUnits="userSpaceOnUse" x1="10.8499" y1="502.3869" x2="11.887" y2="502.3869" gradientTransform="matrix(1.5817 0 0 -2.424 7.9841 1266.2382)">
				<stop  offset="0" style="stop-color:#EDEEEC"/>
				<stop  offset="1" style="stop-color:#EDEEEC;stop-opacity:0"/>
			</linearGradient>
			<path id="path3516_3_" opacity="0.5" fill="url(#path3516_1_)" enable-background="new    " d="M25.257,36.958
				c-0.036-0.601,0.54-0.922,0.57,0c0.008,7.087-0.057,23.566-0.057,23.566c-0.277,0-0.447,0-0.726,0
				c-0.487-0.217-0.314-0.464-0.327-1.277c-0.037-2.14,0-9.982,0-9.982l0.569-2.257C25.286,47.008,25.19,41.23,25.257,36.958z"/>
		</g>
		<g id="g3508_3_" transform="matrix(2.4056388,0,0,2.8453665,7.4074475,3.2774312)">
			<path id="path3484_3_" stroke="#000000" stroke-width="0.8618" stroke-linejoin="round" d="M24.302,36.697v9.385l-0.994,3.192
				v10.268c0,0-0.01,1.544,0.442,1.544c0.582,0.007,1.513,0.012,2.097,0.018c0.389,0.021,0.513-0.669,0.498-1.577l0.004-10.292
				l-0.996-3.111c0-5.893,0-12.658,0-9.384C25.053,36.088,24.587,36.091,24.302,36.697L24.302,36.697z"/>
			
				<linearGradient id="path3486_1_" gradientUnits="userSpaceOnUse" x1="35.8187" y1="502.3869" x2="36.8564" y2="502.3869" gradientTransform="matrix(1.5817 0 0 -2.424 -32.4558 1266.2382)">
				<stop  offset="0" style="stop-color:#EDEEEC"/>
				<stop  offset="1" style="stop-color:#EDEEEC;stop-opacity:0"/>
			</linearGradient>
			<path id="path3486_3_" opacity="0.5" fill="url(#path3486_1_)" enable-background="new    " d="M24.31,36.958
				c-0.035-0.601,0.538-0.922,0.57,0c0.01,7.087-0.056,23.566-0.056,23.566c-0.281,0-0.449,0-0.727,0
				c-0.487-0.217-0.315-0.464-0.328-1.277c-0.038-2.14,0-9.982,0-9.982l0.572-2.257C24.341,47.008,24.243,41.23,24.31,36.958z"/>
		</g>
		
			<linearGradient id="rect2919_1_" gradientUnits="userSpaceOnUse" x1="111.7856" y1="1404.1504" x2="150.5015" y2="1397.01" gradientTransform="matrix(2.3656 0 0 -2.8822 -251.0918 4200.7109)">
			<stop  offset="0" style="stop-color:#7B7E77"/>
			<stop  offset="1" style="stop-color:#3C3D3A"/>
		</linearGradient>
		<path id="rect2919_3_" fill="url(#rect2919_1_)" stroke="#2F3436" stroke-width="2.2502" stroke-linecap="round" d="
			M99.081,147.127c11.85,0.172,29.742,2.035,43.286,5.642l9.132,15.402v20.931c0,1.543-1.068,2.789-2.396,2.789
			c0,0-24.972,3.428-50.062,3.341c-25.089-0.082-50.302-3.677-50.302-3.677c-1.331,0-2.392-1.246-2.392-2.783V168.17l9.476-14.928
			C69.618,149.063,87.122,146.96,99.081,147.127z"/>
		
			<path id="path4444_10_" opacity="0.168" fill="none" stroke="#EDEEEC" stroke-width="2.2502" stroke-linecap="round" enable-background="new    " d="
			M99.081,150.083c11.85,0.173,28.479,1.798,41.924,5.411l8.454,13.863l-100.886,0.123l8.607-13.633
			C70.976,151.662,87.122,149.914,99.081,150.083z"/>
		
			<linearGradient id="path3463_1_" gradientUnits="userSpaceOnUse" x1="131.5762" y1="1394.252" x2="150.3823" y2="1394.4982" gradientTransform="matrix(2.3656 0 0 -2.8822 -251.0918 4194.9551)">
			<stop  offset="0" style="stop-color:#6A95CE"/>
			<stop  offset="1" style="stop-color:#3466A5"/>
		</linearGradient>
		<path id="path3463_3_" fill="url(#path3463_1_)" stroke="#204A87" stroke-width="2.253" stroke-linecap="round" d="
			M99.214,156.354c3.812,0.005,20.996,0.877,29.4,1.523c0.737,0.051,1.669,4.249,2.416,4.312c10.214,0.847,17.182,1.75,18.303,2.41
			l2.438,3.57V189.1c0,1.543-1.068,2.791-2.401,2.791c0,0-25.028,3.428-50.191,3.34c-25.152-0.081-50.434-3.678-50.434-3.678
			c-1.332,0-2.397-1.244-2.397-2.783V168.17l2.495-3.808c1.539-0.432,7.443-1.16,18.185-2c0.814-0.055,1.811-4.614,2.603-4.671
			C76.964,157.173,95.782,156.351,99.214,156.354z"/>
		
			<linearGradient id="rect3513_1_" gradientUnits="userSpaceOnUse" x1="152.8286" y1="1392.9678" x2="123.519" y2="1393.0498" gradientTransform="matrix(2.3656 0 0 -2.8822 -251.0918 4194.9551)">
			<stop  offset="0" style="stop-color:#204A87"/>
			<stop  offset="1" style="stop-color:#204A87;stop-opacity:0"/>
		</linearGradient>
		
			<path id="rect3513_3_" fill="url(#rect3513_1_)" stroke="#3C73AD" stroke-width="2.2502" stroke-linecap="round" stroke-linejoin="round" d="
			M48.658,171.147c0,0,25.111-2.959,50.288-2.959c25.186,0,50.439,2.959,50.439,2.959v18.001c0,0-25.159,2.87-50.343,2.87
			c-25.181,0-50.383-2.87-50.383-2.87V171.147z"/>
		<path id="path4636_3_" opacity="0.1639" fill="none" stroke="#000000" stroke-width="2.248" enable-background="new    " d="
			M49.958,177.292l97.978-0.325"/>
		<path id="rect4439_3_" fill="#2F3436" d="M49.96,175.659h59.149v14.649c0,0-17.086,0.51-31.872-0.169
			c-14.787-0.679-27.277-2.555-27.277-2.555V175.659z"/>
		<path id="path4442_10_" opacity="0.6311" fill="#555853" enable-background="new    " d="M89.276,175.659h19.833v14.649
			c0,0-5.727,0.27-11.487,0.184c-5.757-0.087-8.244,0.05-8.244,0.05L89.276,175.659z"/>
		
			<rect id="rect4508_3_" x="55.826" y="179.787" opacity="0.1434" fill="#FFFFFF" stroke="#FFFFFF" stroke-width="1.7585" stroke-linejoin="round" enable-background="new    " width="7.894" height="3.642"/>
		
			<rect id="rect4510_3_" x="74.839" y="182.03" opacity="0.5369" fill="#90C73E" stroke="#7CC142" stroke-width="0.6367" stroke-linejoin="round" enable-background="new    " width="1.761" height="2.145"/>
		
			<rect id="rect4584_3_" x="79.747" y="182.03" opacity="0.5369" fill="#90C73E" stroke="#7CC142" stroke-width="0.6367" stroke-linejoin="round" enable-background="new    " width="1.76" height="2.145"/>
		
			<rect id="rect4586_3_" x="84.653" y="182.03" opacity="0.5369" fill="#90C73E" stroke="#7CC142" stroke-width="0.6367" stroke-linejoin="round" enable-background="new    " width="1.759" height="2.145"/>
	</g>
</g>
<g id="text">
	<rect x="35.304" y="35.622" fill="none" width="127.392" height="67.154"/>
	<text transform="matrix(1 0 0 1 65.6904 49.9009)"><tspan x="0" y="0" font-family="'HelveticaNeue-CondensedBold'" font-size="20">wireless</tspan><tspan x="9.26" y="22" font-family="'HelveticaNeue-CondensedBold'" font-size="20">router</tspan></text>
</g>
<g id="presentation_layer">
	<g id="set1">
		<path fill="#231F20" d="M184.96,8.919h-172c-2.209,0-4,1.789-4,4v244c0,2.209,1.791,4,4,4h172c2.21,0,4-1.791,4-4v-244
			C188.96,10.708,187.17,8.919,184.96,8.919z M175.625,244.05c0,1.977-1.521,3.575-3.402,3.575H25.778
			c-1.879,0-3.403-1.598-3.403-3.575V25.95c0-1.977,1.523-3.575,3.403-3.575h146.445c1.882,0,3.402,1.598,3.402,3.575V244.05z"/>
	</g>
</g>
<g id="print_layer" display="none">
	<g id="thin_borders" display="inline">
		<path fill="#231F20" d="M396,540H198V270h198V540z M373.625,295.95c0-1.977-1.521-3.575-3.402-3.575H223.778
			c-1.879,0-3.403,1.598-3.403,3.575V514.05c0,1.977,1.523,3.575,3.403,3.575h146.445c1.882,0,3.402-1.598,3.402-3.575V295.95z"/>
		<path fill="#231F20" d="M198,540H0V270h198V540z M175.625,295.95c0-1.977-1.521-3.575-3.402-3.575H25.778
			c-1.879,0-3.403,1.598-3.403,3.575V514.05c0,1.977,1.523,3.575,3.403,3.575h146.445c1.882,0,3.402-1.598,3.402-3.575V295.95z"/>
		<path fill="#231F20" d="M396,270H198V0h198V270z M373.625,25.95c0-1.977-1.521-3.575-3.402-3.575H223.778
			c-1.879,0-3.403,1.598-3.403,3.575V244.05c0,1.977,1.523,3.575,3.403,3.575h146.445c1.882,0,3.402-1.598,3.402-3.575V25.95z"/>
		<path fill="#231F20" d="M198,270H0V0h198V270z M175.625,25.95c0-1.977-1.521-3.575-3.402-3.575H25.778
			c-1.879,0-3.403,1.598-3.403,3.575V244.05c0,1.977,1.523,3.575,3.403,3.575h146.445c1.882,0,3.402-1.598,3.402-3.575V25.95z"/>
	</g>
</g>
<g id="TGC_x5F_Poker_x5F_Template_and_guides" display="none">
	<g id="_x3C_Group_x3E__Guides_one_card_20_" display="inline">
		<g opacity="0.5">
			<g>
				<path fill="#F05A28" d="M0,269v270h198V269H0z M188.96,525.919c0,2.209-1.79,4-4,4h-172c-2.209,0-4-1.791-4-4v-244
					c0-2.211,1.791-4,4-4h172c2.21,0,4,1.789,4,4V525.919z"/>
			</g>
		</g>
	</g>
	<g id="_x3C_Group_x3E__Guides_one_card_9_" display="inline">
		<g opacity="0.5">
			<g>
				<path fill="#F05A28" d="M0-1v270h198V-1H0z M188.96,255.919c0,2.209-1.79,4-4,4h-172c-2.209,0-4-1.791-4-4v-244
					c0-2.211,1.791-4,4-4h172c2.21,0,4,1.789,4,4V255.919z"/>
			</g>
		</g>
		<path fill="none" stroke="#EA222A" d="M8.96,11.919c0-2.211,1.791-4,4-4h172c2.21,0,4,1.789,4,4v244c0,2.209-1.79,4-4,4h-172
			c-2.209,0-4-1.791-4-4V11.919z"/>
		<path fill="none" stroke="#2BA4DD" stroke-dasharray="1.44,1.44" d="M18.466,20.825c0-2.156,1.714-3.9,3.828-3.9h154.084
			c2.114,0,3.828,1.744,3.828,3.9v226.188c0,2.153-1.714,3.899-3.828,3.899H22.294c-2.114,0-3.828-1.746-3.828-3.899V20.825z"/>
		<rect x="170.999" y="165.229" fill="#F9A51B" width="27.001" height="27"/>
		<rect x="107.872" y="242" fill="#F9A51B" width="27.001" height="27"/>
		
			<rect x="36.033" y="35.204" fill="none" stroke="#00ADEE" stroke-width="0.5" stroke-dasharray="8,2" width="126.281" height="198.555"/>
		
			<rect x="45" y="44.153" fill="none" stroke="#6D6E70" stroke-width="0.5" stroke-dasharray="8,2" width="108.281" height="179.788"/>
	</g>
	<g id="_x3C_Group_x3E__Guides_one_card_8_" display="inline">
		<g opacity="0.5">
			<g>
				<path fill="#F05A28" d="M198,269v270h198V269H198z M386.96,525.919c0,2.209-1.79,4-4,4h-172c-2.209,0-4-1.791-4-4v-244
					c0-2.211,1.791-4,4-4h172c2.21,0,4,1.789,4,4V525.919z"/>
			</g>
		</g>
	</g>
	<g id="_x3C_Group_x3E__Guides_one_card_7_" display="inline">
		<g opacity="0.5">
			<g>
				<path fill="#F05A28" d="M198-1v270h198V-1H198z M386.96,255.919c0,2.209-1.79,4-4,4h-172c-2.209,0-4-1.791-4-4v-244
					c0-2.211,1.791-4,4-4h172c2.21,0,4,1.789,4,4V255.919z"/>
			</g>
		</g>
	</g>
</g>
</svg>
