<?xml version="1.0" encoding="utf-8"?>
<!-- Generator: Adobe Illustrator 16.1.0, SVG Export Plug-In . SVG Version: 6.00 Build 0)  -->
<!DOCTYPE svg PUBLIC "-//W3C//DTD SVG 1.1//EN" "http://www.w3.org/Graphics/SVG/1.1/DTD/svg11.dtd">
<svg version="1.1" xmlns="http://www.w3.org/2000/svg" xmlns:xlink="http://www.w3.org/1999/xlink" x="0px" y="0px" width="198px"
	 height="270px" viewBox="0 0 198 270" enable-background="new 0 0 198 270" xml:space="preserve">
<g id="TGC_x5F_Poker_x5F_Template" display="none">
	<g display="inline">
		<rect y="-0.088" fill="#919396" width="198" height="270"/>
		<g>
			<defs>
				<rect id="SVGID_1_" y="-0.088" width="198" height="270"/>
			</defs>
			<clipPath id="SVGID_2_">
				<use xlink:href="#SVGID_1_"  overflow="visible"/>
			</clipPath>
			<path clip-path="url(#SVGID_2_)" fill="#FFFFFF" d="M189.04,256.993c0,2.211-1.791,4-4,4h-172c-2.21,0-4-1.789-4-4v-244
				c0-2.209,1.79-4,4-4h172c2.209,0,4,1.791,4,4V256.993z"/>
			<path clip-path="url(#SVGID_2_)" fill="none" stroke="#EA222A" d="M189.04,256.993c0,2.211-1.791,4-4,4h-172c-2.21,0-4-1.789-4-4
				v-244c0-2.209,1.79-4,4-4h172c2.209,0,4,1.791,4,4V256.993z"/>
			<path clip-path="url(#SVGID_2_)" fill="none" stroke="#2BA4DD" stroke-dasharray="1.44,1.44" d="M179.534,248.087
				c0,2.155-1.714,3.899-3.828,3.899H21.622c-2.114,0-3.828-1.744-3.828-3.899V21.898c0-2.153,1.714-3.899,3.828-3.899h154.084
				c2.114,0,3.828,1.746,3.828,3.899V248.087z"/>
			<rect x="20.001" y="19.839" clip-path="url(#SVGID_2_)" fill="#E7E6E6" width="157" height="54.333"/>
			<rect x="20.002" y="233.002" clip-path="url(#SVGID_2_)" fill="#E7E6E6" width="157" height="16.244"/>
		</g>
		<text transform="matrix(-1 0 0 -1 63.9414 222.9033)"><tspan x="0" y="0" fill="#231F20" font-family="'Arial-Black'" font-size="6">Sa</tspan><tspan x="8.335" y="0" fill="#231F20" font-family="'Arial-Black'" font-size="6">f</tspan><tspan x="10.568" y="0" fill="#231F20" font-family="'Arial-Black'" font-size="6">e Zone</tspan></text>
		<text transform="matrix(-1 0 0 -1 172.3916 216.3027)"><tspan x="0" y="0" fill="#2BA4DD" font-family="'Arial-BoldMT'" font-size="6">DO NOT place</tspan><tspan x="40.342" y="0" fill="#2BA4DD" font-family="'Arial-BoldMT'" font-size="6"> </tspan><tspan x="41.793" y="0" fill="#2BA4DD" font-family="'Arial-BoldMT'" font-size="6">AN</tspan><tspan x="50.459" y="0" fill="#2BA4DD" font-family="'Arial-BoldMT'" font-size="6">Y</tspan><tspan x="54.358" y="0" fill="#2BA4DD" font-family="'Arial-BoldMT'" font-size="6"> important text/images beyond</tspan></text>
		<text transform="matrix(-1 0 0 -1 159.4736 209.7031)"><tspan x="0" y="0" fill="#2BA4DD" font-family="'Arial-BoldMT'" font-size="6">this dotted line.</tspan><tspan x="44.332" y="0" fill="#2BA4DD" font-family="'Arial-BoldMT'" font-size="6"> </tspan><tspan x="45.783" y="0" fill="#2BA4DD" font-family="'Arial-BoldMT'" font-size="6">Anything past the dotted line</tspan></text>
		<text transform="matrix(-1 0 0 -1 165.7188 203.1035)" fill="#2BA4DD" font-family="'Arial-BoldMT'" font-size="6">has the potential for being trimmed. This line is</text>
		<text transform="matrix(-1 0 0 -1 172.7207 196.5039)" fill="#2BA4DD" font-family="'Arial-BoldMT'" font-size="6">provided to prevent trimming of your text/images.</text>
		<text transform="matrix(-1 0 0 -1 61.7754 183.3027)"><tspan x="0" y="0" fill="#231F20" font-family="'Arial-Black'" font-size="6">T</tspan><tspan x="4.075" y="0" fill="#231F20" font-family="'Arial-Black'" font-size="6">rim Line</tspan></text>
		<text transform="matrix(-1 0 0 -1 159.3896 176.7031)" fill="#EA222A" font-family="'Arial-BoldMT'" font-size="6">This is the actual cutline of your final design.</text>
		<text transform="matrix(-1 0 0 -1 68.0449 163.5039)" fill="#231F20" font-family="'Arial-Black'" font-size="6">Bleed Zone</text>
		<text transform="matrix(-1 0 0 -1 152.3994 156.9033)" fill="#919396" font-family="'Arial-BoldMT'" font-size="6">Extend any card artwork/color to the edge </text>
		<text transform="matrix(-1 0 0 -1 162.7188 150.3027)" fill="#919396" font-family="'Arial-BoldMT'" font-size="6">(covering the gray) if you want your design to </text>
		<text transform="matrix(-1 0 0 -1 173.6094 143.7031)"><tspan x="0" y="0" fill="#919396" font-family="'Arial-BoldMT'" font-size="6">extend to the edge on the final print. </tspan><tspan x="105.003" y="0" fill="#919396" font-family="'Arial-BoldMT'" font-size="6">W</tspan><tspan x="110.564" y="0" fill="#919396" font-family="'Arial-BoldMT'" font-size="6">e require a </tspan></text>
		<text transform="matrix(-1 0 0 -1 172.0801 137.1035)" fill="#919396" font-family="'Arial-BoldMT'" font-size="6">bleed of 1/8”. Please use the Safe Zone guideline </text>
		<text transform="matrix(-1 0 0 -1 161.7354 130.5029)" fill="#919396" font-family="'Arial-BoldMT'" font-size="6">  to prevent trimming of essential text/images.</text>
		<text transform="matrix(-1 0 0 -1 158.0693 123.9033)" fill="#919396" font-family="'Arial-BoldMT'" font-size="6">The bleed is to make sure your design/color </text>
		<text transform="matrix(-1 0 0 -1 121.3848 117.3037)" fill="#919396" font-family="'Arial-BoldMT'" font-size="6">extends to the edge of the card.</text>
		<text transform="matrix(-1 0 0 -1 70.6191 104.1035)"><tspan x="0" y="0" fill="#231F20" font-family="'Arial-Black'" font-size="6">Bo</tspan><tspan x="8.669" y="0" fill="#231F20" font-family="'Arial-Black'" font-size="6">r</tspan><tspan x="11.482" y="0" fill="#231F20" font-family="'Arial-Black'" font-size="6">der A</tspan><tspan x="28.817" y="0" fill="#231F20" font-family="'Arial-Black'" font-size="6">r</tspan><tspan x="31.576" y="0" fill="#231F20" font-family="'Arial-Black'" font-size="6">ea</tspan></text>
		<text transform="matrix(-1 0 0 -1 152.3936 97.5029)" fill="#F9A51B" font-family="'Arial-BoldMT'" font-size="6">This is the minimum recommended border</text>
		<text transform="matrix(-1 0 0 -1 153.7256 90.9033)" fill="#F9A51B" font-family="'Arial-BoldMT'" font-size="6">area. If you want a border around the edge </text>
		<text transform="matrix(-1 0 0 -1 141.7129 84.3037)" fill="#F9A51B" font-family="'Arial-BoldMT'" font-size="6">of your card, you will want it to extend </text>
		<text transform="matrix(-1 0 0 -1 166.7148 77.7031)" fill="#F9A51B" font-family="'Arial-BoldMT'" font-size="6">the width of this guide on each side of the card.</text>
		<text transform="matrix(-1 0 0 -1 174.8271 243.1455)"><tspan x="0" y="0" fill="#231F20" font-family="'Arial-BoldMT'" font-size="7">2.5” x 3.5” POKER CARD TEMPL</tspan><tspan x="108.913" y="0" fill="#231F20" font-family="'Arial-BoldMT'" font-size="7">A</tspan><tspan x="113.45" y="0" fill="#231F20" font-family="'Arial-BoldMT'" font-size="7">TES</tspan></text>
		<text transform="matrix(-1 0 0 -1 174.8271 235.1445)"><tspan x="0" y="0" fill="#231F20" font-family="'Arial-BoldMT'" font-size="7">ww</tspan><tspan x="11.59" y="0" fill="#231F20" font-family="'Arial-BoldMT'" font-size="7">w</tspan><tspan x="17.126" y="0" fill="#231F20" font-family="'Arial-BoldMT'" font-size="7">.</tspan><tspan x="19.421" y="0" fill="#231F20" font-family="'Arial-BoldMT'" font-size="7">t</tspan><tspan x="22.095" y="0" fill="#231F20" font-family="'Arial-BoldMT'" font-size="7">h</tspan><tspan x="26.72" y="0" fill="#231F20" font-family="'Arial-BoldMT'" font-size="7">e</tspan><tspan x="30.956" y="0" fill="#231F20" font-family="'Arial-BoldMT'" font-size="7">g</tspan><tspan x="35.582" y="0" fill="#231F20" font-family="'Arial-BoldMT'" font-size="7">amecrafte</tspan><tspan x="71.745" y="0" fill="#231F20" font-family="'Arial-BoldMT'" font-size="7">r</tspan><tspan x="74.435" y="0" fill="#231F20" font-family="'Arial-BoldMT'" font-size="7">.</tspan><tspan x="76.729" y="0" fill="#231F20" font-family="'Arial-BoldMT'" font-size="7">c</tspan><tspan x="80.965" y="0" fill="#231F20" font-family="'Arial-BoldMT'" font-size="7">o</tspan><tspan x="85.591" y="0" fill="#231F20" font-family="'Arial-BoldMT'" font-size="7">m</tspan></text>
		<g>
			<defs>
				<rect id="SVGID_3_" y="-0.088" width="198" height="270"/>
			</defs>
			<clipPath id="SVGID_4_">
				<use xlink:href="#SVGID_3_"  overflow="visible"/>
			</clipPath>
			<rect y="77.141" clip-path="url(#SVGID_4_)" fill="#F9A51B" width="27.001" height="26.085"/>
			<line clip-path="url(#SVGID_4_)" fill="none" stroke="#F9A51B" x1="70.286" y1="102.727" x2="6.007" y2="102.727"/>
			<line clip-path="url(#SVGID_4_)" fill="none" stroke="#EA222A" x1="61.251" y1="182.151" x2="8.78" y2="182.151"/>
			<line clip-path="url(#SVGID_4_)" fill="none" stroke="#919396" x1="67.751" y1="162.233" x2="5.251" y2="162.233"/>
			
				<line clip-path="url(#SVGID_4_)" fill="none" stroke="#2BA4DD" stroke-dasharray="1.44,1.44" x1="63.53" y1="221.901" x2="18" y2="221.901"/>
			<path clip-path="url(#SVGID_4_)" fill="#EA222A" d="M63.519,228.836c0-0.411,0.188-0.812,0.559-1.202l0.059-0.06l3.259-3.432
				c0.692-0.729,1.282-1.289,1.77-1.688c0.486-0.398,0.83-0.598,1.03-0.598c0.211,0,0.473,0.101,0.786,0.299
				c0.312,0.199,0.516,0.404,0.606,0.615c0.078,0.176,0.15,0.547,0.219,1.117c0.068,0.569,0.103,1.188,0.103,1.852
				c0,0.363-0.151,0.697-0.452,1.005c-0.304,0.308-0.638,0.461-1.003,0.461c-0.349,0-0.556-0.318-0.621-0.954
				c-0.009-0.074-0.014-0.129-0.018-0.164c-0.056-0.488-0.121-0.829-0.193-1.023c-0.075-0.192-0.176-0.289-0.302-0.289
				c-0.053,0-0.151,0.057-0.296,0.17c-0.144,0.115-0.316,0.271-0.517,0.468l-3.349,3.317c-0.281,0.28-0.532,0.494-0.754,0.637
				c-0.222,0.146-0.408,0.217-0.564,0.217c-0.116,0-0.198-0.044-0.248-0.131c-0.049-0.088-0.073-0.236-0.073-0.443V228.836z"/>
			<path clip-path="url(#SVGID_4_)" fill="#EA222A" d="M62.304,189.86c0-0.411,0.187-0.813,0.559-1.202l0.059-0.059l3.259-3.432
				c0.692-0.729,1.282-1.291,1.769-1.688c0.487-0.397,0.831-0.597,1.031-0.597c0.211,0,0.473,0.1,0.786,0.299
				c0.312,0.199,0.515,0.404,0.606,0.615c0.077,0.174,0.15,0.547,0.219,1.117c0.068,0.569,0.103,1.186,0.103,1.85
				c0,0.363-0.151,0.699-0.453,1.006c-0.303,0.308-0.637,0.461-1.002,0.461c-0.349,0-0.556-0.317-0.621-0.954
				c-0.009-0.074-0.014-0.128-0.018-0.164c-0.056-0.487-0.121-0.829-0.194-1.022c-0.074-0.193-0.175-0.291-0.301-0.291
				c-0.053,0-0.151,0.058-0.296,0.172c-0.144,0.115-0.316,0.27-0.517,0.468l-3.349,3.317c-0.281,0.28-0.532,0.492-0.754,0.637
				s-0.409,0.217-0.564,0.217c-0.116,0-0.198-0.045-0.248-0.132c-0.049-0.089-0.073-0.236-0.073-0.443V189.86z"/>
			<path clip-path="url(#SVGID_4_)" fill="#EA222A" d="M67.804,170.46c0-0.411,0.187-0.813,0.559-1.202l0.059-0.059l3.259-3.432
				c0.692-0.729,1.282-1.291,1.769-1.688c0.487-0.397,0.831-0.597,1.031-0.597c0.211,0,0.473,0.1,0.786,0.299
				c0.312,0.199,0.515,0.404,0.606,0.615c0.077,0.174,0.15,0.547,0.219,1.117c0.068,0.569,0.103,1.187,0.103,1.85
				c0,0.363-0.151,0.699-0.453,1.006c-0.303,0.308-0.637,0.461-1.002,0.461c-0.349,0-0.556-0.318-0.621-0.954
				c-0.009-0.074-0.014-0.128-0.018-0.164c-0.056-0.487-0.121-0.829-0.194-1.022c-0.074-0.193-0.175-0.291-0.301-0.291
				c-0.053,0-0.151,0.058-0.296,0.172c-0.144,0.115-0.316,0.27-0.517,0.468l-3.349,3.317c-0.281,0.281-0.532,0.492-0.754,0.638
				c-0.222,0.144-0.409,0.216-0.564,0.216c-0.116,0-0.198-0.045-0.248-0.132c-0.049-0.089-0.073-0.236-0.073-0.443V170.46z"/>
			<path clip-path="url(#SVGID_4_)" fill="#EA222A" d="M70.519,109.86c0-0.412,0.188-0.813,0.559-1.203l0.059-0.06l3.259-3.432
				c0.692-0.728,1.282-1.29,1.77-1.688c0.486-0.398,0.83-0.596,1.03-0.596c0.211,0,0.473,0.101,0.786,0.298
				c0.312,0.199,0.516,0.403,0.606,0.614c0.078,0.176,0.15,0.549,0.219,1.117c0.068,0.57,0.103,1.188,0.103,1.853
				c0,0.361-0.151,0.697-0.452,1.003c-0.304,0.31-0.638,0.462-1.003,0.462c-0.349,0-0.556-0.317-0.621-0.954
				c-0.009-0.074-0.014-0.128-0.018-0.164c-0.056-0.487-0.121-0.829-0.193-1.023c-0.075-0.192-0.176-0.289-0.302-0.289
				c-0.053,0-0.151,0.057-0.296,0.173c-0.144,0.112-0.316,0.27-0.517,0.465l-3.349,3.318c-0.281,0.281-0.532,0.494-0.754,0.637
				c-0.222,0.145-0.408,0.216-0.564,0.216c-0.116,0-0.198-0.042-0.248-0.13c-0.049-0.088-0.073-0.236-0.073-0.443V109.86z"/>
		</g>
		<text transform="matrix(-1 0 0 -1 80.4199 62.916)"><tspan x="0" y="0" fill="#231F20" font-family="'Arial-Black'" font-size="6">PLEASE N</tspan><tspan x="33" y="0" fill="#231F20" font-family="'Arial-Black'" font-size="6">O</tspan><tspan x="37.842" y="0" fill="#231F20" font-family="'Arial-Black'" font-size="6">TE:</tspan></text>
		<text transform="matrix(-1 0 0 -1 115.3037 55.7158)"><tspan x="0" y="0" fill="#231F20" font-family="'Arial-Black'" font-size="6">R</tspan><tspan x="4.522" y="0" fill="#231F20" font-family="'Arial-Black'" font-size="6">em</tspan><tspan x="14.524" y="0" fill="#231F20" font-family="'Arial-Black'" font-size="6">o</tspan><tspan x="18.329" y="0" fill="#231F20" font-family="'Arial-Black'" font-size="6">v</tspan><tspan x="21.844" y="0" fill="#231F20" font-family="'Arial-Black'" font-size="6">e this la</tspan><tspan x="48.176" y="0" fill="#231F20" font-family="'Arial-Black'" font-size="6">y</tspan><tspan x="51.745" y="0" fill="#231F20" font-family="'Arial-Black'" font-size="6">er be</tspan><tspan x="68.415" y="0" fill="#231F20" font-family="'Arial-Black'" font-size="6">f</tspan><tspan x="70.647" y="0" fill="#231F20" font-family="'Arial-Black'" font-size="6">o</tspan><tspan x="74.649" y="0" fill="#231F20" font-family="'Arial-Black'" font-size="6">r</tspan><tspan x="77.409" y="0" fill="#231F20" font-family="'Arial-Black'" font-size="6">e </tspan></text>
		<text transform="matrix(-1 0 0 -1 112.5859 48.5156)" fill="#231F20" font-family="'Arial-Black'" font-size="6">sending the file to print. </text>
		<text transform="matrix(-1 0 0 -1 119.8701 41.3164)"><tspan x="0" y="0" fill="#231F20" font-family="'Arial-Black'" font-size="6">T</tspan><tspan x="4.489" y="0" fill="#231F20" font-family="'Arial-Black'" font-size="6">his la</tspan><tspan x="22.155" y="0" fill="#231F20" font-family="'Arial-Black'" font-size="6">y</tspan><tspan x="25.724" y="0" fill="#231F20" font-family="'Arial-Black'" font-size="6">er is p</tspan><tspan x="46.056" y="0" fill="#231F20" font-family="'Arial-Black'" font-size="6">r</tspan><tspan x="48.815" y="0" fill="#231F20" font-family="'Arial-Black'" font-size="6">o</tspan><tspan x="52.619" y="0" fill="#231F20" font-family="'Arial-Black'" font-size="6">vided as a </tspan></text>
		<text transform="matrix(-1 0 0 -1 87.0557 34.1162)"><tspan x="0" y="0" fill="#231F20" font-family="'Arial-Black'" font-size="6">guide </tspan><tspan x="20.007" y="0" fill="#231F20" font-family="'Arial-Black'" font-size="6">f</tspan><tspan x="22.24" y="0" fill="#231F20" font-family="'Arial-Black'" font-size="6">or set u</tspan><tspan x="47.239" y="0" fill="#231F20" font-family="'Arial-Black'" font-size="6">p</tspan><tspan x="51.145" y="0" fill="#231F20" font-family="'Arial-Black'" font-size="6">. </tspan></text>
		<text transform="matrix(-1 0 0 -1 123.416 26.916)"><tspan x="0" y="0" fill="#231F20" font-family="'Arial-Black'" font-size="6">DELETE L</tspan><tspan x="32.004" y="0" fill="#231F20" font-family="'Arial-Black'" font-size="6">A</tspan><tspan x="36.167" y="0" fill="#231F20" font-family="'Arial-Black'" font-size="6">YER AFTER USE.</tspan></text>
		<g>
			<defs>
				<rect id="SVGID_5_" y="-0.088" width="198" height="270"/>
			</defs>
			<clipPath id="SVGID_6_">
				<use xlink:href="#SVGID_5_"  overflow="visible"/>
			</clipPath>
			<path clip-path="url(#SVGID_6_)" fill="#EA222A" d="M80.611,68.605c0-0.41,0.187-0.812,0.559-1.201l0.059-0.059l3.259-3.434
				c0.692-0.727,1.282-1.289,1.769-1.688c0.487-0.396,0.831-0.595,1.031-0.595c0.211,0,0.473,0.099,0.786,0.298
				c0.312,0.198,0.515,0.403,0.606,0.613c0.077,0.177,0.15,0.55,0.219,1.12c0.067,0.567,0.103,1.185,0.103,1.849
				c0,0.364-0.151,0.697-0.453,1.006c-0.303,0.307-0.637,0.461-1.002,0.461c-0.349,0-0.556-0.317-0.622-0.955
				c-0.008-0.072-0.013-0.128-0.017-0.163c-0.056-0.489-0.121-0.829-0.194-1.021c-0.074-0.194-0.175-0.291-0.301-0.291
				c-0.053,0-0.151,0.058-0.296,0.171c-0.144,0.115-0.317,0.27-0.517,0.467l-3.349,3.318c-0.281,0.279-0.532,0.493-0.754,0.637
				c-0.222,0.145-0.409,0.218-0.564,0.218c-0.116,0-0.198-0.046-0.248-0.133c-0.049-0.089-0.073-0.236-0.073-0.444V68.605z"/>
			<path clip-path="url(#SVGID_6_)" fill-rule="evenodd" clip-rule="evenodd" d="M126.42,47.53
				c0-13.244,10.736-23.979,23.979-23.979c13.244,0,23.981,10.734,23.981,23.979c0,13.245-10.737,23.981-23.981,23.981
				C137.156,71.512,126.42,60.775,126.42,47.53"/>
			<path clip-path="url(#SVGID_6_)" fill-rule="evenodd" clip-rule="evenodd" fill="#B7D333" d="M128.583,47.398
				c0-12.04,9.76-21.801,21.8-21.801s21.801,9.761,21.801,21.801c0,12.041-9.761,21.801-21.801,21.801
				S128.583,59.439,128.583,47.398"/>
			<path clip-path="url(#SVGID_6_)" d="M155.051,52.151c0.303-2.671,0.527-4.818,0.678-6.438l0.993-0.044
				c-0.015,0.054-0.022,0.115-0.024,0.183c0,0.121,0.043,0.281,0.135,0.479c0.092,0.197,0.144,0.323,0.156,0.377
				c0.256-0.036,0.504-0.216,0.738-0.533c0.236-0.321,0.449-0.481,0.637-0.479c0.108,0.005,0.23,0.033,0.365,0.088
				c0.176-0.118,0.407-0.169,0.691-0.151c0.256,0.046,0.506,0.083,0.748,0.114c0.009,0.341,0.341,0.635,0.999,0.89
				c-0.003,0.136,0.065,0.336,0.202,0.603c0.139,0.266,0.205,0.452,0.203,0.561c0,0.122-0.049,0.222-0.146,0.302
				c0.014,0.04,0.125,0.293,0.332,0.757c0.143,0.341,0.212,0.632,0.209,0.874c-0.004,0.189-0.047,0.364-0.132,0.525
				c0.116,1.151,0.167,2.14,0.153,2.963c-0.021,1.271-0.203,2.438-0.547,3.501c0.024,0.163,0.035,0.325,0.033,0.486
				c-0.016,0.852-0.31,1.441-0.882,1.771l-0.005,0.263c-0.566,0.723-1.311,1.242-2.236,1.564c-0.554-0.132-1.105-0.255-1.656-0.374
				c-0.619-0.212-1.045-0.578-1.279-1.095c-0.188-0.113-0.279-0.338-0.273-0.674c0.006-0.38-0.037-0.624-0.129-0.733l0.104-0.119
				c-0.108-0.8-0.162-1.287-0.158-1.463c0.009-0.515,0.145-0.877,0.404-1.089c0.094,0.001,0.342,0.086,0.746,0.256
				c0.096-0.093,0.198-0.139,0.306-0.136c0.055,0.001,0.153,0.03,0.293,0.086c0.141,0.057,0.26,0.084,0.354,0.086
				c0.066,0.001,0.135-0.011,0.202-0.036c0.009,1.067-0.024,1.865-0.101,2.392c0.107,0.068,0.215,0.229,0.324,0.471
				c0.113,0.246,0.256,0.384,0.43,0.414c0.111-0.135,0.16-0.222,0.148-0.263l0.362,0.128c0.33-0.359,0.55-0.984,0.659-1.874
				c0.111-1.026,0.252-1.705,0.42-2.041c-0.145-0.151-0.217-0.361-0.211-0.632c0.001-0.095,0.018-0.251,0.048-0.465
				c0.032-0.217,0.047-0.379,0.048-0.487c0.004-0.122-0.008-0.23-0.033-0.325l0.246-0.239c-0.1-0.461-0.158-1.044-0.173-1.748
				c0.011-0.594,0.015-1.188,0.011-1.783c0.012,0,0.129-0.004,0.344-0.015c0.135,0.003,0.232-0.042,0.285-0.137
				c-0.08,0.012-0.154,0.019-0.222,0.016c-0.297-0.004-0.53-0.214-0.698-0.629c-0.17-0.416-0.314-0.625-0.437-0.628
				c-0.136-0.001-0.319,0.124-0.554,0.379c-0.398,0.425-0.605,1.01-0.618,1.752c-0.007,0.365,0.034,0.758,0.122,1.178
				c0.096-0.051,0.146-0.187,0.148-0.402c0.217,0.003,0.354-0.042,0.409-0.134c0.093,0.028,0.134,0.104,0.117,0.223
				c-0.017,0.176-0.024,0.271-0.024,0.285c-0.164,0.05-0.244,0.124-0.248,0.219c0,0.04,0.028,0.116,0.088,0.225
				c0.059,0.108,0.086,0.196,0.086,0.266c0,0.055-0.016,0.106-0.043,0.161l-0.094,0.79c-0.297-0.088-0.938-0.125-1.926-0.116
				c0.029-0.065-0.011-0.154-0.117-0.264c-0.096,0.093-0.197,0.14-0.306,0.136c-0.081-0.002-0.202-0.037-0.362-0.107
				C155.232,52.188,155.119,52.153,155.051,52.151"/>
			<path clip-path="url(#SVGID_6_)" d="M147.482,45.169c0.188,0.084,0.391,0.127,0.605,0.132c0.19,0.003,0.449-0.033,0.774-0.11
				c0.366-0.073,0.617-0.115,0.752-0.128c0.144,0.286,0.245,0.68,0.304,1.182c0.109,0.731,0.178,1.145,0.203,1.241
				c-0.043,0.079-0.064,0.147-0.064,0.2c-0.004,0.149,0.113,0.283,0.348,0.403c0.234,0.117,0.352,0.212,0.35,0.279
				c0,0.08-0.138,0.199-0.41,0.357c0.065,0.081,0.115,0.249,0.144,0.498c0.028,0.251,0.091,0.418,0.183,0.501
				c0.166-0.146,0.435-0.24,0.807-0.28c0.373-0.042,0.619-0.102,0.742-0.18c-0.008-1.055,0.166-1.763,0.523-2.12
				c0.188,0.043,0.333-0.029,0.43-0.217c0.14-0.228,0.256-0.36,0.352-0.399l-0.118-0.144c0.108-0.093,0.286-0.131,0.528-0.113
				c0.379,0.021,0.58,0.03,0.609,0.03l0.113,0.368l-1.32,10.947c-0.013,0.689-0.047,1.158-0.104,1.399
				c0.017,0.609-0.126,0.984-0.425,1.128c-0.188-0.124-0.424-0.189-0.707-0.194c-0.23-0.005-0.59,0.043-1.076,0.145
				c-0.49,0.099-0.828,0.148-1.018,0.146c-0.662-0.013-0.951-0.489-0.869-1.436c0.068-0.756-0.051-1.752-0.354-2.987
				c-0.316-1.331-0.468-2.327-0.457-2.99c0.004-0.2-0.062-0.622-0.046-0.824c0.287-0.156,0.652-0.253,1.099-0.285
				c0.394-0.021,0.793-0.042,1.199-0.06c0.104,1.028,0.285,2.269,0.389,3.284c0.129,1.219,0.287,2.221,0.478,3.01l0.626-5.79
				c0.048-0.5-0.178-0.754-0.678-0.764c-0.162-0.001-0.317,0.036-0.469,0.115c-0.123,0.038-0.291-0.052-0.502-0.272
				c0.008-0.419-0.076-0.67-0.252-0.754c-0.217,0.145-0.504,0.281-0.857,0.411c-0.312,0.116-0.62,0.226-0.919,0.329
				c-0.17-0.233-0.28-0.58-0.327-1.04c-0.057-0.65-0.098-1.029-0.122-1.138c-0.022-0.258-0.128-0.813-0.315-1.669
				c-0.138-0.677-0.203-1.226-0.196-1.646C147.437,45.532,147.455,45.344,147.482,45.169"/>
			<path clip-path="url(#SVGID_6_)" d="M138.146,54.826c0.015-0.041,0.019-0.277,0.013-0.71c0.006-0.351,0.051-0.614,0.133-0.788
				c0.102-0.27,0.154-0.655,0.164-1.153c0.002-0.109-0.002-0.278-0.013-0.508c0.005-0.23,0.007-0.399,0.009-0.507
				c0.014-0.851,0.16-1.47,0.438-1.857c-0.024-0.219-0.034-0.435-0.032-0.65c0.012-0.676,0.244-1.585,0.696-2.727
				c0.122-0.039,0.225-0.057,0.307-0.056c0.162,0.004,0.277,0.098,0.349,0.281c0.072,0.183,0.14,0.356,0.205,0.52
				c-0.045,1.039-0.023,2.555,0.064,4.544l-0.123,0.12c0.089,0.352,0.128,0.744,0.121,1.177c-0.005,0.312-0.045,0.764-0.114,1.357
				c-0.071,0.595-0.108,1.04-0.112,1.337c-0.006,0.189,0,0.371,0.008,0.547c0.467-1.114,0.796-3,0.99-5.66l0.168-0.402
				c0.058-0.135,0.174-0.208,0.349-0.218c0.053,0.094,0.106,0.143,0.159,0.144c0.041,0.003,0.113-0.047,0.216-0.148
				c0.104-0.098,0.19-0.142,0.256-0.127l0.269-0.237c-0.119-0.152-0.375-0.17-0.771-0.057c-0.312,0.092-0.472-0.027-0.479-0.352
				c-0.01-0.271,0.064-0.634,0.221-1.091s0.236-0.8,0.24-1.03c0.002-0.163-0.015-0.325-0.051-0.486l1.401-0.221
				c0.131,0.272,0.228,0.73,0.292,1.374c0.062,0.642,0.158,1.101,0.29,1.373c-0.082,0.093-0.124,0.192-0.126,0.303
				c-0.002,0.094,0.035,0.237,0.113,0.427c0.078,0.191,0.123,0.334,0.136,0.43c0.011,0.147,0.058,0.508,0.144,1.076
				c0.059,0.46,0.088,0.821,0.084,1.075c-0.003,0.137-0.013,0.258-0.027,0.366c-0.002,0.095,0.052,0.233,0.156,0.419
				c0.104,0.184,0.155,0.316,0.153,0.397c-0.001,0.067-0.028,0.127-0.083,0.181c0.094,0.111,0.13,0.3,0.112,0.569
				c-0.019,0.271,0.02,0.461,0.112,0.569c0.197-0.522,0.304-1.23,0.319-2.121c0.007-1.244,0.019-1.963,0.036-2.15l-0.141-0.125
				l0.145-0.118c-0.1-0.488-0.145-1.111-0.13-1.867c0.036-1.365,0.054-2.001,0.053-1.908c0.191-0.171,0.457-0.255,0.796-0.248
				c0.418,0.006,0.703-0.03,0.853-0.107c0.171,0.3,0.253,0.687,0.243,1.159c-0.006,0.365-0.067,0.81-0.185,1.336
				c0.185,0.342,0.271,0.815,0.261,1.425c-0.002,0.148-0.021,0.431-0.056,0.851c-0.021,0.337-0.024,0.588-0.014,0.749
				c-0.136,0.065-0.205,0.138-0.205,0.22c-0.002,0.054,0.04,0.146,0.127,0.276c0.086,0.128,0.128,0.228,0.127,0.296
				c-0.002,0.082-0.058,0.161-0.166,0.241l0.437,6.558c-0.261,0.171-0.681,0.252-1.263,0.241c-0.634-0.024-1.069,0.01-1.299,0.1
				c-0.042,0.027-0.089,0.039-0.144,0.039c-0.055-0.002-0.117-0.032-0.19-0.095c-0.074-0.062-0.124-0.094-0.149-0.094
				c-0.055,0-0.104,0.04-0.146,0.12l-0.379-0.373c-0.127-0.476-0.247-1.396-0.359-2.763c-0.114-1.178-0.295-2.068-0.543-2.667
				c-0.331,1.197-0.604,2.2-0.821,3.007l-0.44,3.21l-3.144,0.068c-0.011-0.175-0.05-1.115-0.134-1.658
				c-0.071-0.473-0.108-0.859-0.103-1.156c0.005-0.339,0.058-0.642,0.158-0.91c-0.105-0.151-0.157-0.341-0.153-0.569
				C137.977,55.16,138.035,54.974,138.146,54.826"/>
			<path clip-path="url(#SVGID_6_)" d="M131.695,47.719v0.021c0.084-0.174,0.136-0.376,0.152-0.605
				c0.016-0.148,0.02-0.357,0.011-0.628c-0.009-0.311-0.011-0.527-0.011-0.649c0.111,0.002,0.541,0.01,1.298,0.021
				c0.461,0.008,0.872-0.031,1.239-0.121l0.379,0.412c0.111-0.105,0.152-0.192,0.127-0.261c0.066,0.015,0.377,0.02,0.933,0.016
				c0.433,0.007,0.756,0.055,0.97,0.139c0.221-0.228,0.478-0.222,0.771,0.014c0.107,0.081,0.117,0.221,0.033,0.415
				c-0.084,0.195-0.06,0.341,0.074,0.438c-0.021,0.432-0.08,1.101-0.177,2.005c-0.095,0.809-0.146,1.444-0.153,1.903
				c-0.01,0.623,0.033,1.218,0.131,1.787c-0.152,0.146-0.32,0.218-0.51,0.214c-0.218-0.002-0.472-0.109-0.766-0.317
				c-0.413-0.288-0.629-0.437-0.643-0.437l-0.117-0.143c-0.016,0.04-0.086,0.255-0.215,0.645c-0.071,0.256-0.176,0.422-0.312,0.503
				l-0.119-0.125c-0.056,0.025-0.232,0.151-0.535,0.376c-0.23,0.159-0.42,0.534-0.555,0.529c-0.15,0-0.289-0.085-0.422-0.25
				c-0.229-0.123-0.371-0.61-0.441-0.859c-0.07-0.253-0.138-0.5-0.203-0.746c0.61-0.017,1.111,0,1.502,0.047
				c0.097-0.147,0.232-0.169,0.408-0.064c0.172,0.104,0.299,0.089,0.383-0.043c0.006-0.244,0.014-0.685,0.024-1.319
				c0.022-0.565,0.029-1.013,0.021-1.338c-0.004-0.5-0.036-0.96-0.096-1.38c-0.109-0.002-0.621-0.012-1.541-0.027
				C132.7,47.878,132.154,47.822,131.695,47.719 M131.652,57.433c0.122-0.012,0.257-0.016,0.404-0.014
				c0.312,0.006,0.725,0.055,1.236,0.144c0.635,0.091,1.019,0.146,1.153,0.161c0.192-0.28,0.295-0.678,0.306-1.191
				c0.018-1.108,0.018-1.588,0.002-1.439c-0.188-0.11-0.279-0.316-0.273-0.613c0.021-0.405,0.025-0.616,0.011-0.629
				c0.095-0.038,0.146-0.173,0.147-0.402c0.149,0.056,0.303,0.168,0.461,0.333c0.214,0.206,0.326-0.493,0.312-0.319l0.128-0.416
				l0.12,0.123c0.108-0.011,0.294,0.046,0.556,0.173c0.262,0.126,0.444,0.241,0.551,0.354c-0.004,0.216-0.041,0.337-0.107,0.363
				l0.258,0.287l0.125-0.18c0.151,1.409,0.114,4.043-0.072,5.527c-0.513-0.09-1.08-0.147-1.701-0.171
				c-0.42-0.021-1.006-0.031-1.764-0.031c-0.865-0.001-1.488-0.004-1.867-0.01c-0.157-0.151-0.236-0.349-0.231-0.593
				c0.001-0.149,0.043-0.389,0.123-0.718C131.608,57.841,131.649,57.596,131.652,57.433"/>
			<path clip-path="url(#SVGID_6_)" d="M154.441,35.458v0.011c0-0.007,0.034-0.306,0.104-0.895c0.037-0.361,0.123-0.646,0.263-0.854
				l0.088,0.071c0.165-0.344,0.388-0.554,0.671-0.628c0.137-0.143,0.332-0.221,0.587-0.236c0.151-0.01,0.501,0.035,1.05,0.132
				c0.266,0.165,0.41,0.257,0.436,0.274c0.166,0.125,0.246,0.252,0.238,0.382c0.162,0.164,0.387,0.458,0.474,0.825
				c0.104,0.407,0.166,0.429,0.262,0.572c0.153-0.113,0.208,0.126,0.297,0.271l-0.079,0.061c0.049,0.036,0.075,0.077,0.078,0.122
				c0.002,0.032-0.013,0.08-0.04,0.143c-0.03,0.062-0.043,0.109-0.04,0.142c0.004,0.051,0.033,0.095,0.092,0.129
				c-0.062,0.32-0.119,0.8-0.168,1.438c-0.109,0.059-0.16,0.17-0.156,0.338c0.007,0.166-0.016,0.277-0.068,0.331
				c-0.259,0.518-0.678,0.866-1.259,1.048c-0.032-0.004-0.187-0.001-0.468,0.008c-0.191,0.005-0.336-0.012-0.435-0.052
				c-0.173,0.031-0.349-0.013-0.522-0.123c-0.15-0.115-0.301-0.228-0.451-0.342c-0.281-0.305-0.434-0.651-0.456-1.035
				c-0.007-0.127,0.001-0.264,0.024-0.405c0.209,0.006,0.356-0.13,0.444-0.413l0.81-0.076c0.086,0.124,0.138,0.289,0.148,0.494
				c0.005,0.07,0.004,0.174,0,0.308c-0.003,0.137-0.004,0.238,0,0.309c0.014,0.212,0.062,0.379,0.15,0.505l0.242-0.141
				c0.1,0.039,0.149,0.097,0.154,0.174c0.002,0.025-0.002,0.063-0.011,0.111c-0.011,0.05-0.015,0.083-0.013,0.103
				c0.005,0.083,0.08,0.133,0.225,0.152c0.1-0.913,0.129-1.852,0.089-2.812c-0.026-0.032-0.104-0.053-0.231-0.066
				c-0.104-0.012-0.158-0.045-0.161-0.095c-0.001-0.021,0.005-0.046,0.021-0.079l0.079-0.062c-0.044-0.067-0.069-0.164-0.077-0.285
				c-0.002-0.063,0-0.162,0.008-0.295s0.01-0.231,0.006-0.293c-0.012-0.193-0.06-0.339-0.146-0.438
				c0.009-0.141-0.05-0.238-0.172-0.288c-0.078,0.03-0.147,0.046-0.213,0.05c-0.247,0.015-0.419-0.12-0.515-0.403
				c-0.002-0.007,0-0.055,0.002-0.146c-0.002-0.052-0.027-0.084-0.077-0.101c-0.107,0.064-0.16,0.18-0.159,0.347
				c0.002,0.192-0.021,0.316-0.074,0.37c0.014,0.09,0.066,0.219,0.16,0.386c0.094,0.17,0.143,0.301,0.148,0.397
				c0.006,0.103-0.024,0.2-0.09,0.294c0.057,0.018,0.082,0.054,0.078,0.112c-0.003,0.091-0.004,0.139-0.004,0.145
				C155.342,35.558,154.895,35.561,154.441,35.458"/>
			<path clip-path="url(#SVGID_6_)" d="M150.771,34.706h0.01c0.049-0.092,0.062-0.225,0.047-0.397
				c-0.022-0.244-0.035-0.369-0.035-0.375c0.037-0.015,0.086,0.004,0.147,0.053c0.095-0.034,0.142-0.094,0.136-0.177
				c0-0.013-0.006-0.033-0.016-0.062c-0.001-0.035-0.003-0.06-0.004-0.071c-0.003-0.065,0.016-0.114,0.059-0.148
				c0.107,0.061,0.25,0.099,0.424,0.116c0.176,0.016,0.344,0.032,0.5,0.046c0.004,0.813,0.112,1.61,0.328,2.387
				c0-0.007,0.006,0.073,0.014,0.242c0,0.12,0.027,0.204,0.082,0.255l0.074-0.066c0.002,0.012-0.023,0.034-0.074,0.07
				s-0.074,0.072-0.071,0.108c0.001,0.018,0.006,0.035,0.015,0.051l0.081,0.06c0.14-0.045,0.202-0.156,0.192-0.333
				c-0.008-0.12,0.041-0.204,0.141-0.251c-0.037-0.028-0.059-0.064-0.061-0.104c-0.002-0.024,0.001-0.059,0.011-0.101
				c0.009-0.041,0.013-0.074,0.011-0.1c-0.003-0.052-0.031-0.096-0.085-0.128c-0.003-0.036-0.021-0.358-0.057-0.967
				c-0.022-0.388-0.013-0.717,0.03-0.987l-0.006-0.152c0.051,0.002,0.111,0.001,0.176-0.002c0.076-0.004,0.184-0.016,0.324-0.033
				c0.137-0.018,0.242-0.027,0.309-0.031c0.275-0.016,0.467,0.031,0.576,0.138l0.117,3.341c0.054,0.163,0.088,0.393,0.106,0.685
				l0.036,0.645c0.027,0.315,0.068,0.558,0.122,0.728c-0.022,0.116-0.125,0.18-0.302,0.188c-0.111,0.007-0.26-0.008-0.449-0.046
				c-0.086,0.04-0.208,0.066-0.363,0.075c-0.045,0.004-0.113,0.004-0.212,0.004c-0.103,0.006-0.179,0.01-0.222,0.013
				c-0.291,0.016-0.481,0.105-0.576,0.267c-0.135,0.002-0.279-0.041-0.438-0.127c-0.156-0.087-0.295-0.134-0.414-0.138
				c-0.315-0.185-0.485-0.492-0.511-0.922c-0.006-0.096,0.032-0.475,0.112-1.138l0.542-0.469c-0.093-0.17-0.203-0.537-0.332-1.104
				C151.158,35.273,150.994,34.927,150.771,34.706 M151.772,38.507l-0.012-0.008c-0.009-0.041-0.005,0.105,0.015,0.438
				c0.01,0.161,0.068,0.277,0.178,0.35c0.061-0.087-0.01-0.128,0.021-0.329c0.028-0.203,0.147-0.146,0.218-0.233
				c0.186,0,0.227-0.113,0.268,0.064c0.084,0.289,0.155,0.264,0.156,0.269l0.079-0.047c0.028-0.025,0.06-0.054,0.095-0.087
				c0.035-0.032,0.071-0.042,0.109-0.033c-0.002-0.036,0.016-0.092,0.053-0.169c0.036-0.077,0.053-0.129,0.051-0.159
				c-0.002-0.055-0.045-0.094-0.129-0.119c0.015-0.12,0.019-0.246,0.012-0.376c-0.006-0.071-0.021-0.236-0.051-0.491
				c-0.035-0.201-0.047-0.374-0.041-0.518c-0.067-0.002-0.129-0.002-0.189,0.001c-0.262,0.016-0.43,0.118-0.507,0.308
				c-0.026,0.055-0.056,0.256-0.089,0.598C151.979,38.222,151.901,38.404,151.772,38.507"/>
			<path clip-path="url(#SVGID_6_)" d="M146.561,33.408c0.105,0.031,0.219,0.042,0.338,0.035c0.104-0.006,0.243-0.032,0.418-0.077
				c0.2-0.048,0.335-0.077,0.408-0.087c0.09,0.12,0.158,0.29,0.208,0.508c0.087,0.318,0.139,0.498,0.155,0.539
				c-0.021,0.036-0.03,0.067-0.028,0.092c0.004,0.065,0.071,0.119,0.204,0.163c0.134,0.042,0.199,0.08,0.201,0.109
				c0.002,0.036-0.067,0.093-0.213,0.174c0.039,0.033,0.072,0.104,0.097,0.215c0.024,0.108,0.063,0.179,0.118,0.212
				c0.084-0.071,0.229-0.123,0.431-0.156c0.203-0.031,0.336-0.067,0.401-0.108c-0.043-0.463,0-1.278,0.184-1.45
				c0.104,0.012,0.18-0.024,0.227-0.113c0.069-0.104,0.129-0.168,0.18-0.189l-0.07-0.058c0.057-0.047,0.152-0.069,0.285-0.071
				c0.208-0.006,0.318-0.009,0.334-0.01l0.076,0.159l-0.312,5.369c0.016,0.305,0.014,0.511-0.008,0.619
				c0.03,0.268-0.033,0.439-0.193,0.515c-0.107-0.048-0.237-0.066-0.395-0.058c-0.125,0.007-0.32,0.041-0.584,0.105
				c-0.266,0.062-0.447,0.097-0.553,0.104c-0.362,0.021-0.537-0.178-0.524-0.598c0.011-0.335-0.089-0.769-0.299-1.302
				c-0.22-0.572-0.337-1.006-0.354-1.299c-0.004-0.089-0.125-0.278-0.123-0.369c0.153-0.08,0.352-0.136,0.594-0.168
				c0.215-0.025,0.432-0.051,0.654-0.073c0.092,0.448,0.304,0.993,0.396,1.438c0.112,0.531,0.235,0.966,0.364,1.308l0.143-2.576
				c0.01-0.222-0.124-0.324-0.398-0.309c-0.088,0.005-0.172,0.028-0.252,0.068c-0.066,0.021-0.16-0.012-0.285-0.1
				c-0.01-0.186-0.064-0.294-0.163-0.323c-0.115,0.072-0.267,0.145-0.456,0.215c-0.167,0.063-0.331,0.124-0.491,0.181
				c-0.103-0.096-0.173-0.244-0.217-0.444c-0.054-0.285-0.089-0.449-0.104-0.497c-0.022-0.112-0.1-0.354-0.232-0.723
				c-0.1-0.293-0.154-0.531-0.165-0.717C146.549,33.572,146.551,33.488,146.561,33.408"/>
			<path clip-path="url(#SVGID_6_)" d="M143.492,39.502h-0.012c0.09-0.131,0.203-0.155,0.342-0.074
				c0.031,0.006,0.162-0.003,0.4-0.022c0.199-0.012,0.344-0.001,0.437,0.029c0.022-0.003,0.067-0.024,0.13-0.066
				c0.064-0.043,0.109-0.064,0.143-0.066c0.043-0.004,0.067,0.035,0.072,0.112c0.001,0.011,0.004,0.062,0.008,0.152
				c0.004,0.059,0.033,0.1,0.086,0.12l0.139-0.107c0.043-0.032,0.063-0.065,0.061-0.102c-0.001-0.029-0.025-0.071-0.074-0.126
				c-0.047-0.054-0.076-0.093-0.084-0.115c0-0.019-0.018-0.286-0.047-0.806c-0.011-0.33-0.072-0.592-0.181-0.787
				c-0.026,0.03-0.095,0.048-0.202,0.05c-0.107,0.004-0.18,0.028-0.214,0.071c-0.07-0.061-0.187-0.064-0.351-0.011
				c-0.166,0.056-0.285,0.037-0.356-0.056l0.022-0.791c0.066,0.009,0.166,0.043,0.295,0.099c0.039-0.114,0.112-0.188,0.221-0.218
				c0.045-0.016,0.171-0.027,0.378-0.04c-0.006,0.036,0.026,0.073,0.097,0.11c0.201-0.096,0.277-0.324,0.227-0.686
				c-0.006,0.037-0.012-0.026-0.022-0.188c-0.006-0.101,0.017-0.174,0.065-0.219c0.125-0.019,0.285,0.009,0.479,0.084
				c0.192,0.075,0.332,0.111,0.413,0.106c0.036-0.002,0.07-0.007,0.1-0.015l0.209-0.064l0.332,3.614l0.039,0.688
				c-0.275,0.093-0.619,0.152-1.026,0.176c-0.319,0.019-0.736,0.016-1.25-0.008c-0.033,0.067-0.095-0.021-0.169-0.017
				c-0.036,0.002-0.092-0.003-0.168-0.013c-0.074-0.011-0.131-0.015-0.168-0.013c-0.045,0.002-0.084,0.011-0.12,0.025l-0.054,0.057
				c-0.15-0.045-0.229-0.125-0.236-0.236c-0.003-0.049,0.012-0.131,0.043-0.245c0.029-0.116,0.043-0.205,0.04-0.264
				C143.529,39.59,143.518,39.542,143.492,39.502 M144.792,33.471c0.079-0.041,0.201-0.064,0.364-0.075
				c0.215-0.013,0.344-0.023,0.389-0.031c0.023,0.022,0.053,0.004,0.1,0.192c0.03,0.124,0.108,0.183,0.233,0.174
				c0.03-0.001,0.065-0.005,0.11-0.014l0.201-0.013l0.106,1.83c-0.108,0.053-0.245,0.085-0.407,0.095
				c-0.156,0.009-0.295-0.007-0.414-0.046c0.002-0.068-0.093-0.097-0.285-0.083l-0.211,0.013
				C144.852,34.998,144.773,34.07,144.792,33.471"/>
			<path clip-path="url(#SVGID_6_)" d="M139.047,39.345l-0.012-0.008c0.105,0.007,0.441-0.016,0.699-0.049
				c0.221-0.025,0.388-0.029,0.5-0.012c0.107-0.072,0.147-0.17,0.117-0.293l-0.068-0.041c0.057-0.053,0.076-0.091,0.059-0.121
				l-0.059-0.059c0.013-1.061,0.016-1.647,0.009-1.76c-0.017-0.28-0.05-0.526-0.099-0.74c0.045-0.134,0.062-0.287,0.052-0.46
				c-0.007-0.112-0.033-0.291-0.081-0.538c-0.049-0.245-0.111-1.052-0.119-1.178c-0.005-0.094-0.004-0.186,0.007-0.269
				c0.103-0.042,0.212-0.066,0.33-0.074c0.2-0.011,0.415,0.03,0.644,0.125c0.028-0.025,0.06-0.053,0.096-0.082
				c0.035-0.029,0.045-0.062,0.027-0.097c0.073-0.021,0.176,0.008,0.308,0.091c0.069,1.074,0.261,3.26,0.545,5.47
				c0.101-0.091,0.284-0.016,0.478-0.04c0.228-0.024,0.452,0.011,0.539-0.03c0.111,0.119,0.088,0.154,0.098,0.351
				c0.012,0.19,0.074,0.661,0.025,0.857c-0.012,0.043-0.427,0.019-0.671,0.039c-0.333,0.02-0.407-0.061-0.429-0.059
				c-0.027,0.043-0.189,0.021-0.307,0.029c-0.078-0.037-0.162,0.034-0.164-0.021c-0.002-0.035,0-0.261,0.025-0.325
				c0.026-0.065,0.039-0.112,0.037-0.142c-0.005-0.071-0.056,0.033-0.177-0.008c-0.134,0.004-0.271,0.008-0.411,0.016
				c-0.158-0.015-0.338,0.042-0.324-0.091c-0.027,0.037-0.044-0.028-0.269,0.062c-0.167,0.076-0.269,0.271-0.236,0.405
				c0.019,0.073-0.083,0.122-0.021,0.087c-0.08,0.045-0.006,0.015-0.094,0.049c-0.277-0.026-0.431,0.003-0.482,0.005
				c-0.111,0.007-0.389-0.064-0.467-0.024c-0.058-0.104-0.086-0.431-0.09-0.61C139.053,39.516,139.048,39.363,139.047,39.345"/>
			<path clip-path="url(#SVGID_6_)" d="M135.443,35.612l0.002,0.009c0.039-0.079,0.062-0.171,0.062-0.272
				c0.006-0.065-0.001-0.158-0.016-0.278c-0.016-0.136-0.024-0.23-0.028-0.285c0.06-0.003,0.298-0.016,0.713-0.042
				c0.251-0.014,0.476-0.047,0.675-0.102l0.221,0.168c0.056-0.053,0.074-0.093,0.059-0.121c0.037,0.004,0.209-0.006,0.512-0.029
				c0.237-0.015,0.416-0.006,0.539,0.022c0.11-0.107,0.252-0.116,0.42-0.024c0.061,0.031,0.072,0.093,0.033,0.183
				c-0.039,0.089-0.021,0.152,0.057,0.189c0.002,0.19-0.006,0.487-0.027,0.89c-0.023,0.36-0.029,0.643-0.018,0.846
				c0.016,0.273,0.062,0.533,0.133,0.781c-0.076,0.07-0.168,0.107-0.271,0.113c-0.118,0.009-0.262-0.029-0.432-0.107
				c-0.236-0.113-0.356-0.17-0.365-0.17l-0.069-0.057c-0.008,0.017-0.039,0.115-0.095,0.293c-0.03,0.114-0.083,0.192-0.155,0.231
				l-0.068-0.049c-0.029,0.013-0.123,0.075-0.28,0.186c-0.121,0.08-0.205,0.37-0.28,0.374c-0.08,0.006-0.16-0.026-0.238-0.093
				c-0.129-0.047-0.231-0.373-0.278-0.48s-0.093-0.215-0.138-0.319c0.334-0.031,0.609-0.045,0.824-0.039
				c0.047-0.069,0.123-0.084,0.221-0.045c0.099,0.039,0.169,0.027,0.209-0.035c-0.006-0.106-0.016-0.301-0.032-0.58
				c-0.008-0.251-0.019-0.447-0.034-0.59c-0.02-0.221-0.056-0.423-0.104-0.605c-0.059,0.005-0.34,0.021-0.844,0.049
				C136.001,35.643,135.7,35.641,135.443,35.612 M135.79,39.819c0.065-0.008,0.142-0.018,0.224-0.021
				c0.168-0.01,0.394-0.005,0.68,0.015c0.35,0.016,0.562,0.024,0.637,0.026c0.096-0.132,0.109-0.238,0.096-0.465
				c-0.029-0.488-0.045-0.701-0.048-0.634c-0.106-0.042-0.164-0.129-0.171-0.261c-0.004-0.179-0.008-0.27-0.018-0.275
				c0.052-0.021,0.074-0.083,0.068-0.185c0.082,0.02,0.172,0.062,0.264,0.129c0.125,0.082,0.164-0.21,0.16-0.133l0.057-0.183
				l0.07,0.052c0.058-0.01,0.162,0.008,0.309,0.054c0.148,0.045,0.253,0.09,0.314,0.134c0.004,0.095-0.009,0.149-0.045,0.165
				l0.151,0.116l0.062-0.085c0.131,0.615,0.221,1.698,0.17,2.359c-0.283-0.02-0.615,0.028-0.957,0.043
				c-0.229,0.009-0.551,0.025-0.967,0.056c-0.474,0.033-0.813,0.058-1.021,0.069c-0.093-0.062-0.144-0.146-0.148-0.252
				c-0.005-0.066,0.009-0.173,0.041-0.321C135.752,40.074,135.794,39.893,135.79,39.819"/>
			<path clip-path="url(#SVGID_6_)" d="M131.748,36.248l0.011-0.001c0.046-0.093,0.062-0.226,0.044-0.396
				c-0.023-0.245-0.033-0.37-0.033-0.376c0.037-0.015,0.086,0.003,0.148,0.053c0.096-0.034,0.141-0.094,0.135-0.178
				c-0.001-0.012-0.006-0.031-0.015-0.061c-0.002-0.035-0.003-0.06-0.005-0.072c-0.004-0.065,0.017-0.114,0.059-0.148
				c0.108,0.062,0.25,0.1,0.426,0.116c0.174,0.017,0.34,0.033,0.5,0.049c0.002,0.812,0.111,1.607,0.326,2.385
				c0-0.008,0.006,0.074,0.014,0.241c0,0.12,0.027,0.204,0.082,0.255l0.074-0.067c0,0.012-0.023,0.036-0.074,0.071
				c-0.049,0.036-0.074,0.072-0.071,0.108c0.002,0.018,0.006,0.035,0.015,0.054l0.082,0.059c0.139-0.045,0.202-0.155,0.189-0.334
				c-0.006-0.12,0.043-0.205,0.144-0.252c-0.038-0.027-0.06-0.062-0.062-0.104c-0.002-0.024,0.002-0.058,0.012-0.098
				c0.007-0.044,0.012-0.077,0.01-0.102c-0.003-0.053-0.029-0.097-0.085-0.131c-0.002-0.035-0.021-0.356-0.056-0.965
				c-0.023-0.388-0.014-0.718,0.031-0.988l-0.01-0.152c0.051,0.003,0.112,0.003,0.18-0.002c0.074-0.005,0.182-0.015,0.322-0.031
				c0.139-0.018,0.242-0.029,0.31-0.032c0.272-0.016,0.466,0.029,0.575,0.138l0.117,3.34c0.053,0.164,0.09,0.393,0.106,0.685
				l0.038,0.644c0.025,0.316,0.064,0.56,0.119,0.729c-0.022,0.114-0.123,0.178-0.301,0.188c-0.112,0.008-0.26-0.008-0.449-0.046
				c-0.088,0.042-0.207,0.067-0.363,0.075c-0.044,0.002-0.115,0.004-0.211,0.004c-0.104,0.006-0.18,0.011-0.223,0.014
				c-0.289,0.016-0.481,0.105-0.576,0.266c-0.135,0.001-0.279-0.04-0.436-0.126c-0.158-0.088-0.297-0.133-0.418-0.137
				c-0.313-0.187-0.484-0.493-0.509-0.924c-0.005-0.096,0.032-0.475,0.112-1.138l0.543-0.47c-0.094-0.169-0.204-0.535-0.334-1.103
				C132.135,36.814,131.968,36.469,131.748,36.248 M132.749,40.048l-0.013-0.008c-0.008-0.041-0.004,0.105,0.016,0.438
				c0.01,0.163,0.068,0.278,0.178,0.349c0.059-0.085,0.072,0.117,0.1-0.085c0.031-0.203,0.078-0.347,0.147-0.436
				c0.187,0.001,0.229,0.112,0.341,0.268c0.069,0.099,0.103,0.013,0.103,0.02l0.051-0.041c0.028-0.025,0.06-0.055,0.095-0.087
				s0.072-0.043,0.111-0.033c-0.004-0.034,0.014-0.093,0.051-0.169c0.035-0.076,0.053-0.13,0.051-0.16
				c-0.002-0.054-0.045-0.092-0.129-0.118c0.014-0.12,0.02-0.246,0.012-0.379c-0.006-0.07-0.021-0.233-0.051-0.489
				c-0.035-0.201-0.047-0.374-0.041-0.518c-0.068-0.003-0.131-0.002-0.19,0.002c-0.259,0.015-0.429,0.117-0.506,0.307
				c-0.025,0.056-0.056,0.256-0.089,0.598C132.956,39.766,132.876,39.944,132.749,40.048"/>
			<path clip-path="url(#SVGID_6_)" d="M168.605,51.655v-0.009c0.032-0.311,0.043-0.525,0.031-0.643
				c0.049-0.02,0.111-0.022,0.186-0.01c0.101,0.017,0.158,0.024,0.173,0.023c0.043-0.002,0.077-0.018,0.104-0.045
				c0.061,0.038,0.102,0.056,0.123,0.05c0.059-0.035,0.086-0.085,0.083-0.149c-0.002-0.028-0.013-0.073-0.032-0.141
				c-0.02-0.068-0.031-0.116-0.033-0.148c0-0.043,0.008-0.111,0.027-0.205c0.02-0.093,0.028-0.168,0.025-0.229
				c-0.004-0.069-0.02-0.181-0.046-0.331c-0.026-0.149-0.041-0.262-0.046-0.338c0.031-0.147,0.043-0.297,0.035-0.447
				c-0.008-0.185-0.061-0.431-0.151-0.74c-0.017-0.005-0.032-0.007-0.049-0.005c-0.036,0.001-0.082,0.029-0.134,0.08
				c-0.051,0.05-0.097,0.076-0.133,0.079c-0.027,0.001-0.059-0.004-0.091-0.021c-0.098-0.312-0.147-0.517-0.153-0.608
				c-0.002-0.044-0.002-0.09,0-0.138c0.146-0.035,0.248,0.015,0.309,0.147c-0.008,0.037,0.014,0.077,0.064,0.118l0.162-0.171
				c-0.16-0.024-0.222-0.146-0.189-0.363c0.014-0.045,0.047-0.068,0.102-0.07c0.094,0.001,0.135,0.001,0.131,0.001l0.133,0.237
				l0.053-0.067c0.045,0.112,0.096,0.164,0.154,0.161c0.033-0.002,0.09-0.028,0.172-0.08c0.08-0.054,0.148-0.081,0.201-0.084
				c0.043-0.003,0.086,0.009,0.131,0.033c0.004,0.065,0.013,0.132,0.023,0.202c0.012,0.07,0.049,0.114,0.108,0.133
				c0.003,0.17-0.003,0.608-0.013,1.324c-0.006,0.541,0,0.979,0.016,1.314c0.008,0.141,0.018,0.277,0.029,0.41
				c0.029,0.042,0.057,0.063,0.084,0.062c0.022-0.002,0.055-0.024,0.098-0.07c0.044-0.046,0.082-0.066,0.113-0.062
				c0.005,0.054,0.029,0.142,0.076,0.26c0.045,0.119,0.07,0.206,0.074,0.26c0.004,0.092-0.031,0.172-0.103,0.24l-0.188-0.046
				c-0.076,0.105-0.109,0.286-0.096,0.54c0.003,0.048,0.01,0.126,0.02,0.23c0.012,0.104,0.019,0.181,0.021,0.23
				c0.021,0.415-0.106,0.63-0.382,0.645c-0.102,0.005-0.227-0.014-0.375-0.056l-0.182-0.047c-0.014-0.069-0.023-0.142-0.027-0.217
				c-0.006-0.104-0.002-0.254,0.014-0.452c0.016-0.199,0.02-0.344,0.016-0.433c-0.008-0.148-0.033-0.28-0.078-0.397
				c-0.043,0.003-0.11,0.027-0.203,0.071c-0.092,0.046-0.159,0.069-0.203,0.071C168.714,51.763,168.652,51.729,168.605,51.655
				 M169.17,51.074l0.009,0.187l0.058,0.054L169.17,51.074z"/>
			<path clip-path="url(#SVGID_6_)" d="M166.379,52.237l-0.008,0.001c0.018-0.147,0.041-0.295,0.066-0.442
				c0.029-0.168,0.076-0.301,0.143-0.396c0.012,0.005,0.078,0.035,0.199,0.096c0.084,0.044,0.158,0.062,0.222,0.054
				c0.05-0.317,0.076-0.748,0.081-1.295c0.003-0.698,0.01-1.12,0.016-1.266c0.084,0.005,0.144-0.021,0.184-0.08
				c0.041-0.059,0.079-0.117,0.113-0.179c0.015-0.034,0.021-0.064,0.02-0.09c-0.001-0.045-0.038-0.087-0.111-0.125
				c-0.072-0.04-0.109-0.083-0.111-0.133c0.031-0.115,0.1-0.176,0.201-0.18c0.049-0.003,0.134,0.013,0.254,0.043
				c0.119,0.032,0.205,0.047,0.255,0.044l0.116,2.315c-0.047,0.061-0.065,0.104-0.06,0.124l0.067,0.045
				c-0.006,0.098-0.012,0.584-0.016,1.455c-0.002,0.59-0.025,1.067-0.066,1.432c0.005-0.001-0.161,0.011-0.501,0.033
				c-0.21,0.011-0.347-0.048-0.407-0.175c0-0.118,0.012-0.318,0.036-0.602c0.024-0.261,0.032-0.461,0.026-0.602
				c-0.01-0.174-0.037-0.328-0.082-0.467C166.834,52.095,166.622,52.225,166.379,52.237 M165.574,51.742
				c-0.016-0.215-0.027-0.426-0.04-0.632c-0.045-0.896-0.03-1.854,0.042-2.874c0.078-0.07,0.197-0.085,0.359-0.046
				c0.16,0.038,0.279,0.021,0.351-0.046c0.093,0.119,0.146,0.334,0.163,0.648c0.021,0.453,0.034,0.688,0.035,0.704
				c0.02,1.135-0.092,2.053-0.333,2.752C165.872,52.177,165.68,52.008,165.574,51.742"/>
			<path clip-path="url(#SVGID_6_)" d="M162.733,50.565c0.035-0.071,0.05-0.147,0.046-0.227c-0.004-0.083-0.008-0.161-0.013-0.237
				c0.009-0.064,0.026-0.129,0.056-0.198c0.049,0.015,0.09,0.021,0.123,0.02c0.037-0.002,0.076-0.016,0.114-0.042
				c0.039-0.027,0.071-0.041,0.092-0.041c0.033-0.003,0.076,0.01,0.132,0.033l0.377,0.549c-0.014-0.161-0.051-0.303-0.111-0.425
				c-0.03-0.062-0.061-0.126-0.09-0.188c0.22-0.04,0.345-0.047,0.371-0.02l0.054-0.068l0.131,0.172
				c0.103-0.124,0.125-0.306,0.069-0.547c-0.066-0.262-0.07-0.45-0.012-0.567c-0.082-0.121-0.179-0.177-0.293-0.172
				c-0.049,0.003-0.09,0.02-0.127,0.055c-0.053,0.134-0.105,0.266-0.158,0.398c-0.08,0.161-0.166,0.244-0.264,0.248
				c-0.074,0.005-0.164-0.035-0.266-0.118c-0.121-0.042-0.184-0.098-0.188-0.167c-0.001-0.044,0.025-0.115,0.084-0.211
				c0.055-0.098,0.084-0.174,0.081-0.229c-0.002-0.021-0.005-0.039-0.011-0.057c0.078-0.057,0.146-0.145,0.21-0.261
				c0.062-0.118,0.144-0.197,0.244-0.242c0.087-0.083,0.169-0.128,0.243-0.132c0.061-0.003,0.15,0.043,0.268,0.137
				c0.118,0.095,0.229,0.138,0.331,0.134c0.042,0.095,0.147,0.201,0.315,0.316s0.272,0.241,0.312,0.374
				c-0.001-0.01,0.001,0.032,0.006,0.129c0.004,0.055,0.026,0.09,0.07,0.103l-0.061,0.06c0.082,0.002,0.123,0.047,0.127,0.141
				c0,0.01,0.002,0.031,0.002,0.065c-0.002,0.026-0.004,0.048-0.004,0.064c0.004,0.064,0.025,0.108,0.064,0.135l0.014,0.282
				c0.008,0.146,0.037,0.251,0.09,0.312c-0.053,0.344-0.106,0.688-0.16,1.03c-0.088,0.399-0.219,0.604-0.391,0.613
				c-0.027,0.001-0.054-0.003-0.08-0.012c-0.158,0.153-0.344,0.236-0.565,0.247c-0.243,0.012-0.513-0.062-0.806-0.22
				C162.931,51.425,162.789,51.013,162.733,50.565 M163.85,51.461l0.055-0.068c0.036-0.007,0.082,0.012,0.133,0.058l-0.011-0.186
				c0.083-0.091,0.115-0.23,0.101-0.42c-0.016-0.324-0.023-0.479-0.023-0.469l-0.242,0.003c-0.115,0.066-0.171,0.174-0.162,0.325
				c0.004,0.076,0.028,0.2,0.08,0.374C163.828,51.251,163.852,51.377,163.85,51.461"/>
			<polygon clip-path="url(#SVGID_6_)" fill-rule="evenodd" clip-rule="evenodd" points="160.831,42.398 160.59,42.26 
				159.771,44.407 160.046,44.498 160.863,42.35 160.625,42.198 			"/>
			<polygon clip-path="url(#SVGID_6_)" fill-rule="evenodd" clip-rule="evenodd" points="160.474,42.695 160.572,42.656 
				160.83,42.398 160.625,42.198 160.361,42.471 160.463,42.419 			"/>
			<polygon clip-path="url(#SVGID_6_)" fill-rule="evenodd" clip-rule="evenodd" points="158.493,42.712 158.377,42.804 
				160.473,42.695 160.465,42.419 158.367,42.525 158.234,42.625 			"/>
			<polygon clip-path="url(#SVGID_6_)" fill-rule="evenodd" clip-rule="evenodd" points="157.546,44.687 157.689,44.864 
				158.492,42.712 158.234,42.624 157.417,44.773 157.559,44.951 			"/>
			<polygon clip-path="url(#SVGID_6_)" fill-rule="evenodd" clip-rule="evenodd" points="159.544,44.618 159.648,44.566 
				157.546,44.687 157.559,44.951 159.65,44.858 159.755,44.806 			"/>
			<polygon clip-path="url(#SVGID_6_)" fill-rule="evenodd" clip-rule="evenodd" points="159.771,44.407 159.803,44.36 
				159.543,44.618 159.754,44.805 160.016,44.545 160.045,44.498 			"/>
			<polygon clip-path="url(#SVGID_6_)" fill-rule="evenodd" clip-rule="evenodd" points="158.031,42.458 157.844,42.54 
				158.295,42.79 158.436,42.535 157.975,42.28 157.771,42.37 158.045,42.462 			"/>
			<polygon clip-path="url(#SVGID_6_)" fill-rule="evenodd" clip-rule="evenodd" points="157.152,44.439 157.227,44.609 
				158.045,42.461 157.771,42.37 156.954,44.519 157.028,44.687 			"/>
			<polygon clip-path="url(#SVGID_6_)" fill-rule="evenodd" clip-rule="evenodd" points="157.417,44.773 157.619,44.683 
				157.152,44.439 157.027,44.687 157.477,44.938 157.689,44.864 			"/>
			<polygon clip-path="url(#SVGID_6_)" points="159.902,44.449 159.916,44.454 159.655,44.714 157.711,44.809 157.689,44.864 
				157.547,44.817 157.418,44.773 157.424,44.75 157.084,44.562 156.954,44.519 157.008,44.379 156.055,42.115 156.86,39.963 
				157.901,42.413 158.035,42.358 158.045,42.462 158.034,42.487 158.362,42.668 158.437,42.535 158.478,42.663 160.473,42.566 
				160.733,42.308 			"/>
			<polygon clip-path="url(#SVGID_6_)" fill-rule="evenodd" clip-rule="evenodd" points="156.99,40.007 156.727,40.02 
				157.768,42.47 158.035,42.358 156.994,39.907 156.73,39.92 157.004,40.011 			"/>
			<polygon clip-path="url(#SVGID_6_)" fill-rule="evenodd" clip-rule="evenodd" points="156.176,42.054 156.186,42.159 
				157.003,40.011 156.73,39.92 155.912,42.066 155.921,42.17 			"/>
			<polygon clip-path="url(#SVGID_6_)" fill-rule="evenodd" clip-rule="evenodd" points="156.954,44.519 157.219,44.506 
				156.176,42.054 155.921,42.17 156.962,44.622 157.227,44.609 			"/>
			<polygon clip-path="url(#SVGID_6_)" fill-rule="evenodd" clip-rule="evenodd" fill="#FFFFFF" points="157.023,43.965 
				156.907,43.709 156.863,43.451 156.877,43.196 156.95,42.932 157.08,42.674 157.256,42.443 157.486,42.233 157.764,42.051 
				157.914,41.985 158.065,41.922 158.234,41.891 158.391,41.856 158.541,41.836 158.705,41.818 158.856,41.839 159.012,41.848 
				159.146,41.878 159.289,41.927 159.426,41.985 159.547,42.056 159.651,42.134 159.769,42.217 159.863,42.319 159.941,42.433 
				160.06,42.687 160.102,42.947 160.102,43.206 160.014,43.465 159.902,43.716 159.721,43.957 159.491,44.169 159.203,44.346 
				159.062,44.415 158.898,44.477 158.744,44.51 158.588,44.544 158.424,44.562 158.273,44.583 158.121,44.562 157.965,44.553 
				157.823,44.507 157.68,44.458 157.551,44.415 157.418,44.341 157.31,44.277 157.196,44.182 157.118,44.068 			"/>
			<polygon clip-path="url(#SVGID_6_)" fill-rule="evenodd" clip-rule="evenodd" points="156.92,43.541 156.804,43.285 
				156.766,43.015 156.775,42.759 156.848,42.508 156.963,42.244 157.158,42.008 157.369,41.804 157.658,41.627 157.814,41.55 
				157.966,41.485 158.122,41.452 158.29,41.419 158.441,41.398 158.589,41.389 158.745,41.398 158.908,41.424 159.043,41.455 
				159.186,41.502 159.311,41.559 159.443,41.632 159.553,41.697 159.652,41.788 159.751,41.879 159.839,42.008 159.959,42.25 
				160.002,42.51 159.984,42.778 159.915,43.028 159.799,43.292 159.621,43.521 159.393,43.733 159.104,43.909 158.947,43.987 
				158.8,44.04 158.641,44.087 158.471,44.116 158.324,44.126 158.173,44.146 158.021,44.126 157.867,44.116 157.719,44.082 
				157.576,44.035 157.451,43.979 157.312,43.916 157.209,43.841 157.092,43.759 157.016,43.645 156.924,43.528 			"/>
			<polygon clip-path="url(#SVGID_6_)" fill-rule="evenodd" clip-rule="evenodd" fill="#FFFFFF" points="156.848,43.243 
				156.725,43.001 156.687,42.729 156.701,42.473 156.769,42.224 156.898,41.964 157.08,41.723 157.291,41.52 157.58,41.343 
				157.724,41.26 157.889,41.199 158.044,41.165 158.213,41.136 158.365,41.112 158.511,41.104 158.666,41.112 158.83,41.14 
				158.965,41.17 159.107,41.217 159.232,41.273 159.367,41.348 159.475,41.412 159.587,41.507 159.67,41.606 159.761,41.723 
				159.881,41.964 159.925,42.226 159.912,42.479 159.839,42.743 159.722,43.006 159.539,43.248 159.303,43.442 159.025,43.625 
				158.869,43.701 158.719,43.768 158.562,43.802 158.394,43.833 158.244,43.853 158.096,43.862 157.927,43.849 157.787,43.833 
				157.642,43.796 157.498,43.749 157.361,43.689 157.24,43.62 157.132,43.555 157.016,43.473 156.938,43.359 			"/>
			<polygon clip-path="url(#SVGID_6_)" fill-rule="evenodd" clip-rule="evenodd" points="156.743,42.82 156.626,42.565 
				156.582,42.305 156.582,42.047 156.67,41.787 156.782,41.536 156.977,41.299 157.192,41.081 157.481,40.905 157.62,40.837 
				157.785,40.776 157.94,40.741 158.096,40.708 158.262,40.689 158.412,40.669 158.562,40.689 158.719,40.698 158.865,40.732 
				159.008,40.781 159.135,40.837 159.268,40.91 159.371,40.989 159.475,41.065 159.57,41.17 159.661,41.286 159.764,41.537 
				159.821,41.802 159.807,42.056 159.734,42.32 159.609,42.566 159.428,42.808 159.198,43.02 158.922,43.2 158.77,43.266 
				158.619,43.33 158.45,43.36 158.295,43.396 158.143,43.417 157.982,43.421 157.828,43.412 157.684,43.409 157.537,43.373 
				157.395,43.325 157.258,43.266 157.137,43.196 157.018,43.114 156.916,43.035 156.82,42.932 156.747,42.807 			"/>
			<polygon clip-path="url(#SVGID_6_)" fill-rule="evenodd" clip-rule="evenodd" fill="#FFFFFF" points="156.592,42.54 
				156.47,42.296 156.427,42.038 156.432,41.766 156.501,41.515 156.631,41.255 156.824,41.018 157.035,40.814 157.314,40.633 
				157.47,40.556 157.634,40.495 157.789,40.46 157.945,40.427 158.109,40.409 158.256,40.399 158.412,40.409 158.562,40.431 
				158.71,40.465 158.854,40.513 158.979,40.569 159.104,40.625 159.22,40.708 159.32,40.798 159.414,40.902 159.492,41.014 
				159.613,41.256 159.666,41.532 159.652,41.788 159.57,42.034 159.453,42.297 159.273,42.54 159.047,42.738 158.771,42.919 
				158.615,42.997 158.464,43.062 158.299,43.079 158.14,43.127 157.988,43.148 157.828,43.152 157.672,43.144 157.533,43.127 
				157.387,43.093 157.232,43.04 157.107,42.984 156.98,42.928 156.863,42.846 156.765,42.754 156.669,42.65 			"/>
			<polygon clip-path="url(#SVGID_6_)" fill-rule="evenodd" clip-rule="evenodd" points="156.475,42.11 156.371,41.86 
				156.314,41.597 156.328,41.342 156.401,41.079 156.527,40.831 156.709,40.589 156.938,40.377 157.215,40.196 157.365,40.131 
				157.531,40.071 157.685,40.037 157.841,40.002 157.992,39.98 158.156,39.964 158.309,39.984 158.463,39.994 158.598,40.024 
				158.752,40.076 158.879,40.132 158.998,40.201 159.117,40.283 159.22,40.361 159.315,40.465 159.393,40.577 159.509,40.832 
				159.565,41.096 159.553,41.352 159.467,41.611 159.354,41.863 159.172,42.104 158.943,42.316 158.654,42.492 158.515,42.562 
				158.351,42.621 158.195,42.656 158.039,42.69 157.875,42.708 157.724,42.729 157.574,42.708 157.43,42.703 157.27,42.664 
				157.127,42.616 157.002,42.56 156.881,42.491 156.765,42.409 156.662,42.331 156.566,42.228 			"/>
			<polygon clip-path="url(#SVGID_6_)" fill-rule="evenodd" clip-rule="evenodd" points="170.766,45.409 170.752,45.491 
				171.574,43.331 171.314,43.245 170.494,45.405 170.49,45.461 			"/>
			<polygon clip-path="url(#SVGID_6_)" fill-rule="evenodd" clip-rule="evenodd" points="170.787,45.52 170.782,45.531 
				170.766,45.409 170.489,45.461 170.518,45.587 170.514,45.6 			"/>
			<polygon clip-path="url(#SVGID_6_)" fill-rule="evenodd" clip-rule="evenodd" points="170.817,45.643 170.787,45.52 
				170.514,45.6 170.545,45.726 			"/>
			
				<rect x="170.64" y="45.598" transform="matrix(0.2912 0.9567 -0.9567 0.2912 164.756 -130.8801)" clip-path="url(#SVGID_6_)" fill-rule="evenodd" clip-rule="evenodd" width="0.117" height="0.285"/>
			<polygon clip-path="url(#SVGID_6_)" fill-rule="evenodd" clip-rule="evenodd" points="170.882,45.881 170.882,45.881 
				170.852,45.755 170.578,45.837 170.611,45.962 170.613,45.949 			"/>
			<polygon clip-path="url(#SVGID_6_)" fill-rule="evenodd" clip-rule="evenodd" points="170.916,46.036 170.916,45.992 
				170.882,45.881 170.613,45.949 170.648,46.062 170.635,46.015 			"/>
			<polygon clip-path="url(#SVGID_6_)" fill-rule="evenodd" clip-rule="evenodd" points="170.641,46.089 170.912,46.136 
				170.916,46.036 170.635,46.015 170.632,46.113 170.904,46.163 170.645,46.076 			"/>
			<polygon clip-path="url(#SVGID_6_)" fill-rule="evenodd" clip-rule="evenodd" fill="#4D494A" points="170.404,39.8 
				170.43,39.938 170.719,39.891 170.698,39.739 			"/>
			<polygon clip-path="url(#SVGID_6_)" fill-rule="evenodd" clip-rule="evenodd" points="169.802,41.601 169.794,41.67 
				170.611,39.522 170.352,39.438 169.533,41.585 169.539,41.658 			"/>
			<polygon clip-path="url(#SVGID_6_)" fill-rule="evenodd" clip-rule="evenodd" points="169.824,41.753 169.803,41.601 
				169.539,41.658 169.559,41.809 169.838,41.757 			"/>
			<polygon clip-path="url(#SVGID_6_)" fill-rule="evenodd" clip-rule="evenodd" points="169.862,41.895 169.838,41.757 
				169.559,41.809 169.598,41.951 			"/>
			<polygon clip-path="url(#SVGID_6_)" fill-rule="evenodd" clip-rule="evenodd" points="169.897,42.051 169.889,42.034 
				169.862,41.895 169.599,41.951 169.621,42.104 169.612,42.085 			"/>
			<polygon clip-path="url(#SVGID_6_)" fill-rule="evenodd" clip-rule="evenodd" points="169.638,42.181 169.914,42.217 
				169.897,42.051 169.613,42.085 169.634,42.235 169.91,42.271 			"/>
			<path clip-path="url(#SVGID_6_)" fill="#4D494A" d="M171.573,43.76l0.132-0.039L171.573,43.76z"/>
			<polygon clip-path="url(#SVGID_6_)" fill="#4D494A" points="171.437,43.31 171.432,43.321 171.364,43.316 171.314,43.246 
				171.436,43.284 			"/>
			<polygon clip-path="url(#SVGID_6_)" points="171.735,43.845 171.594,43.872 171.592,43.971 170.77,46.13 170.774,46.118 
				170.774,46.031 170.752,45.923 170.709,45.793 170.674,45.681 170.645,45.557 170.623,45.448 170.493,45.405 171.314,43.245 
				171.364,43.316 171.432,43.321 171.437,43.31 171.436,43.284 171.314,43.245 171.435,43.252 171.432,43.153 171.514,43.257 
				171.584,43.262 171.601,43.383 171.551,43.394 171.498,43.532 171.635,43.494 171.674,43.595 171.705,43.721 171.573,43.76 
				171.705,43.721 171.7,43.733 			"/>
			<polygon clip-path="url(#SVGID_6_)" points="171.44,43.43 165.422,43.627 165.268,43.62 165.241,43.608 165.094,43.576 
				165.082,43.569 164.924,43.519 164.774,43.453 164.762,43.449 164.618,43.358 164.592,43.351 164.48,43.255 164.445,43.229 
				164.363,43.131 164.355,43.112 164.299,43.022 164.295,42.992 164.56,42.911 164.602,42.978 164.605,42.965 164.674,43.061 
				164.674,43.061 164.767,43.135 164.744,43.112 164.892,43.189 164.891,43.191 165.043,43.255 165.172,43.299 165.319,43.332 
				165.293,43.324 165.432,43.342 165.432,43.354 171.432,43.153 			"/>
			<polygon clip-path="url(#SVGID_6_)" points="164.566,42.908 164.56,42.911 164.545,42.887 			"/>
			<polygon clip-path="url(#SVGID_6_)" fill-rule="evenodd" clip-rule="evenodd" points="161.353,37.86 161.353,37.945 
				162.174,35.785 161.901,35.694 161.08,37.855 161.08,37.94 			"/>
			<polygon clip-path="url(#SVGID_6_)" fill-rule="evenodd" clip-rule="evenodd" points="163.727,45.036 163.746,45.069 
				161.353,37.86 161.08,37.94 163.473,45.152 163.478,45.181 			"/>
			<polygon clip-path="url(#SVGID_6_)" fill-rule="evenodd" clip-rule="evenodd" points="163.775,45.108 163.783,45.125 
				163.727,45.036 163.478,45.181 163.533,45.272 163.547,45.278 163.789,45.112 			"/>
			<polygon clip-path="url(#SVGID_6_)" fill-rule="evenodd" clip-rule="evenodd" points="163.831,45.199 163.854,45.22 
				163.789,45.112 163.546,45.278 163.637,45.393 163.659,45.416 			"/>
			<polygon clip-path="url(#SVGID_6_)" fill-rule="evenodd" clip-rule="evenodd" points="163.927,45.26 163.947,45.281 
				163.83,45.199 163.658,45.416 163.775,45.497 163.797,45.52 			"/>
			<polygon clip-path="url(#SVGID_6_)" fill-rule="evenodd" clip-rule="evenodd" points="164.057,45.347 164.07,45.351 
				163.927,45.26 163.797,45.52 163.945,45.597 163.957,45.601 			"/>
			<polygon clip-path="url(#SVGID_6_)" fill-rule="evenodd" clip-rule="evenodd" points="164.194,45.406 164.225,45.403 
				164.057,45.347 163.957,45.601 164.108,45.666 164.121,45.67 164.211,45.399 			"/>
			<polygon clip-path="url(#SVGID_6_)" fill-rule="evenodd" clip-rule="evenodd" points="164.351,45.458 164.369,45.45 
				164.211,45.399 164.121,45.67 164.277,45.722 164.355,45.446 			"/>
			<polygon clip-path="url(#SVGID_6_)" fill-rule="evenodd" clip-rule="evenodd" points="164.471,45.485 164.496,45.493 
				164.355,45.446 164.277,45.722 164.437,45.761 164.449,45.766 			"/>
			<polygon clip-path="url(#SVGID_6_)" fill-rule="evenodd" clip-rule="evenodd" points="164.61,45.503 164.614,45.49 
				164.471,45.485 164.449,45.766 164.602,45.789 164.618,45.778 			"/>
			<polygon clip-path="url(#SVGID_6_)" fill-rule="evenodd" clip-rule="evenodd" points="170.48,45.4 170.627,45.308 164.61,45.503 
				164.619,45.778 170.623,45.577 170.752,45.491 170.494,45.405 			"/>
			<polygon clip-path="url(#SVGID_6_)" fill="#4D494A" points="168.969,38.831 168.99,38.843 168.977,38.849 			"/>
			<path clip-path="url(#SVGID_6_)" fill="#4D494A" d="M165.719,37.859l0.023-0.292L165.719,37.859z"/>
			<path clip-path="url(#SVGID_6_)" d="M170.699,39.739l-0.027-0.139l-0.053-0.147l-0.064-0.108l-0.367-0.193l-0.367-0.194
				l-0.354-0.191l-0.358-0.177l-0.014-0.005l-0.363-0.163l-0.361-0.166l-0.395-0.159l-0.398-0.147l-0.013-0.004l-0.423-0.112
				l-0.424-0.112l-0.014-0.005l-0.467-0.07l-0.479-0.073l-0.013-0.004l-0.522-0.028l-0.019,0.007l-0.558-0.014l-0.596,0.02
				l-0.632,0.033l-0.131,0.086l-0.815,2.147l0.138,0.19l-0.009-0.277l0.044,0.055l-0.031,0.08l0.09-0.006l0.039,0.049l0.021-0.054
				l0.47-0.027h0.604l0.558,0.012l0.51,0.026l0.498,0.065l0.463,0.081l0.424,0.113l0.423,0.112l0.397,0.147l0.385,0.144l0.363,0.164
				l0.358,0.177l0.372,0.182l0.355,0.19l0.353,0.19l0.245,0.129l-0.006,0.023l0.129,0.043l0.035,0.154l0.025,0.14l0.012,0.047
				l-0.099,0.212l0.138,0.045l0.006,0.002l0.129,0.042l0.818-2.146l0.008-0.069l-0.021-0.15L170.699,39.739z M170.598,40.081
				l-0.005-0.028l0.015,0.006L170.598,40.081z"/>
			<polygon clip-path="url(#SVGID_6_)" fill-rule="evenodd" clip-rule="evenodd" points="163.231,39.697 162.601,39.731 
				162.609,40.01 163.241,39.974 			"/>
			
				<rect x="163.236" y="39.688" transform="matrix(0.9996 -0.0294 0.0294 0.9996 -1.1002 4.825)" clip-path="url(#SVGID_6_)" fill-rule="evenodd" clip-rule="evenodd" width="0.598" height="0.277"/>
			<polygon clip-path="url(#SVGID_6_)" fill-rule="evenodd" clip-rule="evenodd" points="164.398,39.697 164.385,39.695 
				163.828,39.68 163.836,39.956 164.394,39.97 164.377,39.979 164.403,39.686 			"/>
			<polygon clip-path="url(#SVGID_6_)" fill-rule="evenodd" clip-rule="evenodd" points="164.936,39.731 164.922,39.729 
				164.403,39.686 164.377,39.979 164.9,40.011 164.888,40.005 			"/>
			<polygon clip-path="url(#SVGID_6_)" fill-rule="evenodd" clip-rule="evenodd" points="165.42,39.793 164.936,39.731 
				164.888,40.005 165.367,40.079 			"/>
			<polygon clip-path="url(#SVGID_6_)" fill-rule="evenodd" clip-rule="evenodd" points="165.896,39.88 165.881,39.874 
				165.42,39.793 165.367,40.079 165.848,40.152 165.834,40.148 			"/>
			<polygon clip-path="url(#SVGID_6_)" fill-rule="evenodd" clip-rule="evenodd" points="166.318,39.993 165.896,39.88 
				165.834,40.148 166.256,40.261 166.323,39.979 			"/>
			<polygon clip-path="url(#SVGID_6_)" fill-rule="evenodd" clip-rule="evenodd" points="166.76,40.096 166.746,40.092 
				166.322,39.979 166.257,40.261 166.681,40.373 166.668,40.368 			"/>
			<polygon clip-path="url(#SVGID_6_)" fill-rule="evenodd" clip-rule="evenodd" points="167.157,40.244 167.157,40.244 
				166.76,40.096 166.668,40.368 167.066,40.515 167.053,40.512 167.17,40.248 			"/>
			<polygon clip-path="url(#SVGID_6_)" fill-rule="evenodd" clip-rule="evenodd" points="167.551,40.403 167.169,40.248 
				167.052,40.512 167.433,40.668 			"/>
			<polygon clip-path="url(#SVGID_6_)" fill-rule="evenodd" clip-rule="evenodd" points="167.913,40.568 167.551,40.403 
				167.434,40.668 167.801,40.82 			"/>
			<polygon clip-path="url(#SVGID_6_)" fill-rule="evenodd" clip-rule="evenodd" points="168.285,40.751 168.277,40.731 
				167.913,40.568 167.801,40.82 168.172,40.999 168.159,40.995 168.29,40.737 			"/>
			<polygon clip-path="url(#SVGID_6_)" fill-rule="evenodd" clip-rule="evenodd" points="168.644,40.927 168.289,40.737 
				168.16,40.995 168.519,41.173 168.647,40.914 			"/>
			<polygon clip-path="url(#SVGID_6_)" fill-rule="evenodd" clip-rule="evenodd" points="168.998,41.117 168.646,40.914 
				168.52,41.173 168.872,41.362 169.012,41.12 			"/>
			<polygon clip-path="url(#SVGID_6_)" fill-rule="evenodd" clip-rule="evenodd" points="169.366,41.312 169.012,41.12 
				168.872,41.362 169.227,41.555 			"/>
			<polygon clip-path="url(#SVGID_6_)" fill-rule="evenodd" clip-rule="evenodd" points="169.534,41.585 169.733,41.507 
				169.366,41.312 169.227,41.555 169.594,41.748 169.795,41.67 			"/>
			<polygon clip-path="url(#SVGID_6_)" fill-rule="evenodd" clip-rule="evenodd" points="132.062,45.477 132.885,43.315 
				130.201,42.421 129.578,43.855 129.561,43.993 129.556,44.137 129.578,44.289 129.629,44.435 129.715,44.563 129.785,44.703 
				129.897,44.841 130.014,44.966 130.135,45.078 130.27,45.195 130.408,45.3 130.541,45.374 130.672,45.459 130.824,45.524 
				130.957,45.599 131.086,45.641 131.203,45.68 131.342,45.697 131.467,45.709 131.588,45.692 131.709,45.675 131.838,45.633 
				131.951,45.555 			"/>
			<polygon clip-path="url(#SVGID_6_)" fill-rule="evenodd" clip-rule="evenodd" points="130.321,42.489 130.153,42.562 
				132.838,43.458 132.928,43.186 130.243,42.292 130.062,42.36 			"/>
			<polygon clip-path="url(#SVGID_6_)" points="171.735,43.975 171.721,44.015 170.903,46.163 170.645,46.076 171.438,43.953 
				171.453,43.867 171.457,43.897 171.735,43.845 171.738,43.875 			"/>
			<polygon clip-path="url(#SVGID_6_)" fill="#4D494A" points="158.572,38.891 158.62,38.862 158.625,38.866 			"/>
			<path clip-path="url(#SVGID_6_)" d="M171.635,43.494l-0.029-0.125l-0.005,0.014l-0.21,0.043l0.055-0.138l-6.019,0.196
				l-0.142-0.005l-0.156-0.053l-0.156-0.05l-0.154-0.054l-0.144-0.089l-0.116-0.083l-0.083-0.101l-0.05-0.099l0.141-0.044
				l-2.392-7.21l-0.142-0.001l-0.002-0.09h-0.217l-0.203,0.005l-0.186-0.005l-0.169,0.03l-0.172,0.045l-0.173,0.084l-0.16,0.135
				l-0.189,0.182l-0.005,0.015l-0.11,0.149l-0.123,0.16l-0.144,0.168l-0.101,0.169l-0.125,0.203l-0.131,0.173l-0.105,0.193
				l-0.139,0.201l-0.112,0.163l-0.16,0.177l-0.131,0.173l-0.149,0.152l-0.135,0.142l-0.144,0.126l-0.138,0.111l-0.16,0.09
				l-0.034,0.019l0.103,0.099l-0.103-0.099l-0.161,0.177l-0.146,0.139l-0.129,0.129l-0.14,0.114l-0.136,0.098l-0.139,0.083
				l-0.127,0.073l-0.139,0.068l-0.154,0.035l-0.152,0.063l-0.156,0.036l-0.18,0.025l-0.199,0.035l-0.221,0.013l-0.239,0.021
				l-0.232,0.01l-0.014-0.006l-25.968,1.941l-0.15,0.019l-0.139,0.028l-0.125,0.029l-0.131,0.043l-0.121,0.061l-0.125,0.074
				l-0.104,0.095l-0.121,0.104l-0.025,0.033l-0.454,1.059l0.237,0.152l-0.105-0.104l0.018-0.013l0.114,0.081l0.113-0.266
				l0.077-0.045l0.099-0.04l0.117-0.047l0.108-0.021l0.138-0.026l0.139-0.025l25.979-1.936l0.166-0.016l0.16-0.006l0.158-0.004
				l0.17-0.027h0.174l0.149-0.024l0.165-0.017l0.15-0.021l0.17-0.031l0.15-0.021l0.154-0.034l0.174-0.045l0.156-0.033l0.165-0.061
				l0.164-0.062l0.155-0.077l0.307-0.186l0.312-0.285l0.328-0.338l0.315-0.384l0.307-0.401l0.265-0.359l0.259-0.346l0.215-0.26
				l0.127-0.029l0.106-0.022l0.136-0.013h0.13h0.13l0.11,0.009l0.144,0.005l0.126,0.014l2.385,7.192l0.051,0.104l0.082,0.101
				l0.117,0.081l0.156,0.095l0.151,0.065l0.155,0.053l0.147,0.034l0.144,0.004l6.012-0.184l0.723-1.9l0.004,0.025L171.635,43.494z
				 M128.427,43.295l-0.008,0.019l-0.099-0.095L128.427,43.295z"/>
			<polygon clip-path="url(#SVGID_6_)" fill-rule="evenodd" clip-rule="evenodd" points="129.336,42.765 129.181,42.801 
				129.043,42.826 128.916,42.857 128.786,42.9 128.666,42.961 128.54,43.033 128.441,43.115 128.32,43.219 128.525,43.419 
				128.617,43.319 128.713,43.249 128.805,43.193 128.902,43.155 128.999,43.129 129.111,43.095 129.232,43.077 129.365,43.064 			
				"/>
			<polygon clip-path="url(#SVGID_6_)" fill-rule="evenodd" clip-rule="evenodd" points="155.3,40.839 129.336,42.765 
				129.365,43.064 155.333,41.125 			"/>
			<polygon clip-path="url(#SVGID_6_)" fill-rule="evenodd" clip-rule="evenodd" points="157.846,40.378 157.695,40.442 
				157.547,40.495 157.369,40.551 157.223,40.603 157.063,40.648 156.912,40.671 156.76,40.693 156.592,40.723 156.453,40.751 
				156.294,40.753 156.129,40.771 155.965,40.788 155.801,40.805 155.654,40.813 155.477,40.826 155.3,40.839 155.332,41.125 
				155.498,41.106 155.66,41.091 155.834,41.091 155.998,41.073 156.16,41.068 156.314,41.034 156.476,41.03 156.652,41.018 
				156.809,40.982 156.963,40.948 157.132,40.918 157.306,40.875 157.451,40.823 157.629,40.768 157.806,40.711 157.963,40.634 			
				"/>
			<polygon clip-path="url(#SVGID_6_)" fill-rule="evenodd" clip-rule="evenodd" points="160.172,37.812 160.115,37.851 
				159.999,37.985 159.896,38.123 159.771,38.282 159.641,38.456 159.492,38.637 159.359,38.823 159.208,39.019 159.056,39.211 
				158.9,39.419 158.74,39.597 158.584,39.761 158.425,39.938 158.291,40.081 158.122,40.196 157.984,40.309 157.846,40.378 
				157.963,40.634 158.141,40.533 158.291,40.427 158.468,40.283 158.636,40.123 158.792,39.959 158.947,39.795 159.12,39.579 
				159.273,39.385 159.424,39.19 159.574,38.996 159.708,38.81 159.857,38.629 159.986,38.456 160.111,38.296 160.214,38.157 
				160.311,38.045 160.258,38.072 			"/>
			<polygon clip-path="url(#SVGID_6_)" fill-rule="evenodd" clip-rule="evenodd" fill="#FFFFFF" points="165.146,45.623 
				164.61,45.632 164.566,45.632 169.17,47.167 169.403,47.029 165.15,45.61 			"/>
			<polygon clip-path="url(#SVGID_6_)" fill-rule="evenodd" clip-rule="evenodd" fill="#FFFFFF" points="165.146,45.623 
				170.623,45.448 170.645,45.557 170.674,45.681 170.709,45.793 170.752,45.923 170.774,46.031 170.774,46.118 170.739,46.222 
				170.645,46.292 170.418,46.446 170.168,46.593 169.918,46.74 169.666,46.887 169.429,47.039 169.403,47.029 165.15,45.61 			"/>
			<polygon clip-path="url(#SVGID_6_)" fill="#FFFFFF" points="168.476,42.297 164.744,42.507 163.285,41.919 162.77,40.394 
				162.613,39.866 163.231,39.828 163.836,39.828 164.395,39.84 164.904,39.866 165.401,39.932 165.865,40.013 166.289,40.126 
				166.711,40.238 167.108,40.386 167.494,40.529 167.856,40.693 168.216,40.87 168.588,41.052 168.942,41.242 169.295,41.433 
				169.664,41.628 169.699,41.782 169.725,41.922 169.759,42.076 169.781,42.229 			"/>
			<polygon clip-path="url(#SVGID_6_)" fill-rule="evenodd" clip-rule="evenodd" fill="#FFFFFF" points="159.077,41.87 
				159.023,41.809 158.545,41.52 158.391,41.769 158.87,42.06 158.822,41.986 159.077,41.87 159.059,41.836 159.023,41.809 			"/>
			<polygon clip-path="url(#SVGID_6_)" fill-rule="evenodd" clip-rule="evenodd" fill="#FFFFFF" points="163.344,41.78 
				163.426,41.88 162.742,39.823 162.472,39.906 163.154,41.964 163.228,42.045 163.154,41.964 163.175,42.027 163.228,42.045 			
				"/>
			<polygon clip-path="url(#SVGID_6_)" fill-rule="evenodd" clip-rule="evenodd" fill="#FFFFFF" points="164.73,42.372 
				164.801,42.382 163.344,41.78 163.228,42.045 164.683,42.646 164.74,42.649 164.683,42.646 164.709,42.653 164.74,42.649 			"/>
			<polygon clip-path="url(#SVGID_6_)" fill-rule="evenodd" clip-rule="evenodd" fill="#FFFFFF" points="169.634,42.235 
				169.771,42.081 164.73,42.372 164.74,42.649 169.779,42.358 169.914,42.217 169.779,42.358 169.941,42.354 169.914,42.217 			"/>
			<polygon clip-path="url(#SVGID_6_)" fill-rule="evenodd" clip-rule="evenodd" fill="#FFFFFF" points="169.594,41.748 
				169.539,41.658 169.543,41.731 169.56,41.809 169.564,41.882 169.586,41.947 169.591,42.02 169.607,42.098 169.629,42.163 
				169.634,42.235 169.914,42.217 169.914,42.129 169.902,42.038 169.88,41.976 169.875,41.901 169.854,41.836 169.837,41.757 
				169.807,41.675 169.802,41.601 169.734,41.507 169.802,41.601 169.781,41.537 169.734,41.507 			"/>
			<polygon clip-path="url(#SVGID_6_)" fill-rule="evenodd" clip-rule="evenodd" fill="#FFFFFF" points="162.74,39.837 
				162.623,40.013 163.241,39.974 163.838,39.956 164.377,39.979 164.9,40.011 165.367,40.079 165.834,40.148 166.258,40.261 
				166.668,40.368 167.066,40.516 167.432,40.668 167.801,40.82 168.159,40.995 168.518,41.173 168.872,41.362 169.227,41.555 
				169.594,41.748 169.733,41.507 169.366,41.312 169.012,41.12 168.646,40.914 168.29,40.737 167.913,40.568 167.551,40.403 
				167.157,40.244 166.76,40.096 166.323,39.979 165.895,39.88 165.42,39.793 164.922,39.729 164.403,39.686 163.828,39.68 
				163.231,39.697 162.588,39.728 162.471,39.906 162.588,39.728 162.41,39.741 162.471,39.906 162.742,39.823 			"/>
			<polygon clip-path="url(#SVGID_6_)" fill-rule="evenodd" clip-rule="evenodd" fill="#FFFFFF" points="155.333,41.125 
				155.523,41.116 155.736,41.086 155.926,41.079 156.133,41.062 156.332,41.026 156.544,40.995 156.756,40.965 156.96,40.918 
				157.163,40.87 157.34,40.814 157.535,40.751 157.716,40.681 157.872,40.603 158.057,40.521 158.209,40.412 158.348,40.301 
				158.174,40.083 158.04,40.184 157.91,40.271 157.768,40.353 157.604,40.412 157.443,40.503 157.271,40.547 157.066,40.594 
				156.891,40.649 156.695,40.671 156.521,40.715 156.314,40.731 156.116,40.766 155.904,40.797 155.697,40.814 155.503,40.835 
				155.3,40.839 			"/>
			<polygon clip-path="url(#SVGID_6_)" fill-rule="evenodd" clip-rule="evenodd" fill="#FFFFFF" points="129.366,43.064 
				155.333,41.125 155.301,40.839 129.336,42.765 			"/>
			<polygon clip-path="url(#SVGID_6_)" fill-rule="evenodd" clip-rule="evenodd" fill="#FFFFFF" points="128.882,44.647 
				128.773,44.495 128.66,44.355 128.609,44.21 128.527,44.066 128.484,43.937 128.471,43.804 128.468,43.688 128.476,43.575 
				128.506,43.483 128.549,43.396 128.605,43.314 128.705,43.232 128.809,43.18 128.974,43.12 129.146,43.077 129.365,43.064 
				129.336,42.765 129.099,42.788 128.891,42.849 128.71,42.919 128.549,43.007 128.402,43.104 128.299,43.242 128.242,43.367 
				128.191,43.522 128.193,43.683 128.186,43.837 128.221,43.993 128.277,44.169 128.342,44.323 128.429,44.495 128.54,44.676 
				128.652,44.814 			"/>
			<polygon clip-path="url(#SVGID_6_)" fill-rule="evenodd" clip-rule="evenodd" fill="#FFFFFF" points="131.978,46.125 
				131.744,46.134 131.506,46.111 131.264,46.06 131.031,46.024 130.81,45.951 130.588,45.878 130.377,45.778 130.178,45.683 
				129.971,45.571 129.781,45.45 129.578,45.324 129.431,45.204 129.275,45.065 129.123,44.914 128.998,44.771 128.881,44.647 
				128.652,44.814 128.787,44.975 128.938,45.125 129.09,45.278 129.258,45.42 129.443,45.554 129.629,45.687 129.819,45.81 
				130.035,45.939 130.26,46.042 130.49,46.134 130.724,46.211 130.969,46.294 131.211,46.347 131.459,46.385 131.74,46.406 
				131.984,46.404 			"/>
			<polygon clip-path="url(#SVGID_6_)" fill-rule="evenodd" clip-rule="evenodd" fill="#FFFFFF" points="154.952,45.334 
				131.977,46.125 131.984,46.404 154.948,45.606 			"/>
			<polygon clip-path="url(#SVGID_6_)" fill-rule="evenodd" clip-rule="evenodd" fill="#FFFFFF" points="158.579,45.911 
				158.363,45.823 158.135,45.776 157.913,45.703 157.684,45.655 157.443,45.603 157.219,45.542 156.973,45.504 156.751,45.473 
				156.521,45.425 156.284,45.404 156.051,45.369 155.821,45.366 155.602,45.335 155.367,45.344 155.156,45.329 154.952,45.334 
				154.948,45.606 155.165,45.606 155.377,45.619 155.575,45.628 155.801,45.645 156.025,45.663 156.249,45.681 156.471,45.711 
				156.702,45.745 156.932,45.793 157.152,45.823 157.377,45.883 157.609,45.918 157.835,45.98 158.074,46.044 158.273,46.096 
				158.492,46.169 158.583,45.897 			"/>
			<polygon clip-path="url(#SVGID_6_)" fill-rule="evenodd" clip-rule="evenodd" fill="#FFFFFF" points="166.329,48.034 
				165.936,48.091 165.564,48.126 165.21,48.152 164.887,48.174 164.579,48.187 164.303,48.151 164.018,48.143 163.779,48.121 
				163.532,48.083 163.303,48.033 163.088,47.991 162.893,47.926 162.686,47.857 162.521,47.788 162.318,47.706 162.158,47.624 
				161.973,47.531 161.786,47.442 161.604,47.337 161.424,47.233 161.241,47.131 161.051,47.008 160.865,46.918 160.663,46.793 
				160.438,46.688 160.223,46.559 159.979,46.464 159.746,46.343 159.482,46.227 159.197,46.13 158.893,46.002 158.583,45.897 
				158.492,46.169 158.805,46.273 159.109,46.39 159.367,46.491 159.635,46.594 159.88,46.72 160.092,46.819 160.309,46.949 
				160.52,47.048 160.727,47.16 160.922,47.269 161.104,47.372 161.293,47.494 161.475,47.598 161.661,47.688 161.848,47.778 
				162.016,47.879 162.201,47.969 162.404,48.052 162.596,48.129 162.803,48.198 163.021,48.272 163.252,48.319 163.484,48.354 
				163.741,48.41 164.004,48.441 164.275,48.444 164.594,48.449 164.895,48.45 165.245,48.438 165.6,48.411 165.975,48.364 
				166.364,48.32 166.344,48.041 			"/>
			<polygon clip-path="url(#SVGID_6_)" fill-rule="evenodd" clip-rule="evenodd" fill="#FFFFFF" points="170.57,46.164 
				170.346,46.321 170.096,46.469 169.844,46.614 169.59,46.774 169.355,46.912 169.092,47.056 168.846,47.189 168.592,47.306 
				168.317,47.431 168.047,47.557 167.778,47.668 167.502,47.764 167.202,47.836 166.93,47.919 166.633,47.991 166.342,48.041 
				166.364,48.32 166.688,48.257 166.995,48.199 167.299,48.115 167.584,48.036 167.868,47.916 168.163,47.812 168.43,47.698 
				168.703,47.573 168.979,47.436 169.243,47.293 169.49,47.16 169.741,47.013 169.992,46.865 170.242,46.72 170.479,46.567 
				170.717,46.417 170.584,46.169 			"/>
			<polygon clip-path="url(#SVGID_6_)" fill-rule="evenodd" clip-rule="evenodd" fill="#FFFFFF" points="170.623,45.577 
				170.477,45.457 170.52,45.587 170.545,45.726 170.579,45.837 170.609,45.962 170.627,46.041 170.641,46.089 170.618,46.152 
				170.584,46.169 170.718,46.417 170.843,46.301 170.908,46.148 170.926,46.01 170.882,45.881 170.852,45.755 170.816,45.643 
				170.782,45.531 170.762,45.422 170.627,45.307 170.762,45.422 170.757,45.307 170.627,45.307 			"/>
			<polygon clip-path="url(#SVGID_6_)" fill="#FFFFFF" points="160.01,44.558 160.014,44.544 160.016,44.545 			"/>
			<polygon clip-path="url(#SVGID_6_)" fill="#FFFFFF" points="160.075,44.493 160.016,44.545 160.049,44.398 			"/>
			<polygon clip-path="url(#SVGID_6_)" fill="#FFFFFF" points="156.207,42.843 151.471,41.262 151.982,41.231 151.986,41.22 
				156.102,42.591 			"/>
			<path clip-path="url(#SVGID_6_)" fill="#FFFFFF" d="M170.627,45.308l-6.018,0.195l-0.125-0.013l-0.116-0.04l-0.157-0.051
				l-0.142-0.049l-0.13-0.087l-0.094-0.06l-0.057-0.092l-0.044-0.043l-2.394-7.209l-0.035-0.112l-0.116,0.004l-0.121,0.017
				l-0.138-0.017l-0.17-0.014l-0.158,0.005l-0.156-0.01l-0.143,0.039l-0.159,0.047l-0.13,0.087l-0.156,0.166l-0.13,0.172
				l-0.121,0.146l-0.121,0.146l-0.104,0.14l-0.099,0.126l-0.086,0.128l-0.104,0.14l-0.086,0.129l-0.1,0.125l-0.1,0.127l-0.107,0.107
				l-0.113,0.121l-0.129,0.129l-0.131,0.131l-0.164,0.145l0.088,0.11l-0.129,0.107l-0.15,0.094l-0.168,0.074l-0.155,0.078
				l-0.168,0.072l-0.19,0.053l-0.195,0.065l-0.189,0.051l-0.182,0.026l-0.199,0.036l-0.211,0.028l-0.199,0.034l-0.207,0.018
				l-0.208,0.018l-0.194,0.021l-0.19,0.008l-3.338,0.242l4.112,1.371l0.107,0.252l-4.736-1.581l-22.125,1.651l-0.412,0.064
				l-0.308,0.143l-0.212,0.203l-0.076,0.233v0.259l-0.005,0.014l0.073,0.298l0.146,0.295l0.213,0.315l0.125,0.142l0.138,0.147
				l0.151,0.15l0.159,0.127l0.169,0.143l0.189,0.12l0.203,0.126l0.203,0.126l0.218,0.087l0.212,0.099l0.232,0.078l0.248,0.081
				l0.231,0.034l0.243,0.053l0.252,0.026l0.244-0.005l3.342-0.123l19.622-0.672h0.217l0.202-0.003l0.23,0.003l0.219,0.03
				l0.226,0.018l0.224,0.018l0.221,0.031l0.234,0.034l0.233,0.034l0.229,0.048l0.229,0.049l0.229,0.047l0.237,0.063l0.224,0.062
				l0.215,0.056l0.22,0.072l0.312,0.105l0.306,0.117l0.269,0.103l0.268,0.104l0.234,0.12l0.225,0.104l0.232,0.123l0.213,0.099
				l0.203,0.125l0.182,0.104l0.195,0.107l0.18,0.104l0.195,0.107l0.18,0.105l0.175,0.086l0.182,0.104l0.185,0.09l0.192,0.078
				l0.181,0.062l0.207,0.068l0.221,0.073l0.211,0.058l0.234,0.033l0.246,0.039l0.252,0.027l0.28,0.021l0.3,0.014l0.305-0.014
				l0.32-0.008l0.358-0.038l0.372-0.035l0.406-0.052l0.303-0.043l0.299-0.073l0.299-0.073l0.276-0.096l0.293-0.104l0.28-0.106
				l0.268-0.112l0.273-0.125l0.26-0.13l0.264-0.144l-4.199-1.4l5.652-0.189L170.627,45.308z M132.145,45.187l-0.025,0.165
				l-0.057,0.125l-0.103,0.095l-0.155,0.078l-0.183,0.025l-0.099-0.004l-0.114-0.009l-0.106-0.021l-0.108-0.021l-0.13-0.044
				l-0.117-0.039l-0.125-0.056l-0.135-0.073l-0.111-0.052l-0.117-0.083l-0.104-0.077l-0.113-0.096l-0.116-0.081l-0.081-0.1
				l-0.101-0.091l-0.082-0.099l-0.15-0.195l-0.077-0.199l-0.039-0.1l-0.022-0.065l0.013-0.169l0.031-0.133l0.096-0.112l0.137-0.069
				l0.187-0.038l0.104-0.01l0.106,0.023l0.126,0.012l0.135,0.03l0.116,0.039l0.129,0.044l0.138,0.059l0.123,0.07l0.125,0.057
				l0.135,0.073l0.117,0.081l0.11,0.097l0.104,0.078l0.107,0.106l0.096,0.104l0.082,0.101l0.133,0.204l0.078,0.196l0.022,0.065
				L132.145,45.187z M156.062,42.132L156.062,42.132l0.093,0.074L156.062,42.132z M159.745,44.416l-0.151,0.153l-1.975,0.113
				l-0.418-0.218l-0.99-2.33l0.153-0.196l2.12-0.151l-0.094-0.019l0.071-0.114l0.011-0.001l0.471,0.271l0.002,0.005l-0.123,0.057
				L159.745,44.416z"/>
			<polygon clip-path="url(#SVGID_6_)" fill-rule="evenodd" clip-rule="evenodd" points="133.482,43.688 133.603,43.757 
				133.625,43.866 133.451,43.909 133.416,43.796 133.521,43.874 			"/>
			<polygon clip-path="url(#SVGID_6_)" fill-rule="evenodd" clip-rule="evenodd" points="133.247,43.826 133.273,43.791 
				133.316,43.749 133.37,43.723 133.42,43.697 133.482,43.688 133.52,43.874 133.494,43.866 133.455,43.896 133.408,43.909 
				133.403,43.921 133.412,43.896 133.252,43.813 			"/>
			<polygon clip-path="url(#SVGID_6_)" fill-rule="evenodd" clip-rule="evenodd" points="133.736,44.911 133.723,44.907 
				133.641,44.807 133.533,44.699 133.43,44.578 133.33,44.444 133.248,44.302 133.201,44.141 133.2,43.969 133.252,43.813 
				133.412,43.896 133.379,44 133.385,44.103 133.416,44.229 133.494,44.34 133.58,44.47 133.674,44.574 133.784,44.682 
				133.866,44.781 133.854,44.777 			"/>
			<polygon clip-path="url(#SVGID_6_)" fill-rule="evenodd" clip-rule="evenodd" points="135.326,45.37 135.34,45.375 135.11,45.37 
				134.895,45.37 134.691,45.332 134.497,45.31 134.299,45.258 134.112,45.166 133.918,45.059 133.736,44.911 133.854,44.777 
				134.03,44.895 134.199,44.994 134.358,45.075 134.531,45.12 134.723,45.153 134.916,45.176 135.115,45.184 135.318,45.18 
				135.312,45.192 135.346,45.361 			"/>
			<polygon clip-path="url(#SVGID_6_)" fill-rule="evenodd" clip-rule="evenodd" points="152.194,44.485 152.121,44.534 
				135.344,45.361 135.313,45.192 152.096,44.352 152.021,44.399 			"/>
			<polygon clip-path="url(#SVGID_6_)" fill-rule="evenodd" clip-rule="evenodd" points="152.593,43.898 152.775,43.959 
				152.761,44.085 152.727,44.188 152.675,44.3 152.605,44.378 152.516,44.435 152.398,44.481 152.27,44.524 152.121,44.534 
				152.096,44.352 152.234,44.326 152.359,44.295 152.42,44.288 152.48,44.235 152.51,44.188 152.558,44.132 152.584,44.054 
				152.578,43.938 152.761,43.999 			"/>
			<polygon clip-path="url(#SVGID_6_)" points="133.589,43.969 133.636,44.043 133.697,44.121 133.745,44.194 133.811,44.261 
				133.871,44.336 133.936,44.401 133.995,44.479 134.169,44.608 134.346,44.726 134.523,44.799 134.709,44.847 134.902,44.869 
				135.107,44.906 135.306,44.917 135.521,44.917 152.303,44.074 152.165,44.336 152.111,44.344 152.096,44.352 135.314,45.192 
				135.033,45.171 134.799,45.18 134.579,45.149 134.377,45.11 134.189,45.02 134.023,44.921 133.865,44.781 133.689,44.578 
				133.533,44.396 133.42,44.216 133.365,44.082 133.365,43.995 133.402,43.921 133.511,43.856 133.525,43.853 133.533,43.879 			
				"/>
			<path clip-path="url(#SVGID_6_)" d="M152.773,43.959l-0.016-0.163l-0.035-0.113l-0.047-0.159l-0.113-0.183l-0.137-0.146
				l-0.178-0.161l-0.213-0.143l-0.238-0.107l-0.248-0.067l-0.305-0.002l-17.239,0.875l-0.329,0.034l-0.232,0.052l-0.17,0.116
				l-0.094,0.157l0.004,0.159l0.064,0.194l0.125,0.186l0.173,0.218l0.177,0.202l0.191,0.165l0.202,0.124l0.198,0.095l0.217,0.044
				l0.26,0.043h0.26l0.295-0.017l16.775-0.827v-0.005l0.178-0.009l0.182-0.068l0.119-0.104l0.084-0.116l0.056-0.126L152.773,43.959z
				 M152.579,43.938l-0.021,0.108l-0.008,0.017l-0.014,0.004h-0.087l-0.147,0.009l-0.14,0.261l-0.051,0.008l-0.017,0.008
				l-16.783,0.841l-0.279-0.021l-0.234,0.009l-0.22-0.03l-0.202-0.039l-0.188-0.091l-0.168-0.099l-0.155-0.14l-0.179-0.203
				l-0.154-0.182l-0.113-0.181l-0.055-0.134v-0.087l0.038-0.074l0.108-0.064l0.014-0.004l0.189-0.044L134,43.775l17.244-0.889
				l0.014,0.004l0.241,0.009l0.237,0.065l0.213,0.1l0.181,0.104l0.151,0.151l0.107,0.152l0.096,0.146l0.074,0.125l0.013,0.092
				L152.579,43.938z"/>
		</g>
		<line fill="#919396" x1="0" y1="269.912" x2="0" y2="-0.088"/>
		<g>
			<defs>
				<line id="SVGID_7_" x1="0" y1="-0.088" x2="0" y2="269.912"/>
			</defs>
			<clipPath id="SVGID_8_">
				<use xlink:href="#SVGID_7_"  overflow="visible"/>
			</clipPath>
		</g>
		<g>
			<defs>
				<line id="SVGID_9_" x1="0" y1="-0.088" x2="0" y2="269.912"/>
			</defs>
			<clipPath id="SVGID_10_">
				<use xlink:href="#SVGID_9_"  overflow="visible"/>
			</clipPath>
		</g>
		<g>
			<defs>
				<line id="SVGID_11_" x1="0" y1="-0.088" x2="0" y2="269.912"/>
			</defs>
			<clipPath id="SVGID_12_">
				<use xlink:href="#SVGID_11_"  overflow="visible"/>
			</clipPath>
		</g>
	</g>
</g>
<g id="white_background">
	<rect x="20.5" y="19.912" fill="#FFFFFF" width="157.5" height="229"/>
</g>
<g id="images">
	<g id="layer2_4_">
		<g id="g2843_2_" transform="matrix(1.3442815,0,0,1.3442815,2.3043024,60.255529)">
			
				<radialGradient id="path3099_3_" cx="-550.6538" cy="276.8281" r="8.719" gradientTransform="matrix(0 5.4396 1.9126 0 -487.0334 3015.0085)" gradientUnits="userSpaceOnUse">
				<stop  offset="0" style="stop-color:#000000"/>
				<stop  offset="1" style="stop-color:#000000;stop-opacity:0"/>
			</radialGradient>
			<path id="path3099_2_" opacity="0.4091" fill="url(#path3099_3_)" enable-background="new    " d="M42.426,54.953
				c-6.85,0-12.404-15.795-12.404-35.28c0-19.484,5.554-35.28,12.404-35.28c6.851,0,12.405,15.796,12.405,35.28
				C54.831,39.158,49.277,54.953,42.426,54.953z"/>
			
				<path id="path1650_2_" fill="#EE8B22" stroke="#A25525" stroke-width="0.8839" stroke-linecap="round" stroke-linejoin="round" d="
				M75.757,54.375c-19.156,0-34.684-15.529-34.684-34.685c0-19.157,15.528-34.685,34.684-34.685
				c19.157,0,34.685,15.529,34.685,34.685C110.442,38.845,94.913,54.375,75.757,54.375z"/>
			
				<path id="path3392_2_" fill="#EE8B22" stroke="#ECB652" stroke-width="0.8839" stroke-linecap="round" stroke-linejoin="round" d="
				M75.909,53.486c-18.536,0-33.562-15.027-33.562-33.564c0-18.536,15.026-33.563,33.562-33.563s33.562,15.027,33.562,33.563
				C109.471,38.459,94.445,53.486,75.909,53.486z"/>
			<path id="path3068_3_" fill="#F7C36A" fill-opacity="0.2139" d="M77.303,52.019c-18.069,0,7.184-10.096-0.644-31.156
				c-7.891-21.226-17.425-34.312,0.644-34.312s32.733,14.665,32.733,32.733C110.037,37.355,95.372,52.019,77.303,52.019z"/>
			<path fill="#FFFFFF" d="M68.023,16.269l1.441-0.11c2.882-0.277,5.931,0.721,9.089,3.325c2.494,2.106,4.433,3.492,6.595,3.492
				c2.328,0,3.879-1.441,3.935-4.545c0-1.939-0.609-4.156-1.663-5.542l4.877-1.662c1.274,1.995,2.272,5.209,2.272,8.701
				c0,6.872-3.99,10.032-8.423,10.032c-3.991,0-6.762-2.439-9.477-4.822c-2.55-2.16-4.821-3.048-7.482-2.938l-1.164,0.057V16.269z"
				/>
			<path id="path2062_2_" fill="#FFFFFF" d="M61.1,23.636c-2.122,0-3.842-1.72-3.842-3.843c0-2.122,1.72-3.843,3.842-3.843
				c2.122,0,3.843,1.721,3.843,3.843C64.943,21.916,63.222,23.636,61.1,23.636z"/>
			<path fill="#231F20" fill-opacity="0.2" d="M78.024,26.305c-0.224-1.725-0.657-3.538-1.365-5.442
				c-0.446-1.198-0.896-2.365-1.347-3.51c-2.009-1-3.965-1.376-5.848-1.195l-1.441,0.11v5.986l1.164-0.057
				c2.66-0.11,4.932,0.777,7.482,2.938C77.117,25.529,77.568,25.921,78.024,26.305z"/>
			<path id="path2062_6_" fill="#231F20" fill-opacity="0.2" d="M61.1,23.636c-2.122,0-3.842-1.72-3.842-3.843
				c0-2.122,1.72-3.843,3.842-3.843c2.122,0,3.843,1.721,3.843,3.843C64.943,21.916,63.222,23.636,61.1,23.636z"/>
		</g>
	</g>
</g>
<g id="text">
	<rect x="59.389" y="124.479" fill="none" width="85.787" height="127.392"/>
	<text transform="matrix(0 1 -1 0 114.6074 151.5449)"><tspan x="0" y="0" fill="#231F20" font-family="'HelveticaNeue-CondensedBold'" font-size="20">honeypot </tspan><tspan x="16.461" y="22" fill="#231F20" font-family="'HelveticaNeue-CondensedBold'" font-size="20">audit</tspan></text>
</g>
<g id="presentation_borders">
	<path fill="#231F20" d="M189,257.099v-244c0-2.209-1.791-4-4-4H13c-2.21,0-4,1.791-4,4v244c0,2.211,1.79,4,4,4h172
		C187.209,261.099,189,259.31,189,257.099z M25.736,247.642c-1.882,0-3.402-1.598-3.402-3.574V25.966
		c0-1.977,1.521-3.574,3.402-3.574h146.445c1.879,0,3.402,1.598,3.402,3.574v218.102c0,1.977-1.523,3.574-3.402,3.574H25.736z"/>
</g>
<g id="print_borders" display="none">
	<path display="inline" fill="#231F20" d="M0-0.091h198v270H0V-0.091z M22.375,243.96c0,1.977,1.521,3.574,3.402,3.574h146.445
		c1.879,0,3.402-1.598,3.402-3.574V25.858c0-1.977-1.523-3.574-3.402-3.574H25.777c-1.882,0-3.402,1.598-3.402,3.574V243.96z"/>
</g>
<g id="TGC_x5F_Poker_x5F_Template_and_guides" display="none">
	<g id="_x3C_Group_x3E__Guides_one_card_12_" display="inline">
		<g opacity="0.5">
			<g>
				<path fill="#F05A28" d="M0-0.088v270h198v-270H0z M189.04,256.993c0,2.211-1.791,4-4,4h-172c-2.21,0-4-1.789-4-4v-244
					c0-2.209,1.79-4,4-4h172c2.209,0,4,1.791,4,4V256.993z"/>
			</g>
		</g>
		<path fill="none" stroke="#EA222A" d="M189.04,256.993c0,2.211-1.791,4-4,4h-172c-2.21,0-4-1.789-4-4v-244c0-2.209,1.79-4,4-4h172
			c2.209,0,4,1.791,4,4V256.993z"/>
		<path fill="none" stroke="#2BA4DD" stroke-dasharray="1.44,1.44" d="M179.534,248.087c0,2.155-1.714,3.899-3.828,3.899H21.622
			c-2.114,0-3.828-1.744-3.828-3.899V21.898c0-2.153,1.714-3.899,3.828-3.899h154.084c2.114,0,3.828,1.746,3.828,3.899V248.087z"/>
		<rect y="76.684" fill="#F9A51B" width="27.001" height="27"/>
		<rect x="63.127" y="-0.088" fill="#F9A51B" width="27.002" height="27"/>
		
			<rect x="35.686" y="35.153" fill="none" stroke="#00ADEE" stroke-width="0.5" stroke-dasharray="8,2" width="126.281" height="198.555"/>
		
			<rect x="44.719" y="44.971" fill="none" stroke="#6D6E70" stroke-width="0.5" stroke-dasharray="8,2" width="108.281" height="179.788"/>
	</g>
</g>
</svg>
